<svg xmlns="http://www.w3.org/2000/svg" xmlns:lucid="lucid" width="100" height="100"><g lucid:page-tab-id="0_0" stroke="#000" stroke-opacity="0"><path d="M100 50c0 27.6-22.4 50-50 50S0 77.6 0 50 22.4 0 50 0s50 22.4 50 50z" fill="#fff"/><path d="M39.32 53.1c-1.8-1.67-2.94-4.2-2.94-6.95 0-5.28 4.2-9.47 9.47-9.47 5.26 0 9.47 4.2 9.47 9.47 0 2.74-1.13 5.16-2.94 6.84 1.17.64 2.23 1.47 3.15 2.4 1.27 1.28 2.32 2.76 2.95 4.44V45.2c0-2.94 2.44-5.36 5.4-5.36h3.02V31.4H24.8v29.5h8c1.18-3.36 3.5-6.22 6.52-7.8z" fill="#0d9dda"/><path d="M34.32 38.8c-1.17 0-2.1.95-2.1 2.1V43c0 1.16-.95 2.1-2.1 2.1-1.17 0-2.12-.95-2.12-2.1v-2.1c0-3.46 2.84-6.3 6.32-6.3 1.15 0 2.1.95 2.1 2.1 0 1.16-.95 2.1-2.1 2.1z" fill="#0d9dda"/><path d="M51.1 46.15c0-2.94-2.3-5.25-5.25-5.25-2.94 0-5.25 2.3-5.25 5.25 0 2.94 2.3 5.25 5.25 5.25 2.94 0 5.25-2.3 5.25-5.25zM45.8 55.6c-3.67 0-6.93 2.1-8.5 5.26h16.9c-.42-.95-1.05-1.8-1.8-2.53-1.66-1.78-4.08-2.73-6.6-2.73z" fill="#fff"/><path d="M74.14 44H63.85c-.63 0-1.15.53-1.15 1.16v22.98c0 .63.52 1.16 1.15 1.16h10.2c.6 0 1.14-.53 1.14-1.16V45.16c.1-.63-.44-1.16-1.06-1.16z" fill="#0d9dda"/><path d="M69 67.2c-1.15 0-2.1-.94-2.1-2.1 0-1.15.95-2.1 2.1-2.1.74 0 1.48.42 1.8 1.05.2.32.3.63.3 1.06 0 1.16-.94 2.1-2.1 2.1z" fill="#0d9dda"/><path d="M74.1 39.84h-3V29.28c0-1.15-.93-2.08-2.1-2.08H22.7c-1.18 0-2.12.93-2.12 2.08v33.7c0 1.17.94 2.1 2.12 2.1h21.05v3.14h-5.3c-1.17 0-2.1.97-2.1 2.13s.93 2.1 2.1 2.1l5.3-.02H53.24c1.1 0 2.05-.92 2.05-2.08 0-1.16-.95-2.13-2.07-2.13h-5.3v-3.15h10.54v3.06c0 2.96 2.4 5.37 5.35 5.37h10.23c2.94 0 5.35-2.4 5.35-5.37V45.2c.12-2.95-2.3-5.36-5.3-5.36z" fill="#032d60"/><path d="M75.3 68.14c0 .63-.52 1.16-1.15 1.16h-10.2c-.63 0-1.15-.53-1.15-1.16V45.16c0-.63.52-1.16 1.15-1.16h10.2c.63 0 1.15.53 1.15 1.16v22.98z" fill="#0d9dda"/><path d="M26.9 60.9h-2.1V31.4h42.1v8.44H63.87c-2.95 0-5.4 2.42-5.4 5.37v14.64c-.62-1.56-1.67-3.16-2.94-4.43-.92-.93-1.98-1.76-3.15-2.4 1.8-1.7 2.94-4.22 2.94-6.85 0-5.28-4.2-9.47-9.47-9.47-5.26 0-9.47 4.2-9.47 9.47 0 2.74 1.13 5.16 2.94 6.96-3.03 1.7-5.47 4.44-6.52 7.8h-5.9z" fill="#0d9dda"/><path d="M40.6 46.15c0-2.94 2.3-5.25 5.25-5.25 2.94 0 5.25 2.3 5.25 5.25 0 2.94-2.3 5.25-5.25 5.25-2.94 0-5.25-2.3-5.25-5.25zM37.3 60.86c1.58-3.16 4.73-5.26 8.5-5.26 2.52 0 4.93.95 6.7 2.73.75.74 1.38 1.58 1.8 2.53h-17zM69 63c-1.15 0-2.1.95-2.1 2.1 0 1.16.95 2.1 2.1 2.1 1.16 0 2.1-.94 2.1-2.1 0-.42-.1-.73-.3-1.05-.32-.63-1.06-1.05-1.8-1.05zM34.32 34.6c-3.48 0-6.32 2.84-6.32 6.3V43c0 1.16.95 2.1 2.1 2.1 1.17 0 2.1-.95 2.1-2.1v-2.1c0-1.15.95-2.1 2.12-2.1 1.15 0 2.1-.94 2.1-2.1 0-1.16-.95-2.1-2.1-2.1z" fill="#fff"/></g></svg>