<svg xmlns="http://www.w3.org/2000/svg" xmlns:lucid="lucid" width="100" height="100"><g lucid:page-tab-id="0_0" stroke="#000" stroke-opacity="0"><path d="M100 50c0 27.6-22.4 50-50 50S0 77.6 0 50 22.4 0 50 0s50 22.4 50 50z" fill="#fff"/><path d="M39.43 50c0-2.28.65-4.34 1.85-6.08-1.52-.98-3.27-1.52-5.1-1.52-5.43 0-9.78 4.34-9.78 9.76v4.34h15.2c-1.3-1.85-2.17-4.02-2.17-6.5z" fill="#fff"/><path d="M64.43 42.4c-1.84 0-3.7.54-5.1 1.52 1.2 1.74 1.84 3.8 1.84 6.07 0 2.48-.86 4.65-2.17 6.5h15.2v-4.34c0-5.42-4.35-9.76-9.77-9.76z" fill="#ff784f"/><path d="M71.43 39.94c2.37-1.94 3.9-5 3.9-8.34 0-6-4.87-10.88-10.86-10.88-5.98 0-10.84 4.88-10.84 10.88 0 3.35 1.52 6.4 3.9 8.34-.57.36-.96.53-1.42 1-1.63-1.1-3.6-1.76-5.75-1.76s-4.12.65-5.76 1.65c-.46-.36-.97-.65-1.42-1 2.37-1.94 3.9-5 3.9-8.35 0-6-4.87-10.88-10.86-10.88-5.98 0-10.84 5-10.84 11 0 3.35 1.52 6.4 3.9 8.34-4.24 2.42-7.18 7.06-7.18 12.3v6.52c0 1.18.96 2.18 2.15 2.18h15.87c-2.37 2.47-3.9 5.94-3.9 9.76v6.52c0 1.18.97 2.18 2.15 2.18h23.96c1.18 0 2.14-1 2.14-2.18V70.7c0-3.82-1.52-7.3-3.9-9.76h15.88c1.2 0 2.15-1 2.15-2.18v-6.53c0-5.23-2.94-9.87-7.17-12.3z" fill="#d83a00"/><path d="M60.1 70.66V75H40.5v-4.34c0-5.42 4.35-9.76 9.8-9.76 5.45 0 9.8 4.34 9.8 9.76z" fill="#d83a00"/><path d="M26.4 52.16c0-5.42 4.35-9.76 9.77-9.76 1.84 0 3.7.54 5.1 1.52-1.2 1.74-1.84 3.8-1.84 6.07 0 2.48.86 4.65 2.17 6.5H26.4v-4.34z" fill="#fff"/><path d="M36.2 38c3.6 0 6.5-2.9 6.5-6.5S39.8 25 36.2 25s-6.5 2.9-6.5 6.5 2.9 6.5 6.5 6.5zM50.3 43.5c.98 0 1.85.22 2.6.54.65.33 1.3.66 1.85 1.2.53.56 1.07 1.2 1.4 1.86.43.87.65 1.85.65 2.95 0 1.96-.87 3.7-2.17 4.9-.65.55-1.4.98-2.16 1.3-.65.23-1.42.45-2.17.45s-1.52-.1-2.17-.44c-.76-.33-1.5-.76-2.16-1.3-1.3-1.2-2.17-2.95-2.17-4.9 0-1.1.22-2.1.75-2.96.33-.66.88-1.3 1.42-1.86.53-.54 1.08-.87 1.83-1.2.65-.32 1.52-.54 2.5-.54z" fill="#d83a00"/><path d="M74.2 56.5H59c1.4-1.85 2.17-4.02 2.17-6.5 0-2.28-.65-4.34-1.85-6.08 1.52-.98 3.27-1.52 5.1-1.52 5.43 0 9.78 4.34 9.78 9.76v4.34z" fill="#ff784f"/><path d="M64.4 38c3.6 0 6.5-2.9 6.5-6.5S68 25 64.4 25s-6.5 2.9-6.5 6.5 2.9 6.5 6.5 6.5z" fill="#d83a00"/><path d="M40.5 70.66V75h19.6v-4.34c0-5.42-4.35-9.76-9.8-9.76-5.45 0-9.8 4.34-9.8 9.76zM44.55 47.1c-.53.87-.75 1.85-.75 2.95 0 1.96.87 3.7 2.17 4.9.65.55 1.4.98 2.16 1.3.65.23 1.42.45 2.17.45s1.52-.1 2.17-.44c.75-.33 1.5-.76 2.16-1.3 1.3-1.2 2.17-2.95 2.17-4.9 0-1.1-.22-2.1-.75-2.96-.33-.66-.87-1.3-1.42-1.86-.53-.54-1.08-.87-1.83-1.2-.65-.32-1.52-.54-2.5-.54s-1.85.22-2.6.54c-.65.33-1.3.66-1.85 1.2-.53.56-.97 1.2-1.3 1.86zM36.2 38c3.6 0 6.5-2.9 6.5-6.5S39.8 25 36.2 25s-6.5 2.9-6.5 6.5 2.9 6.5 6.5 6.5z" fill="#ff784f"/><path d="M64.4 38c3.6 0 6.5-2.9 6.5-6.5S68 25 64.4 25s-6.5 2.9-6.5 6.5 2.9 6.5 6.5 6.5z" fill="#fff"/></g></svg>