<svg xmlns="http://www.w3.org/2000/svg" xmlns:lucid="lucid" width="100" height="100"><g lucid:page-tab-id="0_0" stroke="#000" stroke-opacity="0" stroke-width="2.34"><path d="M100 50c0 27.6-22.4 50-50 50S0 77.6 0 50 22.4 0 50 0s50 22.4 50 50z" fill="#8a033e"/><path d="M50.53 37.27l-.54.54-.54-.53c-2.7-2.5-6.6-2.5-9.28 0-2.5 2.5-2.5 6.8 0 9.3l8.37 8.4c.72.7 1.98.7 2.7 0l8.37-8.4c2.5-2.5 2.5-6.8 0-9.3-2.48-2.5-6.6-2.5-9.1 0zm6.42 6.43L50 50.86l-6.97-6.98c-1.06-1.06-1.06-2.67 0-3.74 1.07-1.08 2.67-1.08 3.74 0l1.97 1.95c.72.72 1.97.72 2.67 0l1.98-1.96c1.07-1.08 2.67-1.08 3.76 0 .88.9.88 2.5-.2 3.56.2 0 .2 0 0 0z" fill="#fff"/><path d="M50.04 22.7c-11.27 0-20.54 9.1-20.54 20.55 0 4.27 1.23 8.38 3.73 11.78l.2.17L48.4 76.68c.57.87 1.8 1.04 2.7.5.17-.17.33-.34.54-.5l15-21.48.17-.17c6.45-9.26 4.27-21.97-5-28.6-3.4-2.47-7.5-3.73-11.76-3.73zM63.4 52.9l-.16.16-13.2 18.96L36.8 53.28c0-.22-.17-.22-.17-.4-5.33-7.33-3.73-17.85 3.57-23.22 7.34-5.37 17.88-3.73 23.2 3.56 4.3 5.92 4.3 13.76 0 19.67z" fill="#fff"/></g></svg>