<svg xmlns="http://www.w3.org/2000/svg" xmlns:lucid="lucid" width="100" height="100"><g lucid:page-tab-id="0_0" stroke="#000" stroke-opacity="0" stroke-width="2.34"><path d="M100 50c0 27.6-22.4 50-50 50S0 77.6 0 50 22.4 0 50 0s50 22.4 50 50z" fill="#0b827c"/><path d="M75.33 29.5H24.67c-1.1 0-1.97.9-1.97 1.97v37.16c0 1.07.87 1.97 1.97 1.97h50.66c1.1 0 1.97-.9 1.97-1.97V31.47c0-1.07-.87-1.97-1.97-1.97zm-1.96 31.8L61.07 50.6l12.3-8.6v19.33zm0-27.85v3.9L50 53.63 26.63 37.35v-3.9h46.74zM26.63 42l12.3 8.58-12.3 10.73V42zm0 24.65v-.32l.16-.2 15.17-13.4 6.77 4.64c.7.53 1.64.53 2.13 0l6.83-4.65 15.5 13.4c.17 0 .17.2.33.2v.33h-46.9z" fill="#fff"/></g></svg>