<svg xmlns="http://www.w3.org/2000/svg" xmlns:lucid="lucid" width="100" height="100"><g lucid:page-tab-id="0_0" stroke="#000" stroke-opacity="0" stroke-width="2.34"><path d="M100 50c0 27.6-22.4 50-50 50S0 77.6 0 50 22.4 0 50 0s50 22.4 50 50z" fill="#0b827c"/><path d="M77.92 40.5l-11.45-3.56c.18-.38.36-.88.55-1.26.54-1.46.67-3.05.67-4.63 0-7.67-6.23-13.95-13.9-13.95s-13.95 6.28-13.95 13.95c0 1.58.2 3.17.73 4.63.37 1.07.86 2.34 1.6 3.74l-2.5.88-18.04-5.7c-.73-.2-1.46-.2-2.13.38-.53.32-.9 1.08-.9 1.96v35.2c0 1.07.73 1.96 1.58 2.27l18.76 5.9c.18 0 .55.2.73.2.18 0 .55 0 .73-.2l18.03-5.7 18.02 5.7c.2 0 .55.2.74.2.53 0 .9-.2 1.4-.5.53-.4.9-1.1.9-1.97v-35.2c0-1.07-.55-1.96-1.58-2.34zM44.85 34.2c-.37-1.02-.55-2.1-.55-3.17 0-5.2 4.32-9.5 9.5-9.5s9.44 4.3 9.44 9.5c0 1.08-.18 2.15-.55 3.17-.2.38-.37.95-.5 1.46-.36.7-.73 1.4-1.1 2.15-.17.2-.17.32-.36.5-.73 1.28-1.4 2.67-2.3 4.13v.2c-.74 1.26-1.6 2.65-2.33 3.73v.18c-.9 1.4-1.63 2.47-2.3 3.36-1.28-1.58-3.04-4.63-4.8-7.67-.38-.7-.74-1.4-1.3-2.16l-1.1-2.08c-.66-1.46-1.4-2.85-1.75-3.8zm1.58 12.68c5.24 8.62 6.27 8.62 7.37 8.62.55 0 1.22 0 2.3-1.27V70.3l-13.93 4.5V44.42l2.5-.7c.54 1.08 1.27 2.28 1.76 3.17zm28.44 27.7l-13.94-4.43v-22.7c.18-.2.18-.38.36-.57 1.03-1.6 2.12-3.74 3.22-5.7l10.53 3.23V74.6zM23.4 40.1l13.96 4.52V74.8L23.4 70.3V40.1z" fill="#fff"/><path d="M58.4 31.04c0-2.5-2.16-4.64-4.66-4.64s-4.64 2.15-4.64 4.64c0 2.5 2.15 4.65 4.64 4.65h.72c.35 0 .72-.2 1.25-.36 1.62-.72 2.7-2.33 2.7-4.3z" fill="#fff"/></g></svg>