<svg xmlns="http://www.w3.org/2000/svg" xmlns:lucid="lucid" width="100" height="100"><g lucid:page-tab-id="0_0" stroke="#000" stroke-opacity="0" stroke-width="2.34"><path d="M100 50c0 27.6-22.4 50-50 50S0 77.6 0 50 22.4 0 50 0s50 22.4 50 50z" fill="#e4a201"/><path d="M65.5 26.1H42.65c-4.6 0-8.35 3.74-8.35 8.4-4.66 0-8.4 3.74-8.4 8.35V65.7c0 4.66 3.74 8.4 8.4 8.4h22.85c4.6 0 8.35-3.74 8.35-8.4 4.66 0 8.4-3.74 8.4-8.35V34.5c0-4.66-3.74-8.4-8.4-8.4zm4.13 31.25c0 2.3-1.78 4.08-4.13 4.08H42.65c-2.3 0-4.08-1.78-4.08-4.08V34.3c0-2.3 1.78-4.07 4.08-4.07H65.5c2.35 0 4.13 1.77 4.13 4.08v23.05zM57.3 69.65H34.43c-2.3 0-4.08-1.8-4.08-4.1V42.72c0-2.34 1.78-4.12 4.08-4.12v18.77c0 4.6 3.8 8.35 8.4 8.35h18.72c-.14 2.16-1.92 3.94-4.27 3.94z" fill="#fff"/><path d="M63.57 43.77h-7.33v-7.35c0-1.06-.88-2.13-2.13-2.13-1.07 0-2.13.88-2.13 2.13v7.33h-7.34c-1.06 0-2.13.88-2.13 2.13 0 1.07.88 2.13 2.13 2.13h7.34v7.34c0 1.06.88 2.13 2.13 2.13 1.07 0 2.13-.88 2.13-2.13v-7.34h7.35c1.06 0 2.13-.88 2.13-2.13-.2-1.25-1.07-2.13-2.13-2.13z" fill="#fff"/></g></svg>