<svg xmlns="http://www.w3.org/2000/svg" xmlns:lucid="lucid" width="100" height="100"><g lucid:page-tab-id="0_0" stroke="#000" stroke-opacity="0" stroke-width="2.34"><path d="M100 50c0 27.6-22.4 50-50 50S0 77.6 0 50 22.4 0 50 0s50 22.4 50 50z" fill="#032d60"/><path d="M33.32 57.45c0 3.38-2.66 6.05-6.05 6.05-3.38 0-5.87-2.67-5.87-6.05s2.67-6.05 6.05-6.05h6.05v6.05zM36.4 57.47c0-3.4 2.67-6.07 6.05-6.07s6.05 2.68 6.05 6.07v14.96c0 3.4-2.67 6.07-6.05 6.07s-6.05-2.68-6.05-6.07V57.47zM42.45 33.3c-3.38 0-6.05-2.67-6.05-6.05s2.67-6.05 6.05-6.05 6.05 2.67 6.05 6.05v6.05h-6.05zM42.43 36.4c3.4 0 6.07 2.67 6.07 6.05s-2.68 6.05-6.07 6.05H27.47c-3.4 0-6.07-2.67-6.07-6.05s2.68-6.05 6.07-6.05h14.96zM66.6 42.45c0-3.38 2.67-6.05 6.05-6.05s6.05 2.67 6.05 6.05-2.67 6.05-6.05 6.05H66.6v-6.05zM63.5 42.43c0 3.4-2.67 6.07-6.05 6.07s-6.05-2.68-6.05-6.07V27.47c0-3.4 2.67-6.07 6.05-6.07s6.05 2.68 6.05 6.07v14.96zM57.45 66.58c3.38 0 6.05 2.66 6.05 6.05 0 3.38-2.67 5.87-6.05 5.87s-6.05-2.67-6.05-6.05V66.4h6.05zM57.47 63.5c-3.4 0-6.07-2.67-6.07-6.05s2.68-6.05 6.07-6.05h14.96c3.4 0 6.07 2.67 6.07 6.05s-2.68 6.05-6.07 6.05H57.47z" fill="#fff"/></g></svg>