<svg xmlns="http://www.w3.org/2000/svg" xmlns:lucid="lucid" width="100" height="100"><g lucid:page-tab-id="0_0" stroke="#000" stroke-opacity="0" stroke-width="2.34"><path d="M100 50c0 27.6-22.4 50-50 50S0 77.6 0 50 22.4 0 50 0s50 22.4 50 50z" fill="#032d60"/><path d="M55.3 50.4l-3.2 4.45h12.1l-6.05-8.75-2.84 4.3zM46.96 41.42L45.88 40l-5.17 7.5-5 7.3h11.43l4.47-6.42-4.64-6.96z" fill-opacity="0"/><path d="M50.86 18.92c-.52-.18-1.1-.18-1.62 0-17.13 7.3-28.2 24.3-28.04 43.02v4.1c0 .74.35 1.26.92 1.6 8.2 5.53 17.83 8.6 27.8 8.76h1.28c9.47-.35 18.76-3.4 26.78-8.58.57-.35.92-1.04.92-1.62v-4.08c.17-18.9-10.9-35.9-28.04-43.2zm-15.7 15.2c6.93-8.4 14.77-11.06 14.77-11.06 1.62.7 20.37 8 24.12 31.74h-4.8v-.17l-9.28-13.37c-.75-.92-1.96-1.26-2.88-.57-.18.16-.36.4-.53.56L54.1 44.6 47.44 35c-.7-.88-1.96-1.28-2.82-.53-.23.17-.4.34-.58.52l-13.4 19.63v.17h-4.78c1.4-8.93 5.14-15.72 9.3-20.68zM64.24 54.8H52.3l3-4.44 2.9-4.32 6.04 8.76zm-18.4 0H35.68l4.96-7.32 5.2-7.66 1.1 1.44 4.6 6.92-4.43 6.45-1.26.17zm-6.58 16.07C34.24 69.6 29.62 67.64 25.3 65v-3.06c0-1.1 0-2.13.17-3.05h21.28c-1.6 2.52-.92 5.92 1.8 7.48.16.23.34.23.68.4l1.96.86c.75.35.93 1.1.75 1.62v.17l-1.78 3.05c-3.76-.17-7.16-.75-10.9-1.6zM74.63 65c-3.06 1.95-6.46 3.4-9.87 4.6 0 0-.52.18-.86.35-1.96.57-3.93 1.1-5.9 1.44-1.08.16-2.3.33-3.4.56l.35-.57c1.45-2.66.52-5.9-1.96-7.33-.18-.17-.35-.17-.53-.17l-1.96-.86c-.74-.4-.9-1.1-.74-1.62 0-.17.17-.17.17-.34l1.8-2.2H74.46c0 1.1.16 2.2.16 3.06V65z" fill="#fff"/><path d="M45.9 39.8v.18l1.07 1.43-1.07-1.6z" fill="#8dd1f3"/><path d="M60.7 65.5h6.25l-3.2-3.4-3.05 3.4zM36.2 68.07h6.07l-3.04-3.57-3.03 3.57zM33.23 60.9l-3.03 3.4h6.07l-3.04-3.4z" fill="#fff"/></g></svg>