<svg xmlns="http://www.w3.org/2000/svg" xmlns:lucid="lucid" width="100" height="100"><g lucid:page-tab-id="0_0" stroke="#000" stroke-opacity="0" stroke-width="2.34"><path d="M50 0C22.4 0 0 22.4 0 50s22.4 50 50 50 50-22.4 50-50S77.6 0 50 0z" fill="#032d60"/><path d="M37.46 59.86c.34.17.7.17 1.03.17.34 0 .7 0 1.03-.17 1.72-.52 2.93-1.9 2.93-3.8 0-1.72-1.2-3.27-2.93-3.8-.34-.16-.7-.16-1.04-.16-.35 0-.7 0-1.04.17-.87.17-1.55.7-2.07 1.38-.53.7-.7 1.38-.7 2.24 0 .85.34 1.72.7 2.23.33 1.04 1.2 1.56 2.06 1.73zM45.73 47.94h7.75c-.33-1.37-.33-2.93.2-4.15h-7.95c-1.2 0-2.1-.85-2.1-2.07 0-1.2.9-2.06 2.1-2.06h8.44c.7 0 1.4.35 1.74 1.03l4.5-5.52V27.1H39.5v21c1.55.18 3.1.87 4.33 1.9 0-1.37.85-2.06 1.9-2.06zm0-16.88h8.44c1.2 0 2.1.87 2.1 2.06 0 1.22-.9 2.06-2.1 2.06h-8.44c-1.2 0-2.1-.84-2.1-2.06 0-1.2 1.05-2.06 2.1-2.06zM39.43 64.47c-.34 0-.68-.17-1.03-.17s-.7 0-1.03.17c-.7.18-1.55.35-2.07.7-1.9 1.02-3.1 3.1-3.1 5.34v2.25h12.4v-2.07c0-3.1-2.24-5.7-5.17-6.2zM54.1 52.04h-8.44-.18c.7 1.2 1.03 2.58 1.03 3.95v.16h7.42c1.2 0 2.07.87 2.07 2.07 0 1.2-.87 2.08-2.08 2.08h-8.78c-.34.5-.7 1.03-1.04 1.38 1.04.7 2.07 1.7 2.75 2.75h7.07c1.2 0 2.07.87 2.07 2.06 0 1.2-.87 2.08-2.08 2.08H48.6c.15.5.15 1.2.15 1.7v2.42H60.3v-16L55.47 51c-.18.87-.68 1.04-1.37 1.04zM77.44 43.96H64.14l.7-.87 2.6-3.45c.67-.86.67-2.23-.18-2.93-.35-.35-.86-.52-1.38-.52-.35 0-.68.17-1.03.35-.18.17-.35.17-.53.34l-1.55 1.9-2.06 2.57-2.57 3.28c-.53.68-.7 1.55-.35 2.24.17.17.17.32.35.5l2.58 3.1 2.07 2.4 1.55 1.9c.18.18.35.35.53.35.35.18.68.35 1.03.35.52 0 1.03-.17 1.38-.52.85-.68 1.03-2.07.17-2.93l-2.58-3.1-.7-.7H77.45c1.2 0 2.05-.86 2.05-2.05 0-1.22-.85-2.24-2.06-2.24z" fill-opacity="0"/><path d="M45.67 35.14h8.46c1.2 0 2.07-.86 2.07-2.07 0-1.2-.86-2.07-2.07-2.07h-8.46c-1.2 0-2.07.86-2.07 2.07 0 1.2 1.03 2.07 2.07 2.07z" fill="#fff"/><path d="M77.43 39.85h-5.37c.5-2.2-.17-4.45-2.07-6.2-1.24-1-2.58-1.55-4.14-1.55-.34 0-.67 0-1.07.16V24.9c0-1.22-.84-2.1-2.07-2.1H37.4c-1.23 0-2.07.88-2.07 2.1v23.75c-3.13 1.2-5.2 4.35-5.2 7.76 0 2.26.9 4.35 2.4 5.9-2.73 1.86-4.63 5.16-4.63 8.8v4.45c0 1.2 1.06 2.25 2.24 2.25H62.73c1.23 0 2.06-.88 2.06-2.1V60.2c.4 0 .72.17 1.06.17 1.56 0 2.9-.5 4.13-1.54 1.73-1.54 2.4-3.8 2.06-5.83h5.37c3.46 0 6.37-2.8 6.37-6.38 0-3.63-2.9-6.77-6.37-6.77zM39.47 26.93H60.5v8.14L56 40.57c-.34-.55-1-1.05-1.74-1.05h-8.44c-1.23 0-2.06.88-2.06 2.1 0 1.2.83 2.03 2.06 2.03h7.94c-.5 1.37-.67 2.75-.17 4.18H46c-1 0-1.9.82-2.06 1.87-1.23-1.05-2.57-1.54-4.3-1.87v-20.9zm-4.3 26.9c.5-.67 1.17-1.22 2.07-1.38.33-.17.67-.17 1-.17.34 0 .73 0 1.06.17 1.74.55 2.9 1.92 2.9 3.8 0 1.7-1.16 3.3-2.9 3.8-.33.15-.72.15-1.06.15-.33 0-.67 0-1-.16-.9-.17-1.57-.66-2.07-1.38-.56-.7-.73-1.37-.73-2.25 0-1.04.34-1.86.73-2.58zm9.44 19.13H32.2V70.7c0-2.2 1.23-4.28 3.13-5.33.68-.33 1.35-.66 2.07-.66.34 0 .67-.15 1-.15.34 0 .74 0 1.07.16 2.9.5 5.14 3.1 5.14 6.23v2.03zm15.9.17H48.96V70.7c0-.65 0-1.15-.22-1.7h5.37c1.23 0 2.07-.88 2.07-2.03 0-1.2-.85-2.1-2.08-2.1h-7.05c-.72-1.04-1.73-2.08-2.8-2.74.34-.4.9-.88 1.07-1.38h8.78c1.23 0 2.07-.88 2.07-2.1 0-1.2-.85-2.08-2.08-2.08h-7.44v-.16c0-1.37-.33-2.74-1-3.95h8.6c.5 0 1.23-.17 1.57-.66l4.8 5.65v15.68zm16.93-24.8H64.1l.67.65 2.62 3.14c.67.88.67 2.25-.17 2.9-.33.34-.9.56-1.4.56-.33 0-.66-.22-1.06-.38-.17-.17-.34-.17-.5-.33L62.72 53l-2.07-2.42-2.57-3.14c-.18-.16-.18-.33-.35-.5-.33-.7-.17-1.53.34-2.25l2.56-3.25 2.07-2.6 1.56-1.9c.16-.18.33-.34.5-.34.4-.16.72-.32 1.06-.32.5 0 1.06.16 1.4.5.83.65 1 2.08.16 2.9l-2.63 3.47-.68.88h13.3c1.17 0 2.07.83 2.07 2.04 0 1.2-.9 2.25-2.07 2.25z" fill="#fff"/></g></svg>