<svg xmlns="http://www.w3.org/2000/svg" xmlns:lucid="lucid" width="100" height="100"><g lucid:page-tab-id="0_0" stroke="#000" stroke-opacity="0" stroke-width="2.34"><path d="M100 50c0 27.6-22.4 50-50 50S0 77.6 0 50 22.4 0 50 0s50 22.4 50 50z" fill="#396547"/><path d="M71.43 60.7h-30.7l-1.06-4.8H69.3c.9 0 1.77-.54 1.98-1.62l4.07-18.55c.2-1.07-.36-2.15-1.43-2.34H35.2l-.88-4.28c-.2-.9-1.06-1.62-1.98-1.62h-5.86c-1.06 0-1.98.9-1.98 1.98 0 1.04.92 1.94 1.98 1.94h4.28l6.06 29.83c-2.85 1.26-4.13 4.64-2.85 7.7 1.22 3 4.83 4.27 7.68 3 2.14-.9 3.57-3 3.57-5.34 0-.7-.2-1.25-.36-1.97h14.46c-.2.54-.36 1.26-.36 1.98 0 3.2 2.65 5.9 5.85 5.9 3.27 0 5.92-2.7 5.92-5.9 0-.7-.15-1.25-.36-1.97h1.07c1.07 0 1.98-.86 1.98-1.94 0-1.1-.9-2-1.97-2zm-.36-23.4L67.87 52h-28.9L35.9 37.3h35.17zM41.3 66.6c0 1.1-.92 1.98-2 1.98-1.06 0-1.97-.9-1.97-1.97 0-1.07.9-1.97 1.98-1.97s2 .9 2 1.98zm25.34 0c0 1.1-.9 1.98-1.98 1.98-1.07 0-2-.9-2-1.97 0-1.07.93-1.97 2-1.97 1.07 0 1.98.9 1.98 1.98z" fill="#fff"/></g></svg>