<svg xmlns="http://www.w3.org/2000/svg" xmlns:lucid="lucid" width="100" height="100"><g lucid:page-tab-id="0_0" stroke="#000" stroke-opacity="0" stroke-width="0"><path d="M100 50c0 27.6-22.4 50-50 50S0 77.6 0 50 22.4 0 50 0s50 22.4 50 50z" fill="#401075"/><path d="M72.45 74.4h-44.9c-1.07 0-1.95-.88-1.95-1.95v-44.9c0-1.07.88-1.95 1.95-1.95h44.9c1.07 0 1.95.88 1.95 1.95v44.9c0 1.07-.88 1.95-1.95 1.95zm-42.9-3.9H70.5v-41h-41l.05 41z" fill="#fff"/><path d="M39.4 66.6l5.35-4.75-5.35-4.7v9.45zm19.25-19.2c-1.57-1.48-3.45-2.2-5.62-2.1-3.04.05-6.07.62-8.94 1.58V33.43h-4.7v20.55l3.34-1.52c3.24-1.43 6.73-2.26 10.3-2.46 2.4 0 2.93 1.33 2.95 2.42v14.15h4.7V52.32c-.04-1.92-.72-3.55-2.05-4.9zm-6.2-6.3h4.67c1.98-2.12 3.22-4.8 3.58-7.7H56c-.58 2.8-1.8 5.45-3.56 7.7z" fill="#fff"/></g></svg>