<svg xmlns="http://www.w3.org/2000/svg" xmlns:lucid="lucid" width="100" height="100"><g lucid:page-tab-id="0_0" stroke="#000" stroke-opacity="0" stroke-width="2.34"><path d="M100 50c0 27.6-22.4 50-50 50S0 77.6 0 50 22.4 0 50 0s50 22.4 50 50z" fill="#dd7a01"/><path d="M77.7 71.1L68 61.44c6.27-10.02 3.24-23.23-6.75-29.5C51.2 25.7 38 28.74 31.73 38.72c-6.2 10.02-3.18 23.22 6.8 29.5 6.62 4.1 14.87 4.45 21.63.7L70 78.75c.7.76 2 .76 2.68 0l4.82-4.95c.9-.77.9-2 .2-2.7zM32.48 50c0-9.66 7.85-17.5 17.5-17.5 9.63 0 17.54 7.84 17.54 17.5 0 4.66-1.8 9.1-5.22 12.35-.7-3.8-3.04-6.98-6.22-8.76 4.08-3.45 4.82-9.52 1.4-13.77-3.38-4.15-9.45-4.86-13.77-1.46-4.07 3.38-4.8 9.5-1.38 13.76.34.55.9 1.06 1.4 1.46-3.2 1.77-5.53 4.95-6.22 8.75-3.23-3.24-5.02-7.7-5.02-12.35zm11.63-3.94c0-3.2 2.7-5.87 5.87-5.87 3.23 0 5.9 2.67 5.9 5.86 0 3.23-2.47 5.92-5.7 5.92-3.38 0-6.06-2.7-6.06-5.92zm-3.08 18.97c0-.2.2-.4.2-.56 0-4.8 3.93-8.75 8.75-8.75s8.75 3.95 8.75 8.75c0 .16 0 .36.2.56-5.52 3.4-12.33 3.4-17.9 0zm30.42 9.46l-8.05-8.05c.7-.7 1.43-1.27 2.13-2.18l7.85 7.9-1.94 2.32z" fill="#fff"/></g></svg>