<svg xmlns="http://www.w3.org/2000/svg" xmlns:lucid="lucid" width="100" height="100"><g lucid:page-tab-id="0_0" stroke="#000" stroke-opacity="0" stroke-width="2.34"><path d="M100 50c0 27.6-22.4 50-50 50S0 77.6 0 50 22.4 0 50 0s50 22.4 50 50z" fill="#00004c"/><path d="M60.42 32.54L50 48.77 39.63 32.5c-9.8 5.8-13.04 18.42-7.28 28.2 2.13 3.58 5.24 6.42 8.96 8.2l1.8-6.6c-4.46-2.17-7.08-6.43-7-11.42 0-2.55.74-5.02 2.17-7.13l8.9 13.47h5.37l8.95-13.47c1.48 2.22 2.17 4.47 2.17 7.13.03 4.62-2.22 8.63-6.18 11l1.8 6.66c10.06-5.25 13.98-17.7 8.75-27.78-1.76-3.42-4.42-6.22-7.7-8.2h.05z" fill="#fff"/><path d="M50 23.2c-14.8 0-26.8 12-26.8 26.8s12 26.8 26.8 26.8 26.8-12 26.8-26.8-12-26.8-26.8-26.8zm0 51.5c-13.56 0-24.5-10.92-24.5-24.5 0-13.55 10.94-24.48 24.5-24.48s24.5 10.93 24.5 24.5c0 13.56-10.94 24.5-24.5 24.5z" fill="#fff"/></g></svg>