<svg xmlns="http://www.w3.org/2000/svg" xmlns:lucid="lucid" width="100" height="100"><g lucid:page-tab-id="0_0" stroke="#000" stroke-opacity="0"><path d="M100 50c0 27.6-22.4 50-50 50S0 77.6 0 50 22.4 0 50 0s50 22.4 50 50z" fill="#fff"/><path d="M77.74 39.33H72.1c.52-2.3-.24-4.72-2.12-6.4-1.18-1.1-2.77-1.67-4.3-1.67-.35 0-.76 0-1.1.12v-7.9c0-1.2-1-2.18-2.25-2.18H35.76c-1.18 0-2.18.98-2.18 2.2v24.93c-3.24 1.32-5.47 4.43-5.47 8.12 0 2.3 1 4.5 2.48 6.05-3 2-4.88 5.47-4.88 9.2v4.8c0 1.32 1 2.3 2.35 2.3h34.28c1.24 0 2.24-.98 2.24-2.2V60.3c.35.1.76.1 1.1.1 1.66 0 3.2-.57 4.3-1.66 1.77-1.55 2.6-3.86 2.24-6.1h5.66c3.64 0 6.64-3 6.64-6.63 0-3.68-3-6.67-6.76-6.67z" fill="#032d60"/><path d="M33.48 54.08c.55-.8 1.33-1.33 2.2-1.56.34-.1.78-.22 1.12-.22.34 0 .78.1 1.1.22 1.78.45 3 2.1 3 4 0 1.88-1.33 3.42-3 3.98-.32.1-.76.22-1.1.22-.34 0-.78-.1-1.1-.22-.9-.23-1.67-.77-2.22-1.56-.56-.65-.78-1.55-.78-2.43 0-.87.34-1.77.78-2.42zM43.5 74.27H30.3v-2.44c0-2.43 1.33-4.54 3.22-5.64.66-.46 1.44-.68 2.22-.8.33-.1.78-.1 1.1-.1.34 0 .8 0 1.12.1 3.1.56 5.43 3.22 5.43 6.43v2.44h.1z" fill="#032d60"/><path d="M60.1 74.5H48v-2.68c0-.63-.1-1.22-.22-1.85-.22-1.66-.9-3.12-1.8-4.43-.77-1.12-1.75-2.1-2.86-2.87.44-.44.78-1.03 1.1-1.47.77-1.3 1.22-2.77 1.33-4.43v-.2c0-1.55-.45-3-1.1-4.23-.55-.97-1.22-1.75-2.1-2.53-1.24-.97-2.78-1.65-4.45-1.84V25.8h22.2v8.42l-4.78 5.85-1.34 1.65c-.45.6-.76 1.13-1.1 1.8-.55 1.42-.66 2.98-.22 4.44.1.3.23.53.34.87.22.54.53.98.87 1.42l.1.14 1.12 1.2 5.1 5.85V74.5h-.1z" fill="#032d60"/><path d="M77.77 48.22H63.85l.67.8 2.76 3.33c.8.87.68 2.3-.2 3.1-.45.33-.9.55-1.45.55-.32 0-.76-.1-1.1-.33-.22-.12-.43-.22-.55-.44l-1.65-1.9-2.2-2.55-2.8-3.33c-.08-.1-.2-.32-.3-.54-.34-.77-.22-1.78.3-2.33l2.8-3.43 2.2-2.66 1.65-2c.12-.23.33-.33.56-.45.34-.23.78-.33 1.1-.33.57 0 1 .22 1.45.55.9.8 1 2.23.2 3.1l-2.74 3.56-.55.9H77.9c1.2 0 2.2 1 2.2 2.2 0 1.23-1.1 2.22-2.33 2.22z" fill="#032d60"/><path d="M77.77 43.8H63.96l.68-.9 2.75-3.54c.77-.9.67-2.33-.2-3.1-.45-.34-1-.56-1.57-.56-.32 0-.76.1-1.1.32-.22.12-.43.23-.55.45l-1.65 2-2.2 2.66-2.8 3.46c-.52.65-.64 1.52-.3 2.3.1.23.22.33.3.56l2.8 3.23 2.2 2.53 1.65 1.9c.12.23.33.33.56.45.34.22.78.32 1.1.32.57 0 1-.22 1.45-.54.9-.8 1-2.23.2-3.12l-2.74-3.33-.55-.66H77.9c1.2 0 2.2-1 2.2-2.22 0-1.2-1.1-2.22-2.33-2.22z" fill="#fff"/><path d="M44.57 47.93h8c-.45-1.44-.34-3 .2-4.44h-8.3c-1.23 0-2.23-1-2.23-2.22 0-1.22 1-2.2 2.22-2.2h8.88c.78 0 1.44.42 1.9.98L60 34.2v-8.4H37.8v22.13c1.67.2 3.22.9 4.44 1.87.33-.98 1.22-1.87 2.33-1.87z" fill="#0d9dda"/><path d="M44.62 30.2h8.86c1.22 0 2.22 1 2.22 2.22 0 1.2-1 2.2-2.22 2.2h-8.86c-1.22 0-2.22-1-2.22-2.2 0-1.22 1-2.22 2.22-2.22zM53.38 52.36H44.41c.67 1.23 1.1 2.67 1.1 4.22v.2h7.85c1.22 0 2.22 1 2.22 2.22 0 1.23-1 2.2-2.23 2.2H44.2c-.32.58-.66 1-1.1 1.47 1.1.77 2.1 1.75 2.87 2.87h7.4c1.22 0 2.22.98 2.22 2.2 0 1.22-1 2.22-2.23 2.22h-5.62c.1.55.22 1.2.22 1.9v2.64H60V57.56l-4.97-5.86c-.44.43-1 .66-1.66.66z" fill="#0d9dda"/><path d="M35.7 60.5c.32.1.76.22 1.1.22.34 0 .78-.1 1.1-.22 1.78-.44 3-2.1 3-4 0-1.88-1.33-3.42-3-3.98-.32-.1-.76-.22-1.1-.22-.34 0-.78.1-1.1.22-.9.23-1.67.77-2.22 1.56-.56.65-.78 1.55-.78 2.43 0 .9.34 1.8.78 2.44.55.8 1.33 1.33 2.2 1.56zM55.64 67.81c0-1.2-1-2.2-2.22-2.2H46c.9 1.33 1.55 2.77 1.77 4.43h5.65c1.23 0 2.22-1 2.22-2.22zM37.96 65.4c-.34-.1-.78-.1-1.1-.1-.35 0-.78 0-1.12.1-.78.12-1.55.46-2.22.8-1.88 1.1-3.22 3.2-3.22 5.63v2.44H43.4v-2.44c.1-3.2-2.33-5.87-5.44-6.42zM44.62 34.63h8.86c1.22 0 2.22-1 2.22-2.2 0-1.23-1-2.23-2.22-2.23h-8.86c-1.22 0-2.22 1-2.22 2.22 0 1.2 1 2.2 2.22 2.2zM53.5 39h-8.88c-1.22 0-2.22 1-2.22 2.22 0 1.2 1 2.2 2.22 2.2h8.34c.22-.65.55-1.2 1.1-1.76L55.4 40c-.34-.56-1.1-1-1.9-1zM53.45 52.32c.67 0 1.22-.22 1.55-.66l-1.1-1.22-.1-.1c-.35-.46-.68-.9-.9-1.45-.1-.35-.22-.57-.33-.9H44.6c-1.1 0-1.97.9-2.2 1.88.88.67 1.55 1.55 2.1 2.55h8.95v-.1zM53.4 61.23c1.2 0 2.2-1 2.2-2.2 0-1.23-1-2.23-2.2-2.23h-7.87c0 1.66-.56 3.1-1.33 4.43h9.19z" fill="#fff"/></g></svg>