<svg xmlns="http://www.w3.org/2000/svg" xmlns:lucid="lucid" width="100" height="100"><g lucid:page-tab-id="0_0" stroke="#000" stroke-opacity="0"><path d="M100 50c0 27.6-22.4 50-50 50S0 77.6 0 50 22.4 0 50 0s50 22.4 50 50z" fill="#7f8de1"/><path d="M54.7 48.4c-1.96 0-2.2 2.1-2.2 2.2v23.9h26.3V51.1c.1-2.07-1.47-2.7-2.08-2.7h-22zm4.77 5.27h2.08c1.1 0 2.07.97 2.07 2.1v2.05c0 1.12-.84 2.1-2.07 2.1h-2.08c-1.1 0-2.08-.98-2.08-2.1v-2.06c0-1.12.83-2.1 2.07-2.1zm10.15 0h2.08c1.1 0 2.08.97 2.08 2.1v2.05c0 1.12-.85 2.1-2.08 2.1h-2.08c-1.1 0-2.08-.98-2.08-2.1v-2.06c0-1.12.84-2.1 2.08-2.1zM59.47 64.1h2.08c1.1 0 2.07.95 2.07 2.07v2.1c0 1.1-.84 2.05-2.07 2.05h-2.08c-1.1 0-2.08-.96-2.08-2.06v-2.1c0-1.1.83-2.07 2.07-2.07zm10.15 0h2.08c1.1 0 2.08.95 2.08 2.07v2.1c0 1.1-.85 2.05-2.08 2.05h-2.08c-1.1 0-2.08-.96-2.08-2.06v-2.1c0-1.1.84-2.07 2.08-2.07z" fill="#fff"/><path d="M22.2 25.5c-1.97 0-2.2 2.1-2.2 2.2v46.8h26.37V44.6s0-2.44 2.2-2.44h7.97c1.23 0 1.96-1.22 1.96-2.06V28.2c.12-2.06-1.35-2.7-1.96-2.7H22.2zm4.92 6.22h2.08c1.08 0 2.08 1.03 2.08 2.1v2.12h-.12c0 1.08-.84 2.06-2.07 2.06H27.1c-1.1 0-2.08-.98-2.08-2.06v-2.1c0-1.1.85-2.12 2.08-2.12zm11 0h2.1c1.1 0 2.1 1.03 2.1 2.1v2.12c0 1.08-.88 2.06-2.1 2.06h-2.1c-1.06 0-2.07-.98-2.07-2.06v-2.1c0-1.1.85-2.12 2.08-2.12zm11.3 0h2.07c1.1 0 2.07 1.03 2.07 2.1v2.12h-.1c0 1.08-.86 2.06-2.1 2.06h-1.96c-1.06 0-2.07-.98-2.07-2.06v-2.1c0-1.1.85-2.12 2.08-2.12zM27.1 42.16h2.08c1.08 0 2.08.98 2.08 2.06v2.1h-.12c0 1.13-.84 2.1-2.07 2.1H27.1c-1.1 0-2.08-.97-2.08-2.1v-2.1c0-1.08.85-2.06 2.08-2.06zm11 0h2.1c1.1 0 2.1.98 2.1 2.06v2.1c0 1.13-.88 2.1-2.1 2.1h-2.1c-1.06 0-2.07-.97-2.07-2.1v-2.1c0-1.08.85-2.06 2.08-2.06zM27.03 52.6c.03-.05.06 0 .1 0h2.08c1.08 0 2.08.93 2.08 2.06v2.05h-.12c0 1.14-.84 2.12-2.07 2.12H27.1c-1.1 0-2.08-.98-2.08-2.1v-2.06c0-1.08.77-2 1.97-2.06zm11 0c.04-.05.07 0 .1 0h2.1c1.1 0 2.1.93 2.1 2.06v2.05c0 1.14-.88 2.12-2.1 2.12h-2.1c-1.06 0-2.07-.98-2.07-2.1v-2.06c0-1.08.8-2 1.97-2.06zm-10.9 10.48h2.08c1.08 0 2.08 1.03 2.08 2.1v2.07h-.12c0 1.13-.84 2.1-2.07 2.1H27.1c-1.1 0-2.08-.97-2.08-2.1V65.2c0-1.1.85-2.12 2.08-2.12zm11 0h2.1c1.1 0 2.1 1.03 2.1 2.1v2.07c0 1.13-.88 2.1-2.1 2.1h-2.1c-1.06 0-2.07-.97-2.07-2.1V65.2c0-1.1.85-2.12 2.08-2.12z" fill="#fff"/></g></svg>