<svg xmlns="http://www.w3.org/2000/svg" xmlns:lucid="lucid" width="100" height="100"><g lucid:page-tab-id="0_0" stroke="#000" stroke-opacity="0"><path d="M100 50c0 27.6-22.4 50-50 50S0 77.6 0 50 22.4 0 50 0s50 22.4 50 50z" fill="#62b7ed"/><path d="M67.52 69.98h3.72c4.86 0 8.76-3.84 8.76-8.7V28.76C80 23.9 76.1 20 71.24 20H38.72c-4.86 0-8.7 3.9-8.7 8.76v3.72h7.5v-3.72c0-.78.48-1.26 1.2-1.26h32.52c.78 0 1.26.48 1.26 1.26v32.52c0 .72-.48 1.2-1.26 1.2h-3.72v7.5zM62.48 42.5c0-2.76-2.22-4.98-4.98-4.98H24.98c-2.7 0-4.98 2.22-4.98 4.98v32.52c0 2.76 2.28 4.98 4.98 4.98H57.5c2.76 0 4.98-2.22 4.98-4.98V42.5zm-9.96 17.52c0 .6-.66 1.26-1.26 1.26h-7.5v7.5c0 .6-.66 1.2-1.26 1.2h-2.52c-.6 0-1.26-.6-1.26-1.2v-7.5h-7.5c-.6 0-1.2-.66-1.2-1.26V57.5c0-.6.6-1.26 1.2-1.26h7.5v-7.5c0-.6.66-1.26 1.26-1.26h2.52c.6 0 1.26.66 1.26 1.26v7.5h7.5c.6 0 1.26.66 1.26 1.26v2.52z" fill="#fff"/></g></svg>