<svg xmlns="http://www.w3.org/2000/svg" xmlns:lucid="lucid" width="100" height="100"><g lucid:page-tab-id="0_0" stroke="#000" stroke-opacity="0"><path d="M100 50c0 27.6-22.4 50-50 50S0 77.6 0 50 22.4 0 50 0s50 22.4 50 50z" fill="#fe8f60"/><path d="M45.94 74.37l-1.6-1.2c-1.72-1.22-1.72-3.67-1.72-4.9v-3.54c0-.97-.85-1.83-1.82-1.83h-7.36c-1 0-1.84.86-1.84 1.83v9.4c0 3.3 1.96 5.87 5.02 5.87h6c3.56 0 3.82-2.44 3.82-2.44s.6-2.2-.5-3.2zM73.25 40.8V24.1 24c0-2.95-3.7-3.82-5.67-1.83l-10.9 10.28c-1.68 1.48-3.9 2.1-6.07 2.1H32c-6.37.1-11.4 5.6-11.4 12v.2c0 6.42 5.03 11.15 11.4 11.15h18.6c2.3 0 4.52 1.02 6.2 2.5L67.6 70.93c1.98 1.94 5.67 1.22 5.67-1.73V52.55c3.63 0 5.85-2.6 5.85-5.9 0-3.3-2.22-5.85-5.85-5.85z" fill="#fff"/></g></svg>