<svg xmlns="http://www.w3.org/2000/svg" xmlns:lucid="lucid" width="100" height="100"><g lucid:page-tab-id="0_0" stroke="#000" stroke-opacity="0"><path d="M100 50c0 27.6-22.4 50-50 50S0 77.6 0 50 22.4 0 50 0s50 22.4 50 50z" fill="#696e71"/><path d="M76.87 67.1H43.84c-1 0-1.84.86-1.84 1.84v3.67c0 1 .84 1.85 1.84 1.85h33.03c1 0 1.83-.86 1.83-1.84v-3.66c0-.98-.84-1.84-1.83-1.84zM48.66 44.9L24.88 25.87c-.73-.63-1.82-.5-2.44.37l-2.1 2.96c-.6.85-.37 1.97.37 2.56l16.94 13.5c.62.46.62 1.47 0 1.97L20.7 60.7c-.73.62-.96 1.83-.35 2.58l2.1 3.17c.6.88 1.7 1 2.43.38L48.66 47.8c.97-.7.97-2.2 0-2.9z" fill="#fff"/></g></svg>