<svg xmlns="http://www.w3.org/2000/svg" xmlns:lucid="lucid" width="100" height="100"><g lucid:page-tab-id="0_0" stroke="#000" stroke-opacity="0"><path d="M100 50c0 27.6-22.4 50-50 50S0 77.6 0 50 22.4 0 50 0s50 22.4 50 50z" fill="#0dc2d9"/><path d="M78.2 46.92H37.52c-1.06 0-1.6-1.35-.82-2.04L48.44 33.1c.7-.73.7-1.8 0-2.54l-2.7-2.7c-.7-.75-1.82-.75-2.6 0l-21.4 21.4c-.72.73-.72 1.85 0 2.6l21.4 21.38c.78.75 1.9.75 2.6 0l2.58-2.56c.7-.74.7-1.86 0-2.55L36.58 56.36c-.76-.74-.23-2.1.82-2.1h40.68c.94 0 1.82-.83 1.82-1.8v-3.68c.12-.97-.76-1.86-1.7-1.86z" fill="#fff"/></g></svg>