<svg xmlns="http://www.w3.org/2000/svg" xmlns:lucid="lucid" width="100" height="100"><g lucid:page-tab-id="0_0" stroke="#000" stroke-opacity="0"><path d="M100 50c0 27.6-22.4 50-50 50S0 77.6 0 50 22.4 0 50 0s50 22.4 50 50z" fill="#ef6e5d"/><path d="M57.38 31.63H42.72c-1.04 0-1.87-1.04-1.76-1.98.94-4 4.63-7.15 9.04-7.15 4.4 0 8.1 3.03 8.98 7.15.27.94-.55 1.98-1.6 1.98zm20.22 21c.1 1.6-1.16 2.93-2.75 2.93v-.28h-8.22v4.62c5.3 2.1 9.1 7.87 9.1 14.7 0 1.58-1.27 2.9-2.87 2.74-1.38 0-2.53-1.38-2.53-2.86-.1-3.7-1.88-7.04-4.4-8.7-1.5 5.23-5.52 9.25-10.65 10.9-1.26.33-2.42-.5-2.42-1.76V52.75c0-1.6-1.27-2.86-2.86-2.75-1.38 0-2.54 1.38-2.54 2.86v22.06c0 1.15-1.27 2.1-2.42 1.76C39.97 74.92 36 71 34.4 65.78 31.76 67.45 30 70.9 30 74.7c0 1.76-1.5 3.02-3.2 2.8-1.38-.38-2.32-1.54-2.32-2.9 0-6.72 3.8-12.5 9.1-14.6v-4.6h-8.33c-1.6 0-2.86-1.27-2.75-2.87 0-1.37 1.38-2.53 2.92-2.53h8.05v-4.62c-5.3-2.1-9.1-7.86-9.1-14.68 0-1.5 1.27-2.75 2.87-2.64 1.38 0 2.53 1.37 2.53 2.86 0 3.85 1.88 7.15 4.52 8.8 1.04-1.5 2.75-2.53 4.73-2.53h21.82c1.98 0 3.7.87 4.74 2.52 2.63-1.65 4.5-5.12 4.5-9.02 0-1.7 1.5-3.03 3.2-2.75 1.38.33 2.32 1.48 2.32 2.86 0 6.72-3.8 12.5-9.1 14.58V50h8.05c1.65 0 2.92 1.16 3.03 2.64z" fill="#fff"/></g></svg>