<svg xmlns="http://www.w3.org/2000/svg" xmlns:lucid="lucid" width="100" height="100"><g lucid:page-tab-id="0_0" stroke="#000" stroke-opacity="0"><path d="M100 50c0 27.6-22.4 50-50 50S0 77.6 0 50 22.4 0 50 0s50 22.4 50 50z" fill="#1fcaa0"/><path d="M76.4 64.14l-7.3-5.88c-1.73-1.33-4.1-1.44-5.76-.12l-6.28 4.56c-.7.58-1.8.46-2.48-.23l-9.4-8.42-8.4-9.35c-.7-.7-.7-1.67-.22-2.54l4.55-6.23c1.33-1.67 1.2-4.04-.1-5.77L35.1 22.9c-1.8-2.2-5.02-2.43-7.1-.4l-5.98 6.22c-.98.98-1.44 2.42-1.44 3.75.58 12.23 6.1 23.9 14.28 32.02 8.18 8.18 19.82 13.67 32.03 14.3 1.34.12 2.66-.52 3.64-1.44l6.22-6.23c2.02-1.97 1.9-5.3-.35-7z" fill="#fff"/></g></svg>