<svg xmlns="http://www.w3.org/2000/svg" xmlns:lucid="lucid" width="100" height="100"><g lucid:page-tab-id="0_0" stroke="#000" stroke-opacity="0"><path d="M100 50c0 27.6-22.4 50-50 50S0 77.6 0 50 22.4 0 50 0s50 22.4 50 50z" fill="#f49756"/><path d="M20 50c0-16.5 13.5-30 30-30s30 13.5 30 30-13.5 30-30 30-30-13.5-30-30zm7.5 0c0 12.36 10.14 22.5 22.5 22.5S72.5 62.36 72.5 50 62.36 27.5 50 27.5 27.5 37.64 27.5 50z" fill="#fff"/><path d="M32.5 50c0-9.62 7.87-17.5 17.5-17.5 9.62 0 17.5 7.88 17.5 17.5 0 9.63-7.88 17.5-17.5 17.5-9.63 0-17.5-7.87-17.5-17.5zm7.5 0c0 5.5 4.5 10 10 10s10-4.5 10-10-4.5-10-10-10-10 4.5-10 10z" fill="#fff"/><path d="M50 45c-2.75 0-5 2.25-5 5s2.25 5 5 5 5-2.25 5-5-2.25-5-5-5z" fill="#fff"/></g></svg>