<svg xmlns="http://www.w3.org/2000/svg" xmlns:lucid="lucid" width="100" height="100"><g lucid:page-tab-id="0_0" stroke="#000" stroke-opacity="0"><path d="M100 50c0 27.6-22.4 50-50 50S0 77.6 0 50 22.4 0 50 0s50 22.4 50 50z" fill="#f2cf5b"/><path d="M36.26 33.8h4.98c.75 0 1.26-.5 1.26-1.25v-2.5h15v2.5c0 .75.5 1.25 1.26 1.25h4.98c.75 0 1.26-.5 1.26-1.25V29.4c0-3.76-3.12-6.9-6.87-6.9H41.75C38 22.5 35 25.52 35 29.28v3.27c0 .75.5 1.25 1.26 1.25zM75.02 38.8H24.98c-2.7 0-4.98 2.25-4.98 5v28.8c0 2.75 2.28 5 4.98 5h50.04c2.76 0 4.98-2.25 4.98-5V43.8c0-2.75-2.22-5-4.98-5z" fill="#fff"/></g></svg>