<svg xmlns="http://www.w3.org/2000/svg" xmlns:lucid="lucid" width="100" height="100"><g lucid:page-tab-id="0_0" stroke="#000" stroke-opacity="0"><path d="M100 50c0 27.6-22.4 50-50 50S0 77.6 0 50 22.4 0 50 0s50 22.4 50 50z" fill="#54698d"/><path d="M42 64.03c0-.97-.86-1.83-1.83-1.83H21.83c-.97 0-1.83.86-1.83 1.83v13.44c0 .98.86 1.83 1.83 1.83h18.34c.97 0 1.83-.85 1.83-1.83V64.03zM27.42 45.06h-6c-1.23 0-1.85 1.1-1.1 1.7l9.8 10.16c.48.38 1.23.38 1.72 0l9.8-10.15c.74-.73.12-1.7-1.1-1.7h-5.77c0-6.13 6-12.25 12.13-12.25V25.5c-11.03 0-19.48 8.56-19.48 19.56zM68.68 43c-.48-.4-1.22-.4-1.7 0l-9.8 10.13c-.75.73-.12 1.7 1.1 1.7h5.88c0 7.33-5.02 12.25-12.36 12.25v7.32c11 0 19.7-8.56 19.7-19.56h6c1.2 0 1.8-1.1 1.08-1.7l-9.9-10.15zM78.7 22.43c0-.97-.86-1.83-1.83-1.83H58.53c-.97 0-1.83.86-1.83 1.83v13.44c0 .98.86 1.83 1.83 1.83h18.34c.97 0 1.83-.85 1.83-1.83V22.43z" fill="#fff"/></g></svg>