<svg xmlns="http://www.w3.org/2000/svg" xmlns:lucid="lucid" width="100" height="100"><g lucid:page-tab-id="0_0" stroke="#000" stroke-opacity="0"><path d="M100 50c0 27.6-22.4 50-50 50S0 77.6 0 50 22.4 0 50 0s50 22.4 50 50z" fill="#54698d"/><path d="M52.25 64.5c-3.74-1.5-4.4-2.86-4.4-4.4 0-1.48 1.02-2.84 2.27-3.98 2.25-1.87 3.25-4.85 3.25-8 0-5.86-3.62-10.62-10.37-10.62-6.75 0-10.37 4.76-10.37 10.63 0 3.14 1 6.12 3.25 8 1.25 1.13 2.26 2.5 2.26 3.98 0 1.54-.65 2.9-4.4 4.4-5.45 2.24-10.72 4.75-10.84 9.5.24 3.24 2.73 6 5.87 6h28.7c3.14 0 5.63-2.76 5.63-5.86-.12-4.76-5.4-7.4-10.85-9.65zM73.72 41.24c0-9.24-7.62-16.86-16.9-16.86V20l-8.48 6.87c-.4.36-.27 1 .12 1.38l8.37 6.72v-4.35c5.88 0 10.65 4.74 10.65 10.62H63.1l6.87 8.5c.36.35 1 .35 1.38 0l6.75-8.5h-4.38z" fill="#fff"/></g></svg>