<svg xmlns="http://www.w3.org/2000/svg" xmlns:lucid="lucid" width="100" height="100"><g lucid:page-tab-id="0_0" stroke="#000" stroke-opacity="0"><path d="M100 50c0 27.6-22.4 50-50 50S0 77.6 0 50 22.4 0 50 0s50 22.4 50 50z" fill="#fa975c"/><path d="M36.24 31.3h5c.77 0 1.27-.5 1.27-1.25v-2.5H55v2.5c0 .75.5 1.25 1.26 1.25h5c.75 0 1.24-.5 1.24-1.25V26.9c0-3.76-3.13-6.9-6.87-6.9h-13.9C38 20 35 23.02 35 26.78v3.27c0 .75.5 1.25 1.24 1.25zM57.5 59.98H60v-2.52c0-2.75 2.24-5 5-5h7.48c1.6 0 3 .77 3.85 1.9.4.5 1.15.12 1.15-.4V41.22c0-2.75-2.24-5-5-5H25c-2.76 0-5 2.25-5 5V70c0 2.75 2.24 5 5 5h27.26c.52 0 .75-.4.63-.9-.3-.46-.4-.96-.4-1.62v-7.5c0-2.74 2.23-5 5-5z" fill="#fff"/><path d="M78.13 65H72.5v-5.63c0-1-.87-1.87-1.88-1.87h-3.74c-1 0-1.9.88-1.9 1.87V65h-5.6c-1 0-1.88.87-1.88 1.88v3.74c0 1 .88 1.9 1.87 1.9H65v5.6c0 1 .87 1.88 1.88 1.88h3.74c1 0 1.9-.88 1.9-1.87V72.5h5.6c1 0 1.88-.87 1.88-1.88v-3.74c0-1-.88-1.9-1.87-1.9z" fill="#fff"/></g></svg>