<svg xmlns="http://www.w3.org/2000/svg" xmlns:lucid="lucid" width="100" height="100"><g lucid:page-tab-id="0_0" stroke="#000" stroke-opacity="0"><path d="M100 50c0 27.6-22.4 50-50 50S0 77.6 0 50 22.4 0 50 0s50 22.4 50 50z" fill="#88c651"/><path d="M61.25 46.3h-22.5c-.75 0-1.25.5-1.25 1.25v3.75c0 .75.5 1.25 1.25 1.25h22.5c.75 0 1.25-.5 1.25-1.25v-3.75c0-.75-.5-1.25-1.25-1.25zM58.76 57.5h-17.5c-.76 0-1.26.5-1.26 1.25v3.75c0 .75.5 1.25 1.26 1.25h17.5c.74 0 1.24-.5 1.24-1.25v-3.75c0-.75-.5-1.25-1.24-1.25z" fill="#fff"/><path d="M40.7 20c-1.25 0-2.5.48-3.5 1.38L25.2 32.9c-1 .96-1.52 2.22-1.52 3.6v38.52c0 2.7 2.26 4.98 5 4.98H71.2c2.74 0 5-2.28 5-4.98V36.5c0-1.38-.53-2.64-1.52-3.6L62.7 21.38c-1-.9-2.25-1.38-3.5-1.38H40.7zm9.25 3.78c2.73 0 5 2.22 5 4.98 0 2.76-2.27 4.98-5 4.98s-5-2.22-5-4.98c0-2.76 2.27-4.98 5-4.98zM33.1 37.52h33.7c1 0 1.9.84 1.9 1.86v31.26c0 .96-.9 1.86-1.9 1.86H33.1c-1 0-1.9-.9-1.9-1.86V39.38c0-1.02.9-1.86 1.9-1.86z" fill="#fff"/></g></svg>