<svg xmlns="http://www.w3.org/2000/svg" xmlns:lucid="lucid" width="100" height="100"><g lucid:page-tab-id="0_0" stroke="#000" stroke-opacity="0"><path d="M100 50c0 27.6-22.4 50-50 50S0 77.6 0 50 22.4 0 50 0s50 22.4 50 50z" fill="#6ca1e9"/><path d="M75 20H40c-2.75 0-5 2.25-5 5v3.15c0 1 .86 1.84 1.9 1.84H60c5.5 0 10 4.5 10 9.98V63.1c0 1.05.84 1.9 1.84 1.9H75c2.75 0 5-2.25 5-5V25c0-2.75-2.25-5-5-5z" fill="#fff"/><path d="M25 35c-2.75 0-5 2.25-5 5v35c0 2.75 2.25 5 5 5h35c2.75 0 5-2.25 5-5V40c0-2.75-2.25-5-5-5H25zm6.25 10h22.5c.77 0 1.26.5 1.26 1.25v2.52c0 .72-.48 1.22-1.25 1.22h-22.5c-.77 0-1.26-.5-1.26-1.23v-2.52c0-.76.48-1.26 1.25-1.26zm0 9.98h22.5c.77 0 1.26.54 1.26 1.26v2.52c0 .72-.48 1.26-1.25 1.26h-22.5c-.77 0-1.26-.54-1.26-1.26v-2.52c0-.72.48-1.26 1.25-1.26zm0 10.04h22.5c.77 0 1.26.5 1.26 1.2v2.53c0 .77-.48 1.26-1.25 1.26h-22.5c-.77 0-1.26-.48-1.26-1.25v-2.52c0-.72.48-1.2 1.25-1.2z" fill="#fff"/></g></svg>