<svg xmlns="http://www.w3.org/2000/svg" xmlns:lucid="lucid" width="100" height="100"><g lucid:page-tab-id="0_0" stroke="#000" stroke-opacity="0"><path d="M100 50c0 27.6-22.4 50-50 50S0 77.6 0 50 22.4 0 50 0s50 22.4 50 50z" fill="#a094ed"/><path d="M26 29.6c-3.24 0-6 2.65-6 6v28.8c0 3.23 2.76 6 6 6h48c3.36 0 6-2.65 6-6V35.6c0-3.35-2.64-6-6-6H26zm13.8 6.12c3.96 0 6.24 3.22 6.24 6.98 0 2.04-.72 3.83-2.04 4.9-.84.73-1.44 1.54-1.44 2.65 0 .93.24 1.9 2.64 2.73 3.24 1.47 6.36 3.38 6.48 6.36.36 2.04-1.2 4.08-3.12 4.08H31.28c-1.92 0-3.36-2.04-3.36-4.08.12-2.98 3.24-4.77 6.48-6.24 2.28-.94 2.64-1.92 2.64-2.85 0-.98-.6-1.92-1.44-2.66-1.32-1.2-2.04-3-2.04-4.9 0-3.88 2.28-6.98 6.24-6.98zm15.24 4.8h15c1.08 0 2.04.83 2.04 2.05v2.98h-.12c0 1.1-.96 2.04-2.04 2.04H55.04c-1.08 0-2.04-.82-2.04-2.05v-2.98c0-1.1.96-2.04 2.04-2.04zm5.88 10.9h9c1.08 0 2.04.86 2.04 2.05v3.02c0 1.05-.96 2.03-2.04 2.03h-9c-1.08 0-2.04-.86-2.04-2.04v-3.03c0-1.06.96-2.04 2.04-2.04z" fill="#fff"/></g></svg>