<svg xmlns="http://www.w3.org/2000/svg" xmlns:lucid="lucid" width="100" height="100"><g lucid:page-tab-id="0_0" stroke="#000" stroke-opacity="0"><path d="M100 50c0 27.6-22.4 50-50 50S0 77.6 0 50 22.4 0 50 0s50 22.4 50 50z" fill="#e6717c"/><path d="M58.72 30h15.6c1 0 1.88.87 1.88 1.88v3.75c0 1-.9 1.87-1.9 1.87H25.6c-1 0-1.9-.87-1.9-1.87v-3.75c0-1 .9-1.9 1.9-1.9h15.58v-4.97c0-2.74 2.26-5 5.04-5h7.46c2.78 0 5.04 2.26 5.04 5v5zm-11.3-5c-.73 0-1.2.5-1.2 1.25V30h7.46v-3.75c0-.75-.48-1.24-1.2-1.24h-5.05zM30.57 42.5c-.98 0-1.87.86-1.87 1.88v29.36c0 3.52 2.76 6.26 6.25 6.26h30c3.5 0 6.25-2.74 6.25-6.26V44.38c0-1.02-.9-1.88-1.87-1.88H30.57zm11.9 8.74h2.47c.76 0 1.27.52 1.27 1.27V70c0 .74-.5 1.26-1.27 1.26h-2.46c-.77 0-1.28-.52-1.28-1.27V52.5c0-.74.5-1.26 1.27-1.26zm12.5 0h2.46c.76 0 1.27.52 1.27 1.27V70c0 .74-.5 1.26-1.27 1.26h-2.47c-.76 0-1.27-.52-1.27-1.27V52.5c0-.74.5-1.26 1.26-1.26z" fill="#fff"/></g></svg>