<svg xmlns="http://www.w3.org/2000/svg" xmlns:lucid="lucid" width="100" height="100"><g lucid:page-tab-id="0_0" stroke="#000" stroke-opacity="0"><path d="M100 50c0 27.6-22.4 50-50 50S0 77.6 0 50 22.4 0 50 0s50 22.4 50 50z" fill="#7dc37d"/><path d="M25.46 20c-3 0-5.46 2.46-5.46 5.46v49.08c0 3 2.46 5.46 5.46 5.46h49.08c3 0 5.46-2.46 5.46-5.46V25.46c0-3-2.46-5.46-5.46-5.46H25.46zm6.84 12.3h13.62c.78 0 1.38.54 1.38 1.32V47.3c0 .78-.6 1.32-1.38 1.32H32.3c-.84 0-1.38-.54-1.38-1.32V33.62c0-.78.54-1.32 1.38-1.32zm21.78 0H67.7c.84 0 1.38.54 1.38 1.32v2.76c0 .78-.54 1.32-1.38 1.32H54.08c-.78 0-1.38-.54-1.38-1.32v-2.76c0-.78.6-1.32 1.38-1.32zm0 10.86H67.7c.84 0 1.38.54 1.38 1.38v2.76c0 .78-.54 1.32-1.38 1.32H54.08c-.78 0-1.38-.54-1.38-1.32v-2.76c0-.84.6-1.38 1.38-1.38zM32.3 54.08h35.4c.84 0 1.38.54 1.38 1.38v2.7c0 .84-.54 1.38-1.38 1.38H32.3c-.84 0-1.38-.54-1.38-1.38v-2.7c0-.84.54-1.38 1.38-1.38zm0 10.92h30c.78 0 1.32.54 1.32 1.38v2.7c0 .84-.54 1.38-1.32 1.38h-30c-.84 0-1.38-.54-1.38-1.38v-2.7c0-.84.54-1.38 1.38-1.38z" fill="#fff"/></g></svg>