<svg xmlns="http://www.w3.org/2000/svg" xmlns:lucid="lucid" width="100" height="100"><g lucid:page-tab-id="0_0" stroke="#000" stroke-opacity="0"><path d="M100 50c0 27.6-22.4 50-50 50S0 77.6 0 50 22.4 0 50 0s50 22.4 50 50z" fill="#8199af"/><path d="M73.2 65.52c-.28 3.33-.6 6.96-1.28 10.47-.1 1-1.23 2.13-2.22 2.25-6.76.77-13.4 1.25-20.15 1.25-6.62 0-13.4-.36-20-1.25-1-.12-2.14-1.13-2.28-2.26-.85-5.48-1.37-11.14-1.37-16.73 0-5.65.52-11.24 1.37-16.78.14-1.02 1.28-1.97 2.27-2.27 4.12-.48 8.14-.7 12.1-.95 0 0 3.28-.18 3.04-3.27-.3-2.73-5.02-4.63-5.02-9.28 0-3.75 3.74-6.72 9.9-6.72 6 0 9.73 2.97 9.73 6.72 0 4.76-4.64 6.55-4.88 9.3-.23 2.96 2.98 3.26 2.98 3.26 4.16.12 8.28.47 12.3.95 1 .12 2.13 1.13 2.22 2.26.67 3.86 1 7.5 1.28 11.36 0 1.13-.9 2.26-2.03 2.26h-1.1c-1.13 0-2.88-.9-3.63-1.73 0 0-2.65-2.75-5.5-2.92-4.63-.12-8.13 3.92-8.13 8.27 0 4.4 3.5 8.5 8 8.4 2.75-.13 5.5-2.87 5.5-2.87.9-.77 2.5-1.55 3.64-1.55h1.13c1.37 0 2.22.78 2.13 1.8z" fill="#fff"/></g></svg>