<svg xmlns="http://www.w3.org/2000/svg" xmlns:lucid="lucid" width="100" height="100"><g lucid:page-tab-id="0_0" stroke="#000" stroke-opacity="0"><path d="M100 50c0 27.6-22.4 50-50 50S0 77.6 0 50 22.4 0 50 0s50 22.4 50 50z" fill="#8b9ae3"/><path d="M28.2 36.4c4.53 0 8.2-3.67 8.2-8.2 0-4.53-3.67-8.2-8.2-8.2-4.53 0-8.2 3.67-8.2 8.2 0 4.53 3.67 8.2 8.2 8.2zM28.2 58.2c4.53 0 8.2-3.67 8.2-8.2 0-4.53-3.67-8.2-8.2-8.2-4.53 0-8.2 3.67-8.2 8.2 0 4.53 3.67 8.2 8.2 8.2zM50 36.4c4.53 0 8.2-3.67 8.2-8.2 0-4.53-3.67-8.2-8.2-8.2-4.53 0-8.2 3.67-8.2 8.2 0 4.53 3.67 8.2 8.2 8.2zM71.8 36.4c4.53 0 8.2-3.67 8.2-8.2 0-4.53-3.67-8.2-8.2-8.2-4.53 0-8.2 3.67-8.2 8.2 0 4.53 3.67 8.2 8.2 8.2zM50 58.2c4.53 0 8.2-3.67 8.2-8.2 0-4.53-3.67-8.2-8.2-8.2-4.53 0-8.2 3.67-8.2 8.2 0 4.53 3.67 8.2 8.2 8.2zM71.8 58.2c4.53 0 8.2-3.67 8.2-8.2 0-4.53-3.67-8.2-8.2-8.2-4.53 0-8.2 3.67-8.2 8.2 0 4.53 3.67 8.2 8.2 8.2zM28.2 80c4.53 0 8.2-3.67 8.2-8.2 0-4.53-3.67-8.2-8.2-8.2-4.53 0-8.2 3.67-8.2 8.2 0 4.53 3.67 8.2 8.2 8.2zM50 80c4.53 0 8.2-3.67 8.2-8.2 0-4.53-3.67-8.2-8.2-8.2-4.53 0-8.2 3.67-8.2 8.2 0 4.53 3.67 8.2 8.2 8.2zM71.8 80c4.53 0 8.2-3.67 8.2-8.2 0-4.53-3.67-8.2-8.2-8.2-4.53 0-8.2 3.67-8.2 8.2 0 4.53 3.67 8.2 8.2 8.2z" fill="#fff"/></g></svg>