<svg xmlns="http://www.w3.org/2000/svg" xmlns:lucid="lucid" width="100" height="100"><g lucid:page-tab-id="0_0" stroke="#000" stroke-opacity="0"><path d="M100 50c0 27.6-22.4 50-50 50S0 77.6 0 50 22.4 0 50 0s50 22.4 50 50z" fill="#54698d"/><path d="M78.14 56.3h-3.78c-.96 0-1.86.88-1.86 1.87v12.47c0 1-.9 1.87-1.86 1.87H29.36c-.96 0-1.86-.87-1.86-1.86V58.17c0-1-.9-1.87-1.86-1.87h-3.78c-.96 0-1.86.88-1.86 1.87V75c0 2.75 2.28 5 4.98 5h50.04c2.76 0 4.98-2.25 4.98-5V58.17c0-1-.9-1.87-1.86-1.87z" fill="#fff"/><path d="M48.74 64.56c.75.72 1.87.72 2.62 0l16.88-16.9c.75-.78.75-1.9 0-2.63l-2.63-2.6c-.74-.78-1.86-.78-2.6 0l-7.03 6.98c-.75.77-2.1.23-2.1-.9V21.9c-.15-1.04-1.12-1.9-2.02-1.9H48.1c-.98 0-1.88.86-1.88 1.9v26.5c0 1.14-1.35 1.64-2.1.87l-7-7c-.76-.76-1.88-.76-2.63 0l-2.64 2.76c-.75.72-.75 1.85 0 2.62l16.88 16.9z" fill="#fff"/></g></svg>