<svg xmlns="http://www.w3.org/2000/svg" xmlns:lucid="lucid" width="100" height="100"><g lucid:page-tab-id="0_0" stroke="#000" stroke-opacity="0"><path d="M100 50c0 27.6-22.4 50-50 50S0 77.6 0 50 22.4 0 50 0s50 22.4 50 50z" fill="#1dccbf"/><path d="M71.25 70H67.5v-7.5h3.75c.75 0 1.25-.5 1.25-1.25v-32.5c0-.75-.5-1.25-1.25-1.25h-32.5c-.75 0-1.25.5-1.25 1.25v3.75H30v-3.75C30 23.9 33.9 20 38.75 20h32.5C76.1 20 80 23.9 80 28.75v32.5c0 4.9-3.9 8.75-8.75 8.75z" fill="#fff"/><path d="M25.02 37.5c-2.77 0-5.02 2.25-5.02 5V75c0 2.77 2.25 5.02 5.02 5.02H57.5c2.75 0 5-2.25 5-5.02V42.5c0-2.75-2.25-5-5-5H25zm24.22 8.58c.55 0 1.06.22 1.53.68l2.47 2.47c.76.9.76 2.12-.13 2.9l-1.22 1.26c-.26.2-.5.2-.77 0l-4.58-4.64c-.25-.25-.25-.5 0-.76l1.23-1.24c.43-.46.98-.68 1.5-.68zm-4.5 4.08c.12 0 .25.1.38.22L49.75 55c0 .14 0 .4-.13.6l-11.5 11.65c-.23.25-.48.25-.74 0l-4.63-4.63c-.25-.13-.25-.5 0-.6L44.4 50.38c.08-.13.2-.22.34-.22zM30.92 63.9c.13 0 .26.03.34.12l4.64 4.6c.2.37.2.75.08.75-.17.17-.3.22-.42.3-.05 0-.13.04-.17.1l-5.67 1.35c-.46.12-.97-.4-.85-.85l1.36-5.66c0-.07.05-.1.13-.24.04-.04.1-.13.13-.26l.13-.08c.04-.1.17-.13.3-.13z" fill="#fff"/></g></svg>