<svg xmlns="http://www.w3.org/2000/svg" xmlns:lucid="lucid" width="100" height="100"><g lucid:page-tab-id="0_0" stroke="#000" stroke-opacity="0"><path d="M100 50c0 27.6-22.4 50-50 50S0 77.6 0 50 22.4 0 50 0s50 22.4 50 50z" fill="#1dccbf"/><path d="M77.3 26.6L72.2 21.5c-1.97-1.97-5.03-1.97-6.88 0l-4.02 4.03c-.5.5-.5 1.23 0 1.72l10.4 10.42c.5.5 1.23.5 1.7 0l4.06-4.05c1.82-1.97 1.82-5.03-.13-7zM57.85 30.7c-.48-.55-1.2-.55-1.7 0L24.22 62.66l-4.05 13.85c-.34 1.36.87 2.67 2.23 2.33l13.93-3.93h-.08l31.9-31.98c.52-.5.52-1.22 0-1.75L57.84 30.7z" fill="#fff"/></g></svg>