<svg xmlns="http://www.w3.org/2000/svg" xmlns:lucid="lucid" width="100" height="100"><g lucid:page-tab-id="0_0" stroke="#000" stroke-opacity="0"><path d="M100 50c0 27.6-22.4 50-50 50S0 77.6 0 50 22.4 0 50 0s50 22.4 50 50z" fill="#34becd"/><path d="M66.43 56.08c-.25-.25-.73-.25-.98 0l-14.3 14.36-2.1 7.12c-.26.74.48 1.35 1.22 1.22l7.22-2.1L71.8 62.34c.25-.22.25-.73 0-.98l-5.4-5.27zM78.68 51.83l-2.7-2.7c-.98-.97-2.57-.97-3.55 0 0 0-1.6 1.6-2.45 2.58-.24.25-.24.74 0 1l5.14 5.13c.25.24.74.24.98 0 .86-.86 2.58-2.45 2.58-2.45.97-.98.97-2.57 0-3.55zM50 34.3c0 2.7-.72 5.26-2.18 7.47-.5.73-.25 1.84.6 2.33 2.68 1.35 5.75 3.04 7.45 6 .25.48.86.6 1.35.6h3.4c2.2 0 3.68-1.47 3.68-3.8-.12-3.4-3.55-5.5-7.2-7.1-2.57-1.07-2.93-2.06-2.93-3.16s.73-2.1 1.58-2.95c1.47-1.36 2.32-3.3 2.32-5.63-.12-4.4-2.7-8.07-7.2-8.07-2.7 0-4.77 1.35-5.87 3.32 3.05 2.3 5 6.23 5 11z" fill="#fff"/><path d="M51.9 54.65c-.12-3.9-4.05-5.6-8.22-7.45-2.8-1.24-3.3-2.33-3.3-3.56s.74-2.46 1.73-3.32c1.7-1.6 2.57-3.8 2.57-6.36 0-4.8-2.8-8.96-7.97-8.96h-.5c-5.16 0-7.97 4.17-7.97 8.96 0 2.57.87 4.75 2.57 6.36.98.86 1.73 2.1 1.73 3.32 0 1.23-.5 2.32-3.3 3.56-4.18 1.84-8.1 3.66-8.23 7.45.25 2.6 2.07 4.55 4.54 4.55H47.6c2.45 0 4.3-1.95 4.3-4.55z" fill="#fff"/></g></svg>