<svg xmlns="http://www.w3.org/2000/svg" xmlns:lucid="lucid" width="100" height="100"><g lucid:page-tab-id="0_0" stroke="#000" stroke-opacity="0"><path d="M100 50c0 27.6-22.4 50-50 50S0 77.6 0 50 22.4 0 50 0s50 22.4 50 50z" fill="#95aec5"/><path d="M48.64 55.56c.7.7 1.8.7 2.53 0l27.1-25.24c.62-.96.5-2.52-1.45-2.52l-53.76.1c-1.44 0-2.65 1.34-1.56 2.53l27.14 25.13z" fill="#fff"/><path d="M78.8 40.17c0-1.2-1.44-1.9-2.42-1.07l-21.2 19.53c-1.44 1.34-3.28 2.05-5.18 2.05s-3.74-.7-5.18-1.9L23.72 39.1c-.96-.84-2.4-.27-2.4 1.07-.12 5.4-.12 20.04-.12 27.24 0 2.66 2.13 4.8 4.78 4.8h48.04c2.65 0 4.78-2.14 4.78-4.8V40.18z" fill="#fff"/></g></svg>