<svg xmlns="http://www.w3.org/2000/svg" xmlns:lucid="lucid" width="100" height="100"><g lucid:page-tab-id="0_0" stroke="#000" stroke-opacity="0"><path d="M100 50c0 27.6-22.4 50-50 50S0 77.6 0 50 22.4 0 50 0s50 22.4 50 50z" fill="#eb7092"/><path d="M24.37 42.5c-1 0-1.87.86-1.87 1.88V75c0 2.75 2.26 5 5 5h45c2.75 0 5-2.25 5-5V44.4c0-1.02-.88-1.88-1.87-1.88H24.37zM35 51.24h5c.76 0 1.26.52 1.26 1.27v5c0 .75-.5 1.24-1.27 1.24h-5c-.73 0-1.22-.5-1.22-1.24v-5c0-.74.5-1.26 1.2-1.26zm12.53 0h4.95c.77 0 1.26.52 1.26 1.27v5c0 .75-.5 1.24-1.26 1.24h-4.95c-.77 0-1.27-.5-1.27-1.24v-5c0-.74.5-1.26 1.27-1.26zm12.48 0h5.02c.7 0 1.2.52 1.2 1.27v5c0 .75-.5 1.24-1.2 1.24h-5c-.78 0-1.27-.5-1.27-1.24v-5c0-.74.5-1.26 1.26-1.26zM35 63.76h5c.76 0 1.26.5 1.26 1.24v5c0 .74-.5 1.26-1.27 1.26h-5c-.73 0-1.22-.52-1.22-1.27v-5c0-.75.5-1.24 1.2-1.24zm12.53 0h4.95c.77 0 1.26.5 1.26 1.24v5c0 .74-.5 1.26-1.26 1.26h-4.95c-.77 0-1.27-.52-1.27-1.27v-5c0-.75.5-1.24 1.27-1.24zm12.48 0h5.02c.7 0 1.2.5 1.2 1.24v5c0 .74-.5 1.26-1.2 1.26h-5c-.78 0-1.27-.52-1.27-1.27v-5c0-.75.5-1.24 1.26-1.24zM72.5 26.28h-6.27v-2.5c0-2.02-1.6-3.78-3.74-3.78-2 0-3.75 1.63-3.75 3.77v2.5h-17.5v-2.5c0-2-1.64-3.77-3.73-3.77-2.04 0-3.74 1.63-3.74 3.77v2.5H27.5c-2.74 0-5 2.26-5 5v3.16c0 1 .88 1.87 1.87 1.87h51.26c1 0 1.87-.88 1.87-1.87v-3.15c0-2.75-2.25-5-5-5z" fill="#fff"/></g></svg>