<svg xmlns="http://www.w3.org/2000/svg" xmlns:lucid="lucid" width="100" height="100"><g lucid:page-tab-id="0_0" stroke="#000" stroke-opacity="0"><path d="M100 50c0 27.6-22.4 50-50 50S0 77.6 0 50 22.4 0 50 0s50 22.4 50 50z" fill="#7e8be4"/><path d="M74.2 37.4h-9.76c-3.25 0-5.88-2.64-5.88-5.76v-9.78c.16-.96-.74-1.86-1.84-1.86H41.18c-3.25 0-5.88 2.64-5.88 5.76v36.72c0 3.3 2.63 5.76 5.88 5.76h29.14c3.25 0 5.88-2.64 5.88-5.76v-23.1c0-1.14-.9-1.98-2-1.98zM29.6 62.6V31.64c-3.26 0-5.88 2.64-5.88 5.76v36.72c0 3.24 2.62 5.88 5.88 5.88h29.14c3.25 0 5.88-2.64 5.88-5.76H41.18c-6.35 0-11.6 0-11.6-11.64zM66.8 20.36l9.03 8.88c.27.36.37.66.37 1.02 0 .72-.63 1.38-1.36 1.38h-6.4c-2.1 0-3.84-1.74-3.84-3.9v-6.36c0-.78.58-1.38 1.36-1.38.37 0 .63.12.84.36z" fill="#fff"/></g></svg>