<svg xmlns="http://www.w3.org/2000/svg" xmlns:lucid="lucid" width="100" height="100"><g lucid:page-tab-id="0_0" stroke="#000" stroke-opacity="0"><path d="M100 50c0 27.6-22.4 50-50 50S0 77.6 0 50 22.4 0 50 0s50 22.4 50 50z" fill="#0079bc"/><path d="M78.68 31.5c-2.53-4.92-8.87-14.05-20.62-8.65-7.37 3.36-11.4 5.3-11.4 5.3l-10.6 4.55c-3 1.46-9.45-.58-13.2-1.9-1.03-.38-2 .7-1.54 1.8 2.53 4.92 8.87 14.05 20.62 8.65 7.37-3.36 22-9.74 22-9.74 3-1.42 9.45.62 13.2 1.94 1.03.24 2-.85 1.54-1.93zM53.37 46.85c-1.34.72-6.6 3.1-6.6 3.1l-5.28 2.28c-2.65 1.44-8.3-.47-11.63-1.8-.95-.47-1.82.73-1.34 1.68 2.16 4.8 7.82 13.42 18.1 8.15 6.48-3.23 11.88-5.38 11.88-5.38 2.65-1.44 8.3.48 11.63 1.8.95.35 1.82-.73 1.34-1.8-2.16-4.68-7.82-13.3-18.1-8.02zM49.52 68.17c-1.08.6-2.87 1.68-2.87 1.68-2.06 1.32-6.26-.36-8.8-1.56-.7-.37-1.3.7-.94 1.67 1.56 4.32 5.76 12.12 13.58 7.32 2.87-1.8 2.87-1.7 2.87-1.7 2.17-1.07 6.26.37 8.8 1.57.7.36 1.3-.72.94-1.68-1.56-4.33-5.52-11.77-13.58-7.33z" fill="#fff"/></g></svg>