<svg xmlns="http://www.w3.org/2000/svg" xmlns:lucid="lucid" width="100" height="100"><g lucid:page-tab-id="0_0" stroke="#000" stroke-opacity="0"><path d="M100 50c0 27.6-22.4 50-50 50S0 77.6 0 50 22.4 0 50 0s50 22.4 50 50z" fill="#7dcf64"/><path d="M79.34 59.5l-2.75-2.73c-.76-.76-2-.76-2.75 0L62.12 68.8c-.5.5-1.38.5-1.88 0l-5.5-5.65c-.74-.74-1.98-.74-2.73 0l-2.74 2.76c-.75.75-.75 2 0 2.77l10.48 10.76c.75.76 2 .76 2.75 0l16.7-17.16c.9-.62.9-1.88.14-2.76z" fill="#fff"/><path d="M25 20c-2.75 0-5 2.26-5 5v45c0 2.75 2.25 5 5 5h20.53c1.1 0 1.6-1.37.88-2.14l-.65-.6c-2.64-2.76-2.64-7.16 0-9.9l2.63-2.6c1.27-1.26 2.75-2.03 4.5-2.25 2.15-.1 4.12.5 5.66 2l2.74 3.02 9-9.24c1-1.05 2.26-1.76 3.63-2.04.62-.1 1-.6 1-1.26V25c0-2.74-2.25-5-5-5H25zm6.25 10h12.52c.72 0 1.26.5 1.26 1.28v12.48c0 .72-.54 1.27-1.26 1.27H31.25c-.76 0-1.26-.55-1.26-1.27V31.28c0-.77.5-1.27 1.25-1.27zm20 0h12.5c.77 0 1.27.5 1.27 1.28v2.47c0 .77-.5 1.27-1.26 1.27H51.24c-.72 0-1.2-.5-1.2-1.27v-2.47c0-.77.48-1.27 1.2-1.27zm0 10.02h12.5c.77 0 1.27.5 1.27 1.2v2.54c0 .72-.5 1.27-1.26 1.27H51.24c-.72 0-1.2-.55-1.2-1.27v-2.53c0-.7.48-1.2 1.2-1.2zm-20 9.96H56.3c.7 0 1.2.55 1.2 1.26v2.53c0 .72-.5 1.2-1.2 1.2H31.24c-.76 0-1.26-.48-1.26-1.2v-2.53c0-.7.5-1.26 1.25-1.26zm0 10h7.64c.6 0 1.08.5 1.08 1.27v2.48c0 .77-.5 1.26-1.1 1.26h-7.63c-.6 0-1.1-.5-1.1-1.27v-2.48c0-.77.5-1.26 1.1-1.26z" fill="#fff"/></g></svg>