<svg xmlns="http://www.w3.org/2000/svg" xmlns:lucid="lucid" width="100" height="100"><g lucid:page-tab-id="0_0" stroke="#000" stroke-opacity="0"><path d="M100 50c0 27.6-22.4 50-50 50S0 77.6 0 50 22.4 0 50 0s50 22.4 50 50z" fill="#31b9f8"/><path d="M78.2 64.4h-5.4V59c0-.96-.84-1.8-1.8-1.8h-3.6c-.96 0-1.8.84-1.8 1.8v5.4h-5.4c-.96 0-1.8.84-1.8 1.8v3.6c0 .97.84 1.8 1.8 1.8h5.4V77c0 .96.84 1.8 1.8 1.8H71c.96 0 1.8-.84 1.8-1.8v-5.4h5.4c.96 0 1.8-.83 1.8-1.8v-3.6c0-.96-.84-1.8-1.8-1.8z" fill="#fff"/><path d="M24.8 21.2c-2.64 0-4.8 2.17-4.8 4.8v43.2c0 2.64 2.16 4.8 4.8 4.8h27c1.1 0 1.94-.84 1.78-1.9V64.4c0-2.65 2.17-4.8 4.8-4.8h1.22c.74 0 1.2-.5 1.2-1.18v-1.2c0-2.65 2.18-4.8 4.82-4.8H71c.96 0 1.8-.86 1.8-1.8V26c0-2.65-2.16-4.82-4.8-4.82H24.8zm6.02 9.6h12c.68 0 1.2.5 1.2 1.22v12c0 .68-.52 1.2-1.2 1.2h-12c-.74 0-1.2-.52-1.2-1.2V32c0-.73.46-1.2 1.2-1.2zm19.17 0h12.03c.7 0 1.16.5 1.16 1.22v2.38c0 .74-.48 1.2-1.17 1.2H50c-.7 0-1.22-.46-1.22-1.2v-2.38c0-.73.52-1.2 1.2-1.2zm0 9.62h12.03c.7 0 1.16.47 1.16 1.16V44c0 .7-.48 1.22-1.17 1.22H50c-.7 0-1.22-.52-1.22-1.2v-2.44c0-.7.52-1.16 1.2-1.16zM30.8 49.98H54.8c.73 0 1.2.52 1.2 1.2v2.44c0 .7-.47 1.16-1.2 1.16H30.82c-.74 0-1.2-.47-1.2-1.16V51.2c0-.7.46-1.22 1.2-1.22zm0 9.6h16.8c.68 0 1.16.48 1.16 1.22v2.38c0 .74-.48 1.2-1.17 1.2H30.83c-.74 0-1.2-.46-1.2-1.2V60.8c0-.74.46-1.2 1.2-1.2z" fill="#fff"/></g></svg>