<svg xmlns="http://www.w3.org/2000/svg" xmlns:lucid="lucid" width="100" height="100"><g lucid:page-tab-id="0_0" stroke="#000" stroke-opacity="0"><path d="M100 50c0 27.6-22.4 50-50 50S0 77.6 0 50 22.4 0 50 0s50 22.4 50 50z" fill="#54698d"/><path d="M51.25 20c.75 0 1.25.48 1.25 1.26v57.38c0 .78-.5 1.26-1.25 1.26h-2.5c-.75 0-1.25-.48-1.25-1.26V21.26c0-.78.5-1.26 1.25-1.26h2.5z" fill="#fff"/><path d="M50 37.7L39.88 27.58c-.5-.5-.5-1.25 0-1.75l1.74-1.75c.5-.5 1.26-.5 1.76 0L50 30.7l6.6-6.62c.52-.5 1.27-.5 1.78 0l1.74 1.75c.5.5.5 1.24 0 1.75L50 37.7zM50 62.1l10.12 10.12c.5.5.5 1.26 0 1.75l-1.74 1.75c-.5.5-1.26.5-1.77 0L50 69.1l-6.62 6.62c-.5.5-1.26.5-1.76 0l-1.74-1.75c-.5-.5-.5-1.24 0-1.75L50 62.1zM76.4 35.76c.36.6.25 1.36-.5 1.73L26.5 66.6c-.64.37-1.4.23-1.76-.5l-1.23-2.12c-.36-.65-.25-1.4.5-1.77L73.4 33c.64-.37 1.4-.23 1.76.5l1.23 2.26z" fill="#fff"/><path d="M60.5 43.7L64 29.84c.13-.74.76-1.1 1.5-.87l2.4.63c.74.13 1.13.74.87 1.5l-2.38 9.1 9.14 2.37c.75.13 1.14.76.88 1.5l-.62 2.4c-.13.73-.76 1.1-1.5.86L60.5 43.7zM39.5 56.1L36 69.96c-.13.74-.76 1.1-1.5.87l-2.4-.63c-.74-.13-1.13-.74-.87-1.5l2.38-9.1-9.14-2.37c-.75-.13-1.14-.76-.88-1.5l.62-2.4c.13-.73.76-1.1 1.5-.86l13.8 3.63zM24.85 33.58c.37-.6 1.12-.88 1.76-.5L76 62.33c.65.38.9 1.13.54 1.77l-1.28 2.12c-.38.6-1.12.88-1.76.5L24 37.47c-.65-.38-.9-1.13-.54-1.77l1.4-2.12z" fill="#fff"/><path d="M39.5 43.76l-13.86 3.6c-.73.13-1.36-.1-1.48-.86l-.63-2.37c-.13-.76.13-1.38.87-1.5l9.12-2.37-2.37-9.1c-.13-.76.1-1.4.86-1.5l2.38-.62c.75-.13 1.38.1 1.5.86l3.62 13.86zM60.4 56.14l13.86-3.6c.73-.13 1.36.1 1.48.86l.63 2.38c.13.75-.13 1.38-.87 1.5l-9.12 2.36 2.37 9.1c.13.76-.1 1.4-.86 1.5l-2.38.62c-.75.13-1.38-.1-1.5-.86L60.4 56.14z" fill="#fff"/></g></svg>