<svg xmlns="http://www.w3.org/2000/svg" xmlns:lucid="lucid" width="100" height="100"><g lucid:page-tab-id="0_0" stroke="#000" stroke-opacity="0"><path d="M100 50c0 27.6-22.4 50-50 50S0 77.6 0 50 22.4 0 50 0s50 22.4 50 50z" fill="#56aadf"/><path d="M23.75 20C21.63 20 20 21.62 20 23.78v52.5c0 1.98 1.63 3.72 3.75 3.72 2 0 3.75-1.62 3.75-3.72v-52.5c0-2.16-1.63-3.78-3.75-3.78zM54.44 26.05c7.65 2.07 15.4 4.13 24.04-.44.66-.36 1.52.16 1.52.9v29.48c0 .77-.52 1.4-1.14 1.77-8.88 4.87-16.77 2.73-24.56.63-6.22-1.66-12.4-3.33-18.9-1.37-1.38.38-2.9-.62-2.9-2.02V27c0-.87.76-1.6 1.52-1.87 7.12-2.62 13.73-.85 20.42.92zm19.95 28.2l.6-.27h.1v-7.12c-2.23 1-4.84 1.88-7.2 1.88h-.3v-8h.52c2.38 0 4.75-.26 7-.85v-7.54l-1.5.52c-.9.15-1.65.3-2.3.4-1.25.26-2.3.48-3.58.48h-.23v6.87c-2 0-5.36-.26-7.5-.63v-7.12c-2.47-.37-5-1.04-7.12-1.66-.15-.04-.24-.08-.38-.1v7.26c-.05 0-.15-.04-.24-.08-.1-.03-.2-.03-.24-.03-2.04-.6-4.7-1.15-6.5-1.52-.2-.07-.34-.1-.53-.15v-7.23c-1.4-.37-5.14-.63-6.37-.48l-1.14.1v7.75c1.27-.37 6.1-.37 7.5-.15v7.53c-.34-.07-.58-.1-.77-.15-.76-.14-1.1-.22-2.37-.22-1.62 0-3.1 0-4.37.22v7.27l1.98-.14c.9-.1 1.38-.1 2-.1 1.37 0 1.85.07 2.85.25.2.04.42.08.66.1v-7.1c.7.18 1.5.33 2.37.5 1.75.42 3.7.82 5.13 1.23v6.9c.2.03.42.1.66.18.33.1.7.22 1.1.3 1.6.37 3.6.77 5.74 1.14v-6.64c2.23.52 5.6.88 7.5.88v6.24h.24c3.38 0 5.37-.1 6.65-.74z" fill="#fff"/><path d="M52.5 38.4v7.5c.5.13 1 .25 1.5.5 1.87.5 3.88 1.13 6 1.5v-7.75c-2.63-.5-5.25-1.12-7.5-1.75z" fill="#fff"/></g></svg>