<svg xmlns="http://www.w3.org/2000/svg" xmlns:lucid="lucid" width="100" height="100"><g lucid:page-tab-id="0_0" stroke="#000" stroke-opacity="0"><path d="M100 50c0 27.6-22.4 50-50 50S0 77.6 0 50 22.4 0 50 0s50 22.4 50 50z" fill="#83b6ff"/><path d="M39.02 52.3c-1.6-2.38-2.37-5.1-2.37-8.16 0-5.2 2.16-9.52 5.55-12.14-1.12-2.04-3.4-3.5-6.34-3.5-5 0-7.82 4.08-7.82 8.74 0 2.48.78 4.62 2.48 6.12.9.88 1.7 2.04 1.7 3.16s-.45 2.28-3.3 3.5c-4.06 1.84-7.8 4.32-7.92 8.06.1 2.48 1.7 4.42 4.1 4.42h3.72c.58 0 1.13-.34 1.47-.92 1.8-3.26 5.2-5.3 8.04-6.8 1.02-.44 1.25-1.7.68-2.48zM72.08 50.02c-2.83-1.22-3.3-2.24-3.3-3.5 0-1.26.8-2.38 1.72-3.16 1.7-1.6 2.5-3.64 2.5-6.12 0-4.66-2.74-8.74-7.84-8.74-2.94 0-5.2 1.46-6.46 3.5 3.4 2.62 5.55 6.94 5.55 12.14 0 3.06-.78 5.78-2.36 8.16-.58.92-.25 2.04.66 2.48 2.83 1.36 6.23 3.54 8.04 6.8.36.58.9.92 1.48.92h3.75c2.4 0 3.97-1.94 3.97-4.42.1-3.74-3.63-6.22-7.72-8.06z" fill="#fff"/><path d="M58.08 58.26c-3.08-1.36-3.64-2.6-3.64-3.86 0-1.33.92-2.58 1.93-3.5 1.8-1.7 2.82-4.08 2.82-6.8 0-5.08-3.06-9.5-8.6-9.5-5.54 0-8.6 4.42-8.6 9.5 0 2.72 1.02 5.1 2.83 6.8 1 1.03 1.93 2.28 1.93 3.5 0 1.36-.46 2.5-3.64 3.86-4.52 1.92-8.82 4.1-8.92 8.17 0 2.7 2.03 4.97 4.63 4.97H62.38c2.6 0 4.62-2.28 4.62-4.97-.1-4.08-4.4-6.14-8.92-8.17z" fill="#fff"/></g></svg>