<svg xmlns="http://www.w3.org/2000/svg" xmlns:lucid="lucid" width="100" height="100"><g lucid:page-tab-id="0_0" stroke="#000" stroke-opacity="0"><path d="M100 50c0 27.6-22.4 50-50 50S0 77.6 0 50 22.4 0 50 0s50 22.4 50 50z" fill="#54698d"/><path d="M50 20c-16.62 0-30 13.38-30 30 0 16.62 13.38 30 30 30 16.62 0 30-13.38 30-30 0-16.62-13.38-30-30-30zm0 15.12c2.1 0 3.78 1.62 3.78 3.78 0 2.1-1.68 3.72-3.78 3.72-2.1 0-3.78-1.62-3.78-3.72 0-2.16 1.68-3.78 3.78-3.78zm-4.98 9.9h7.5c.6 0 1.26.6 1.26 1.38v9.96c0 .66.48 1.14 1.2 1.14.66 0 1.26.6 1.26 1.38v2.52c0 .6-.48 1.08-1.26 1.08h-9.96c-.66 0-1.26-.36-1.26-1.08v-2.52c0-.6.48-1.38 1.26-1.38.6 0 1.2-.36 1.2-1.14v-4.98c0-.6-.48-1.38-1.2-1.38-.66 0-1.26-.36-1.26-1.14V46.4c0-.66.48-1.38 1.26-1.38z" fill="#fff"/></g></svg>