<svg xmlns="http://www.w3.org/2000/svg" xmlns:lucid="lucid" width="100" height="100"><g lucid:page-tab-id="0_0" stroke="#000" stroke-opacity="0"><path d="M100 50c0 27.6-22.4 50-50 50S0 77.6 0 50 22.4 0 50 0s50 22.4 50 50z" fill="#779ef2"/><path d="M62.9 49.9c-.1-3.44-3.44-5.52-7-7.12-2.45-1.08-2.94-2.06-2.94-3.16s.74-2.1 1.47-2.95c1.6-1.35 2.33-3.3 2.33-5.62 0-4.27-2.46-7.95-7-7.95-2.7 0-4.53 1.35-5.76 3.32 3.06 2.3 4.9 6.35 4.9 11 0 2.7-.72 5.24-2.08 7.45-.5.73-.25 1.84.62 2.33 2.57 1.35 5.52 3.04 7.24 6 .24.48.74.6 1.34.6h3.33c2.08-.12 3.55-1.6 3.55-3.9z" fill="#fff"/><path d="M42.94 50.16c-2.83-1.2-3.18-2.3-3.18-3.53 0-1.24.7-2.47 1.7-3.33 1.6-1.58 2.44-3.77 2.44-6.35 0-4.8-2.8-8.95-7.72-8.95h-.24-.12c-4.92 0-7.72 4.15-7.72 8.95 0 2.58.84 4.77 2.45 6.35.98.86 1.7 2.1 1.7 3.33s-.36 2.33-3.2 3.53c-4.02 1.85-7.83 3.7-7.95 7.48.12 2.7 1.97 4.66 4.3 4.66h21.33c2.32 0 4.17-1.95 4.17-4.53-.12-3.9-4.05-5.76-7.96-7.6zM78.17 62.23h-5.5v-5.5c0-.97-.85-1.83-1.84-1.83h-3.66c-1 0-1.84.86-1.84 1.83v5.5h-5.5c-.97 0-1.83.85-1.83 1.84v3.66c0 1 .86 1.84 1.83 1.84h5.5v5.5c0 .97.85 1.83 1.84 1.83h3.66c1 0 1.84-.86 1.84-1.83v-5.5h5.5c.97 0 1.83-.85 1.83-1.84v-3.66c0-1-.86-1.84-1.83-1.84z" fill="#fff"/></g></svg>