<svg xmlns="http://www.w3.org/2000/svg" xmlns:lucid="lucid" width="100" height="100"><g lucid:page-tab-id="0_0" stroke="#000" stroke-opacity="0"><path d="M100 50c0 27.6-22.4 50-50 50S0 77.6 0 50 22.4 0 50 0s50 22.4 50 50z" fill="#f88962"/><path d="M51.95 52.88c-.78.8-.78 1.9 0 2.65l2.6 2.65c.74.75 1.9.75 2.63 0L74.02 41.3c.77-.75.77-1.9 0-2.65l-16.7-16.87c-.77-.75-1.9-.75-2.66 0l-2.6 2.6c-.74.74-.74 1.9 0 2.64l7.1 7.03c2.03 2.24-1.2 2.13-1.2 2.13H47.92c-11.86.1-21.97 9.85-21.73 21.7.24 11.53 9.63 20.92 21.25 20.92h4.35c1.02 0 1.9-.86 1.9-1.9v-3.74c0-.98-.88-1.85-1.9-1.85h-3.96c-7.17 0-13.4-5.23-14.14-12.37-.77-8.3 5.76-15.15 13.75-15.15H58.2c.86.23 1.2 1.38.62 2.13l-6.87 6.98z" fill="#fff"/></g></svg>