<svg xmlns="http://www.w3.org/2000/svg" xmlns:lucid="lucid" width="100" height="100"><g lucid:page-tab-id="0_0" stroke="#000" stroke-opacity="0"><path d="M100 50c0 27.6-22.4 50-50 50S0 77.6 0 50 22.4 0 50 0s50 22.4 50 50z" fill="#f88962"/><path d="M50.05 37.9c4.78 0 8.65-3.87 8.65-8.65 0-4.77-3.87-8.65-8.65-8.65-4.77 0-8.65 3.88-8.65 8.65 0 4.78 3.88 8.65 8.65 8.65zM76.9 43.6H23.1c-1.9 0-2.6 2.4-1.04 3.5l14 9c.75.48 1.1 1.3.75 2.14l-5.17 17.54c-.58 1.94 1.95 3.25 3.4 1.8l13.65-14.4c.74-.83 2.18-.83 2.88 0l13.65 14.4c1.33 1.45 3.87.14 3.4-1.8l-5.4-17.65c-.24-.72.1-1.7.74-2.14l14-9.04c1.55-.97.86-3.36-1.04-3.36z" fill="#fff"/></g></svg>