<svg xmlns="http://www.w3.org/2000/svg" xmlns:lucid="lucid" width="100" height="100"><g lucid:page-tab-id="0_0" stroke="#000" stroke-opacity="0"><path d="M100 50c0 27.6-22.4 50-50 50S0 77.6 0 50 22.4 0 50 0s50 22.4 50 50z" fill="#48c3cc"/><path d="M34.06 20h37.78c3.38 0 6.36 2.4 6.36 5.76v48C78.2 77 75.22 80 71.84 80H34.06c-3.38 0-6.14-3-6.14-6v-1.98H25.9c-2.25 0-4-1.74-4-4.02 0-2.22 1.75-4.02 4-4.02h2.02v-9.96H25.9c-2.25 0-4-1.8-4-4.02 0-2.22 1.75-4.02 4-4.02h2.02v-9.96H25.9c-2.25 0-4-1.74-4-4.02 0-2.22 1.75-4.02 4-4.02h2.02V26c0-3 2.76-6 6.14-6zm31.36 43.02l2.76-2.76c1.4-1.26 1.24-3.48.1-4.26l-3.2-2.64c-1.12-.84-2.76-.84-3.88-.12l-3.16 2.28c-.33.24-.84.24-1.23-.12l-5.12-4.62-4.6-5.16c-.4-.24-.4-.9-.18-1.26l2.25-3.24c.8-1.14.8-2.64-.1-3.72l-2.6-3.3c-1.13-1.5-3.38-1.5-4.68-.24l-2.75 2.76c-.62.48-.85 1.38-.85 2.28.4 6.6 3.38 12.84 7.77 17.22 4.34 4.38 10.64 7.38 17.23 7.74.8.12 1.63-.24 2.25-.84z" fill="#fff"/></g></svg>