<svg xmlns="http://www.w3.org/2000/svg" xmlns:lucid="lucid" width="100" height="100"><g lucid:page-tab-id="0_0" stroke="#000" stroke-opacity="0"><path d="M100 50c0 27.6-22.4 50-50 50S0 77.6 0 50 22.4 0 50 0s50 22.4 50 50z" fill="#6ca1e9"/><path d="M62.5 67.4l-5.85 1.96c-.53.1-1.1.23-1.63.23-1.68 0-3.4-.86-4.5-2.2-1.1-1.37-1.37-3.3-1.02-5.04l2-6.97 9.16-9.2c.4-.36.13-1.1-.48-1.1H21.85c-1 0-1.85.85-1.85 1.85V69.6c0 2.7 2.2 4.9 4.9 4.9h34.3c2.7 0 4.9-2.2 4.9-4.9v-.98c0-.85-.84-1.47-1.6-1.23zM21.85 40.2h40.4c1 0 1.85-.85 1.85-1.84V35.3c0-2.7-2.2-4.9-4.9-4.9h-3.66v-1.22c0-1.96-1.63-3.68-3.7-3.68-1.94 0-3.66 1.6-3.66 3.68v1.22H35.92v-1.22c0-1.96-1.6-3.68-3.66-3.68-1.98 0-3.7 1.6-3.7 3.68v1.22H24.9c-2.7 0-4.9 2.2-4.9 4.9v3.06c0 1 .84 1.84 1.85 1.84z" fill="#fff"/><path d="M68.36 46.48c-.24-.23-.6-.23-.85 0l-11.47 11.5-1.7 5.73c-.14.6.36 1.1.96.98l5.73-1.7 11.5-11.5c.23-.23.23-.6 0-.84l-4.17-4.16zM78.2 42.86l-2.22-2.2c-.73-.74-2.08-.74-2.94 0 0 0-1.35 1.34-1.96 2.07-.24.25-.24.62 0 .86l4.17 4.16c.24.24.6.24.85 0 .74-.74 2.1-1.96 2.1-1.96.84-.74.84-2.1 0-2.94z" fill="#fff"/></g></svg>