<svg xmlns="http://www.w3.org/2000/svg" xmlns:lucid="lucid" width="100" height="100"><g lucid:page-tab-id="0_0" stroke="#000" stroke-opacity="0"><path d="M100 50c0 27.6-22.4 50-50 50S0 77.6 0 50 22.4 0 50 0s50 22.4 50 50z" fill="#76c6ee"/><path d="M23.42 20c-.53 0-1.06.18-1.47.47-.88.47-1.35 1.47-1.35 2.47v44.1c0 1.12.6 2.06 1.6 2.6l17.63 8.8c.88.36 1.82.36 2.58 0l16.42-8.22 16.3 8.23c.34.23.87.35 1.34.35.47 0 1.12-.12 1.6-.47.87-.53 1.34-1.47 1.34-2.47v-44.1c0-1.12-.47-2.12-1.47-2.6l-17.64-8.8c-.9-.36-1.83-.36-2.6 0l-16.3 8.23L25 20.34c-.46-.23-1.05-.35-1.58-.35zm39 8.23c.28 0 .57.06.8.24L72.3 33c.77.35 1 1.05 1 1.82V58.1c0 1.36-1.23 2.3-2.47 1.83-2.45-.95-2.45-3.6-2.5-6.47-.07-2.47-.13-5.12-1.66-7-1.35-1.7-2.82-1.88-4.47-2.06-2-.23-4.17-.47-6.3-3.82-3.52-5.76 1.24-9.94 5.65-12.1.3-.2.6-.25.9-.25zm-33.82.7c.3 0 .64.07.94.24l10.52 5.3c.12 0 .24.1.24.1l.4.25c4.42 2.6 3.54 4.64 1.7 7.82-1.34 2.35-2.16 1.64-3.4.6-.7-.6-1.47-1.25-2.47-1.54-2.94-1-5.88.94-4.93 2.94.52.94 1.52.94 2.58.94 1.12 0 2.35 0 3.35 1 .42.4.77.94 1.06 1.35 1.17 1.65 2.17 3.12 6.75 1.6 5.88-1.95 6.88-1 8.82 1 1.94 1.93 2.94 5.87 0 8.8-1.4 1.42-2.17 4.12-2.76 6.42-.17.47-.28 1-.4 1.4-.12.48-.53 1-1 1.24l-1.35.46c-.7.36-1.6.24-2.18-.23-1.23-1.12-2.23-2.82-2.23-4.53 0-1.23-.83-1.76-1.83-2.4-1.4-.9-3.04-2-3.04-5.42 0-4.82-5.65-6.06-10.4-5.53-1.25.12-2.13-.76-2.13-2V30.88c0-1.12.83-1.94 1.77-1.94z" fill="#fff"/></g></svg>