<svg xmlns="http://www.w3.org/2000/svg" xmlns:lucid="lucid" width="100" height="100"><g lucid:page-tab-id="0_0" stroke="#000" stroke-opacity="0"><path d="M100 50c0 27.6-22.4 50-50 50S0 77.6 0 50 22.4 0 50 0s50 22.4 50 50z" fill="#62b7ed"/><path d="M27.5 42.5c4.14 0 7.5 3.38 7.5 7.5 0 4.13-3.36 7.5-7.5 7.5-4.14 0-7.5-3.37-7.5-7.5 0-4.12 3.36-7.5 7.5-7.5zm22.5 0c4.14 0 7.5 3.38 7.5 7.5 0 4.13-3.36 7.5-7.5 7.5-4.14 0-7.5-3.37-7.5-7.5 0-4.12 3.36-7.5 7.5-7.5zM80 50c0-4.12-3.36-7.5-7.5-7.5-4.14 0-7.5 3.38-7.5 7.5 0 4.13 3.36 7.5 7.5 7.5 4.14 0 7.5-3.37 7.5-7.5z" fill="#fff"/></g></svg>