<svg xmlns="http://www.w3.org/2000/svg" xmlns:lucid="lucid" width="100" height="100"><g lucid:page-tab-id="0_0" stroke="#000" stroke-opacity="0"><path d="M100 50c0 27.6-22.4 50-50 50S0 77.6 0 50 22.4 0 50 0s50 22.4 50 50z" fill="#33bce7"/><path d="M55.46 54.08h22.5c1.08 0 2.04-.96 2.04-2.04v-4.08c0-1.08-.96-2.04-2.04-2.04h-22.5c-.84 0-1.38-.54-1.38-1.38v-22.5c0-1.08-.96-2.04-2.04-2.04h-4.08c-1.08 0-2.04.96-2.04 2.04v22.5c0 .84-.54 1.38-1.38 1.38h-22.5c-1.08 0-2.04.96-2.04 2.04v4.08c0 1.08.96 2.04 2.04 2.04h22.5c.84 0 1.38.54 1.38 1.38v22.5c0 1.08.96 2.04 2.04 2.04h4.08c1.08 0 2.04-.96 2.04-2.04v-22.5c0-.84.54-1.38 1.38-1.38z" fill="#fff"/></g></svg>