<svg xmlns="http://www.w3.org/2000/svg" xmlns:lucid="lucid" width="100" height="100"><g lucid:page-tab-id="0_0" stroke="#000" stroke-opacity="0"><path d="M100 50c0 27.6-22.4 50-50 50S0 77.6 0 50 22.4 0 50 0s50 22.4 50 50z" fill="#f5675b"/><path d="M31.52 24.6c-.3 0-.54.1-.78.36l-4.14 4.16c-.48.46-1.2.46-1.62 0l-3-3c-.72-.7-1.98-.25-1.98.77v43.88c0 2.54 2.1 4.62 4.62 4.62h50.76c2.52 0 4.62-2.08 4.62-4.62V26.9c0-1.03-1.26-1.5-1.98-.78l-4.14 4.12c-.48.46-1.14.46-1.62 0l-5.28-5.28c-.48-.46-1.2-.46-1.62 0l-4.14 4.16c-.48.46-1.2.46-1.62 0l-4.2-4.16c-.42-.46-1.14-.46-1.62 0l-4.14 4.16c-.42.46-1.14.46-1.62 0l-4.14-4.16c-.48-.46-1.14-.46-1.62 0l-4.14 4.16c-.48.46-1.14.46-1.62 0l-4.14-4.16c-.24-.26-.54-.36-.84-.36zm-2.28 11.53h41.52c.72 0 1.14.46 1.14 1.17v2.3c0 .7-.42 1.15-1.14 1.15H29.24c-.72 0-1.14-.45-1.14-1.16v-2.3c0-.7.42-1.17 1.14-1.17zm0 9.25H43.1c.66 0 1.14.45 1.14 1.17v20.77c0 .7-.48 1.17-1.14 1.17H29.24c-.72 0-1.14-.47-1.14-1.18V46.55c0-.72.42-1.17 1.14-1.17zm20.76 0h20.76c.72 0 1.14.45 1.14 1.17v2.28c0 .7-.42 1.17-1.14 1.17H50c-.72 0-1.14-.46-1.14-1.17v-2.28c0-.72.42-1.17 1.14-1.17zm-1.14 9.24H71.9v4.63H48.86v-4.63zM50 63.87h20.76c.72 0 1.14.46 1.14 1.12v2.32c0 .7-.42 1.17-1.14 1.17H50c-.72 0-1.14-.47-1.14-1.18V65c0-.67.42-1.13 1.14-1.13z" fill="#fff"/></g></svg>