<svg xmlns="http://www.w3.org/2000/svg" xmlns:lucid="lucid" width="100" height="100"><g lucid:page-tab-id="0_0" stroke="#000" stroke-opacity="0"><path d="M100 50c0 27.6-22.4 50-50 50S0 77.6 0 50 22.4 0 50 0s50 22.4 50 50z" fill="#e6d478"/><path d="M31.76 24.3c-3.18 0-5.88 2.92-5.88 5.85h-1.96C21.72 30.15 20 32 20 34.2c0 2.2 1.72 3.95 3.92 3.95h1.96v7.95h-1.96c-2.2 0-3.92 1.7-3.92 3.9s1.72 3.95 3.92 3.95h1.96v7.95h-1.96c-2.2 0-3.92 1.85-3.92 3.9 0 2.2 1.72 3.9 3.92 3.9h1.96c0 3.95 2.7 5.9 5.88 5.9h31.36c3.2 0 5.88-2.72 5.88-5.9v-2.56c0-.62-.24-.72-.73-.36L67.2 67.9c-1.24 1.2-2.85 1.8-4.57 1.8h-3.18c-2.94 0-6.13-2.3-6.13-6.36V60.3c0-2.4 1.03-3.83 1.67-4.7l.04-.06 13.23-13.5c.4-.35.73-1.22.73-1.68v-10.2c0-3.2-2.7-5.86-5.88-5.86H31.76zm4.9 10.88h19.6c1.13 0 1.96.87 1.96 2v1.95c0 1.07-.83 1.95-1.96 1.95h-19.6c-1.08 0-1.96-.88-1.96-1.95v-1.95c0-1.13.88-2 1.96-2zm0 11.9h13.72c1.08 0 1.96.87 1.96 1.95v1.95c0 1.12-.88 1.95-1.96 1.95H36.66c-1.08 0-1.96-.83-1.96-1.95v-1.95c0-1.08.88-1.95 1.96-1.95zm0 11.85h10.78c1.08 0 1.96.87 1.96 2v1.95c0 1.08-.88 1.95-1.96 1.95H36.66c-1.08 0-1.96-.87-1.96-1.95v-1.95c0-1.13.88-2 1.96-2z" fill="#fff"/><path d="M78.17 45.58l-1.2-1.22c-.76-.74-1.97-.74-2.72 0l-14.93 15.4c-.12 0-.12.24-.12.24v3.32c0 .24 0 .48.24.48h3.2c.1 0 .23-.12.36-.12L78.06 48.5c.98-.84.98-2.08.1-2.92z" fill="#fff"/></g></svg>