<svg xmlns="http://www.w3.org/2000/svg" xmlns:lucid="lucid" width="100" height="100"><g lucid:page-tab-id="0_0" stroke="#000" stroke-opacity="0"><path d="M100 50c0 27.6-22.4 50-50 50S0 77.6 0 50 22.4 0 50 0s50 22.4 50 50z" fill="#e6d478"/><path d="M35 20c-2.76 0-5.02 2.28-5.02 4.98v3.78h-3.74c-2.1 0-3.74 1.62-3.74 3.72 0 2.16 1.65 3.78 3.74 3.78h3.74v9.96h-3.74c-2.1 0-3.74 1.68-3.74 3.78 0 2.1 1.65 3.78 3.74 3.78h3.74v9.96h-3.74c-2.1 0-3.74 1.62-3.74 3.78 0 2.1 1.65 3.72 3.74 3.72h3.74v3.78c0 2.7 2.26 4.98 5 4.98H72.5c2.75 0 5-2.28 5-4.98V24.98c0-2.7-2.25-4.98-5-4.98H35zm5 11.22h27.5c.76 0 1.26.54 1.26 1.26v7.5c0 .78-.5 1.26-1.27 1.26H40c-.72 0-1.27-.48-1.27-1.26v-7.5c0-.72.55-1.26 1.26-1.26zm2.52 17.52h22.5c.7 0 1.2.54 1.2 1.26v2.52c0 .72-.5 1.26-1.2 1.26h-22.5c-.77 0-1.26-.54-1.26-1.26V50c0-.72.5-1.26 1.26-1.26zM45 58.76h17.5c.76 0 1.25.48 1.25 1.26v2.46c0 .78-.5 1.26-1.26 1.26H45c-.77 0-1.27-.48-1.27-1.26v-2.46c0-.78.5-1.26 1.27-1.26z" fill="#fff"/></g></svg>