<svg xmlns="http://www.w3.org/2000/svg" xmlns:lucid="lucid" width="100" height="100"><g lucid:page-tab-id="0_0" stroke="#000" stroke-opacity="0"><path d="M100 50c0 27.6-22.4 50-50 50S0 77.6 0 50 22.4 0 50 0s50 22.4 50 50z" fill="#fcb95b"/><path d="M69.75 68.8H30.27c-1.04 0-1.77.88-1.77 1.75v.13c0 3.12 2.5 5.62 5.6 5.62H66c3.1 0 5.6-2.5 5.6-5.62v-.13c-.13-.87-.86-1.75-1.85-1.75zM74.36 30.2c-3.12 0-5.58 2.52-5.58 5.64 0 1.73.72 3.23 1.98 4.25-1.62 3.62-5.28 6.1-9.48 5.98-5.04-.24-9.06-4.26-9.3-9.26 0-.87 0-1.6.12-2.36 2.16-.87 3.66-2.76 3.66-5.24-.12-3.04-2.64-5.52-5.76-5.52-3.12 0-5.64 2.48-5.64 5.63 0 2.37 1.5 4.38 3.54 5.24.24.75.24 1.5.24 2.4-.24 4.97-4.26 9-9.24 9.23-4.26.27-8.04-2.37-9.66-6 1.26-.98 1.98-2.63 1.98-4.25 0-3.1-2.46-5.63-5.58-5.63S20 32.84 20 35.95c0 3.12 2.52 5.64 5.64 5.64l2.64 20c.12.87.84 1.5 1.74 1.5h39.96c.9 0 1.62-.63 1.8-1.5l2.58-20c3.12 0 5.64-2.53 5.64-5.65 0-3.1-2.52-5.75-5.64-5.75z" fill="#fff"/></g></svg>