<svg xmlns="http://www.w3.org/2000/svg" xmlns:lucid="lucid" width="100" height="100"><g lucid:page-tab-id="0_0" stroke="#000" stroke-opacity="0"><path d="M100 50c0 27.6-22.4 50-50 50S0 77.6 0 50 22.4 0 50 0s50 22.4 50 50z" fill="#54698d"/><path d="M37.75 46.95H69.6c2.7 0 4.9 2.18 4.9 4.9V75.1c0 2.7-2.2 4.88-4.9 4.88H30.4c-2.7 0-4.9-2.18-4.9-4.88V51.84c0-2.7 2.2-4.9 4.9-4.9v-5.97c.24-10.3 8.18-19.23 18.62-19.76 9.9-.47 18.23 6.4 20.24 15.7.1.7-.5 1.47-1.23 1.47h-5.05c-.58 0-1.12-.47-1.22-1-1.57-5.35-6.62-9.17-12.6-8.82-6.5.4-11.4 6.12-11.4 12.64v5.75zm16.66 25.7c.84 0 1.48-.88 1.23-1.6l-2.1-7.34c1.6-1 2.6-2.8 2.6-4.75 0-3.7-3.44-6.53-7.36-5.76-2.45.46-4.3 2.34-4.8 4.63-.44 2.47.64 4.65 2.5 5.88l-2.2 7.36c-.3.88.34 1.6 1.22 1.6h8.9z" fill="#fff"/></g></svg>