<svg xmlns="http://www.w3.org/2000/svg" xmlns:lucid="lucid" width="100" height="100"><g lucid:page-tab-id="0_0" stroke="#000" stroke-opacity="0"><path d="M100 50c0 27.6-22.4 50-50 50S0 77.6 0 50 22.4 0 50 0s50 22.4 50 50z" fill="#54698d"/><path d="M26.24 20h47.52c3.48 0 6.24 2.76 6.24 6.24v47.52c0 3.48-2.88 6.24-6.24 6.24H26.24C22.76 80 20 77.12 20 73.76V26.24c0-3.48 2.76-6.24 6.24-6.24zm2.04 53.76h43.5c1.08 0 1.98-.9 1.98-1.98v-43.5c0-1.14-.9-2.04-1.98-2.04h-43.5c-1.14 0-2.04.9-2.04 2.04v43.5c0 1.08.9 1.98 2.04 1.98z" fill="#fff"/><path d="M44.88 32.4H34.52c-1.13 0-2.12.88-2.12 2.12v10.36c0 1.13.88 2.12 2.12 2.12h10.36C46 47 47 46.12 47 44.88V34.52c-.13-1.13-1-2.12-2.12-2.12zM65.48 32.4H55.12c-1.13 0-2.12.88-2.12 2.12v10.36C53 46 53.88 47 55.12 47h10.36c1.13 0 2.12-.88 2.12-2.12V34.52c0-1.13-1-2.12-2.12-2.12zM44.88 53.1H34.52c-1.13 0-2.12.88-2.12 2.12v10.36c0 1.13.88 2.12 2.12 2.12h10.36c1.13 0 2.12-.88 2.12-2.12V55.22c-.13-1.24-1-2.12-2.12-2.12zM65.48 53.1H55.12c-1.13 0-2.12.88-2.12 2.12v10.36c0 1.13.88 2.12 2.12 2.12h10.36c1.13 0 2.12-.88 2.12-2.12V55.22c0-1.24-1-2.12-2.12-2.12z" fill="#fff"/></g></svg>