<svg xmlns="http://www.w3.org/2000/svg" xmlns:lucid="lucid" width="100" height="100"><g lucid:page-tab-id="0_0" stroke="#000" stroke-opacity="0"><path d="M100 50c0 27.6-22.4 50-50 50S0 77.6 0 50 22.4 0 50 0s50 22.4 50 50z" fill="#7f8de1"/><path d="M69.62 59c-3.6-1.5-4.23-2.88-4.23-4.38s.96-2.88 2.24-4c2.13-1.85 3.26-4.6 3.26-7.74C70.9 37.12 67.13 32 60.62 32c-6.52 0-10.25 5-10.25 10.88 0 3.22 1.24 5.76 3.26 7.74 1.24 1.12 2.25 2.5 2.25 4S55.22 57.5 51.6 59c-5.38 2.24-10.38 5-10.5 9.77 0 3.1 2.37 6.23 5.4 6.23h28c3.15 0 5.4-3.14 5.4-6.23.23-4.65-4.9-7.53-10.28-9.77z" fill="#fff"/><path d="M21.88 25c-.9 0-1.88.87-1.88 2v43.6h13.5C33.88 59.47 46.63 55 46.63 55c1.88-1 .5-3.14.14-3.64l-.03-.05c-.44-.54-2.34-3.1-2.23-9.7.15-6.6 3.02-8.2 3.02-8.2v-6.53c0-1.14-1.13-1.87-1.88-1.87H21.88zm4.77 6.38h2.1c1.13 0 2 .87 2 2v1.97c0 1.14-.87 2-2 2h-2c-1.12 0-2-.86-2-2V33.4c0-1.1.82-1.97 1.9-2.02zm11.26 0H40c1.14 0 2.02.87 2.02 2v1.97c0 1.14-.88 2-2 2h-2.03c-1.1 0-2-.86-2-2V33.4c0-1.1.84-1.97 1.9-2.02zm-11.14 9.85h2c1.12 0 2 .87 2 2v2.02c0 1.1-.88 2-2 2h-2c-1.13 0-2-.9-2-2v-2c0-1.15.87-2.02 2-2.02zm11.23 0h2c1.14 0 2.02.87 2.02 2v2.02c0 1.1-.88 2-2 2h-2.03c-1.1 0-2-.9-2-2v-2c0-1.15.9-2.02 2-2.02zm-11.24 10h2c1.12 0 2 .9 2 2v2c0 1.14-.88 2-2 2h-2c-1.13 0-2-.86-2-2v-2c0-1.1.87-2 2-2zm11.23 0h2c1.14 0 2.02.9 2.02 2v2c0 1.14-.88 2-2 2h-2.03c-1.1 0-2-.86-2-2v-2c0-1.1.9-2 2-2zm-11.24 9.9h2c1.12 0 2 .85 2 2v1.95c0 1.14-.88 2-2 2h-2c-1.13 0-2-.86-2-2v-1.96c0-1.14.87-2 2-2z" fill="#fff"/></g></svg>