<svg xmlns="http://www.w3.org/2000/svg" xmlns:lucid="lucid" width="100" height="100"><g lucid:page-tab-id="0_0" stroke="#000" stroke-opacity="0"><path d="M100 50c0 27.6-22.4 50-50 50S0 77.6 0 50 22.4 0 50 0s50 22.4 50 50z" fill="#00cdc0"/><path d="M43.88 25c-2.28 0-4.38 1.25-5.4 3.35l-2.88 4.4C34.76 34.1 33.14 35 31.4 35h-6.42c-2.7 0-4.98 2.25-4.98 5v30c0 2.75 2.28 5 4.98 5h50.04c2.7 0 4.98-2.25 4.98-5V40c0-2.75-2.28-5-4.98-5h-6.54c-1.74 0-3.24-.9-4.26-2.25l-2.82-4.4c-.9-2.1-3-3.35-5.28-3.35H43.88zM50 37.5c8.22 0 15 6.75 15 15s-6.78 15-15 15c-8.22 0-15-6.75-15-15s6.78-15 15-15zm0 5c-5.52 0-10.02 4.5-10.02 10s4.5 10 10.02 10 10.02-4.5 10.02-10-4.5-10-10.02-10z" fill="#fff"/></g></svg>