<svg xmlns="http://www.w3.org/2000/svg" xmlns:lucid="lucid" width="100" height="100"><g lucid:page-tab-id="0_0" stroke="#000" stroke-opacity="0"><path d="M100 50c0 27.6-22.4 50-50 50S0 77.6 0 50 22.4 0 50 0s50 22.4 50 50z" fill="#fbb439"/><path d="M28.7 21.86c0-.96-.88-1.86-1.88-1.86h-3.75c-1 0-1.87.9-1.87 1.86v56.28c0 .96.88 1.86 1.87 1.86h3.75c1 0 1.88-.9 1.88-1.86V21.86zM76.9 27.12C56.94 37.62 59.2 16.1 35.07 24.5c-.77.23-1.26 1-1.26 1.74v29.14c0 .87.85 1.5 1.62 1.15 23.98-8.04 21.5 14 42.4 2.23.62-.36.98-1 .98-1.63V28.1c0-.86-1-1.5-1.9-.98z" fill="#fff"/></g></svg>