<svg xmlns="http://www.w3.org/2000/svg" xmlns:lucid="lucid" width="100" height="100"><g lucid:page-tab-id="0_0" stroke="#000" stroke-opacity="0"><path d="M100 50c0 27.6-22.4 50-50 50S0 77.6 0 50 22.4 0 50 0s50 22.4 50 50z" fill="#32af5c"/><path d="M52.34 65.3H46.2c-.97 0-1.72-.75-1.72-1.72v-1.82c0-5.17 3.33-9.8 8.2-11.53 1.5-.5 2.83-1.33 3.92-2.57 6.14-7.33.5-16.13-6.84-16.4-2.7-.13-5.28.85-7.23 2.7-1.6 1.46-2.58 3.32-2.82 5.4-.1.7-.85 1.32-1.82 1.32h-6.14c-1.1 0-1.96-.84-1.84-1.94.5-4.64 2.58-8.8 5.9-12.1 3.9-3.68 8.92-5.67 14.3-5.54 10.18.35 18.5 8.7 18.9 18.87.35 8.58-4.93 16.27-12.86 19.23-1.14.5-1.84 1.33-1.84 2.43v1.8c0 1.12-.98 1.87-1.96 1.87zM54.3 78.17c0 .97-.85 1.83-1.84 1.83h-6.12c-1 0-1.84-.86-1.84-1.83v-6.14c0-.97.85-1.83 1.84-1.83h6.12c1 0 1.84.86 1.84 1.83v6.14z" fill="#fff"/></g></svg>