<svg xmlns="http://www.w3.org/2000/svg" xmlns:lucid="lucid" width="100" height="100"><g lucid:page-tab-id="0_0" stroke="#000" stroke-opacity="0"><path d="M100 50c0 27.6-22.4 50-50 50S0 77.6 0 50 22.4 0 50 0s50 22.4 50 50z" fill="#7dc37d"/><path d="M39.3 32h21.6c1.13 0 2-.88 2-2v-4c0-3.25-2.63-6-5.86-6H43.3c-3.27 0-5.9 2.75-5.9 6v4c-.1 1.12.77 2 1.9 2z" fill="#fff"/><path d="M28.4 25c-3.26 0-5.9 2.75-5.9 6v43c0 3.25 2.64 6 5.9 6H71.6c3.24 0 5.88-2.75 5.88-6V31c0-3.25-2.64-6-5.88-6h-1.98c-.66 0-1 .4-1 1v4c0 4.35-3.5 7.98-7.9 7.98H39.27c-4.4 0-7.92-3.63-7.92-7.97v-4c0-.6-.33-1-1-1H28.4zm6.86 18.98h1.98c1.16 0 2.04.88 2.04 2.03v2c0 1.15-.88 2.03-2.04 2.03h-1.98c-1.15 0-2.03-.88-2.03-2.04v-2c0-1.14.88-2.02 2.03-2.02zm9.85 0h19.64c1.16 0 2.04.88 2.04 2.03v2c0 1.15-.88 2.03-2.04 2.03H45.1c-1.1 0-1.97-.88-1.97-2.04v-2c0-1.14.88-2.02 1.98-2.02zm-9.84 10h1.98c1.16 0 2.04.9 2.04 2.04V58c0 1.1-.88 1.98-2.04 1.98h-1.98c-1.15 0-2.03-.88-2.03-1.98v-1.98c0-1.15.88-2.03 2.03-2.03zm9.85 0h19.64c1.16 0 2.04.9 2.04 2.04V58c0 1.1-.88 1.98-2.04 1.98H45.1c-1.1 0-1.97-.88-1.97-1.98v-1.98c0-1.15.88-2.03 1.98-2.03zM35.27 64h1.98c1.16 0 2.04.88 2.04 1.98V68c0 1.1-.88 2-2.04 2h-1.98c-1.15 0-2.03-.9-2.03-2V66c0-1.1.88-1.98 2.03-1.98zm9.85 0h19.64c1.16 0 2.04.88 2.04 1.98V68c0 1.1-.88 2-2.04 2H45.1c-1.1 0-1.97-.9-1.97-2V66c0-1.1.88-1.98 1.98-1.98z" fill="#fff"/></g></svg>