<svg xmlns="http://www.w3.org/2000/svg" xmlns:lucid="lucid" width="100" height="100"><g lucid:page-tab-id="0_0" stroke="#000" stroke-opacity="0"><path d="M100 50c0 27.6-22.4 50-50 50S0 77.6 0 50 22.4 0 50 0s50 22.4 50 50z" fill="#54698d"/><path d="M76.82 20.7H72.9c-1.04 0-1.96.92-1.96 1.96v9.14c0 1.15-.64 1.67-1.56.92-.4-.52-.8-.92-1.33-1.32-6.52-6.5-15.63-9.26-25.04-7.42-3.28.63-6.4 1.95-9.1 3.74-7.97 5.23-12.58 13.74-12.7 22.82-.12 7.08 2.6 14.1 7.56 19.2C34 75.22 41.06 78.2 48.6 78.2c6.7 0 12.93-2.36 17.9-6.5.92-.8.92-2.12.1-2.87l-2.7-2.76c-.64-.63-1.85-.75-2.6-.12-4.73 3.9-11.13 5.47-17.54 3.9-1.67-.4-3.35-1.2-4.96-2.06-7.4-4.6-10.96-13.17-8.83-21.8.35-1.72 1.15-3.4 2.08-4.94 3.63-6.4 10.04-9.95 16.85-9.95 5.2 0 10.15 2.14 13.8 5.76.68.52 1.2 1.2 1.6 1.84.35 1.03-.52 1.55-1.73 1.55h-9.12c-1.03 0-1.96.92-1.96 1.96v4.03c0 1.1.74 1.84 1.84 1.84h23.9c.85 0 1.66-.75 1.66-1.67V22.66c-.12-1.04-1.04-1.96-2.08-1.96z" fill="#fff"/></g></svg>