<svg xmlns="http://www.w3.org/2000/svg" xmlns:lucid="lucid" width="100" height="100"><g lucid:page-tab-id="0_0" stroke="#000" stroke-opacity="0"><path d="M100 50c0 27.6-22.4 50-50 50S0 77.6 0 50 22.4 0 50 0s50 22.4 50 50z" fill="#00c6b7"/><path d="M57.23 49.65L77.9 28.98c.93-.94.93-2.34 0-3.27l-3.33-3.32c-.93-.94-2.34-.94-3.33 0L50.57 43.05c-.64.64-1.58.64-2.22 0L27.67 22.2c-.93-.93-2.33-.93-3.27 0l-3.32 3.33c-.94.93-.94 2.34 0 3.33l20.67 20.67c.64.64.64 1.58 0 2.22L20.9 72.55c-.93.98-.93 2.4 0 3.32l3.33 3.33c.93.93 2.34.93 3.33 0l20.8-20.67c.63-.65 1.57-.65 2.2 0L71.25 79.2c1 .93 2.4.93 3.33 0l3.33-3.33c.93-.93.93-2.34 0-3.33L57.23 51.87c-.47-.64-.47-1.58 0-2.22z" fill="#fff"/></g></svg>