<svg xmlns="http://www.w3.org/2000/svg" xmlns:lucid="lucid" width="100" height="100"><g lucid:page-tab-id="0_0" stroke="#000" stroke-opacity="0"><path d="M100 50c0 27.6-22.4 50-50 50S0 77.6 0 50 22.4 0 50 0s50 22.4 50 50z" fill="#4a698d"/><path d="M41.43 45.8c-.6-.78-.25-2.04.66-2.28h11.23c8.36 0 15.12 7.13 14.36 15.75-.77 7.37-7.27 12.88-14.78 12.88H48.7c-1.02 0-2.03.84-2.03 1.98v3.9c0 .95.9 1.97 2.02 1.97h4.47c12.15 0 21.88-9.76 22.13-21.74.25-12.34-10.23-22.47-22.63-22.6H42.34s-3.38.13-1.26-2.26l7.36-7.25c.75-.72.75-1.98 0-2.76l-2.72-2.76c-.76-.72-2.02-.72-2.78 0l-17.5 17.6c-.74.8-.74 2.05 0 2.77L43.1 58.63c.7.77 1.96.77 2.72 0l2.77-2.76c.7-.72.7-1.98 0-2.7l-7.17-7.36z" fill="#fff"/></g></svg>