<svg xmlns="http://www.w3.org/2000/svg" xmlns:lucid="lucid" width="100" height="100"><g lucid:page-tab-id="0_0" stroke="#000" stroke-opacity="0"><path d="M100 50c0 27.6-22.4 50-50 50S0 77.6 0 50 22.4 0 50 0s50 22.4 50 50z" fill="#ef6e64"/><path d="M66.57 69.58h3.64c4.78 0 8.6-3.76 8.6-8.58V29.2c0-4.78-3.82-8.6-8.6-8.6H38.36c-4.77 0-8.53 3.82-8.53 8.6v3.63h7.35V29.2c0-.78.47-1.25 1.18-1.25H70.2c.78 0 1.25.47 1.25 1.24V61c0 .76-.47 1.23-1.24 1.23h-3.63v7.35zm-4.94-26.93c0-2.7-2.18-4.88-4.88-4.88H24.88c-2.65 0-4.88 2.18-4.88 4.88v31.87c0 2.65 2.23 4.88 4.88 4.88h31.87c2.7 0 4.88-2.23 4.88-4.88V42.65zM31 61c-.6 0-1.18-.6-1.18-1.18v-2.47c0-.6.6-1.23 1.18-1.23h19.63c.6 0 1.24.64 1.24 1.23v2.47c0 .6-.65 1.18-1.24 1.18H31z" fill="#fff"/></g></svg>