<svg xmlns="http://www.w3.org/2000/svg" xmlns:lucid="lucid" width="100" height="100"><g lucid:page-tab-id="0_0" stroke="#000" stroke-opacity="0"><path d="M100 50c0 27.6-22.4 50-50 50S0 77.6 0 50 22.4 0 50 0s50 22.4 50 50z" fill="#ef7ead"/><path d="M20 50c0-16.5 13.5-30 30-30s30 13.5 30 30-13.5 30-30 30-30-13.5-30-30zm7.5 0c0 12.36 10.14 22.5 22.5 22.5S72.5 62.36 72.5 50 62.36 27.5 50 27.5 27.5 37.64 27.5 50z" fill="#fff"/><path d="M54.32 50.26c-.38-.37-.5-.88-.5-1.4V36.9c0-1.03-.87-1.9-1.9-1.9h-3.75c-1 0-1.87.87-1.87 1.9V52c0 .5.25 1.02.5 1.4l9.28 9.24c.75.76 1.87.76 2.62 0L61.34 60c.75-.75.75-1.88 0-2.6l-7.02-7.14z" fill="#fff"/></g></svg>