<svg xmlns="http://www.w3.org/2000/svg" xmlns:lucid="lucid" width="100" height="100"><g lucid:page-tab-id="0_0" stroke="#000" stroke-opacity="0"><path d="M100 50c0 27.6-22.4 50-50 50S0 77.6 0 50 22.4 0 50 0s50 22.4 50 50z" fill="#0070d2"/><path d="M20 45.44c0-11.82 9.05-21.04 20.8-21.04h3.48c1.06 0 2 .92 2 2v4c0 1.07-.94 2-2 2H40.8c-6.5 0-12.92 6.54-12.92 13.04v3.9h16.4c1.06 0 2 .92 2 2V73.6c0 1.08-.94 2-2 2H22c-1.06 0-2-.92-2-2V45.44zm32.52-.1c0-11.72 9.05-20.94 20.8-20.94h3.36c1.06 0 2 .92 2 2v4c0 1.07-.94 2-2 2H73.2c-6.5 0-12.92 6.54-12.92 13.04v3.9H76.8c1.06 0 2 .92 2 2v22.1c0 1.1-.94 2-2 2H54.52c-1.06 0-2-.9-2-2v-28.1z" fill="#fff"/></g></svg>