<svg xmlns="http://www.w3.org/2000/svg" xmlns:lucid="lucid" width="100" height="100"><g lucid:page-tab-id="0_0" stroke="#000" stroke-opacity="0"><path d="M100 50c0 27.6-22.4 50-50 50S0 77.6 0 50 22.4 0 50 0s50 22.4 50 50z" fill="#65cae4"/><path d="M49.4 22.4c-16.32 0-29.4 12-29.4 26.95 0 4.75 1.36 9.18 3.65 13.23.3.48.4 1.08.3 1.56l-2.7 8.48c-.54 1.57.93 2.92 2.52 2.43l8.6-2.92c.6-.27 1.24-.16 1.7.22 4.54 2.6 9.78 4.05 15.44 4.05 16.32 0 29.4-12 29.4-26.95C78.55 34.4 65.4 22.4 49.4 22.4z" fill="#fff"/></g></svg>