<svg xmlns="http://www.w3.org/2000/svg" xmlns:lucid="lucid" width="100" height="100"><g lucid:page-tab-id="0_0" stroke="#000" stroke-opacity="0"><path d="M100 50c0 27.6-22.4 50-50 50S0 77.6 0 50 22.4 0 50 0s50 22.4 50 50z" fill="#699be1"/><path d="M24.02 20h51.96c2.28 0 4.02 1.74 4.02 4v8c0 2.26-1.74 4-4.02 4H24.02C21.74 36 20 34.26 20 32v-8c0-2.26 1.74-4 4.02-4zm27 4v8h24.96v-8H51.02zM24.02 42h51.96c2.28 0 4.02 1.74 4.02 4v8c0 2.26-1.74 4-4.02 4H24.02C21.74 58 20 56.26 20 54v-8c0-2.26 1.74-4 4.02-4zm18 4v8h33.96v-8H42.02zM24.02 64h51.96c2.28 0 4.02 1.74 4.02 4v8c0 2.26-1.74 4-4.02 4H24.02C21.74 80 20 78.26 20 76v-8c0-2.26 1.74-4 4.02-4zm36 4v8h15.96v-8H60.02z" fill="#fff"/></g></svg>