<svg xmlns="http://www.w3.org/2000/svg" xmlns:lucid="lucid" width="100" height="100"><g lucid:page-tab-id="0_0" stroke="#000" stroke-opacity="0"><path d="M100 50c0 27.6-22.4 50-50 50S0 77.6 0 50 22.4 0 50 0s50 22.4 50 50z" fill="#baac93"/><path d="M68.75 36.9h9.8c.5 0 .87-.63.5-1.13L68.63 25.35c-.5-.37-1.13 0-1.13.5v9.8c0 .75.5 1.25 1.25 1.25z" fill="#fff"/><path d="M78.76 41.9H65c-1.4 0-2.5-1.12-2.5-2.52V25.65c0-.75-.5-1.25-1.25-1.25H44.37c-1 0-1.87.85-1.87 1.85v5c0 .52.26 1.02.5 1.42l7 6.96c1 1 1.76 2.4 2 3.9.25 1.96-.4 3.87-1.74 5.37l-2.02 1.75c-.6.6-1.24 1-2 1.36.87.4 1.88.66 2.9.76 3.22.25 5.85 3 5.85 6.36v2.76c0 1.75-.88 3.5-2.1 4.6-1.3 1.26-3.16 1.76-4.9 1.66-1.38-.15-2.6-.4-4-.65-.75-.26-1.5.4-1.5 1.24v3.9c0 1 .86 1.86 1.87 1.86h33.75c1.02 0 1.88-.85 1.88-1.85v-29.5c0-.76-.5-1.26-1.24-1.26z" fill="#fff"/><path d="M50 61.74V59c0-.8-.63-1.28-1.38-1.4-6.75-.62-12.36-6.4-12.36-13.52v-1.5c0-.73 1-1.25 1.5-.64l4.98 5.03c.5.48 1.38.48 1.9 0l1.85-1.88c.5-.5.5-1.37 0-1.9L34.36 31.1c-.48-.53-1.38-.53-1.86 0L20.4 43.2c-.52.53-.52 1.4 0 1.9l1.85 1.87c.5.48 1.38.6 1.9.12l5.24-5.03c.6-.6 1.73-.13 1.73.65v2.37c0 9 7.86 17.26 17.37 18 .87 0 1.5-.62 1.5-1.36z" fill="#fff"/></g></svg>