<svg xmlns="http://www.w3.org/2000/svg" xmlns:lucid="lucid" width="100" height="100"><g lucid:page-tab-id="0_0" stroke="#000" stroke-opacity="0"><path d="M100 50c0 27.6-22.4 50-50 50S0 77.6 0 50 22.4 0 50 0s50 22.4 50 50z" fill="#54698d"/><path d="M76.4 54.78h-3.6c-.94 0-1.8.87-1.8 1.82v13.2c0 .97-.86 1.8-1.8 1.8H29.6c-.94 0-1.8-.83-1.8-1.8V44.6c0-.96.86-1.8 1.8-1.8h4.82c.93 0 1.8-.85 1.8-1.8v-3.6c0-.98-.87-1.8-1.8-1.8h-9.04c-2.65 0-4.78 2.16-4.78 4.8V74c0 2.64 2.13 4.8 4.78 4.8h48.04c2.65 0 4.78-2.16 4.78-4.8V56.6c0-.95-.86-1.82-1.8-1.82z" fill="#fff"/><path d="M59.03 35.6c-12 0-22.94 10.67-23.93 23.3-.13.95.73 1.9 1.8 1.9h3.6c1 0 1.68-.7 1.8-1.55.88-9 8.57-16.47 17.9-16.47h1.94c1.08 0 1.56 1.3.82 2.06l-6.6 6.7c-.7.72-.7 1.8 0 2.55l2.54 2.5c.74.7 1.82.7 2.5 0l16.34-16.2c.73-.76.73-1.83 0-2.55l-16.2-16.2c-.74-.75-1.82-.75-2.5 0l-2.56 2.5c-.7.72-.82 1.83-.13 2.55l6.74 6.7c.73.72.25 2.07-.83 2.07l-3.24.12z" fill="#fff"/></g></svg>