<svg xmlns="http://www.w3.org/2000/svg" xmlns:lucid="lucid" width="100" height="100"><g lucid:page-tab-id="0_0" stroke="#000" stroke-opacity="0"><path d="M100 50c0 27.6-22.4 50-50 50S0 77.6 0 50 22.4 0 50 0s50 22.4 50 50z" fill="#7a9ae6"/><path d="M52.04 68.6c-.87-.1-1.7-.24-2.6-.37-.83-.13-1.7-.4-2.54-.73-.48-.13-1.12 0-1.48.34l-.6.65c-3.55 3.54-9.3 3.88-12.97.7-4.15-3.54-4.27-9.92-.48-13.68l9.3-9.3c1.2-1.23 2.67-1.96 4.15-2.47 1.96-.47 4.03-.35 5.87.38 1.1.47 2.18 1.12 3.18 2.1.48.47.84.94 1.2 1.58.5.87 1.6 1 2.23.23 1.1-1.07 2.56-2.57 3.4-3.43.52-.47.52-1.2.12-1.8-.48-.76-1.08-1.36-1.67-1.96-.88-.86-1.84-1.72-2.96-2.3-1.72-1.13-3.68-1.85-5.75-2.24-3.8-.73-7.94-.13-11.37 1.7-1.36.74-2.72 1.72-3.8 2.84l-8.93 8.9c-6.47 6.5-7 17.03-.72 23.62 6.46 7.1 17.48 7.24 24.22.52l3.03-3.08c.88-.6.24-2.1-.84-2.2z" fill="#fff"/><path d="M74.54 24.6c-6.72-6.24-17.24-5.73-23.6.74l-2.84 2.7c-.84.85-.24 2.35.88 2.48 1.72.08 3.4.47 5.12.94.48.13 1.12 0 1.48-.35l.6-.58c3.56-3.56 9.32-3.94 12.96-.78 4.16 3.56 4.28 9.93.48 13.74l-9.28 9.3c-1.24 1.23-2.68 1.96-4.16 2.43-1.96.52-4.04.4-5.88-.33-1.08-.52-2.2-1.1-3.16-2.1-.48-.47-.88-.98-1.24-1.58-.48-.87-1.56-1-2.2-.27l-3.4 3.42c-.52.52-.52 1.25-.12 1.85.48.72 1.08 1.36 1.68 1.96.88.86 1.96 1.72 2.96 2.32 1.72 1.1 3.64 1.84 5.6 2.22 3.8.73 7.96.13 11.4-1.7 1.32-.74 2.68-1.72 3.8-2.84l9.28-9.28c6.84-6.77 6.6-17.77-.36-24.27z" fill="#fff"/></g></svg>