<svg xmlns="http://www.w3.org/2000/svg" xmlns:lucid="lucid" width="100" height="100"><g lucid:page-tab-id="0_0" stroke="#000" stroke-opacity="0"><path d="M100 50c0 27.6-22.4 50-50 50S0 77.6 0 50 22.4 0 50 0s50 22.4 50 50z" fill="#e9696e"/><path d="M74 35h-8.76c2.52-3.88 2.28-9.1-.72-12.25C62.78 21 60.5 20 58.1 20c-2.58 0-5.22 1.24-7.08 3.24-.42.38-.78.76-1.02 1.27-.24-.5-.6-.88-1.02-1.26-1.86-2.1-4.5-3.24-7.08-3.24-2.4 0-4.62 1-6.3 2.75-3.12 3.24-3.24 8.37-.72 12.26h-8.76C22.76 35 20 37.75 20 41v4c0 1.14.9 2 1.98 2h56.04c1.08 0 1.98-.86 1.98-2v-4c0-3.26-2.76-6-6-6zm-27 0c-2.1 0-5.1-.74-6.72-2.63-1.56-1.62-1.8-4.24-.3-5.48.66-.66 1.26-.77 1.92-.77.96 0 1.98.5 2.7 1.24 1.8 1.9 2.4 5.13 2.4 7.13v.5zm6 0c1.98 0 4.98-.88 6.72-2.63 1.56-1.62 1.68-4.1.42-5.62-.78-.62-1.5-.76-2.04-.76-.96 0-1.98.5-2.7 1.26-1.62 1.87-2.4 5.1-2.4 7.1V35zM74 53H53v27h17.25C73.5 80 76 77.38 76 74.25V55c0-1.14-.87-2-2-2zM24 55v19c0 3.25 2.76 6 6 6h17V53H26c-1.13 0-2 .86-2 2z" fill="#fff"/></g></svg>