<svg xmlns="http://www.w3.org/2000/svg" xmlns:lucid="lucid" width="100" height="100"><g lucid:page-tab-id="0_0" stroke="#000" stroke-opacity="0"><path d="M100 50c0 27.6-22.4 50-50 50S0 77.6 0 50 22.4 0 50 0s50 22.4 50 50z" fill="#fab9a5"/><path d="M51.87 37.95c.72-.73.72-1.8 0-2.54l-13.7-13.74c-.73-.73-1.8-.73-2.53 0L21.84 35.4c-.73.74-.73 1.82 0 2.55l2.5 2.5c.75.73 1.8.73 2.56 0l4.32-4.3c.72-.74 2.02-.22 2.02.85v25.4c0 .98.84 1.8 1.8 1.8h3.6c.98 0 1.82-.95 1.82-1.8V37c0-1.07 1.3-1.6 2.02-.86l4.32 4.3c.75.74 1.8.74 2.55 0l2.52-2.5zM78.24 62l-2.52-2.37c-.7-.73-1.8-.73-2.52 0l-4.32 4.33c-.72.7-2.02.22-2.02-.86V37.42c0-1-.87-1.82-1.8-1.82h-3.6c-.98 0-1.82.95-1.82 1.82v25.46c0 1.08-1.3 1.56-2.05.82l-4.33-4.33c-.72-.7-1.78-.7-2.52 0L48.23 62c-.72.75-.72 1.83 0 2.57l13.8 13.8c.72.7 1.8.7 2.53 0l13.8-13.8c.6-.74.6-1.95-.12-2.56z" fill="#fff"/></g></svg>