<svg xmlns="http://www.w3.org/2000/svg" xmlns:lucid="lucid" width="100" height="100"><g lucid:page-tab-id="0_0" stroke="#000" stroke-opacity="0"><path d="M100 50c0 27.6-22.4 50-50 50S0 77.6 0 50 22.4 0 50 0s50 22.4 50 50z" fill="#50cc7a"/><path d="M73.52 54.53H62.76c-3.18 0-5.88-2.66-5.88-5.86.47-8.7 4.53-9.2 4.88-14.84.35-5.86-3.3-11.14-9.05-12.36-7.58-1.58-14.46 4.15-14.46 11.5 0 6.5 4.4 6.5 4.88 15.7 0 3.2-2.65 5.86-5.88 5.86H26.48c-3.17 0-5.88 2.57-5.88 5.9v3.93c0 1.08.88 1.94 1.94 1.94h54.92c1.06 0 1.94-.86 1.94-1.94v-3.92c0-3.34-2.7-5.9-5.88-5.9zM73.57 72.2H26.33c-1.12 0-1.83.85-1.83 1.83v.13c0 3.18 2.7 5.88 5.85 5.88h39.3c3.2 0 5.75-2.7 5.75-5.88v-.13c0-.98-.86-1.83-1.83-1.83z" fill="#fff"/></g></svg>