<svg xmlns="http://www.w3.org/2000/svg" xmlns:lucid="lucid" width="100" height="100"><g lucid:page-tab-id="0_0" stroke="#000" stroke-opacity="0"><path d="M100 50c0 27.6-22.4 50-50 50S0 77.6 0 50 22.4 0 50 0s50 22.4 50 50z" fill="#4bc076"/><path d="M48.14 27.33l-2.08-2.08c-.63-.6-1.48-.6-2.08 0l-13 12.85-5.25-5.14c-.63-.6-1.48-.6-2.08 0l-2.08 2.08c-.63.6-.63 1.47 0 2.08l7.2 7.22c.63.62 1.37.86 2.08.86.74 0 1.48-.24 2.1-.86l15.2-14.93c.46-.48.46-1.46 0-2.07zM78.05 41.34h-25.6c-1.1 0-1.95-.85-1.95-1.96v-3.92c0-1.1.86-1.96 1.95-1.96h25.6c1.1 0 1.95.85 1.95 1.96v3.92c0 1.1-.86 1.96-1.95 1.96zM78.05 58.84h-31.5c-1.1 0-1.95-.85-1.95-1.96v-3.92c0-1.1.85-1.96 1.95-1.96h31.5c1.1 0 1.95.85 1.95 1.96v3.92c0 1.1-.85 1.96-1.95 1.96zM34.68 58.84h-3.92c-1.1 0-1.96-.85-1.96-1.96v-3.92c0-1.1.86-1.96 1.96-1.96h3.92c1.1 0 1.96.85 1.96 1.96v3.92c.12 1.1-.86 1.96-1.96 1.96zM34.68 76.34h-3.92c-1.1 0-1.96-.85-1.96-1.96v-3.92c0-1.1.86-1.96 1.96-1.96h3.92c1.1 0 1.96.85 1.96 1.96v3.92c.12 1.1-.86 1.96-1.96 1.96zM78.05 76.34h-31.5c-1.1 0-1.95-.85-1.95-1.96v-3.92c0-1.1.85-1.96 1.95-1.96h31.5c1.1 0 1.95.85 1.95 1.96v3.92c0 1.1-.85 1.96-1.95 1.96z" fill="#fff"/></g></svg>