<svg xmlns="http://www.w3.org/2000/svg" xmlns:lucid="lucid" width="100" height="100"><g lucid:page-tab-id="0_0" stroke="#000" stroke-opacity="0"><path d="M100 50c0 27.6-22.4 50-50 50S0 77.6 0 50 22.4 0 50 0s50 22.4 50 50z" fill="#81b4d6"/><path d="M20 50c0-16.62 13.38-30 30-30 16.62 0 30 13.38 30 30 0 16.62-13.38 30-30 30-16.62 0-30-13.38-30-30zm39.36-8.76c1.02 0 1.92-.84 1.92-1.86V35.6c0-.96-.9-1.86-1.92-1.86h-5.58v-2.52c0-1.32-1.14-2.46-2.52-2.46-1.38 0-2.52 1.14-2.52 2.46v2.52h-1.26c-4.86 0-8.76 3.9-8.76 8.76v2.52c0 4.86 3.9 8.76 8.76 8.76h5.04c.72 0 1.26.48 1.26 1.2v2.52c0 .78-.54 1.26-1.26 1.26H40.64c-1.02 0-1.92.84-1.92 1.86v3.78c0 .96.9 1.86 1.92 1.86h8.1v2.52c0 1.32 1.14 2.46 2.52 2.46 1.38 0 2.52-1.14 2.52-2.46v-2.52h-1.26c4.86 0 8.76-3.9 8.76-8.76v-2.52c0-4.86-3.9-8.76-8.76-8.76h-5.04c-.72 0-1.26-.48-1.26-1.2V42.5c0-.72.54-1.26 1.26-1.26h11.88z" fill="#fff"/></g></svg>