<svg xmlns="http://www.w3.org/2000/svg" xmlns:lucid="lucid" width="100" height="100"><g lucid:page-tab-id="0_0" stroke="#000" stroke-opacity="0"><path d="M100 50c0 27.6-22.4 50-50 50S0 77.6 0 50 22.4 0 50 0s50 22.4 50 50z" fill="#1ec7be"/><path d="M23.66 24.3c-2.07 0-3.66 1.58-3.66 3.67v26.96c0 2.1 1.6 3.67 3.66 3.67h16.8c.62 0 1.24-.24 1.72-.72l2.08-2.1c.97-1 2.2-1.7 3.57-1.95 2.2-.5 4.5.24 6.22 1.82l1.98 2c.5.47 1.2.47 1.72 0l5.6-5.77c.5-.52.75-1.13.75-1.72v-22.2c0-2.08-1.6-3.66-3.66-3.66H23.66zm7.37 9.8h22.05c.75 0 1.23.5 1.23 1.2v2.48c0 .72-.47 1.24-1.22 1.24H31.03c-.75 0-1.24-.52-1.24-1.24V35.3c0-.7.48-1.2 1.23-1.2zm0 9.8h17.15c.75 0 1.24.5 1.24 1.22v2.47c0 .7-.5 1.2-1.24 1.2H31.03c-.75 0-1.24-.5-1.24-1.2V45.1c0-.72.48-1.23 1.23-1.23z" fill="#fff"/><path d="M78.25 52.06l-2.68-2.7c-.75-.75-2-.75-2.7 0l-15.1 15.17c-.48.5-1.34.5-1.82 0l-5.42-5.5c-.72-.75-1.95-.75-2.67 0l-2.7 2.7c-.73.7-.73 1.94 0 2.7l10.42 10.5c.72.76 1.95.76 2.7 0l19.97-20.07c.86-.85.86-2.08 0-2.8z" fill="#fff"/></g></svg>