<svg xmlns="http://www.w3.org/2000/svg" xmlns:lucid="lucid" width="100" height="100"><g lucid:page-tab-id="0_0" stroke="#000" stroke-opacity="0"><path d="M100 50c0 27.6-22.4 50-50 50S0 77.6 0 50 22.4 0 50 0s50 22.4 50 50z" fill="#54698d"/><path d="M77 56h-3.6c-.94 0-1.8.96-1.8 1.8v12c0 .95-.86 1.8-1.8 1.8H30.2c-.94 0-1.8-.85-1.8-1.8v-12c0-.84-.86-1.8-1.8-1.8H23c-.94 0-1.8.96-1.8 1.8V74c0 2.63 2.13 4.8 4.78 4.8h48.04c2.65 0 4.78-2.17 4.78-4.8V57.8c0-.84-.86-1.8-1.8-1.8z" fill="#fff"/><path d="M51.16 21.66c-.72-.73-1.8-.73-2.52 0l-16.2 16.16c-.72.74-.72 1.8 0 2.5l2.52 2.55c.72.73 1.8.73 2.52 0l6.73-6.73c.73-.73 2.17-.2 2.17.86v25.4c0 .98.72 1.8 1.66 1.8h3.6c.97 0 1.94-.95 1.94-1.8V37.1c0-1.1 1.2-1.56 2.02-.83L62.3 43c.72.68 1.8.68 2.52 0l2.52-2.55c.72-.7.72-1.76 0-2.5l-16.2-16.3z" fill="#fff"/></g></svg>