<svg xmlns="http://www.w3.org/2000/svg" xmlns:lucid="lucid" width="100" height="100"><g lucid:page-tab-id="0_0" stroke="#000" stroke-opacity="0"><path d="M100 50c0 27.6-22.4 50-50 50S0 77.6 0 50 22.4 0 50 0s50 22.4 50 50z" fill="#65cae4"/><path d="M64.88 36.5c0-9.12-6.6-16.5-14.88-16.5-8.22 0-14.88 7.38-14.88 16.5C35.12 45.62 41.78 53 50 53c8.28 0 14.88-7.38 14.88-16.5zM80 74v-2.76c0-7.38-8.52-11.76-16.74-15.24l-.78-.36c-.6-.24-1.2-.24-1.86.12C57.5 57.74 53.78 59 49.88 59c-3.9 0-7.5-1.14-10.74-3.24-.66-.36-1.26-.36-1.86-.12l-.78.36C28.52 59.48 20 63.98 20 71.24V74c0 3.24 2.76 6 6 6h48c3.24 0 6-2.76 6-6z" fill="#fff"/></g></svg>