<svg xmlns="http://www.w3.org/2000/svg" xmlns:lucid="lucid" width="100" height="100"><g lucid:page-tab-id="0_0" stroke="#000" stroke-opacity="0"><path d="M100 50c0 27.6-22.4 50-50 50S0 77.6 0 50 22.4 0 50 0s50 22.4 50 50z" fill="#54698d"/><path d="M51.87 38c.72-.75.72-1.83 0-2.57l-13.7-13.8c-.73-.7-1.8-.7-2.53 0l-13.8 13.8c-.73.74-.73 1.82 0 2.56l2.5 2.5c.75.73 1.8.73 2.56 0l4.32-4.33c.72-.74 2.02-.22 2.02.86V62.5c0 .95.84 1.9 1.8 1.9h3.6c.98 0 1.82-1.08 1.82-1.9V37.03c0-1.08 1.3-1.6 2.02-.86l4.32 4.33c.75.73 1.8.73 2.55 0l2.52-2.5zM78.24 62l-2.52-2.37c-.7-.73-1.8-.73-2.52 0l-4.32 4.33c-.72.7-2.02.22-2.02-.86V37.42c0-1-.87-1.82-1.8-1.82h-3.6c-.98 0-1.82.95-1.82 1.82v25.46c0 1.08-1.3 1.56-2.05.82l-4.33-4.33c-.72-.7-1.78-.7-2.52 0L48.23 62c-.72.75-.72 1.83 0 2.57l13.8 13.8c.72.7 1.8.7 2.53 0l13.8-13.8c.6-.74.6-1.95-.12-2.56zM38 74h-2.4c-1.32 0-2.4-1.08-2.4-2.4v-2.4c0-1.32 1.08-2.4 2.4-2.4H38c1.32 0 2.4 1.08 2.4 2.4v2.4c0 1.32-1.08 2.4-2.4 2.4zM64.4 33.2H62c-1.32 0-2.4-1.08-2.4-2.4v-2.4c0-1.32 1.08-2.4 2.4-2.4h2.4c1.32 0 2.4 1.08 2.4 2.4v2.4c0 1.32-1.08 2.4-2.4 2.4z" fill="#fff"/></g></svg>