<svg xmlns="http://www.w3.org/2000/svg" xmlns:lucid="lucid" width="100" height="100"><g lucid:page-tab-id="0_0" stroke="#000" stroke-opacity="0"><path d="M100 50c0 27.6-22.4 50-50 50S0 77.6 0 50 22.4 0 50 0s50 22.4 50 50z" fill="#3c97dd"/><path d="M62.5 42.52c0-2.77-2.25-5.02-5-5.02H25c-2.77 0-5.02 2.25-5.02 5.02V75c0 2.75 2.25 5 5.02 5H57.5c2.75 0 5-2.25 5-5V42.5z" fill="#fff"/><path d="M71.25 70H67.5v-7.5h3.75c.75 0 1.25-.5 1.25-1.25v-32.5c0-.75-.5-1.25-1.25-1.25h-32.5c-.75 0-1.25.5-1.25 1.25v3.75H30v-3.75C30 23.9 33.9 20 38.75 20h32.5C76.1 20 80 23.9 80 28.75v32.5c0 4.9-3.9 8.75-8.75 8.75z" fill="#fff"/></g></svg>