<svg xmlns="http://www.w3.org/2000/svg" xmlns:lucid="lucid" width="100" height="100"><g lucid:page-tab-id="0_0" stroke="#000" stroke-opacity="0"><path d="M100 50c0 27.6-22.4 50-50 50S0 77.6 0 50 22.4 0 50 0s50 22.4 50 50z" fill="#7f8de1"/><path d="M50 31.1c12.54 0 23.4 7.33 28.67 17.92.3.64.3 1.32 0 1.96C73.4 61.58 62.54 68.9 50 68.9c-12.54 0-23.4-7.33-28.67-17.92-.3-.53-.3-1.32 0-1.96C26.6 38.42 37.46 31.1 50 31.1zM37.8 50c0 6.77 5.44 12.25 12.2 12.25 6.76 0 12.2-5.48 12.2-12.25S56.76 37.75 50 37.75c-6.76 0-12.2 5.48-12.2 12.25z" fill="#fff"/><path d="M50 42.2c-4.35 0-7.8 3.45-7.8 7.8s3.45 7.8 7.8 7.8 7.8-3.45 7.8-7.8-3.45-7.8-7.8-7.8z" fill="#fff"/></g></svg>