<svg xmlns="http://www.w3.org/2000/svg" xmlns:lucid="lucid" width="100" height="100"><g lucid:page-tab-id="0_0" stroke="#000" stroke-opacity="0"><path d="M100 50c0 27.6-22.4 50-50 50S0 77.6 0 50 22.4 0 50 0s50 22.4 50 50z" fill="#56aadf"/><path d="M50 20c-16.62 0-30 13.38-30 30 0 16.62 13.38 30 30 30 16.62 0 30-13.38 30-30 0-16.62-13.38-30-30-30zm-7.32 6.3c.9 0 1.62 1.08 1.08 1.98-.48.72-.78 1.5-.78 2.1.12 2.64-2.34 4.26-3.48 3.84-1.02-.36-3.72 1.38-1.26 2.64l1.38.66c.12 0 .24.12.24.12l.36.24c4.5 2.64 3.66 4.74 1.8 7.98-1.38 2.28-2.28 1.62-3.54.54-.66-.54-1.44-1.2-2.46-1.5-3-1.02-6 .96-5.04 3 .54.96 1.5.96 2.64.96 1.14 0 2.4 0 3.36 1.02.48.42.78.9 1.14 1.38 1.2 1.68 2.22 3.18 6.9 1.62 6-1.98 6.96-1.02 9 1.02 1.74 1.98 2.7 6-.24 9-1.56 1.5-2.22 4.08-2.82 6.36-.18.6-.3 1.14-.48 1.62-.12.48-.48 1.02-.96 1.26l-1.26.6c-.78.36-1.62.24-2.28-.36-1.2-1.14-2.22-2.88-2.22-4.62 0-1.26-.84-1.8-1.86-2.46-1.44-.9-3.18-2.04-3.18-5.52 0-4.92-6.24-7.8-10.74-5.64-.12 0-.24.06-.36.12-.24.12-.48.24-.72.24-.78.24-1.5-.24-1.68-1.02-.12-1.08-.24-2.22-.24-3.48 0-6 2.16-11.52 5.64-15.78 0-.12.12-.12.24-.12 3-3.48 6.9-6.24 11.4-7.74.12 0 .24-.06.42-.06zm22.8 4.56c.24 0 .66.12.9.36 5.22 4.5 8.64 11.28 8.64 18.78 0 4.5-1.26 8.76-3.3 12.36-.48.78-1.5.9-2.1.24-1.14-1.26-1.2-3.42-1.26-5.7-.06-2.46-.12-5.1-1.62-7.02-1.38-1.74-2.94-1.92-4.56-2.1-2.04-.24-4.26-.48-6.42-3.9-3.66-5.88.96-10.74 5.76-12.36 1.2-.54 2.58-.66 3.96-.66z" fill="#fff"/></g></svg>