<svg xmlns="http://www.w3.org/2000/svg" xmlns:lucid="lucid" width="100" height="100"><g lucid:page-tab-id="0_0" stroke="#000" stroke-opacity="0" stroke-width="2.34"><path d="M100 50c0 27.6-22.4 50-50 50S0 77.6 0 50 22.4 0 50 0s50 22.4 50 50z" fill="#321d71"/><path d="M59.57 20.9H40.33c-2.7 0-4.83 2.15-4.83 4.8v48.4c0 2.65 2.14 4.8 4.83 4.8h19.24c2.7 0 4.83-2.15 4.83-4.8V25.7c0-2.65-2.14-4.8-4.83-4.8zm-7.83 52.66c-.55.53-1.07.7-1.8.7-.7 0-1.23-.17-1.78-.7-.52-.58-.7-1.1-.7-1.8s.18-1.27.7-1.8c.9-.86 2.5-.86 3.4 0 .53.53.7 1.1.7 1.8.17.7-.17 1.22-.52 1.8zm.7-42.86h-4.8c-1.25 0-2.52-1.04-2.52-2.5 0-1.2 1.07-2.5 2.52-2.5h4.8c1.27 0 2.5 1.12 2.5 2.5-.16 1.28-1.23 2.5-2.5 2.5z" fill-opacity="0"/><path d="M59.65 16.1h-19.3c-5.37 0-9.65 4.26-9.65 9.6v48.5c0 5.33 4.28 9.6 9.65 9.6h19.3c5.37 0 9.65-4.27 9.65-9.6V25.7c0-5.13-4.28-9.6-9.65-9.6zm4.82 58.22c0 2.7-2.16 4.8-4.82 4.8h-19.3c-2.66 0-4.82-2.1-4.82-4.8v-48.6c0-2.65 2.16-4.8 4.82-4.8h19.3c2.66 0 4.82 2.15 4.82 4.8v48.6z" fill="#fff"/><path d="M48.2 69.97c-.52.53-.7 1.07-.7 1.78 0 .72.18 1.26.7 1.8.55.53 1.1.7 1.8.7s1.25-.17 1.8-.7c.52-.54.7-1.08.7-1.8 0-.7-.18-1.25-.7-1.78-.9-.9-2.7-.9-3.6 0zM52.52 25.7H47.7c-1.25 0-2.5 1.07-2.5 2.5 0 1.25 1.07 2.5 2.5 2.5h4.82c1.25 0 2.5-1.07 2.5-2.5-.18-1.43-1.25-2.5-2.5-2.5z" fill="#fff"/></g></svg>