<svg xmlns="http://www.w3.org/2000/svg" xmlns:lucid="lucid" width="100" height="100"><g lucid:page-tab-id="0_0" stroke="#000" stroke-opacity="0" stroke-width="2.34"><path d="M100 50c0 27.6-22.4 50-50 50S0 77.6 0 50 22.4 0 50 0s50 22.4 50 50z" fill="#321d71"/><path d="M44.1 32.9v11.93l10.4 6.07V38.97L44.1 32.9zM67.7 28.05L57.33 22 46.8 28.05l10.53 6.05 10.37-6.05zM51.8 55.65L41.27 49.6 30.9 55.65l10.37 6.05 10.53-6.05zM60 51.1l10.5-6.06V32.9L60 38.96V51.1zM38.5 66.57L28 60.5v11.93l10.5 6.07V66.57zM44.1 78.5l10.4-6.07V60.5l-10.4 6.07V78.5z" fill-opacity="0"/><path d="M75.36 26.22c-.16-.2-.38-.35-.54-.56l-16.06-9.24c-.92-.56-2-.56-2.7 0l-15.84 9.1c-.54.14-.92.7-1.08 1.05-.22.35-.38.9-.38 1.4v16.8l-14.66 8.4c-.48.14-.86.7-1.02 1.05-.22.35-.38.9-.38 1.47v18.33c0 1.05.54 1.96 1.4 2.3l16.12 9.32c.32.14.86.35 1.4.35.54 0 .92-.2 1.4-.35l16.06-9.3c.92-.5 1.46-1.4 1.46-2.32V57.3l14.66-8.4c.86-.56 1.4-1.47 1.4-2.3V28.17c-.54-.9-.92-1.6-1.24-1.96zM44.1 44.77V32.8l10.56 6.1v11.96l-10.56-6.1zm13.2-22.82l10.57 6.02-10.35 6.1-10.57-6.1 10.35-6.02zM41.24 49.6l10.57 6.1-10.34 6-10.57-6 10.34-6.1zm-13.2 10.85l10.56 6.1V78.5l-10.56-6.08V60.45zm26.4 11.97l-10.34 6.1V66.53l10.56-6.1v11.98zm16.07-27.44L60 51V39.1L70.5 33V45z" fill="#fff"/></g></svg>