<svg xmlns="http://www.w3.org/2000/svg" xmlns:lucid="lucid" width="100" height="100"><g lucid:page-tab-id="0_0" stroke="#000" stroke-opacity="0" stroke-width="2.34"><path d="M100 50c0 27.6-22.4 50-50 50S0 77.6 0 50 22.4 0 50 0s50 22.4 50 50z" fill="#321d71"/><path d="M65 28.35h10.9l-5.45-5.45L65 28.35z" fill-opacity="0"/><path d="M37.76 35.35V33.7c0-.96.4-1.37 1.3-1.37h2.27c3.2-.35 7.35-2.6 7.35-8.03 0-6.04-4.9-8.3-8.27-8.3H24.07c-1.5 0-2.84 1.3-2.84 2.8 0 1.52 1.34 2.83 2.84 2.83H40.4c1.32 0 2.82.54 2.82 2.8 0 2.27-1.5 2.68-2.8 2.82h-1.35c-5.07 0-6.74 4.2-6.74 6.8v1.7c-7.7 1.3-13.73 8.03-13.73 16.13v16.4c0 8.98 7.32 16.32 16.35 16.32 9.02 0 16.35-7.34 16.35-16.33v-16.4c0-8.43-5.82-15.22-13.54-16.52zm-13.7 16.18c0-5.07 3.57-9.4 8.27-10.56v13.38h-8.27v-2.82zm21.78 16.33c0 6.04-4.87 10.9-10.9 10.9-6 0-10.88-4.86-10.88-10.9v-8.23h21.78v8.23zm0-13.72h-8.26v-13.3c4.7 1.1 8.27 5.4 8.27 10.5v2.8zM80.65 25l-8.27-8.28c-1.14-1.1-2.82-1.1-3.96 0l-8.27 8.3c-.55.54-.75 1.16-.75 1.84V76.1c0 3.44 2.27 8.3 8.27 8.3h5.46c3.4 0 8.27-2.26 8.27-8.3V26.87c0-.68-.37-1.3-.75-1.85zm-4.7 51.1c0 2.27-1.5 2.68-2.82 2.82h-5.46c-2.24 0-2.64-1.5-2.8-2.8V73.3h10.9v2.8zm0-8.2H65.02V33.84h10.9V67.9zM65.02 28.36l5.46-5.4 5.44 5.4h-10.9z" fill="#fff"/></g></svg>