<svg xmlns="http://www.w3.org/2000/svg" xmlns:lucid="lucid" width="100" height="100"><g lucid:page-tab-id="0_0"><path d="M-400-78.3H600v500H-400z" fill="#fff"/><path d="M100 50c0 27.6-22.4 50-50 50S0 77.6 0 50 22.4 0 50 0s50 22.4 50 50z" stroke="#000" stroke-opacity="0" stroke-width="2.34" fill="#321d71"/><path d="M29.6 30.7v32.48L49.95 77.1 70.3 63.18v-32.5c-2.32-1.96-10.34-8.18-20.35-8.18-10.17-.16-18.03 6.06-20.35 8.2zm34.64 8.02c.9.92.9 2.5-.2 3.44l-18 16.76c-.36.33-1.1.7-1.63.7h-.15c-.73 0-1.26-.37-1.63-.92l-6.96-8.35c-.9-1.1-.7-2.52.37-3.4 1.06-.92 2.48-.7 3.38.34l5.38 6.43 16.4-15.18c.74-.87 2.16-.7 3.06.17z" stroke="#000" stroke-opacity="0" stroke-width="2.34" fill-opacity="0"/><path d="M39.26 47.35c-.9-1.06-2.34-1.06-3.42-.34-1.05.9-1.05 2.33-.33 3.4l6.97 8.4c.36.55 1.05.9 1.6.9h.17c.54 0 1.26-.17 1.62-.72l18.36-16.8c.9-.9 1.08-2.5.18-3.42-.87-.9-2.5-1.06-3.4-.17L44.6 53.8l-5.34-6.45z" stroke="#000" stroke-opacity="0" stroke-width="2.34" fill="#fff"/><path d="M74.5 27.87c-.36-.4-10.54-10.37-24.5-10.37s-24.14 9.85-24.5 10.37c-.5.52-.7 1.03-.7 1.75v34.86c0 .7.35 1.56 1.06 1.94l22.88 15.5h.2c.15 0 .35.2.35.2h.15c.2 0 .35.18.55.18.2 0 .35 0 .55-.2h.16c.2 0 .36-.2.36-.2h.2l22.88-15.48c.7-.5 1.06-1.23 1.06-1.94V29.62c0-.72-.2-1.23-.7-1.75zm-4.14 35.3L50 77.13 29.64 63.18V30.72C31.96 28.78 39.97 22.5 50 22.5s18.04 6.28 20.36 8.22v32.46z" stroke="#000" stroke-opacity="0" stroke-width="2.34" fill="#fff"/></g></svg>