<svg xmlns="http://www.w3.org/2000/svg" xmlns:lucid="lucid" width="100" height="100"><g lucid:page-tab-id="0_0" stroke="#000" stroke-opacity="0" stroke-width="2.34"><path d="M100 50c0 27.6-22.4 50-50 50S0 77.6 0 50 22.4 0 50 0s50 22.4 50 50z" fill="#321d71"/><path d="M47.03 55h6.23c1.78-6.97 8.06-12.15 15.58-12.15 1.25 0 2.5.18 3.56.38L65.6 31.6c-1.08-1.07-2.5-1.6-3.92-1.6-3.2 0-5.88 2.68-5.88 5.9 0 1.43.54 2.68 1.43 3.75.53.7.7 1.78.35 2.68-.35.9-1.24 1.42-2.36 1.42h-9.97c-.93 0-1.82-.52-2.35-1.42-.36-.9-.36-1.98.35-2.68.18-.37.36-.55.54-.9.52-.9.7-1.77.7-2.85 0-3.22-2.67-5.9-5.88-5.9-1.42 0-2.84.53-3.9 1.6L27.9 43.23c1.07-.2 2.3-.38 3.56-.38 7.52 0 13.8 5.18 15.57 12.15z" fill-opacity="0"/><path d="M31.27 47.7c-3.73 0-6.96 1.78-8.9 4.64v.18c-1.26 1.78-1.97 3.92-1.97 6.42C20.4 65 25.4 70 31.45 70c6.06 0 11.05-5 11.05-11.06 0-6.07-5-11.24-11.23-11.24zm0 16.06c-2.67 0-5-2.32-5-5s2.33-5 5-5c2.68 0 5 2.32 5 5s-2.15 5-5 5zM77.7 52.52c-2.13-2.85-5.35-4.82-9.12-4.82-6.06 0-11.08 5-11.08 11.05 0 6.06 5.02 11.05 11.08 11.05 6.08 0 11.1-5 11.1-11.05.18-2.32-.7-4.46-1.98-6.23zm-8.92 11.22c-2.7 0-5.02-2.32-5.02-5 0-2.66 2.33-4.98 5.02-4.98 2.66 0 5 2.32 5 5 0 2.66-2.34 4.98-5 4.98z" fill-opacity="0"/><path d="M81.84 49.65l-12.2-20.7c-.13-.16-.13-.36-.34-.5-2.1-2.15-4.8-3.25-7.88-3.25-6.06 0-10.87 4.83-10.87 10.9 0 .9.2 1.95.35 2.84h-1.96c.2-.9.35-1.94.35-2.83 0-6.07-4.82-10.9-10.88-10.9-3.07 0-5.72 1.25-7.88 3.24-.2.15-.2.35-.35.5l-12.34 20.9c-1.8 2.65-2.86 5.7-2.86 9.07C15 67.9 22.18 75 31.1 75c8.36 0 15.33-6.62 16.03-15h5.37c.56 8.38 7.53 15 16.1 15 8.92 0 16.1-7.12 16.1-16.1.14-3.52-.9-6.56-2.86-9.25zm-47.4-18.03c1.12-1.04 2.52-1.6 3.98-1.6 3.2 0 5.85 2.7 5.85 5.9 0 1.08-.14 1.93-.7 2.83-.13.4-.34.54-.55.9-.5.74-.7 1.78-.35 2.68.35.9 1.26 1.45 2.37 1.45H55c.9 0 1.82-.55 2.38-1.45.35-.9.35-1.94-.42-2.7-.84-1.03-1.4-2.28-1.4-3.72 0-3.18 2.65-5.87 5.86-5.87 1.46 0 2.86.55 3.97 1.6l6.75 11.6c-1.04-.2-2.3-.35-3.55-.35-7.53 0-13.94 5.18-15.54 12.15h-6.28c-1.74-6.97-8-12.15-15.54-12.15-1.25 0-2.5.15-3.55.35l6.75-11.6zm-3.2 38.4c-6.06 0-11.08-5.03-11.08-11.1 0-2.3.76-4.44 2.02-6.43v-.16c1.95-2.9 5.3-4.63 8.92-4.63 6.06 0 11.08 5 11.08 11.07S37.5 70.02 31.24 70.02zm37.57 0c-6.13 0-11.07-5.03-11.07-11.1 0-6.03 4.94-11.06 11.08-11.06 3.7 0 6.98 1.8 8.93 4.63v.2c1.25 1.78 1.95 3.92 1.95 6.4.2 5.9-4.8 10.92-10.87 10.92z" fill="#fff"/><path d="M36.3 58.7c0 2.76-2.24 5-5 5s-5-2.24-5-5 2.24-5 5-5 5 2.24 5 5zM73.7 58.7c0 2.76-2.24 5-5 5s-5-2.24-5-5 2.24-5 5-5 5 2.24 5 5z" fill="#fff"/></g></svg>