<svg xmlns="http://www.w3.org/2000/svg" xmlns:lucid="lucid" width="100" height="100"><g lucid:page-tab-id="0_0" stroke="#000" stroke-opacity="0"><path d="M100 50c0 27.6-22.4 50-50 50S0 77.6 0 50 22.4 0 50 0s50 22.4 50 50z" fill="#fff"/><path d="M59.7 51.05h-8.05v8.75h-3.2v-8.75H40.4v-3.1h8.05V39.2h3.2v8.75h8.05v3.1z" fill="#e8762c"/><path d="M43.5 62.33h-7.23V54.4h-2.72v7.93H26.2v2.37h7.35v7.8h2.72v-7.8h7.23v-2.37z" fill="#c72035"/><path d="M73.8 34.1h-7.24v-7.8h-2.72v7.8H56.6v2.5h7.24v7.8h2.72v-7.8h7.24v-2.5z" fill="#59879b"/><path d="M56.2 70.97h-4.86V65.5h-2.36v5.46H44v2.16h4.98v5.58h2.36v-5.58h4.86v-2.16z" fill="#5b6591"/><path d="M43.5 34.1h-7.35v-7.8h-2.6v7.8H26.2v2.37h7.35v7.93h2.6v-7.93h7.35V34.1z" fill="#eb912c"/><path d="M79.4 48.43h-4.86V43h-2.36v5.43H67.2v2.14h4.98V56h2.36v-5.43h4.86v-2.14z" fill="#5b6591"/><path d="M73.8 62.33h-7.24V54.4h-2.72v7.93H56.6v2.37h7.24v7.8h2.72v-7.8h7.24v-2.37z" fill="#1f447e"/><path d="M55.8 26.08h-4.86V20.6h-1.78v5.48H44.3v1.66h4.86v5.36h1.78v-5.36h4.86v-1.66zM32.1 48.73h-4.86V43.4h-1.77v5.33H20.6v1.64h4.87v5.33h1.77v-5.33h4.86v-1.64z" fill="#7099a6"/></g></svg>