<svg xmlns="http://www.w3.org/2000/svg" xmlns:lucid="lucid" width="100" height="100"><g lucid:page-tab-id="0_0" stroke="#000" stroke-opacity="0" stroke-width="2.34"><path d="M100 50c0 27.6-22.4 50-50 50S0 77.6 0 50 22.4 0 50 0s50 22.4 50 50z" fill="#032d60"/><path d="M72.44 25.5H27.46c-1.08 0-1.96.88-1.96 1.96v44.98c0 1.08.88 1.96 1.96 1.96h44.98c1.08 0 1.96-.88 1.96-1.96V27.46c0-1.08-.88-1.96-1.96-1.96zm-1.95 45H29.4V29.4h41.1v41.1z" fill="#fff"/><path d="M35.36 40.1h14.1c1.07 3.03 4.3 4.64 7.3 3.57 1.64-.54 3.07-1.96 3.6-3.57h4.28c1.06 0 1.96-.88 1.96-1.95 0-1.06-.9-1.95-1.96-1.95h-4.28c-1.06-3.03-4.28-4.64-7.34-3.57-1.6.54-3.02 1.96-3.55 3.57h-14.1c-1.07 0-1.97.9-1.97 1.95 0 1.07.9 1.95 1.96 1.95zm19.45-3.9c1.08 0 1.97.9 1.97 1.95 0 1.07-.9 1.95-1.96 1.95-1.05 0-1.94-.88-1.94-1.95 0-1.06.9-1.95 1.95-1.95zM35.38 51.9h3.2c1.1 3.03 4.46 4.64 7.5 3.57 1.6-.54 3.03-1.96 3.56-3.57h15c1.07 0 1.96-.88 1.96-1.95 0-1.06-.9-1.95-1.95-1.95h-15c-1.07-3.03-4.27-4.64-7.3-3.57-1.8.54-3.04 1.96-3.57 3.57h-3.23c-1.06 0-1.95.9-1.95 1.95 0 1.07.73 1.95 1.78 1.95zm8.75-3.9c1.05 0 1.94.9 1.94 1.95 0 1.07-.9 1.95-1.94 1.95-1.1 0-1.98-.88-1.98-1.95 0-1.06.9-1.95 1.98-1.95zM35.36 63.7h19.82c1.1 3.03 4.48 4.64 7.5 3.57 3.06-1.07 4.65-4.45 3.6-7.47-1.07-3.03-4.5-4.64-7.52-3.57-1.6.54-3.02 1.96-3.58 3.57H35.36c-1.06 0-1.96.9-1.96 1.95 0 1.07.9 1.95 1.96 1.95zm25.36-3.9c1.07 0 1.96.9 1.96 1.95 0 1.07-.9 1.95-1.96 1.95s-1.96-.88-1.96-1.95c0-1.06.9-1.95 1.96-1.95z" fill="#fff"/></g></svg>