<svg xmlns="http://www.w3.org/2000/svg" xmlns:lucid="lucid" width="100" height="100"><g lucid:page-tab-id="0_0" stroke="#000" stroke-opacity="0" stroke-width="2.34"><path d="M100 50c0 27.6-22.4 50-50 50S0 77.6 0 50 22.4 0 50 0s50 22.4 50 50z" fill="#032d60"/><path d="M75.7 60.1v-7.3c0-1.25-1.04-2.34-2.3-2.34H62.9v-2.28c0-4.63-2.55-8.74-6.27-10.9 1.64-1.6 2.7-3.95 2.7-6.57 0-5.2-4.13-9.3-9.3-9.3-5.17 0-9.3 4.1-9.3 9.3 0 2.46 1.06 4.8 2.7 6.57-3.73 2.34-6.28 6.28-6.28 10.9v2.3H26.6c-1.26 0-2.3 1.08-2.3 2.33v7.3c-4 1.1-7 4.64-7 9.15 0 5.14 4.12 9.25 9.3 9.25 5.15 0 9.27-4.1 9.27-9.25 0-4.28-3-8.05-6.93-9.14v-4.95h18.71v4.96c-3.93 1.1-6.94 4.64-6.94 9.15 0 5.14 4.13 9.25 9.3 9.25 5.17 0 9.3-4.1 9.3-9.25 0-4.28-3.02-8.05-6.95-9.14v-4.95h18.71v4.96c-3.93 1.1-6.93 4.64-6.93 9.15 0 5.14 4.12 9.25 9.28 9.25 5.18 0 9.3-4.1 9.3-9.25 0-4.5-3-8.05-7-9.14zM26.6 73.88c-2.5 0-4.66-2.17-4.66-4.62 0-2.5 2.16-4.68 4.65-4.68 2.47 0 4.63 2.17 4.63 4.68.2 2.45-1.96 4.62-4.64 4.62zm23.4 0c-2.5 0-4.64-2.17-4.64-4.62 0-2.5 2.15-4.68 4.64-4.68 2.5 0 4.64 2.17 4.64 4.68 0 2.45-2.15 4.62-4.64 4.62zm-8.24-25.7c0-4.44 3.8-8.2 8.24-8.2 4.45 0 8.24 3.76 8.24 8.2v2.3H41.76v-2.3zm3.6-17.46c0-2.5 2.15-4.68 4.64-4.68 2.5 0 4.64 2.17 4.64 4.7 0 2.44-2.15 4.6-4.64 4.6-2.5 0-4.64-2-4.64-4.6zM73.4 73.88c-2.47 0-4.63-2.17-4.63-4.62 0-2.5 2.16-4.68 4.64-4.68 2.5 0 4.66 2.17 4.66 4.68 0 2.45-2.16 4.62-4.65 4.62z" fill="#fff"/></g></svg>