<svg xmlns="http://www.w3.org/2000/svg" xmlns:lucid="lucid" width="100" height="100"><g lucid:page-tab-id="0_0" stroke="#000" stroke-opacity="0" stroke-width="2.34"><path d="M100 50c0 27.6-22.4 50-50 50S0 77.6 0 50 22.4 0 50 0s50 22.4 50 50z" fill="#032d60"/><path d="M66.5 39.98c-3.44 0-6.27-2.87-6.27-6.26 0-.73.17-1.46.34-2.15-3.2-1.8-6.77-2.87-10.72-2.87-11.8 0-21.45 9.65-21.45 21.45 0 4.46 1.42 8.75 3.95 12.14.34 0 .68-.18 1.07-.18 2.5 0 4.46 1.97 4.46 4.46 0 .4 0 .73-.17 1.07 3.4 2.53 7.7 3.95 12.15 3.95 11.8 0 21.45-9.65 21.45-21.45 0-3.73-1.07-7.5-2.87-10.55-.52.38-1.25.38-1.93.38zm-29.7 5.7l6.27-9.82c.7-1.07 2.32-1.07 3.05 0l4.8 7.68 3.73-5.02c.73-.9 2.2-.9 2.88 0l5.36 7.17c.38.5.55 1.23.16 1.8-.34.5-.85 1.06-1.58 1.06H38.22c-.73 0-1.24-.38-1.58-.9-.17-.73-.17-1.46.17-1.97zm22.53 17h-18.8c-1.06 0-1.75-.73-1.75-1.8 0-1.08.7-1.8 1.76-1.8h18.8c1.06 0 1.8.72 1.8 1.8 0 1.07-.74 1.8-1.8 1.8zM62 55.5H37.87c-1.07 0-1.8-.72-1.8-1.8 0-1.06.73-1.75 1.8-1.75h24.1c1.08 0 1.8.7 1.8 1.76 0 1.08-.72 1.8-1.8 1.8z" fill-opacity="0"/><path d="M71.4 37.5c.7-1.05 1.25-2.3 1.25-3.75 0-3.35-2.85-6.25-6.25-6.25-1.45 0-2.7.55-3.75 1.25-3.75-2.3-8.05-3.55-12.85-3.55-13.75 0-25 11.25-25 25 0 5.35 1.8 10.35 4.65 14.3-.35.7-.55 1.4-.55 2.15 0 2.5 1.95 4.45 4.45 4.45.9 0 1.65-.2 2.15-.55 4.1 2.85 8.95 4.65 14.3 4.65 13.75 0 25-11.25 25-25 .15-4.65-1.25-8.95-3.4-12.7zm-5.35-6.25h.35c1.4 0 2.65 1.25 2.65 2.7v.35c-.15 1.25-1.25 2.35-2.65 2.35-1.45 0-2.5-1.25-2.7-2.7 0-1.45 1.1-2.5 2.35-2.7zm-16.1 40.4c-4.45 0-8.75-1.45-12.1-3.95 0-.35.15-.7.15-1.05 0-2.5-1.95-4.5-4.45-4.5-.35 0-.7 0-1.05.2-2.5-3.4-3.95-7.5-3.95-12.15 0-11.8 9.65-21.45 21.4-21.45 3.95 0 7.5 1.1 10.75 2.9-.2.7-.35 1.4-.35 2.1 0 3.4 2.85 6.25 6.2 6.25.75 0 1.45-.15 2.15-.35 1.8 3.05 2.85 6.8 2.85 10.55-.15 11.8-9.8 21.45-21.6 21.45z" fill="#fff"/><path d="M62 52H37.9c-1.08 0-1.8.7-1.8 1.8 0 1.06.72 1.77 1.8 1.77H62c1.08 0 1.8-.7 1.8-1.78 0-1.1-.72-1.8-1.8-1.8zM59.32 59.1H40.58c-1.07 0-1.78.7-1.78 1.8 0 1.06.7 1.77 1.78 1.77h18.74c1.07 0 1.78-.7 1.78-1.78 0-1.1-.7-1.8-1.78-1.8zM38.4 48.4h23.2c.7 0 1.24-.35 1.6-1.07.36-.54.17-1.25-.17-1.8l-5.37-7.15c-.7-.9-2.14-.9-2.83 0l-3.77 5-4.8-7.67c-.72-1.07-2.32-1.07-3.05 0l-6.23 9.84c-.35.54-.35 1.25 0 1.8.18.7.72 1.06 1.44 1.06z" fill="#fff"/><path d="M63.7 33.98c0 1.43 1.25 2.5 2.68 2.68 1.43 0 2.5-1.07 2.68-2.32v-.36c0-1.43-1.25-2.68-2.68-2.68h-.36c-1.25.18-2.32 1.25-2.32 2.68 0-.18 0 0 0 0z" fill="#032d60"/></g></svg>