<svg xmlns="http://www.w3.org/2000/svg" xmlns:lucid="lucid" width="100" height="100"><g lucid:page-tab-id="0_0" stroke="#000" stroke-opacity="0" stroke-width="2.34"><path d="M100 50c0 27.6-22.4 50-50 50S0 77.6 0 50 22.4 0 50 0s50 22.4 50 50z" fill="#032d60"/><path d="M67.54 29.3h-7.7c1.1-2.46 1.8-5.14 1.8-7.83 0-1.1-.9-1.97-1.95-1.97-1.1 0-1.97.88-1.97 1.97 0 2.7-.9 5.37-2.15 7.84H44.32c-1.4-2.3-2.15-5.14-2.15-7.83 0-1.1-.86-1.97-1.96-1.97-1.04 0-1.94.88-1.94 1.97 0 2.7.7 5.37 1.8 7.84h-7.7c-1.06 0-1.96.9-1.96 1.98v41.05c0 1.1.9 1.97 1.95 1.97h35.2c1.05 0 1.95-.88 1.95-1.97V31.28c0-1.1-.9-1.97-1.96-1.97zm-1.8 41.05H34.32v-37.1H52.9c-1.05 1.43-2.3 2.7-3.75 3.9h-4.1c-1.06 0-1.96.93-1.96 1.97 0 1.1.9 1.97 1.95 1.97h9.86c1.05 0 1.95-.9 1.95-1.98 0-1.04-.9-1.97-1.95-1.97 1.05-1.2 2.1-2.47 3-3.9h7.87v37.1z" fill="#fff"/><path d="M59.8 62.5H40.17c-1.08 0-1.97.9-1.97 1.96 0 1.08.9 1.97 1.97 1.97H59.6c1.1 0 1.98-.9 1.98-1.97.18-1.07-.7-1.96-1.78-1.96zM40.17 45c-1.08 0-1.97.9-1.97 1.97v9.86c0 1.07.9 1.97 1.97 1.97h19.46c1.08 0 1.97-.9 1.97-1.97v-9.86c0-1.07-.9-1.97-1.97-1.97H40.17zm17.7 9.67H42.3v-5.9h15.54v5.9z" fill="#fff"/></g></svg>