<svg xmlns="http://www.w3.org/2000/svg" xmlns:lucid="lucid" width="100" height="100"><g lucid:page-tab-id="0_0" stroke="#000" stroke-opacity="0"><path d="M100 50c0 27.6-22.4 50-50 50S0 77.6 0 50 22.4 0 50 0s50 22.4 50 50z" fill="#032d60"/><path d="M32.6 20.6h-8c-2.27 0-4 1.73-4 4v8c0 2.27 1.73 4 4 4h8c2.27 0 4-1.73 4-4v-8c0-2.27-1.73-4-4-4zM32.6 63.4h-8c-2.27 0-4 1.73-4 4v8c0 2.27 1.73 4 4 4h8c2.27 0 4-1.73 4-4v-8c0-2.27-1.73-4-4-4zM32.6 42h-8c-2.27 0-4 1.73-4 4v8c0 2.27 1.73 4 4 4h8c2.27 0 4-1.73 4-4v-8c0-2.27-1.73-4-4-4zM54 20.6h-8c-2.27 0-4 1.73-4 4v8c0 2.27 1.73 4 4 4h8c2.27 0 4-1.73 4-4v-8c0-2.27-1.73-4-4-4zM54 63.4h-8c-2.27 0-4 1.73-4 4v8c0 2.27 1.73 4 4 4h8c2.27 0 4-1.73 4-4v-8c0-2.27-1.73-4-4-4zM54 42h-8c-2.27 0-4 1.73-4 4v8c0 2.27 1.73 4 4 4h8c2.27 0 4-1.73 4-4v-8c0-2.27-1.73-4-4-4zM75.4 20.6h-8c-2.27 0-4 1.73-4 4v8c0 2.27 1.73 4 4 4h8c2.27 0 4-1.73 4-4v-8c0-2.27-1.73-4-4-4zM75.4 63.4h-8c-2.27 0-4 1.73-4 4v8c0 2.27 1.73 4 4 4h8c2.27 0 4-1.73 4-4v-8c0-2.27-1.73-4-4-4zM75.4 42h-8c-2.27 0-4 1.73-4 4v8c0 2.27 1.73 4 4 4h8c2.27 0 4-1.73 4-4v-8c0-2.27-1.73-4-4-4z" fill="#fff"/></g></svg>