<svg xmlns="http://www.w3.org/2000/svg" xmlns:lucid="lucid" width="100" height="100"><g lucid:page-tab-id="0_0" stroke="#000" stroke-opacity="0" stroke-width="2.34"><path d="M100 50c0 27.6-22.4 50-50 50S0 77.6 0 50 22.4 0 50 0s50 22.4 50 50z" fill="#032d60"/><path d="M65.5 53.27v-4.11c0-8.6-6.94-15.56-15.5-15.56-8.58 0-15.52 6.97-15.52 15.56v4.12c-1.25 1.4-1.98 3.38-1.98 5.52 0 4.3 2.85 7.7 6.42 7.7h2.32c1.08 0 1.95-.9 1.95-1.97V52.9c0-1.07-.88-1.96-1.96-1.96H38.22v-1.98c0-6.4 5.18-11.6 11.6-11.6 6.4 0 11.6 5.2 11.6 11.6V50.93H58.34c-1.04 0-1.94.9-1.94 1.98v11.63c0 1.08.9 1.97 1.95 1.97h2.33c3.57 0 6.42-3.4 6.42-7.7.38-2.14-.35-4.1-1.6-5.53zM39.44 54.9v7.65h-.35c-1.43 0-2.5-1.78-2.5-3.9 0-2.15 1.24-3.96 2.5-3.96h.34zm21.62 7.65h-.38V54.9h.38c1.42 0 2.5 1.76 2.5 3.9 0 2.17-1.08 3.75-2.5 3.75z" fill="#fff"/><path d="M73.33 75.3H26.77c-1.06 0-1.97-.9-1.97-1.98V26.58c0-1.07.9-1.98 1.97-1.98h46.56c1.06 0 1.97.9 1.97 1.98v46.6c0 1.2-.9 2.12-1.97 2.12zm-44.6-4.1h42.63V28.7H28.74v42.5z" fill="#fff"/></g></svg>