<svg xmlns="http://www.w3.org/2000/svg" xmlns:lucid="lucid" width="100" height="100"><g lucid:page-tab-id="0_0" stroke="#000" stroke-opacity="0" stroke-width="2.34"><path d="M100 50c0 27.6-22.4 50-50 50S0 77.6 0 50 22.4 0 50 0s50 22.4 50 50z" fill="#032d60"/><path d="M50 17.9l-12.3 8.04h24.6L50 17.9zM37.9 30.7h24.3v4.82H37.9V30.7zM71.82 54.5L67 51.1v12.53l4.82 3.77V54.5zM27.46 61.62c-.53.53-1.08.72-1.78.72H22.1V73.2h2.68L33 66.07V56.1l-5.54 5.52z" fill-opacity="0"/><path d="M50 45.4c-3.9 0-7.3 3.2-7.3 7.3 0 3.9 3.2 7.3 7.3 7.3s7.3-3.2 7.3-7.3-3.4-7.3-7.3-7.3zm0 9.62c-1.24 0-2.5-1.08-2.5-2.5 0-1.25 1.07-2.5 2.5-2.5s2.5 1.07 2.5 2.5c0 1.42-1.26 2.5-2.5 2.5z" fill="#fff"/><path d="M81.72 74.82l-5.2-3.94V57.85l2.3 1.6c.4.4.93.4 1.45.4.72 0 1.58-.4 1.97-1.06.72-1.08.53-2.68-.52-3.4L67.1 45.22V30.74h3.53c1.05 0 1.97-.67 2.3-1.8.4-1.08-.14-2.15-1.05-2.68L51.34 12.9c-.72-.53-1.77-.53-2.7 0L28.2 26.26c-.93.53-1.26 1.6-1.13 2.67.4 1.14 1.25 1.8 2.36 1.8h3.55v18.38l-8.2 8.22h-5.2c-1.23 0-2.48 1.07-2.48 2.54v15.7c0 1.27 1.05 2.47 2.5 2.47h6.1c.52 0 1.04-.13 1.57-.53l5.7-5v4.33c0 1.2 1.05 2.47 2.5 2.47 1.24 0 2.5-1.07 2.5-2.47v-7.35h24.26v7.35c0 1.2 1.05 2.47 2.5 2.47 1.44 0 2.5-1.07 2.5-2.47v-7.15l11.8 9.1c.32.32.85.52 1.44.52.72 0 1.38-.33 1.97-.87.52-1.07.33-2.67-.72-3.6zm-43.9-24.65v-9.6h24.22v24.3h-24.2v-14.7zM49.9 17.9l12.33 8.03h-24.6L49.9 17.9zm12.14 12.84v4.8h-24.2v-4.8h24.2zM24.78 73.22h-2.7v-10.9h3.6c.67 0 1.26-.2 1.78-.72l5.52-5.48v9.95l-8.2 7.15zm42.1-22.1l4.8 3.4v12.62l-4.8-3.74V51.1z" fill="#fff"/></g></svg>