<svg xmlns="http://www.w3.org/2000/svg" xmlns:lucid="lucid" width="100" height="100"><g lucid:page-tab-id="0_0" stroke="#000" stroke-opacity="0" stroke-width="2.34"><path d="M50 0C22.4 0 0 22.4 0 50s22.4 50 50 50 50-22.4 50-50S77.6 0 50 0z" fill="#032d60"/><path d="M41.8 56.32c1.74-1.9 1.4-5.32.88-7.75-1.9-8.6-7.57-13.42-10.84-15.67-.52 3.27-1.9 6.2-2.07 6.37-.86 1.73-2.92 6.9-2.23 10.33 1.9 9.15 6.88 8.27 7.74 8.27h.7v-.17c-.53-6.7-3.45-12.58-3.45-12.75-.5-1.03-.17-2.05.85-2.58 1.04-.52 2.07-.17 2.6.85.16.35 3.26 6.73 3.78 14.13.86-.15 1.55-.5 2.05-1.03z" fill-opacity="0"/><path d="M58.3 33.45c-6.92 2.23-11.93 6.4-13.83 8.3.87 1.72 1.55 3.78 2.07 6 1.03 5.02.5 8.8-1.88 11.38-1.4 1.4-3.13 2.1-4.68 2.44 0 1.35-.32 2.74-.68 4.12 8.62-5.7 14.3-12.1 17.6-16.9 5-7.23 6.56-12.8 6.56-12.95.32-1 1.4-1.73 2.42-1.35 1.04.34 1.7 1.35 1.36 2.4-.16.84-4.65 17.6-24.48 31.2 3.1 1.38 8.46 2.94 13.63 1.55 4.12-1.18 7.58-4.12 10.16-8.8 7.24-13.6 5-27.4 3.46-32.75-2.07 1.4-6.24 3.62-11.73 5.35z" fill-opacity="0"/><path d="M73.1 24.16c-.2-.53-.72-1-1.4-1.2-.5-.17-1.18 0-1.7.36 0 0-4.66 3.62-12.95 6.35-6.9 2.26-11.86 6.25-14.45 8.45C37.94 30.88 31.2 28 30.9 27.78c-.73-.3-1.4-.16-1.92.2-.52.33-.88 1-.68 1.7.3 2.77-1.24 6.55-1.7 7.76-.2.37-3.63 7.46-2.44 12.97.88 4.63 2.74 7.94 5.7 9.83 1.86 1.2 3.93 1.52 5.18 1.52h1.18c-.2 2.62-.87 5.04-2.22 7.24-1.76.9-3.47 1.73-5.18 2.62-1.04.52-1.4 1.52-1.04 2.57.32.67 1.04 1.2 1.7 1.2.38 0 .53 0 .9-.16 2.07-.9 3.93-1.9 5.85-2.94.83-.52 1.86-1.05 2.74-1.57 1.92 1.05 7.26 3.46 13.26 3.46 1.7 0 3.48-.17 5.34-.7 5.34-1.36 9.48-4.98 12.6-10.7C80.3 43.7 73.4 25.05 73.1 24.16zM36.24 43.48c-.52-1-1.7-1.37-2.6-.84-1.03.52-1.4 1.73-.87 2.57 0 .17 2.95 6.05 3.47 12.77v.16h-.68c-.72 0-5.9.73-7.77-8.25-.72-3.46 1.35-8.6 2.23-10.34 0-.2 1.57-3.1 2.08-6.4 3.27 2.1 8.97 6.93 10.88 15.7.52 2.57.83 6.03-.88 7.76-.52.53-1.2.84-1.9 1.2-.7-7.6-3.8-13.95-3.95-14.32zm30.5 17.43c-2.58 4.68-5.84 7.78-10.2 8.83-5.12 1.36-10.5-.2-13.57-1.58C62.76 54.7 67.26 37.8 67.4 36.92c.37-1-.35-2.05-1.4-2.42-1.02-.3-2.06.37-2.37 1.42 0 0-1.55 5.67-6.58 12.9-3.42 4.84-8.96 11.25-17.56 16.92.35-1.37.5-2.78.67-4.15 1.55-.32 3.3-1.06 4.66-2.42 2.43-2.42 2.95-6.2 1.9-11.4-.5-2.2-1.23-4.3-2.06-6.03 1.87-1.68 6.74-5.83 13.78-8.25 5.5-1.9 9.48-4.14 11.9-5.5 1.2 5.5 3.6 19.3-3.6 32.9z" fill="#fff"/></g></svg>