<svg xmlns="http://www.w3.org/2000/svg" xmlns:lucid="lucid" width="100" height="100"><g lucid:page-tab-id="0_0" stroke="#000" stroke-opacity="0" stroke-width="2.34"><path d="M100 50c0 27.6-22.4 50-50 50S0 77.6 0 50 22.4 0 50 0s50 22.4 50 50z" fill="#032d60"/><path d="M45.7 54.8h2.43c0-1.05.85-1.9 1.9-1.9 1.07 0 1.92.85 1.92 1.9h2.43l-4.34-11.7z" fill-opacity="0"/><path d="M73.9 56.7c0-1.07-.86-1.92-1.9-1.92h-4.4l-8.04-21.75v-.27c0-5.26-4.3-9.56-9.56-9.56-5.3 0-9.6 4.3-9.6 9.56v.27l-8 21.75H28c-1.04 0-1.9.85-1.9 1.93s.86 1.94 1.9 1.94H31l-3.16 8.5v.04c-.38 1.02.14 2.1 1.15 2.47l2.24.86-1.42 3.82c-.38.97.1 2.1 1.1 2.47.24.05.43.1.67.1.8 0 1.53-.48 1.82-1.24l1.38-3.86 2.3.86c.47.2.95.2 1.43 0 .48-.22.8-.6 1-1.08l4.74-12.83h3.87c0-1.02.85-1.88 1.9-1.88 1.05 0 1.9.86 1.9 1.88h3.88l4.74 12.67c.28.8.95 1.3 1.76 1.3.24 0 .48-.06.67-.17l2.25-.8 1.43 3.8c.3.8.96 1.3 1.77 1.3.24 0 .48-.06.67-.16 1-.4 1.48-1.46 1.15-2.5l-1.43-3.8 2.23-.75c.53-.16.86-.48 1.1-.97.2-.48.2-1.02 0-1.5l-3.15-8.48h3.1c1.06-.06 1.87-.92 1.82-2zM44.4 31.48c.77-3.1 3.88-5 6.94-4.24 2.15.48 3.73 2.1 4.25 4.24.1.43.14.86.14 1.3v.7c-.3 2.08-1.53 3.75-3.5 4.6l-.42.17c-.48.16-.9.2-1.44.26h-.7c-.5-.05-.92-.1-1.45-.26l-.43-.17c-1.15-.48-1.96-1.23-2.63-2.25-.48-.75-.7-1.5-.8-2.36v-.7c-.06-.43 0-.86.04-1.3zM36.58 68.3l-4.4-1.66 10.37-27.97c1.05 1.34 2.3 2.3 3.87 3zM51.9 54.8c0-1.02-.85-1.88-1.9-1.88-1.05 0-1.9.86-1.9 1.88h-2.45L50 43.08l4.35 11.7zM65.7 67.5l-2.2.8-9.9-26.63c1.63-.7 2.87-1.6 3.97-3l10.28 27.97z" fill="#fff"/><path d="M48.6 34.06c.37.4.83.6 1.37.62 1.06.02 1.93-.82 1.95-1.87 0-1.05-.86-1.9-1.9-1.9-1.06 0-1.92.85-1.92 1.9 0 .5.18.9.5 1.26z" fill="#fff"/></g></svg>