<svg xmlns="http://www.w3.org/2000/svg" xmlns:lucid="lucid" width="100" height="100"><g lucid:page-tab-id="0_0" stroke="#000" stroke-opacity="0" stroke-width="2.34"><path d="M100 50c0 27.6-22.4 50-50 50S0 77.6 0 50 22.4 0 50 0s50 22.4 50 50z" fill="#032d60"/><path d="M44.18 58.2c1.03 0 1.87 1.22 1.87 2.72 0 1.5-.84 2.7-1.87 2.7-1.04 0-1.88-1.2-1.88-2.7 0-1.5.84-2.72 1.88-2.72zM59.5 60.88c0-1.5-.83-2.72-1.87-2.72-1.03 0-1.86 1.22-1.86 2.72 0 1.5.83 2.72 1.86 2.72 1.04 0 1.88-1.22 1.88-2.72zm-17.54-3.54c.27-.83 1.46-1.3 2.43-.97.85.3 1.75-.18 2.04-1.04.3-.86-.17-1.77-1.02-2.05-2.7-.9-5.67.47-6.53 3.02-.3.86.16 1.77 1.02 2.05.85.3 1.76-.18 2.04-1.04zm13.52-3.67c-.78.42-1.1 1.4-.7 2.2.44.8 1.42 1.1 2.2.68.93-.5 2.15-.2 2.57.55.43.8 1.38 1.1 2.2.68.78-.42 1.1-1.4.66-2.2-1.23-2.36-4.42-3.24-6.92-1.9z" fill="#fff"/><path d="M84.68 51.02c-.14-.67-.56-1.2-1.2-1.52-.56-.3-1.26-.36-1.9-.06-1.32.55-3.7 1.04-4.97.73.22-.12.36-.24.57-.3.84-.55 1.54-.9 2.45-1.22 1.2-.3 1.9-1.57 1.55-2.8-.77-2.84-2.25-5.1-4.7-6.97.5-.54.98-1.1 1.26-1.64.35-.6.35-1.4.07-2.06-.35-.6-.9-1.1-1.6-1.28-2.33-.48-5.7-1.94-7.88-3.03-2.03-1.15-4.2-1.1-6.25-.8-.07-1.63-.2-2.84-.42-3.63-.56-2.13-1.9-3.83-3.58-4.62-.5-.24-1.05-.3-1.54-.18-2.25.6-6.32 1.95-9.27 3.83-1.82-2.6-4.84-4.98-7.23-5.65-.7-.24-1.47-.12-2.03.37-.57.4-.92 1.08-.92 1.8 0 1.22-.63 2.13-1.68 3.65-1.13 1.52-2.4 3.34-2.88 5.95-3.65-.3-8.2.97-10.53 3.15-.5.5-.78 1.16-.78 1.83.07.66.42 1.27.98 1.63.07.14.28.38.77.86-2.95 1.9-5.82 4.2-6.95 8.02-.2.72-.07 1.45.35 2.06.43.55 1.06.9 1.83.85h1.82c.3 2.3 1 4 1.76 5.15-2.18.48-3.86 0-3.93 0-.84-.24-1.7-.06-2.32.55-.56.6-.77 1.5-.5 2.3 2.12 6.5 4.57 8.56 7.73 9.6l-.7 1.75s0 .06-.07.12c0 .07 0 .2-.08.25V70.58c0 .05 0 .17.07.23 0 .07 0 .13.06.2 0 .05 0 .1.07.17 0 .13.07.2.07.25l.14.18.14.12.2.18.08.12h.07c.07.06.07.06.14.06 1.76 1.34 3.72 2 5.83 2 1.6 0 3.3-.48 4.98-1.27 3.44 4.87 9.48 7.6 17.34 7.6 7.16 0 13.13-2.55 16.7-7.1.43.06.85.06 1.27.06 3.3 0 7.44-.97 9.96-3.46h.07c.07-.06.14-.12.2-.24l.08-.06s0-.06.08-.06c0 0 0-.07.07-.13.07-.05.07-.1.14-.17 0-.06.06-.12.06-.18.08-.12.08-.18.08-.24l.06-.18c0-.12.07-.18.07-.24v-.42c0-.06 0-.12-.06-.25v-.17c-.06-.06-.06-.12-.06-.24-.08-.07-.08-.13-.15-.2 0-.05-.08-.1-.08-.17-.07-.07-.07-.13-.14-.2-.07-.05-.07-.1-.14-.17l-.14-.12v-.06l-.07-.06c-.35-.3-.7-.6-.9-.85 3.08-.85 8.48-4.98 6.38-14.4zM70.15 68.75c2.95-8.8-.84-17.67-3.58-21.43-.56-.73-1.4-1.1-2.32-.9h-.07c-.63.17-1.26.6-1.54 1.2-2.95-3.1-7.6-5.52-11.3-6.74-.78-.24-1.55-.48-2.25-.6-.57-.12-1.28 0-1.77.3-.35.24-.56.55-.7.85-.14.24-.2.43-.28.67-.14 1.2-.14 2.5.07 3.76-1.75-.6-3.5-1.45-4.2-2.06l-.08-.06c-.07-.06-.14-.12-.2-.12-.08-.06-.15-.13-.22-.13 0 0 0-.07-.07-.07 0 0-.07 0-.14-.06-.06 0-.13-.06-.2-.06l-.22-.05H40.25c-.08 0-.15.06-.22.06-.14 0-.14.07-.2.07l-.22.12c-.06 0-.06 0-.13.06-6.8 4.06-9.97 11.23-9 20.03.16 1.8.58 3.57 1.14 5.15-1.68.8-3.22.9-4.63.36l.92-2.3c.06-.12.06-.3.13-.42v-.42-.42c-.07-.12-.07-.24-.14-.37v-.06c-.08-.12-.15-.18-.15-.24-.07-.06-.07-.12-.14-.18 0-.06-.06-.12-.06-.18-.07 0-.14-.12-.22-.2l-.27-.23c-.08 0-.08-.06-.08-.06-.14-.05-.2-.1-.35-.17-.14 0-.2-.06-.28-.06-.07 0-.14-.06-.14-.06-2.52-.48-4.07-.72-5.6-3.88 1.88-.12 4.2-.6 6.52-2.12.77-.5 1.33-1.4 1.12-2.3-.14-.92-.7-1.6-1.62-1.7-.14-.07-2.24-.98-2.24-6.08v-.24c0-.06 0-.12-.07-.18 0-.06 0-.18-.06-.25v-.18c-.07-.06-.07-.12-.14-.24-.07 0-.07-.06-.07-.12l-.22-.17c0-.06-.05-.13-.05-.2-.07-.05-.14-.1-.2-.1l-.16-.13c-.08-.06-.22-.12-.3-.12 0-.06-.06-.06-.13-.12-.07 0-.14-.06-.28-.06 0 0-.08-.06-.15-.06-.14 0-.28-.06-.42-.06 1.26-1.28 3.02-2.37 4.92-3.58l.35-.2c.56-.35.98-.9 1.05-1.5.14-.67 0-1.34-.42-1.83l-.14-.12c-.3-.48-.65-.85-.93-1.2 2.25-.92 5.27-1.1 6.74-.56.72.3 1.56.24 2.2-.25.62-.42.97-1.2.9-2-.14-2.6 1-4.13 2.25-5.9.63-.84 1.26-1.8 1.75-2.9 1.62 1.2 3.1 2.97 3.37 4.12.14.55.43.97.85 1.34.98.74 2.38.62 3.16-.36.98-1.2 4.7-3.03 8.35-4.06.28.3.56.8.7 1.27.14.55.28 2.25.2 5.22 0 .18 0 .37.08.55.3 1.2 1.5 2 2.68 1.7l.56-.06c2.1-.5 4-.9 5.4-.18 1.4.72 3.38 1.63 5.27 2.36 0 .06-.06.12-.13.12-.56.5-.98 1.22-.9 2 .06.8.48 1.46 1.18 1.83 2.25 1.26 3.65 2.48 4.5 4.12-.5.18-.92.42-1.27.66-.7.43-1.4.8-2.18 1.16-.35.06-.56.24-.77.42-.56.5-.9 1.28-.77 2 .28 2.55 1.7 3.83 2.74 4.44 2.03 1.15 4.7.97 6.67.54.28 4.98-2.8 6.32-3.44 6.56l-2.25.36c-.98.18-1.75 1.03-1.9 2.07-.06 1.4.36 2.9 1.34 4.3-1.2.6-2.67.92-4.14 1.04zm-5.4 1.03v.12c-2.68 3.76-7.6 5.95-13.63 5.95-9.6 0-15.3-4.5-16.07-12.75-.5-4.6.07-10.8 5.68-14.87 2.8 1.64 7.38 3.1 9.7 3.1.97 0 1.75-.5 2.1-1.28.35-.85.28-1.82-.28-2.43-.5-.6-.92-1.27-1.13-2 3.72 1.4 7.73 3.94 9.27 6.5.48.72 1.32 1.15 2.17 1.03.7-.06 1.33-.25 1.9-.55 1.9 4.07 3.7 10.87.34 17.18z" fill="#fff"/><path d="M53.77 64.88c-.16-.03-.32.03-.4.17-.47.65-1.38 1.08-2.37 1.08-1 0-1.96-.44-2.4-1.14-.08-.15-.23-.22-.4-.2-2.1.46-4.13 1.45-6.1 3-.62.5-1 1.24-1 2 0 1.1.28 1.83.8 2.24.4.3.84.4 1.38.4.83 0 1.8-.26 2.93-.54 1.4-.38 3.02-.8 4.56-.75 1.55.02 3.1.37 4.52.7 2.08.46 3.86.85 4.87.05.5-.4.75-1.06.75-2 .04-.62-.26-1.27-.75-1.7-.85-.74-3.2-2.55-6.38-3.32z" fill="#fff"/></g></svg>