<svg xmlns="http://www.w3.org/2000/svg" xmlns:lucid="lucid" width="100" height="100"><g lucid:page-tab-id="0_0" stroke="#000" stroke-opacity="0" stroke-width="2.34"><path d="M100 50c0 27.6-22.4 50-50 50S0 77.6 0 50 22.4 0 50 0s50 22.4 50 50z" fill="#481a54"/><path d="M64.44 35.2c-.36.2-.54.2-.9.2h-.53l-9.3-2.7c1.07 1.98 1.97 4.3 2.5 6.8l9.85 3.6 5.55-3.22c-.72-2.52-1.8-4.85-3.04-6.83l-4.12 2.16zM66.6 58.72c-.37 0-.54 0-.9-.18l-8.2-3.74c-.35 2.67-.88 5.17-1.6 7.48l7.83 3.02 7.3-2.5c.9-2.3 1.6-4.8 1.97-7.46l-5.52 3.02c-.17.36-.53.36-.9.36zM66.6 47.2c-.17 0-.54 0-.72-.18l-8.58-3.05c.35 1.98.35 4.1.35 6.1v.7l8.78 3.93 6.97-3.94v-.7c0-2.15-.18-4.3-.53-6.26l-5.38 3.04c-.2.18-.54.35-.9.35zM40.13 42.1c2.17 0 3.93 3.52 3.93 7.85s-1.76 7.85-3.93 7.85-3.93-3.52-3.93-7.85 1.76-7.85 3.93-7.85zM50.55 27.67l12.82 3.75 3.03-1.6c-1.97-1.97-4.28-3.22-6.77-3.22H49.3c.53.36.9.7 1.25 1.07zM63.57 69.5c-.2 0-.55 0-.72-.2l-8.37-3.2c-1.44 3.04-3.04 5.53-5.18 7.32h10.34c3.2 0 6.23-1.96 8.56-5.36l-3.93 1.43h-.7z" fill-opacity="0"/><path d="M53.9 50c0-12.68-6.23-23.4-13.55-23.4S26.8 37.32 26.8 50c0 12.68 6.23 23.4 13.55 23.4S53.9 62.68 53.9 50zm-21.38 0c0-6.6 3.4-11.8 7.83-11.8 4.44 0 7.83 5.2 7.83 11.8 0 6.6-3.4 11.8-7.83 11.8-4.44 0-7.83-5.2-7.83-11.8z" fill-opacity="0"/><path d="M48 50c0-6.6-3.4-11.8-7.85-11.8-4.46 0-7.85 5.2-7.85 11.8 0 6.6 3.4 11.8 7.85 11.8C44.6 61.8 48 56.6 48 50zm-11.6 0c0-4.46 2.15-7.86 3.92-7.86 1.8 0 3.93 3.4 3.93 7.86 0 4.46-2.14 7.86-3.93 7.86-1.96 0-3.92-3.4-3.92-7.86z" fill="#fff"/><path d="M59.87 22.7H40.2c-9.82 0-17.5 11.96-17.5 27.3s7.68 27.3 17.5 27.3h19.5c9.82 0 17.5-11.96 17.5-27.3s-7.52-27.3-17.33-27.3zm11.28 40.35L63.8 65.5l-7.86-3c.7-2.34 1.26-4.8 1.6-7.48l8.2 3.72c.18.16.56.16.94.16.33 0 .7 0 .87-.16l5.56-3c-.37 2.45-1.08 4.96-1.95 7.3zM73.45 50v.7l-7 3.94-8.7-3.93V50c0-2.13-.22-4.1-.4-6.06l8.57 3c.22 0 .38.22.76.22.33 0 .7-.22.87-.22l5.35-3c.38 1.8.54 3.93.54 6.06zm-7-6.93l-9.8-3.6c-.7-2.52-1.4-4.65-2.5-6.78l9.32 2.67h.5c.37 0 .53 0 .9-.17l4.48-2.13c1.26 1.92 2.3 4.26 3 6.77l-5.9 3.23zm-6.58-16.44c2.5 0 4.8 1.26 6.8 3.22l-3.04 1.6-12.86-3.73h-.22c-.33-.38-.7-.76-1.04-1.1h10.37zM26.62 50c0-12.67 6.27-23.37 13.57-23.37 7.35 0 13.56 10.7 13.56 23.37 0 12.67-6.2 23.37-13.57 23.37-7.3 0-13.58-10.7-13.58-23.37zm33.25 23.37H49.5c1.98-1.97 3.77-4.48 5.2-7.32l8.38 3.4c.17.15.55.15.7.15.18 0 .4 0 .56-.16l4.1-1.42c-2.52 3.38-5.36 5.35-8.57 5.35z" fill="#fff"/></g></svg>