<svg xmlns="http://www.w3.org/2000/svg" xmlns:lucid="lucid" width="100" height="100"><g lucid:page-tab-id="0_0" stroke="#000" stroke-opacity="0" stroke-width="2.34"><path d="M100 50c0 27.6-22.4 50-50 50S0 77.6 0 50 22.4 0 50 0s50 22.4 50 50z" fill="#032d60"/><path d="M50.05 22.7c-15.1 0-27.35 12.25-27.35 27.35 0 15.1 12.25 27.35 27.35 27.35 15.1 0 27.35-12.25 27.35-27.35 0-15.1-12.25-27.35-27.35-27.35zm0 50.76c-12.96 0-23.4-10.45-23.4-23.4 0-12.97 10.44-23.42 23.4-23.42 12.96 0 23.4 10.45 23.4 23.4 0 12.97-10.44 23.42-23.4 23.42z" fill="#fff"/><path d="M58.28 38.93v.04c-.78.74-.75 2 0 2.75 4.57 4.6 4.57 12 0 16.56-1.8 1.8-3.82 2.83-6.32 3.24l1.38-1.35c.75-.78.75-2 0-2.75-.76-.78-2-.78-2.76 0L45.7 62.3c-.75.78-.75 2 0 2.75l4.88 4.88c.38.37.85.57 1.38.57.53 0 1-.2 1.38-.57.75-.74.75-1.97 0-2.75l-1.54-1.64c3.66-.4 6.67-1.85 9.3-4.47 6.1-6.1 6.13-16 .03-22.14 0 0-.03 0-.03-.04-.8-.75-2.07-.75-2.82.03zM38.3 50c0-5.78 4.05-10.58 9.75-11.52l-1.38 1.35c-.38.4-.56.86-.56 1.4 0 1.06.88 1.92 1.95 1.92.56 0 1-.16 1.37-.57l4.9-4.88c.77-.78.74-2 0-2.75l-4.9-4.88c-.75-.77-1.97-.77-2.75 0-.75.74-.75 1.97 0 2.75l1.63 1.64c-3.67.4-6.67 1.85-9.3 4.47-6.1 6.1-6.13 16-.03 22.14.38.37.84.53 1.38.57.53-.04.97-.2 1.34-.57.78-.78.78-2 .02-2.8-2.28-2.28-3.44-5.03-3.4-8.27z" fill="#fff"/></g></svg>