<svg xmlns="http://www.w3.org/2000/svg" xmlns:lucid="lucid" width="100" height="100"><g lucid:page-tab-id="0_0" stroke="#000" stroke-opacity="0" stroke-width="2.34"><path d="M100 50c0 27.6-22.4 50-50 50S0 77.6 0 50 22.4 0 50 0s50 22.4 50 50z" fill="#032d60"/><path d="M44.06 32.87v12l10.38 6.05V38.98zm23.6-4.8L57.27 22l-10.54 6.06 10.54 6.1zm-15.9 27.66l-10.54-6.05-10.37 6.05 10.37 6.06zm8.2-4.64l10.54-6.06V32.87l-10.54 6.1zM38.54 66.65L28 60.56v11.98l10.54 6.06zm5.52 11.94l10.38-6.06v-12l-10.38 6.12z" fill-opacity="0"/><path d="M75.36 26.22l-.54-.56-16.06-9.24c-.92-.56-2-.56-2.7 0l-15.84 9.1c-.54.14-.92.7-1.08 1.05-.22.35-.38.9-.38 1.4v16.8l-14.66 8.4c-.48.14-.86.7-1.02 1.05-.22.35-.38.9-.38 1.47v18.33c0 1.05.54 1.96 1.4 2.3l16.12 9.32c.32.14.86.35 1.4.35.54 0 .9-.2 1.4-.35l16.06-9.3c.92-.5 1.46-1.4 1.46-2.32V57.3l14.66-8.4c.86-.56 1.4-1.47 1.4-2.3V28.17c-.54-.9-.92-1.6-1.24-1.96zM44.1 44.77V32.8l10.56 6.1v11.96l-10.56-6.1zm13.2-22.82l10.57 6.02-10.35 6.1-10.56-6.1 10.34-6.02zM41.24 49.6l10.57 6.1-10.34 6-10.57-6 10.34-6.1zm-13.2 10.85l10.56 6.1V78.5l-10.56-6.08V60.45zm26.4 11.97l-10.34 6.1V66.53l10.56-6.1v11.98zm16.07-27.44L60 51V39.1L70.5 33V45z" fill="#fff"/></g></svg>