<svg xmlns="http://www.w3.org/2000/svg" xmlns:lucid="lucid" width="100" height="100"><g lucid:page-tab-id="0_0" stroke="#000" stroke-opacity="0" stroke-width="2.34"><path d="M100 50c0 27.6-22.4 50-50 50S0 77.6 0 50 22.4 0 50 0s50 22.4 50 50z" fill="#032d60"/><path d="M58.77 44.77c-1.6 0-3.04 1.26-3.04 2.85 0 1.62 1.24 2.86 2.86 2.86 1.58 0 2.85-1.24 2.85-2.86.35-1.42-1.08-2.85-2.68-2.85zM44.1 47.8c0-1.6-1.24-2.86-2.84-3.03-1.6 0-2.86 1.26-2.86 2.85 0 1.62 1.25 2.86 2.86 2.86 1.6.2 2.85-1.07 2.85-2.68zm2.7-18.02c-1.8.72-3.4 1.96-4.66 3.38h15.73c-2.58-3.5-6.95-4.83-11.08-3.38z" fill-opacity="0"/><path d="M68.8 37.1H31.46c-1.07 0-1.97.9-1.97 1.97V69.4h41.06V39.07c.2-1.07-.7-1.97-1.77-1.97zM34.3 47.8c0-3.76 3.05-6.76 6.8-6.76 3.77 0 6.8 3 6.8 6.75 0 3.77-3.03 6.77-6.8 6.77-3.54 0-6.8-3-6.8-6.78zm24.3 14.1c-2.3 2.14-5.34 3.4-8.55 3.4-3.2 0-6.45-1.26-8.75-3.4-.74-.7-.74-1.96 0-2.67.7-.7 1.97-.7 2.67 0 3.4 3.23 8.75 3.23 12.12 0 .73-.7 1.96-.7 2.7 0 .7.7.7 1.77-.2 2.68zm.2-7.33c-3.78 0-6.78-3-6.78-6.78 0-3.76 3-6.76 6.78-6.76 3.74 0 6.8 3 6.8 6.75.15 3.77-3.06 6.77-6.8 6.77z" fill-opacity="0"/><path d="M48.1 47.87c0-3.76-3.06-6.8-6.82-6.8-3.73 0-6.78 3.04-6.78 6.8 0 3.75 3.05 6.78 6.78 6.78 3.76 0 6.8-3.03 6.8-6.78zm-9.84 0c0-1.6 1.25-2.86 2.86-2.86 1.6 0 2.87 1.27 2.87 2.87s-1.3 2.85-2.88 2.85c-1.43 0-2.86-1.24-2.86-2.85zM58.8 40.9c-3.74 0-6.8 3.04-6.8 6.78 0 3.77 3.06 6.8 6.8 6.8 3.75 0 6.8-3.03 6.8-6.8.2-3.57-3.05-6.78-6.8-6.78zm3.04 6.97c0 1.6-1.25 2.85-2.86 2.85-1.62 0-2.86-1.24-2.86-2.85 0-1.6 1.24-2.86 2.86-2.86 1.43-.16 2.86 1.27 2.86 2.87zm-5.72 11.26c-3.4 3.2-8.74 3.2-12.13 0-.73-.7-2-.7-2.72 0-.72.7-.72 1.96 0 2.67 2.33 2.16 5.54 3.4 8.77 3.4 3.2 0 6.25-1.24 8.58-3.4.72-.7.72-1.97 0-2.67-.56-.7-1.8-.7-2.5 0z" fill="#fff"/><path d="M75.33 51.73H74.3v-12.7c0-3.2-2.7-5.9-5.93-5.9H62.5c-1.64-3.4-4.32-5.9-7.9-7.14-.86-.32-1.74-.53-2.67-.68v-2.14c0-1.1-.88-1.98-1.92-1.98-1.1 0-1.96.9-1.96 1.98v2.14c-4.5.67-8.4 3.54-10.36 7.8h-6.25c-3.23 0-5.92 2.72-5.92 5.9v12.7h-1.03c-1.1 0-1.97.9-1.97 1.94 0 1.1.88 1.98 1.97 1.98h1.04v15.68c0 1.1.95 1.98 2 1.98h44.8c1.05 0 2-.9 2-1.98V55.64h1.03c1.1 0 1.97-.9 1.97-1.98 0-1.04-.88-1.93-1.97-1.93zm-28.55-22c4.1-1.4 8.76 0 11.07 3.4H42.12c1.26-1.4 2.85-2.66 4.66-3.4zm23.9 39.45H29.6V38.86c0-1.1.94-1.98 1.98-1.98h37.32c1.04 0 1.97.9 1.97 1.98v30.32z" fill="#fff"/></g></svg>