<svg xmlns="http://www.w3.org/2000/svg" xmlns:lucid="lucid" width="100" height="100"><g lucid:page-tab-id="0_0" stroke="#000" stroke-opacity="0" stroke-width="2.34"><path d="M100 50c0 27.6-22.4 50-50 50S0 77.6 0 50 22.4 0 50 0s50 22.4 50 50z" fill="#481a54"/><path d="M71.93 63v-.35c0-4.5-3.4-7.34-8.4-7.34h-11.6V51h14.82c1.05 0 2.14-.85 2.14-2.1 0-1.08-.88-2.14-2.14-2.14h-2.14v-7.33h2.14c.9 0 1.78-.56 1.94-1.62.2-.85-.16-1.77-.9-2.32L51.06 24.95c-.73-.35-1.6-.35-2.2 0L32.1 35.68c-.73.56-1.25 1.42-.88 2.33.15.87 1.04 1.63 1.93 1.63h2.14v7.28h-2.15c-1.05 0-2.14.92-2.14 2.14 0 1.1.9 2.17 2.15 2.17h14.82v4.27h-11.6c-5 0-8.4 3.03-8.4 7.33v.36c-2.5.9-4.27 3.23-4.27 5.92 0 3.4 2.87 6.22 6.26 6.22 3.4 0 6.27-2.83 6.27-6.22 0-2.7-1.83-5-4.34-5.92v-.36c0-2.83 2.87-3.2 4.33-3.2h11.6v3.56c-2.52.9-4.3 3.23-4.3 5.92 0 3.4 2.88 6.22 6.27 6.22 3.4 0 6.2-2.83 6.2-6.22 0-2.7-1.76-5-4.27-5.92V59.6h11.64c1.26 0 4.28.37 4.28 3.2v.36c-2.5.9-4.28 3.23-4.28 5.92 0 3.4 2.82 6.22 6.2 6.22 3.4 0 6.28-2.83 6.28-6.22.36-3.04-1.4-5.37-3.92-6.08zM39.4 46.76v-7.33h4.3v7.33h-4.3zm21.1 0h-4.28v-7.33h4.28v7.33zm-6.26-11.43H40.5l9.46-5.92 9.44 5.93h-5.16zm-6.42 4.1h4.28v7.33h-4.28v-7.33zM29.96 71c-1.1 0-2.14-.86-2.14-2.13 0-1.06.9-2.12 2.14-2.12 1.26 0 2.14.86 2.14 2.12 0 1.07-.88 2.13-2.14 2.13zm20 0c-1.1 0-2.14-.86-2.14-2.13 0-1.06.88-2.12 2.14-2.12 1.25 0 2.14.86 2.14 2.12 0 1.07-1.05 2.13-2.14 2.13zm20 0c-1.05 0-2.15-.86-2.15-2.13 0-1.06.9-2.12 2.15-2.12 1.1 0 2.14.86 2.14 2.12-.17 1.07-1.06 2.13-2.15 2.13z" fill="#fff"/></g></svg>