<svg xmlns="http://www.w3.org/2000/svg" xmlns:lucid="lucid" width="100" height="100"><g lucid:page-tab-id="0_0" stroke="#000" stroke-opacity="0" stroke-width="2.34"><path d="M50 0C22.4 0 0 22.4 0 50s22.4 50 50 50 50-22.4 50-50S77.6 0 50 0z" fill="#032d60"/><path d="M74.65 23.1H25.4c-1.24 0-2.1 1.02-2.1 2.1v49.4c0 1.24 1.02 2.1 2.1 2.1h49.4c1.24 0 2.1-1.02 2.1-2.1V25.36c0-1.23-1.02-2.25-2.25-2.25zM72.6 72.57H27.44V27.4H72.6v45.17z" fill="#fff"/><path d="M66.2 54.97c-1.18 0-2.22.84-2.22 2.05V61l-4.5-4.5c-.85-.83-2.2-.83-3.1 0-.85.9-.85 2.25 0 3.13l4.32 4.3h-3.62c-1.2 0-2.06 1.02-2.06 2.05 0 1.2.85 2.24 2.06 2.24l8.97.18c1.18 0 2.07-.84 2.07-2.05l.14-8.96c.2-1.4-.85-2.43-2.06-2.43zm-33.77 12.6c.52.5 1.04.65 1.55.65h.34l8.44.18c1.22 0 2.07-.84 2.07-2.05 0-1.22-.85-2.24-2.07-2.24H39l4.28-4.32c.9-.85.9-2.24 0-3.1-.85-.87-2.2-.87-3.1 0l-4.3 4.3v-3.77c0-1.2-.86-2.23-2.08-2.23-1.18 0-2.2.84-2.2 2.05l-.2 8.96c.33.5.52 1.03 1.03 1.58zm24.65-31.4h3.8l-4.3 4.3c-.86.88-.86 2.24 0 3.12.32.32 1.02.7 1.54.7.5 0 1.03-.2 1.54-.7l4.47-4.5v3.98c0 1.2 1.03 2.05 2.07 2.05 1.2 0 2.06-1.02 2.06-2.24l-.14-8.96v-.7s0-.14-.2-.14c0 0 0-.2-.17-.2 0-.17-.15-.17-.15-.17l-.37-.33h-.15l-.18-.2h-.7l-8.93.2c-1.22 0-2.07 1.03-2.07 2.24-.37.7.67 1.54 1.88 1.54zm-22.9 8.96c1.17 0 2.2-1.02 2.05-2.24v-3.6l4.32 4.3c.33.32 1.03.7 1.55.7s1.03-.2 1.55-.7c.85-.9.85-2.25 0-3.13L39.15 36h3.8c1.22 0 2.07-1.03 2.07-2.24 0-1.22-1.04-2.06-2.26-2.06l-8.96.18h-.85s-.2 0-.2.15l-.13.18s-.2 0-.2.2l-.17.14s0 .2-.15.2v.17s0 .2-.18.2v1.02l.18 8.96c-.18 1.03.85 2.05 2.07 2.05zm18.92 7.93c1.73-1.73 1.73-4.48 0-6.02-1.7-1.72-4.47-1.72-6.02 0-1.73 1.73-1.73 4.48 0 6.02 1.55 1.54 4.32 1.54 6.02 0z" fill="#fff"/></g></svg>