<svg xmlns="http://www.w3.org/2000/svg" xmlns:lucid="lucid" width="100" height="100"><g lucid:page-tab-id="0_0" stroke="#000" stroke-opacity="0" stroke-width="2.34"><path d="M50 0C22.4 0 0 22.4 0 50s22.4 50 50 50 50-22.4 50-50S77.6 0 50 0z" fill="#032d60"/><path d="M82.73 46.4c-.87-.87-2.4-1.07-3.4 0l-1.95 1.9c-.8-12.63-9.97-22.95-22.08-25.4l-5.68-5.86c-.87-1-2.4-1-3.42 0-1.07.88-1.07 2.43 0 3.5l2.08 1.9c-6.56.34-12.78 3.1-17.46 7.77-3.95 3.92-6.7 8.9-7.76 14.32l-5.82 5.8c-.87.88-1.07 2.43 0 3.5.87.82 2.4 1.02 3.4 0l1.95-1.95c.8 12.63 9.96 22.95 22.07 25.38l5.68 5.88c.47.47 1 .67 1.67.67.54 0 1.2-.2 1.74-.67 1.07-.88 1.07-2.44 0-3.45l-2.07-2.1c6.55-.33 12.57-3.1 17.45-7.75 3.95-3.98 6.7-8.98 7.76-14.3l5.83-5.68c.87-1.08.87-2.63 0-3.45zM67.2 49.5l5.03 5c-.87 4.46-3.08 8.44-6.36 11.68-3.8 3.85-8.63 6.08-13.98 6.4l1.86-1.88c.87-.87 1.07-2.42 0-3.44-.87-.88-2.4-1.08-3.4 0l-4.9 5.13c-9.63-2.03-17.2-10.34-17.92-20.33l1.94 1.9c.47.53 1 .67 1.67.67.54 0 1.27-.14 1.74-.67 1.06-.88 1.06-2.44 0-3.45l-4.83-5c.87-4.45 3.08-8.43 6.36-11.74 3.8-3.78 8.63-5.87 13.98-6.34l-1.86 1.9c-.87.87-1.07 2.42 0 3.43.53.54 1 .67 1.74.67.67 0 1.2-.13 1.67-.67l5.02-5c9.7 2.1 17.26 10.33 18.13 20.32l-2.4-1.9c-.88-1-2.42-1-3.5 0-.86.88-.86 2.43 0 3.3z" fill="#fff"/><path d="M61.08 47.63h-.86c-.35-1.02-.67-2.07-1.2-3.1l.7-.7c.85-.86.85-2.4 0-3.44-.87-.87-2.43-.87-3.46 0l-.7.7c-.86-.55-1.88-1.06-3.1-1.22v-.86c0-1.4-1.04-2.42-2.4-2.42-1.38 0-2.43 1.02-2.43 2.42v.86c-1.02.35-2.07.67-3.1 1.2l-.7-.7c-.85-.85-2.4-.85-3.44 0-.87.87-.87 2.43 0 3.46l.7.7c-.55.86-1.06 1.88-1.22 3.1h-.86c-1.4 0-2.42 1.04-2.42 2.4 0 1.38 1.02 2.43 2.42 2.43h.86c.35 1.02.67 2.07 1.2 3.1l-.7.7c-.85.85-.85 2.4 0 3.44.52.52 1.04.7 1.74.7s1.2-.18 1.72-.7l.7-.7c.86.55 1.88 1.06 3.1 1.22v.86c0 1.4 1.04 2.42 2.4 2.42 1.38 0 2.43-1.02 2.43-2.42v-.86c1.02-.35 2.07-.67 3.1-1.2l.7.7c.5.5 1.02.7 1.72.7s1.2-.2 1.7-.7c.87-.87.87-2.43 0-3.46l-.7-.7c.55-.86 1.06-1.88 1.22-3.1h.86c1.4 0 2.42-1.04 2.42-2.4 0-1.38-1.02-2.43-2.42-2.43zm-16.73 2.42c0-3.1 2.6-5.7 5.7-5.7s5.7 2.6 5.7 5.7-2.6 5.7-5.7 5.7-5.7-2.6-5.7-5.7z" fill="#fff"/><path d="M52.43 50.02c0 1.33-1.08 2.4-2.42 2.4-1.32 0-2.4-1.07-2.4-2.4 0-1.34 1.08-2.42 2.4-2.42 1.35 0 2.43 1.08 2.43 2.4z" fill="#fff"/></g></svg>