<svg xmlns="http://www.w3.org/2000/svg" xmlns:lucid="lucid" width="100" height="100"><g lucid:page-tab-id="0_0" stroke="#000" stroke-opacity="0" stroke-width="2.34"><path d="M100 50c0 27.6-22.4 50-50 50S0 77.6 0 50 22.4 0 50 0s50 22.4 50 50z" fill="#032d60"/><path d="M74.66 51.07H72.5V25.34c0-1.23-.9-2.14-2.13-2.14H29.63c-1.23 0-2.14.9-2.14 2.14v25.73h-2.16c-1.23 0-2.14.9-2.14 2.15v21.44c0 1.23.9 2.14 2.14 2.14h49.32c1.23 0 2.14-.9 2.14-2.14V53.22c0-1.24-.9-2.15-2.14-2.15zM27.5 72.5V55.37h20.36V72.5H27.5zm4.28-45h36.44v23.57H31.78V27.5zm20.36 27.86H72.5V72.5H52.15V55.37z" fill="#fff"/><path d="M52.82 30.9c-1.08-.34-2.33.2-2.7 1.44l-4.27 12.9c-.35 1.06.18 2.32 1.4 2.7.2 0 .55.16.73.16.9 0 1.8-.54 1.97-1.44l4.28-12.88c.17-1.27-.36-2.5-1.4-2.88zM42.8 33.6c-.9-.9-2.12-.9-3.02 0l-4.12 4.3c-.87.9-.87 2.14 0 3.04l4.3 4.3c.36.35.9.72 1.4.72.55 0 1.08-.2 1.44-.73.9-.88.9-2.15 0-3.05l-2.66-2.85 2.84-2.87c.72-.7.72-2.15-.18-2.86zm14.3 11.46c.35.36.9.7 1.43.7.5 0 1.05-.17 1.4-.7l4.3-4.3c.88-.9.88-2.16 0-3.04l-4.3-4.3c-.9-.9-2.12-.9-3 0-.9.9-.9 2.14 0 3.04l2.83 2.87-2.66 2.85c-.9.73-.9 2.17 0 2.88z" fill="#fff"/></g></svg>