<svg xmlns="http://www.w3.org/2000/svg" xmlns:lucid="lucid" width="100" height="100"><g lucid:page-tab-id="0_0" stroke="#000" stroke-opacity="0" stroke-width="2.34"><path d="M100 50c0 27.6-22.4 50-50 50S0 77.6 0 50 22.4 0 50 0s50 22.4 50 50z" fill="#481a54"/><path d="M50 43.9c3.22 0 5.9-2.68 5.9-5.9s-2.68-5.9-5.9-5.9-5.9 2.68-5.9 5.9c0 3.4 2.68 5.9 5.9 5.9zm0-7.7c1.07 0 1.97.9 1.97 1.98 0 1.07-.9 1.97-1.97 1.97-1.07 0-1.97-.9-1.97-1.97 0-1.08.9-1.97 1.97-1.97zM39.78 47.36c.7.72 1.97.9 2.68.2.7-.72.9-1.98.18-2.7-3.22-3.75-3.22-9.3 0-13.06.7-.72.7-1.96-.18-2.68-.9-.7-1.97-.7-2.68.18-4.64 5.18-4.64 12.88 0 18.06zM57.5 47.5c.7.7 1.96.7 2.67-.2 4.64-5.17 4.64-13 0-18.18-.7-.7-1.97-.87-2.68-.17-.72.72-.9 1.97-.2 2.67 3.23 3.74 3.23 9.28 0 13-.7.9-.7 2.15.2 2.87z" fill="#fff"/><path d="M65 23.23c-.7-.7-1.95-.7-2.67 0-.7.7-.7 1.97 0 2.68 6.8 6.44 6.97 17.16.54 23.96-.18.16-.35.34-.54.53-.7.7-.7 1.96 0 2.68.72.7 1.98.7 2.68 0 8.4-8.04 8.6-21.08.73-29.48-.18.18-.54-.2-.72-.37zM37.72 53.2c.7-.7.7-1.95 0-2.67-6.8-6.43-6.98-17.13-.54-23.9.17-.2.35-.37.54-.53.7-.72.7-1.96 0-2.87-.72-.72-1.97-.72-2.87 0-8.4 8.02-8.57 21.06-.7 29.45.17.16.52.53.7.72.9.7 2.15.7 2.87-.2 0 .2 0 .2 0 0zM55.65 50.35c-.35-.7-.87-1.25-1.77-1.25h-7.86c-.87 0-1.42.54-1.77 1.25L35.52 74.8c-.35 1.07.17 2.15 1.07 2.5.7.2 1.42.2 1.94-.35l11.4-9.65 11.42 9.65c.9.7 1.98.54 2.67-.2.53-.54.53-1.25.35-1.95l-8.73-24.45zm-14.08 18.9l2.5-6.93 2.85 2.32-5.35 4.6zm3.93-10.87l1.95-5.35h5l1.95 5.35-4.45 3.74-4.45-3.74zm7.48 6.26l2.85-2.32 2.5 6.93-5.35-4.6z" fill="#fff"/></g></svg>