<svg xmlns="http://www.w3.org/2000/svg" xmlns:lucid="lucid" width="100" height="100"><g lucid:page-tab-id="0_0" stroke="#000" stroke-opacity="0" stroke-width="2.34"><path d="M100 50c0 27.6-22.4 50-50 50S0 77.6 0 50 22.4 0 50 0s50 22.4 50 50z" fill="#481a54"/><path d="M74.45 39.3c0-.7.15-5.02-2.7-8.2-1.07-1.25-2.5-2.18-4.1-2.67v-3.76c0-1.1-.9-1.97-1.97-1.97h-7.84c-1.08 0-1.96.87-1.96 1.97v3.93c-1.62.7-3.04 1.58-4.12 2.84-2.9 3.22-2.7 7.15-2.7 7.86v1.96h-21.6c-1.08 0-1.96.88-1.96 1.97v32.1c0 1.1.88 1.97 1.96 1.97h31.26c1.08 0 1.96-.87 1.96-1.97h1.08c5 0 8.72-1.25 10.88-3.54 1.96-2.2 1.96-4.66 1.8-5.2V39.3zm-3.77 27.46s0 1.26-.88 2.35c-1.28 1.43-4.12 2.3-7.9 2.3H60.9v-8.73h9.8v4.09zm-41.26 6.6V45.2h27.34v28.33H29.42zM59.95 31.6v-4.97h3.97v4.82c2.3.16 3.92.87 5.14 2.13 1.96 2.18 1.8 5.35 1.8 5.35v2.18H53.34v-1.8-.16s-.14-2.9 1.82-5.03c.73-1.4 2.5-2.12 4.8-2.5zm.73 13.6h9.8v13.7h-9.8V45.2z" fill="#fff"/><path d="M51.1 52.83c0-1.07-.9-1.97-1.96-1.97H45.2c0-1.06-.88-1.96-1.95-1.96-1.07 0-1.96.9-1.96 1.96h-3.94c-1.06 0-1.96.9-1.96 1.97 0 1.07.9 1.96 1.96 1.96h11.78c1.06 0 1.96-.9 1.96-1.97zM43.16 58.8c-1.07 0-1.96.9-1.96 1.96v6.78c0 1.07.9 1.96 1.96 1.96 1.08 0 1.97-.9 1.97-1.96v-6.78c0-1.07-.9-1.96-1.97-1.96zM35.37 58.8c-1.08 0-1.97.9-1.97 1.96v6.78c0 1.07.9 1.96 1.97 1.96 1.07 0 1.96-.9 1.96-1.96v-6.78c0-1.07-.9-1.96-1.96-1.96zM51.06 58.8c-1.07 0-1.96.9-1.96 1.96v6.78c0 1.07.9 1.96 1.96 1.96 1.08 0 1.97-.9 1.97-1.96v-6.78c0-1.07-.9-1.96-1.96-1.96z" fill-opacity="0"/><path d="M49.14 54.8c1.06 0 1.96-.9 1.96-1.97 0-1.07-.9-1.97-1.96-1.97H45.2c0-1.06-.88-1.96-1.95-1.96-1.07 0-1.96.9-1.96 1.96h-3.94c-1.06 0-1.96.9-1.96 1.97 0 1.07.9 1.96 1.96 1.96h11.78zM35.37 58.8c-1.08 0-1.97.9-1.97 1.96v6.78c0 1.07.9 1.96 1.97 1.96 1.07 0 1.96-.9 1.96-1.96v-6.78c0-1.07-.9-1.96-1.96-1.96zM51.06 69.5c1.08 0 1.97-.9 1.97-1.96v-6.78c0-1.07-.9-1.96-1.96-1.96-1.08 0-1.97.9-1.97 1.96v6.78c0 1.07.9 1.96 1.96 1.96zM43.16 58.8c-1.07 0-1.96.9-1.96 1.96v6.78c0 1.07.9 1.96 1.96 1.96 1.08 0 1.97-.9 1.97-1.96v-6.78c0-1.07-.9-1.96-1.97-1.96z" fill="#fff"/></g></svg>