<svg xmlns="http://www.w3.org/2000/svg" xmlns:lucid="lucid" width="100" height="100"><g lucid:page-tab-id="0_0" stroke="#000" stroke-opacity="0" stroke-width="2.34"><path d="M50 0C22.4 0 0 22.4 0 50s22.4 50 50 50 50-22.4 50-50S77.6 0 50 0z" fill="#032d60"/><path d="M73.64 54.3c-1.38 0-2.46.53-3.3 1.57l-19.98-3.6c-1.2-.16-2.28.53-2.4 1.7-.18 1.2.48 2.25 1.68 2.42l20.04 3.64c.48 1.68 2.22 2.72 3.96 2.72 2.4 0 4.32-1.9 4.32-4.28 0-2.26-1.92-4.17-4.32-4.17zm-25.02-17l5.34-7.77h.36c2.4 0 4.32-1.9 4.32-4.35 0-2.37-1.92-4.28-4.32-4.28-2.4 0-4.32 1.9-4.32 4.28 0 .7.18 1.22.36 1.74l-5.34 7.6c-.72 1.03-.54 2.24.48 2.94.36.35.9.35 1.2.35.9.53 1.38.18 1.92-.5zm25.02-8.64c-3.66 0-6.42 2.95-6.42 6.37v.52l-18.06 8.28c-1.08.52-1.56 1.74-1.08 2.72.36.87 1.26 1.22 1.92 1.22.36 0 .54 0 .84-.18l18.12-8.1c1.2 1.2 2.76 1.9 4.68 1.9 3.6 0 6.36-2.9 6.36-6.37 0-3.42-2.94-6.37-6.36-6.37zm0 8.45c-1.2 0-2.1-1.03-2.1-2.07 0-1.04 1.02-2.1 2.1-2.1 1.2 0 2.04 1.06 2.04 2.1s-.84 2.08-2.04 2.08zM61.7 66.07c-1.38 0-2.76.52-3.78 1.22l-5.7-4c-1.02-.7-2.22-.52-2.88.52-.72 1.05-.54 2.26.48 2.96l5.7 3.93c-.18.5-.18 1.04-.18 1.73 0 3.6 2.94 6.37 6.36 6.37 3.66 0 6.42-2.95 6.42-6.37.18-3.47-2.76-6.37-6.42-6.37zm0 8.63c-1.2 0-2.04-1.05-2.04-2.1 0-1.2 1.02-2.08 2.04-2.08 1.26 0 2.1 1.04 2.1 2.08.18 1.05-.84 2.1-2.1 2.1zM39.5 50.53c2.04-1.9 3.12-4.28 3.06-7.12 0-5.32-4.32-9.6-9.6-9.6-2.82 0-5.22 1.03-7.14 3.12-3.6 3.88-3.36 10 .54 13.6-3.78 2.26-6.36 6.37-6.36 11v3.3c0 1.22 1.02 2.1 2.04 2.1h21.42c1.2 0 2.04-1.05 2.04-2.1v-3.47c.36-4.46-2.22-8.57-6-10.83zm2.04 12.22H24.32v-1.2c0-4.65 3.78-8.4 8.64-8.4 4.8 0 8.58 3.75 8.58 8.4v1.2zM27.56 43.48c0-2.95 2.46-5.33 5.4-5.33 2.88 0 5.34 2.38 5.34 5.33 0 2.9-2.46 5.33-5.34 5.33-2.94 0-5.4-2.42-5.4-5.32z" fill="#fff"/></g></svg>