<svg xmlns="http://www.w3.org/2000/svg" xmlns:lucid="lucid" width="100" height="100"><g lucid:page-tab-id="0_0" stroke="#000" stroke-opacity="0" stroke-width="2.34"><path d="M100 50c0 27.6-22.4 50-50 50S0 77.6 0 50 22.4 0 50 0s50 22.4 50 50z" fill="#032d60"/><path d="M73.15 70.15H69.3V27.82c0-1.05-.86-1.92-1.92-1.92H55.76c-1.05 0-1.9.87-1.9 1.92v12.5h-9.62c-1.05 0-1.9.88-1.9 1.93v12.5H32.7c-1.06 0-1.9.88-1.9 1.93v13.47h-3.87c-1.1 0-1.95.87-1.95 1.93 0 1.05.85 1.92 1.95 1.92h46.2c1.1 0 1.95-.87 1.95-1.92 0-1.06-.85-1.93-1.95-1.93zm-15.43-40.5h7.7v40.5h-7.7v-40.5zM46.14 44.13h7.72v26.02h-7.72V44.13zM34.62 58.56h7.7V70.1h-7.7V58.56z" fill="#fff"/></g></svg>