<svg xmlns="http://www.w3.org/2000/svg" xmlns:lucid="lucid" width="100" height="100"><g lucid:page-tab-id="0_0" stroke="#000" stroke-opacity="0" stroke-width="2.34"><path d="M100 50c0 27.6-22.4 50-50 50S0 77.6 0 50 22.4 0 50 0s50 22.4 50 50z" fill="#032d60"/><path d="M33.2 56.7h12.4-12.4zM59.57 45.2c1.08 0 1.94-.86 1.94-1.92s-.85-1.92-1.93-1.92H51.9c-1.04 0-1.9.86-1.9 1.92s.86 1.92 1.9 1.92zm-7.66-7.67h13.45c.94-.08 1.65-.8 1.73-1.73.1-1.05-.65-1.98-1.73-2.1H51.56c-1.07.12-1.84 1.05-1.73 2.1.08 1.06 1.04 1.83 2.1 1.73z" fill="#fff"/><path d="M74.95 54.35c.06-.5.1-.95.1-1.5V32.7c0-4.25-3.44-7.7-7.7-7.7H30.8c-4.25 0-7.7 3.45-7.7 7.7v20.15c0 4.25 3.45 7.7 7.7 7.7h19.25v.95c0 2.7.65 4.95 2.05 7.2 4 6.3 12.3 8.2 18.6 4.25 6.3-4 8.2-12.3 4.25-18.6zm-11.43 16.8c-5.33-.05-9.64-4.35-9.64-9.65v-.95c.1-.7.2-1.25.43-1.9.22-.7.5-1.3.82-1.95 2.64-4.6 8.5-6.2 13.1-3.6.9.55 1.6 1.05 2.3 1.85.5.5.82.95 1.2 1.55.38.6.65 1.15.86 1.8 1.67 5.05-1.02 10.5-6.1 12.15-1.02.35-1.93.5-3 .5zM45.62 56.7h-12.4v-1.45c0-3.45 2.82-6.25 6.27-6.25 3.44 0 6.24 2.8 6.24 6.25v1.45zm-8.88-12.65c-1.5-1.5-1.5-3.95 0-5.45.75-.75 1.67-1.1 2.75-1.1 2.1.15 3.7 2 3.54 4.1-.1 1.95-1.6 3.45-3.55 3.6-1.1 0-2-.4-2.76-1.15zM49.5 56.7v-1.45c0-3.55-1.66-6.55-4.62-8.5 3-3 3-7.85 0-10.85-3.02-3-7.87-3-10.9 0-2.96 3-2.96 7.85 0 10.85-2.96 1.9-4.63 4.95-4.63 8.45v1.2c-1.5-.55-2.42-1.95-2.42-3.55V32.7c0-2.15 1.72-3.85 3.82-3.85h36.6c2.16 0 3.88 1.7 3.88 3.85v17.85c-.97-.7-1.83-1.15-2.9-1.55-6.96-2.65-14.72.85-17.36 7.75z" fill="#fff"/><path d="M67.28 59.64h-1.9v-1.9c0-.36-.1-.67-.27-.98-.17-.3-.4-.53-.7-.7-.93-.53-2.1-.2-2.6.7-.2.3-.27.62-.27.98v1.9H59.6c-.7 0-1.3.36-1.64.97-.18.3-.26.6-.26.97v.02c0 1.05.85 1.9 1.9 1.9h1.93v1.93c0-1.07.86-1.93 1.92-1.93s1.92.86 1.92 1.93V63.5h1.9c1.07 0 1.93-.86 1.93-1.93 0-1.06-.86-1.93-1.92-1.93z" fill="#fff"/></g></svg>