<svg xmlns="http://www.w3.org/2000/svg" xmlns:lucid="lucid" width="100" height="100"><g lucid:page-tab-id="0_0" stroke="#000" stroke-opacity="0" stroke-width="0"><path d="M100 50c0 27.6-22.4 50-50 50S0 77.6 0 50 22.4 0 50 0s50 22.4 50 50z" fill="#032d60"/><path d="M89.2 43.88c-1.1-1.06-2.86-1.06-3.95 0l-2.4 2.4C81 29.75 66.96 16.9 50 16.9c-18.26 0-33.1 14.85-33.1 33.08 0 12.73 7.16 23.74 17.76 29.3C37.6 81.1 42.63 83.2 50 83.2c7.32 0 12.37-2.12 15.37-3.9 9.35-4.92 16.08-14.2 17.47-25.14l6.36-6.36c1.1-1.07 1.1-2.86 0-3.92zM71.43 47.8l6.07 6.03c-.88 6.3-3.87 11.93-8.26 16.18-.66-6.7-4.6-12.26-10.23-15.1 3.66-2.8 6-7.1 6-12 0-8.3-6.73-15.06-15-15.06-8.32 0-15.04 6.76-15.04 15.05 0 4.9 2.33 9.2 6.06 12-5.63 2.84-9.57 8.4-10.3 15.1-5.27-5.1-8.56-12.13-8.56-20.02 0-15.3 12.5-27.78 27.85-27.78C64 22.2 75.54 32.55 77.5 46l-2.12-2.12c-.07 0-.07-.06-.07-.06-1.1-1.06-2.77-1.06-3.87.06-1.1 1.06-1.1 2.85 0 3.92zM40.5 42.9c0-5.25 4.25-9.5 9.5-9.5 5.2 0 9.52 4.25 9.52 9.5 0 5.23-4.32 9.47-9.5 9.47-5.27 0-9.5-4.24-9.5-9.48zm23.33 29.23v1.52C62.15 74.9 57.7 77.7 50 77.7c-7.73 0-12.2-2.72-13.87-4.05v-1.52c0-7.76 6.06-13.86 13.88-13.86 7.76 0 13.83 6.1 13.83 13.86z" fill="#fff"/></g></svg>