<svg xmlns="http://www.w3.org/2000/svg" xmlns:lucid="lucid" width="100" height="100"><g lucid:page-tab-id="0_0" stroke="#000" stroke-opacity="0" stroke-width="2.34"><path d="M100 50c0 27.6-22.4 50-50 50S0 77.6 0 50 22.4 0 50 0s50 22.4 50 50z" fill="#032d60"/><path d="M73.28 32.83h-26.4c-.42 0-.72-.18-.92-.55l-1.26-2.7c-.9-1.76-2.63-2.83-4.6-2.78H29.85c-2.78 0-5.05 2.27-5.05 5.06v39.31c0 1.1.9 2.04 2.02 2.04h46.46c1.1 0 2.02-.93 2.02-2V34.88c0-1.1-.9-2-2.02-2.04zm-2.02 36.33H28.84v-37.3c0-.56.4-1.02.96-1.02h10.3c.4 0 .7.18.9.55l1.32 2.7c.9 1.75 2.58 2.77 4.55 2.77h24.4z" fill="#fff"/><path d="M33.2 51.86c-.54.73-.54 1.68 0 2.4 1.97 2.5 3.92 4.38 6.5 6.23l-1.24 1.25c-.8.78-.8 2.07 0 2.87.8.77 2.06.77 2.85 0l2-2.04c2.2 1.07 4.2 1.55 6.65 1.6 9.26 0 16.43-9.53 16.74-9.94.54-.73.54-1.68 0-2.4-1.97-2.5-3.92-4.38-6.5-6.23l1.28-1.25c.78-.78.78-2.06 0-2.87-.8-.77-2.06-.77-2.85 0L56.6 43.5c-2.16-1.04-4.22-1.53-6.62-1.53-9.3 0-16.46 9.5-16.77 9.9zM50 46c1.27.03 2.34.22 3.54.66l-2.5 2.55c-.45-.1-.83-.18-1.24-.16-2.2.07-3.9 1.87-3.84 4.06 0 .36.03.68.13 1.02L42.6 57.7c-1.98-1.37-3.52-2.75-5.1-4.63 2-2.28 6.9-7.07 12.48-7.07zm12.46 7.15c-2.03 2.3-6.97 7.17-12.46 7.17-1.3-.03-2.36-.22-3.56-.66l2.53-2.55c.42.13.8.18 1.2.18 2.2-.05 3.92-1.87 3.88-4.06 0-.36-.07-.68-.17-1.02l3.46-3.5c2 1.3 3.54 2.65 5.12 4.4z" fill="#fff"/></g></svg>