<svg xmlns="http://www.w3.org/2000/svg" xmlns:lucid="lucid" width="100" height="100"><g lucid:page-tab-id="0_0" stroke="#000" stroke-opacity="0" stroke-width="2.34"><path d="M100 50c0 27.6-22.4 50-50 50S0 77.6 0 50 22.4 0 50 0s50 22.4 50 50z" fill="#200d38"/><path d="M59.48 33.47c-1.2-.7-2.67-.27-3.32.9-.68 1.16-.3 2.66.88 3.35.38.24.8.33 1.22.33.83 0 1.63-.45 2.13-1.23.64-1.2.26-2.66-.92-3.35zM33.34 52.5c1.33 0 2.44-1.12 2.44-2.46 0-1.38-1.1-2.46-2.44-2.46-1.34 0-2.44 1.1-2.44 2.46 0 1.34 1.1 2.42 2.44 2.42zM64.3 44.1c.43 0 .85-.1 1.23-.33 1.18-.7 1.56-2.17.92-3.36-.7-1.14-2.17-1.56-3.36-.9-1.2.7-1.57 2.18-.88 3.35.46.8 1.3 1.22 2.13 1.22zm-29.97-.27c.38.24.8.33 1.22.33.84 0 1.64-.45 2.13-1.23.65-1.17.27-2.66-.9-3.32-1.2-.7-2.68-.27-3.33.9-.68 1.16-.26 2.66.88 3.32zM65.57 56.2c-1.18-.7-2.67-.3-3.35.9-.65 1.13-.27 2.65.9 3.3.4.25.8.34 1.23.34.84 0 1.64-.45 2.1-1.23.68-1.15.26-2.65-.88-3.3zm1-8.68c-1.34 0-2.45 1.1-2.45 2.46 0 1.37 1.07 2.42 2.44 2.42 1.34 0 2.44-1.08 2.44-2.42 0-1.38-1.1-2.46-2.44-2.46zm-16.58-16.6h-.13c-1.33 0-2.43 1.12-2.43 2.46 0 1.32 1.1 2.42 2.47 2.42h.05c1.37 0 2.48-1.1 2.48-2.45 0-1.37-1.07-2.42-2.44-2.45zm-9.65 2.58v.03c-1.14.7-1.56 2.15-.88 3.32l.04.03c.7 1.17 2.18 1.53 3.32.84 1.15-.66 1.57-2.2.88-3.32-.68-1.17-2.17-1.56-3.35-.9zm-5.98 22.73c-1.18.68-1.56 2.18-.88 3.34v.03c.68 1.17 2.16 1.53 3.34.87 1.15-.7 1.53-2.18.88-3.35-.7-1.16-2.2-1.55-3.35-.9z" fill="#fff"/><path d="M50.05 22.7c-15.1 0-27.35 12.25-27.35 27.35 0 15.1 12.25 27.35 27.35 27.35 15.1 0 27.35-12.25 27.35-27.35 0-15.1-12.25-27.35-27.35-27.35zm13.9 46.22c-.72-4.6-3.23-8.15-7.34-10.34 2.75-2.07 4.23-5.03 4.23-8.47 0-5.96-4.87-10.77-10.78-10.77-5.9 0-10.78 4.8-10.78 10.78 0 3.45 1.65 6.5 4.22 8.48-4.12 2.2-6.63 5.75-7.34 10.34-5.8-4.32-9.52-11.16-9.52-18.87 0-12.9 10.5-23.4 23.4-23.4 12.92 0 23.48 10.5 23.48 23.4 0 7.7-3.78 14.6-9.58 18.87zm-13.9 4.54c-3.67 0-7.1-.82-10.17-2.3v-.1c0-5.64 4.54-10.18 10.17-10.18s10.17 4.54 10.17 10.18v.1c-3.06 1.48-6.5 2.36-10.17 2.36zm-6.9-23.4c0-3.78 3.07-6.85 6.9-6.85 3.83 0 6.9 3.08 6.9 6.85 0 3.83-3.07 6.9-6.9 6.9-3.83 0-6.9-3.07-6.9-6.9z" fill="#fff"/></g></svg>