<svg xmlns="http://www.w3.org/2000/svg" xmlns:lucid="lucid" width="100" height="100"><g lucid:page-tab-id="0_0" stroke="#000" stroke-opacity="0" stroke-width="2.34"><path d="M100 50c0 27.6-22.4 50-50 50S0 77.6 0 50 22.4 0 50 0s50 22.4 50 50z" fill="#032d60"/><path d="M50.05 21.4C39 21.4 27 24.08 27 30.14v39.62c0 6.06 12 8.74 23.05 8.74 11.06 0 23.05-2.68 23.05-8.74V30.14c0-6.06-12-8.74-23.05-8.74zM68.8 56.57c-.17 1.26-6.95 4.46-18.75 4.46-3.92 0-7.15-.35-9.82-.92V51.4c3.23.5 6.6.74 9.82.74 6.96 0 14.3-1.1 18.76-3.43v7.87zM31.3 30.14c.17-1.26 6.95-4.46 18.75-4.46s18.4 3.03 18.76 4.46c-.36 1.25-6.95 4.45-18.75 4.45s-18.4-3.04-18.76-4.46zm0 5.53c4.46 2.35 11.8 3.37 18.75 3.37 6.96 0 14.3-1.02 18.76-3.37v7.66c-.17 1.25-6.95 4.5-18.75 4.5-3.92 0-7.15-.4-9.82-.9v-3.6c0-1.2-1.06-2.12-2.17-2.12-1.06 0-2.3.93-2.3 2.13v2.5c-2.67-.85-4.3-1.93-4.47-2.5v-7.66zm0 13.2c1.23.74 2.66 1.25 4.46 1.6v8.56c-2.67-.86-4.3-1.94-4.47-2.46v-7.7zm18.75 25.18c-11.8 0-18.4-3.03-18.76-4.46v-7.72c1.23.75 2.66 1.26 4.46 1.66v3.88c0 1.26 1.06 2.17 2.12 2.17 1.1 0 2.17-1.1 2.17-2.18V64.4c3.22.57 6.6.74 9.82.74 6.96 0 14.3-1.1 18.76-3.43v7.72c-.2 1.6-6.78 4.63-18.58 4.63z" fill="#fff"/></g></svg>