<svg xmlns="http://www.w3.org/2000/svg" xmlns:lucid="lucid" width="100" height="100"><g lucid:page-tab-id="0_0" stroke="#000" stroke-opacity="0" stroke-width="2.34"><path d="M100 50c0 27.6-22.4 50-50 50S0 77.6 0 50 22.4 0 50 0s50 22.4 50 50z" fill="#032d60"/><path d="M72.04 26.1H28.06c-1.05 0-1.96.9-1.96 1.96v43.98c0 1.05.9 1.96 1.96 1.96h43.98c1.05 0 1.96-.9 1.96-1.96V28.06c0-1.05-.9-1.96-1.96-1.96zm-1.97 43.97H30.03V43.25h40.23v26.82zM30.03 39.5v-9.66h40.23v9.67H30.03z" fill="#fff"/><path d="M51.93 34.67c0 1.08-.88 1.96-1.97 1.96-1.08 0-1.96-.88-1.96-1.96 0-1.1.88-1.97 1.96-1.97 1.1 0 1.97.88 1.97 1.97zM58.53 34.67c0 1.08-.88 1.96-1.97 1.96-1.08 0-1.96-.88-1.96-1.96 0-1.1.88-1.97 1.96-1.97 1.1 0 1.97.88 1.97 1.97zM65.33 34.67c0 1.08-.88 1.96-1.96 1.96-1.1 0-1.97-.88-1.97-1.96 0-1.1.88-1.97 1.97-1.97 1.08 0 1.96.88 1.96 1.97zM43.42 61.4h4.8c1.08 0 1.98-.9 1.98-1.96 0-1.1-.9-1.97-1.97-1.97h-4.8c-1.08 0-1.98.88-1.98 1.97 0 1.07.9 1.96 1.97 1.96zm-10-1.43c.34.36.88.54 1.42.54.53 0 .9-.17 1.43-.53l4.83-4.82c.7-.73.7-1.97 0-2.7l-4.83-4.8c-.7-.74-1.97-.74-2.68 0-.72.7-.72 1.95 0 2.67l3.38 3.4-3.4 3.4c-.9.88-.9 2.14-.16 2.85z" fill="#fff"/></g></svg>