<svg xmlns="http://www.w3.org/2000/svg" xmlns:lucid="lucid" width="100" height="100"><g lucid:page-tab-id="0_0" stroke="#000" stroke-opacity="0" stroke-width="2.34"><path d="M100 50c0 27.6-22.4 50-50 50S0 77.6 0 50 22.4 0 50 0s50 22.4 50 50z" fill="#032d60"/><path d="M51.98 38.9H33.82c-1.1 0-2.02.9-2.02 2.02 0 1.1.9 2 2.02 2h18.16c1.1 0 2.02-.9 2.02-2s-.9-2.02-2.02-2.02zm0 8.07H33.82c-1.1 0-2.02.9-2.02 2 0 1.12.9 2.03 2.02 2.03h18.16c1.1 0 2.02-.9 2.02-2.02 0-1.1-.9-2-2.02-2z" fill="#fff"/><path d="M78.2 36.87c0-5.57-4.52-10.07-10.06-10.07-3.33 0-6.2 1.58-8.08 4.04H23.73c-1.13 0-2.03.93-2.03 2V71.2c0 1.07.9 2 2.03 2H68.1c1.12 0 2.02-.93 2.02-2V58.3l3.16 1.58c.3.14.57.24.9.24.4 0 .8-.14 1.08-.38.62-.37.96-1.06.9-1.76l-.84-14c1.75-1.82 2.88-4.33 2.88-7.06zM71.93 54.7l-2.88-1.45c-.3-.14-.62-.23-.9-.23-.35 0-.7.1-.97.23L64.3 54.7l.5-8.27c1.03.32 2.16.55 3.34.55 1.13 0 2.26-.23 3.28-.55l.5 8.26zM25.77 69.15v-34.3h32.48c-.16.66-.22 1.3-.22 2 0 2.8 1.13 5.25 2.88 7.1l-.84 13.97c-.05.38.06.7.17 1.03.5 1.02 1.76 1.4 2.7.92l3.18-1.57v10.86H25.7zm42.37-38.32c3.34 0 6.05 2.7 6.05 6.03 0 3.34-2.72 6.08-6.06 6.08-3.4 0-6.1-2.74-6.1-6.08s2.7-6.03 6.1-6.03z" fill="#fff"/><path d="M42.14 54.82c-.94-.6-2.2-.32-2.78.62L36.4 60.1l-1.23-1c-.87-.68-2.14-.54-2.83.33-.7.88-.55 2.14.32 2.84l2.98 2.4c.35.27.8.43 1.27.43.1 0 .22 0 .34-.03.57-.1 1.07-.44 1.37-.9l4.2-6.57c.6-.95.3-2.2-.64-2.78z" fill="#fff"/></g></svg>