<svg xmlns="http://www.w3.org/2000/svg" xmlns:lucid="lucid" width="100" height="100"><g lucid:page-tab-id="0_0" stroke="#000" stroke-opacity="0" stroke-width="2.34"><path d="M50 0C22.4 0 0 22.4 0 50s22.4 50 50 50 50-22.4 50-50S77.6 0 50 0z" fill="#481a54"/><path d="M80.5 40.7L51.03 27.77c-.66-.36-1.4-.36-1.85 0L19.62 40.7c-.87.32-1.33 1.2-1.33 2.25 0 .67.32 1.34.85 1.7v10.5l-3.32 5.35c-.66 1.2-.33 2.6.87 3.28.33.18.86.36 1.2.36.85 0 1.58-.36 2.12-1.2l1.32-2.44 1.4 2.43c.53.67 1.2 1.2 2.06 1.2.4 0 .86-.17 1.26-.35 1.2-.67 1.52-2.25.86-3.28l-3.12-5.34V46.9l5.18 2.24v12.93c0 .68.13 1.22.66 1.7.2.2 8.44 8.63 20.4 8.63 5.96 0 12.87-2.06 20.1-8.44.54-.54.87-1.2.87-1.9V49.15L80.5 45c.87-.35 1.4-1.2 1.4-2.23 0-1.04-.53-1.75-1.4-2.07zM68.63 45l-18.6 8.27L31.38 45l-4.85-2.05 23.5-10.38 23.45 10.38L68.62 45zm-2.4 16.04c-16.06 13.25-29.34 2.92-32.46.14v-9.6l15.2 6.68c.34.18.67.18 1.07.18.33 0 .66 0 1-.18l15.2-6.7v9.48z" fill="#fff"/></g></svg>