<svg xmlns="http://www.w3.org/2000/svg" xmlns:lucid="lucid" width="100" height="100"><g lucid:page-tab-id="0_0" stroke="#000" stroke-opacity="0" stroke-width="2.34"><path d="M50 0C22.4 0 0 22.4 0 50s22.4 50 50 50 50-22.4 50-50S77.6 0 50 0z" fill="#032d60"/><path d="M49.95 24.8C39.45 24.8 31 33.25 31 43.75c0 4.13 1.36 8.1 3.8 11.4l.18.14 14.97 18.6 14.97-18.76.2-.2c2.42-3.28 3.78-7.2 3.78-11.38 0-10.3-8.45-18.76-18.95-18.76zM64.1 46.85c0 2.25-1.9 4.12-4.14 4.12h-2.62v2.6c0 2.26-1.9 4.13-4.13 4.13h-6.36c-2.23 0-4.13-1.87-4.13-4.13v-2.6h-2.57c-2.23 0-4.13-1.87-4.13-4.12v-6.4c0-2.2 1.9-4.1 4.13-4.1h2.58v-2.6c0-2.22 1.9-4.14 4.14-4.14h6.37c2.25 0 4.14 1.93 4.14 4.14v2.6h2.62c2.23 0 4.13 1.9 4.13 4.12v6.4z" fill-opacity="0"/><path d="M50 20.5c-12.75 0-23.1 10.32-23.1 23.13 0 5 1.53 9.67 4.5 13.63 0 .17.14.17.14.35l16.75 21c.32.55 1 .9 1.7.9s1.2-.35 1.72-.9l16.94-21c0-.17.14-.17.14-.34 2.97-3.96 4.5-8.62 4.5-13.63C73.1 30.83 62.77 20.5 50 20.5zM65.2 55l-.14.2L50 73.94 35.03 55.2s0-.2-.2-.2c-2.4-3.3-3.8-7.24-3.8-11.37 0-10.56 8.45-19 19-19 10.52 0 18.96 8.44 18.96 19 0 4.13-1.4 8.08-3.8 11.38z" fill="#fff"/><path d="M59.97 36.42h-2.6v-2.6c0-2.24-1.9-4.12-4.14-4.12h-6.36c-2.24 0-4.15 1.88-4.15 4.13v2.6h-2.6c-2.24 0-4.12 1.9-4.12 4.14v6.36c0 2.24 1.88 4.15 4.13 4.15h2.6v2.6c0 2.24 1.9 4.12 4.14 4.12h6.36c2.24 0 4.15-1.88 4.15-4.13v-2.6h2.6c2.24 0 4.12-1.9 4.12-4.14v-6.36c0-2.24-1.88-4.15-4.13-4.15zm0 10.5h-6.74v6.75h-6.36v-6.74h-6.74v-6.36h6.74v-6.74h6.36v6.74h6.74v6.36z" fill="#fff"/></g></svg>