<svg xmlns="http://www.w3.org/2000/svg" xmlns:lucid="lucid" width="100" height="100"><g lucid:page-tab-id="0_0" stroke="#000" stroke-opacity="0" stroke-width="0"><path d="M100 50c0 27.6-22.4 50-50 50S0 77.6 0 50 22.4 0 50 0s50 22.4 50 50z" fill="#032d60"/><path d="M69.1 40.88c2.3-1.96 3.54-4.55 3.54-7.58 0-5.4-4.4-9.8-9.8-9.8-5.43 0-9.83 4.4-9.83 9.8 0 3.03 1.4 5.78 3.54 7.58-.4.22-.87.53-1.28.8-1.53-.9-3.32-1.5-5.2-1.5-1.9 0-3.7.54-5.22 1.5-.4-.27-.87-.58-1.28-.8 2.3-1.96 3.53-4.55 3.53-7.58 0-5.4-4.4-9.8-9.82-9.8s-9.82 4.4-9.82 9.8c0 3.03 1.38 5.78 3.53 7.58-3.9 2.18-6.5 6.3-6.5 11.08v5.88c0 1.12.87 1.96 1.94 1.96h14.4c-2.2 2.34-3.56 5.4-3.56 8.86v5.88c0 1.1.86 1.96 1.94 1.96h21.66c1.08 0 1.95-.85 1.95-1.96v-5.88c0-3.45-1.38-6.52-3.58-8.86h14.4c1.08 0 1.95-.84 1.95-1.96v-5.88c0-4.77-2.6-8.9-6.5-11.08zM58.9 68.66v3.92H41.2v-3.92c0-4.88 4-8.86 8.85-8.86s8.84 3.98 8.84 8.86zm-30.47-16.7c0-4.88 4-8.85 8.85-8.85 1.73 0 3.32.54 4.65 1.4-1.08 1.52-1.7 3.43-1.7 5.5 0 2.23.72 4.24 2 5.88h-13.8v-3.92zM31.4 33.3c0-3.23 2.6-5.88 5.88-5.88 3.27 0 5.87 2.65 5.87 5.88 0 3.24-2.6 5.9-5.87 5.9-3.28 0-5.88-2.66-5.88-5.9zm18.65 10.82c.82 0 1.64.16 2.35.47.6.26 1.18.63 1.64 1.1.5.43.97 1 1.27 1.65.42.8.63 1.7.63 2.65 0 1.75-.77 3.3-1.95 4.35-.56.53-1.22.95-2 1.16-1.32.5-2.54.5-3.87 0-.76-.25-1.37-.57-1.98-1.15-1.18-1.06-1.95-2.6-1.95-4.35 0-.95.2-1.86.62-2.65.3-.64.75-1.17 1.26-1.64.46-.47 1.03-.84 1.64-1.1.7-.32 1.53-.48 2.35-.48zm21.62 11.76h-13.8c1.28-1.64 2-3.65 2-5.88 0-2.07-.62-3.98-1.7-5.5 1.33-.86 2.92-1.4 4.66-1.4 4.85 0 8.84 3.98 8.84 8.86v3.92zM56.95 33.3c0-3.23 2.6-5.88 5.88-5.88 3.27 0 5.87 2.65 5.87 5.88 0 3.24-2.6 5.9-5.87 5.9-3.28 0-5.88-2.66-5.88-5.9z" fill="#fff"/></g></svg>