<svg xmlns="http://www.w3.org/2000/svg" xmlns:lucid="lucid" width="100" height="100"><g lucid:page-tab-id="0_0" stroke="#000" stroke-opacity="0" stroke-width="2.34"><path d="M100 50c0 27.6-22.4 50-50 50S0 77.6 0 50 22.4 0 50 0s50 22.4 50 50z" fill="#032d60"/><path d="M63.04 19.6H36.96c-4.84 0-8.76 3.96-8.76 8.77v43.36c0 4.8 3.92 8.77 8.76 8.77h26.08c4.84 0 8.76-3.96 8.76-8.77V28.37c-.17-4.8-3.92-8.77-8.76-8.77zm4.3 51.95c0 2.3-2 4.32-4.3 4.32h-2.3v-.18c0-3.8-1.98-7-4.85-8.78 1.6-1.58 2.7-3.72 2.7-6.27 0-4.8-3.93-8.7-8.77-8.7s-8.77 3.9-8.77 8.7c0 2.55 1.1 4.7 2.5 6.27-2.85 1.95-4.8 5.18-4.8 8.95v.18H36.6c-2.34 0-4.3-2-4.3-4.32V28.37c0-2.3 1.96-4.32 4.3-4.32h26.1c2.3 0 4.26 2 4.26 4.32v43.18zm-10.9 4.5H43.38v-.18c0-3.6 2.88-6.27 6.46-6.27 3.75-.18 6.62 2.68 6.62 6.45zM50 65.15c-2.3 0-4.27-1.95-4.27-4.32 0-2.32 1.96-4.26 4.27-4.26 2.3 0 4.27 1.94 4.27 4.26 0 2.37-1.96 4.32-4.27 4.32z" fill="#fff"/><path d="M60.9 34.78H39.16c-1.27 0-2.15.9-2.15 2.15 0 1.23.88 2.14 2.15 2.14h21.6c1.24 0 2.12-.9 2.12-2.14.2-1.25-.88-2.15-1.96-2.15zm0 8.74H39.16c-1.27 0-2.15.9-2.15 2.15s.88 2.13 2.15 2.13h21.6c1.24 0 2.12-.88 2.12-2.13.2-1.25-.88-2.15-1.96-2.15zM47.9 31.58h4.3c1.24 0 2.12-.9 2.12-2.15s-.88-2.13-2.12-2.13h-4.3c-1.25 0-2.13.88-2.13 2.13 0 1.1.88 2.15 2.13 2.15z" fill="#fff"/></g></svg>