<svg xmlns="http://www.w3.org/2000/svg" xmlns:lucid="lucid" width="100" height="100"><g lucid:page-tab-id="0_0" stroke="#000" stroke-opacity="0" stroke-width="2.34"><path d="M50 0C22.4 0 0 22.4 0 50s22.4 50 50 50 50-22.4 50-50S77.6 0 50 0z" fill="#481a54"/><path d="M38.46 30c-7.06 6.4-7.75 17.24-1.37 24.3.33.53.85.87 1.36 1.4 1.55 1.38 2.4 3.1 2.4 5.16v2.24h7.1v-9.13l-4.32-3.44c-.86-.7-1.03-1.9-.34-2.76.17-.2.34-.34.7-.53L50.53 44 44 40.7c-1.04-.53-1.4-1.72-.87-2.77.17-.34.34-.52.5-.67l5.02-3.97c.86-.72 2.06-.53 2.74.33.68.86.5 2.06-.35 2.77l-2.57 2.05 7.23 3.63c1.04.53 1.4 1.72.87 2.77-.17.34-.5.67-.86.86l-7.22 3.6 2.57 2.1c.52.33.7 1 .7 1.53V63.1h7.1v-2.24c0-1.9.84-3.78 2.4-5.17 7.05-6.4 7.74-17.25 1.36-24.32-6.03-7.06-16.9-7.6-24.14-1.38zM40.9 67.2h18.3v7.07H40.9V67.2z" fill-opacity="0"/><path d="M52.4 21.77c-11.7-1.42-22.24 7.06-23.43 18.6-.85 6.9 1.7 13.66 6.9 18.27.67.5 1 1.42 1 2.28v15.52c0 1.04.9 2.06 2.1 2.06h22.22c1 0 2.07-.85 2.07-2.05V60.92c0-.86.34-1.6 1.02-2.1 3.94-3.42 6.36-8.26 6.87-13.44 1.23-11.72-7.05-22.24-18.78-23.6zm6.7 52.58H40.87V67.3H59.1v7.05zm2.42-18.6C60 57.1 59.1 58.8 59.1 60.9v2.22h-7.05v-10.2c0-.67-.34-1.18-.68-1.52l-2.6-2.05L56 45.73c.38-.17.72-.52.9-.86.5-1.02.16-2.27-.9-2.8l-7.23-3.57 2.6-2.1c.85-.7 1.02-1.88.34-2.74-.67-.85-1.9-1.02-2.76-.34l-4.97 3.93c-.17.17-.38.4-.55.74-.5 1-.17 2.2.9 2.72l6.54 3.3-6.55 3.24c-.33.17-.5.34-.7.5-.7.92-.52 2.12.37 2.8l4.3 3.47v9.1H41.2v-2.2c0-1.95-.88-3.82-2.4-5.2-.52-.33-.86-.84-1.37-1.36-6.42-7.1-5.7-17.98 1.36-24.35 7.04-6.37 17.92-5.7 24.3 1.37 6.03 7.1 5.48 17.97-1.58 24.34z" fill="#fff"/></g></svg>