<svg xmlns="http://www.w3.org/2000/svg" xmlns:lucid="lucid" width="100" height="100"><g lucid:page-tab-id="0_0" stroke="#000" stroke-opacity="0" stroke-width="0"><path d="M100 50c0 27.6-22.4 50-50 50S0 77.6 0 50 22.4 0 50 0s50 22.4 50 50z" fill="#032d60"/><path d="M50.5 37.27l-.5.52-.5-.53c-2.6-2.5-6.68-2.5-9.28 0-2.55 2.55-2.55 6.7 0 9.25l8.4 8.4c.75.78 2 .78 2.76 0l8.4-8.4c2.55-2.56 2.55-6.7 0-9.25-2.6-2.5-6.67-2.5-9.3 0zm6.54 6.5L50 50.8l-7.04-7.02c-1.03-1.02-1.06-2.7-.03-3.76 1.03-1.04 2.7-1.04 3.75-.04.02.02.02.04.04.04l1.9 1.9c.75.78 2 .78 2.76 0l1.9-1.9c1.05-.98 2.7-.98 3.76 0 1.03 1.05 1.03 2.7 0 3.74z" fill="#fff"/><path d="M50 22.7c-11.32 0-20.5 9.15-20.5 20.5 0 4.2 1.27 8.32 3.73 11.78l.12.22L48.4 76.68c.12.16.3.33.45.5.9.6 2.13.37 2.7-.5L66.6 55.2l.17-.22c6.52-9.26 4.26-22.03-4.96-28.55-3.6-2.52-7.37-3.73-11.8-3.73zm13.4 30.25l-.16.27L50 72.07 36.72 53.22c-.05-.1-.1-.22-.17-.27-5.4-7.4-3.8-17.8 3.57-23.24 7.38-5.4 17.8-3.82 23.2 3.58 4.27 5.86 4.27 13.8 0 19.67h.1z" fill="#fff"/></g></svg>