<svg xmlns="http://www.w3.org/2000/svg" xmlns:lucid="lucid" width="100" height="100"><g lucid:page-tab-id="0_0" stroke="#000" stroke-opacity="0" stroke-width="2.34"><path d="M46.02 50.84c2.68 0 4.82-2.14 4.82-4.82s-2.14-4.82-4.82-4.82-4.82 2.14-4.82 4.82 2.14 4.82 4.82 4.82z" fill="#481a54"/><path d="M29.5 63.6h41.1v-35H29.5v35zm33.25-29.3c0-1.05.86-1.95 1.97-1.95 1.07 0 1.93.9 1.93 1.96v23.42c0 1.05-.86 1.96-1.93 1.96-1.1 0-1.97-.9-1.97-1.96v-23.4zm-27.37 9.84h2.18c.16-.9.53-1.96 1.23-2.7l-1.6-1.6c-.7-.7-.7-1.97 0-2.67.68-.73 1.96-.73 2.66 0l1.6 1.6c.9-.5 1.8-.9 2.7-1.07v-2.14c0-1.08.88-1.96 1.94-1.96 1.07 0 1.98.88 1.98 1.96v1.97c.9.17 1.97.52 2.67 1.25l1.64-1.6c.7-.74 1.92-.74 2.66 0 .7.7.7 1.96 0 2.65l-1.43 1.6c.53.93.9 1.8 1.06 2.7h2.34c1.07 0 1.93.88 1.93 1.97 0 1.1-.86 1.96-1.93 1.96h-2.18c-.17.9-.54 1.96-1.07 2.7l1.43 1.6c.7.7.7 1.97 0 2.67-.7.73-1.97.73-2.84 0l-1.65-1.44c-.86.55-1.77.9-2.67 1.07v2.3c0 1.1-.9 1.97-1.98 1.97-1.06 0-1.93-.87-1.93-1.95v-2.15c-.9-.18-1.97-.52-2.7-1.1l-1.6 1.45c-.7.73-2 .73-2.68 0-.7-.7-.7-1.96 0-2.66l1.6-1.6c-.55-.92-.92-1.8-1.08-2.7h-2.14c-1.07 0-1.97-.88-1.97-1.96 0-1.1.7-2.14 1.78-2.14zM35.4 67.5h29.3v3.93H35.4V67.5z" fill="#481a54"/><path d="M50 0C22.3 0 0 22.3 0 50s22.3 50 50 50 50-22.3 50-50S77.7 0 50 0zm24.5 65.7c0 1.1-.9 2-2 2h-3.9v5.9c0 1-.9 1.9-2 1.9H33.4c-1.1 0-2-.9-2-1.9v-5.9h-3.9c-1.1 0-2-.9-2-2V26.6c0-1.1.9-2 2-2h45c1.1 0 2 .9 2 2v39.1z" fill="#481a54"/><path d="M72.44 24.6H27.46c-1.08 0-1.96.92-1.96 2v39.08c0 1.06.88 1.98 1.96 1.98h3.9v5.86c0 1.06.94 1.98 2 1.98h33.17c1.07 0 2-.92 2-1.98v-5.86h3.9c1.1 0 1.97-.9 1.97-1.98v-39.1c0-1.06-.88-1.98-1.96-1.98zm-7.87 46.78H35.33v-3.92h29.24v3.92zm5.92-7.84H29.4V28.52h41.1v35.02z" fill="#fff"/><path d="M64.66 59.8c1.08 0 1.97-.88 1.97-1.95v-23.6c0-1.07-.9-1.95-1.97-1.95-1.07 0-1.96.88-1.96 1.95v23.4c0 1.27.9 2.15 1.96 2.15zM35.36 48.06h2.15c.2.9.55 1.98 1.08 2.7l-1.6 1.6c-.7.72-.7 1.97 0 2.68.7.7 1.96.7 2.67 0l1.62-1.42c.9.53 1.78.9 2.67 1.07v2.14c0 1.07.9 1.96 1.98 1.96 1.07 0 1.96-.9 1.96-1.96V54.5c.9-.17 1.8-.53 2.7-1.06l1.6 1.6c.73.7 1.97.7 2.86 0 .7-.7.7-1.96 0-2.7l-1.42-1.6c.53-.88.9-1.77 1.07-2.68h2.14c1.07 0 1.96-.9 1.96-1.96 0-1.07-.9-1.96-1.96-1.96H54.5c-.17-.9-.53-1.8-1.06-2.7l1.6-1.6c.7-.73.7-1.97 0-2.68-.7-.7-1.95-.7-2.7 0l-1.6 1.6c-.88-.53-1.77-.9-2.68-1.24v-2.16c0-1.07-.9-1.96-1.96-1.96-1.07 0-1.96.9-1.96 1.96v2.16c-.9.17-1.98.53-2.7 1.06l-1.6-1.6c-.72-.7-1.97-.7-2.68 0-.7.7-.7 1.96 0 2.67l1.6 1.62c-.53.9-.9 1.78-1.25 2.67h-2.14c-1.07 0-1.96.92-1.96 1.98 0 1.07.9 2.14 1.96 2.14zm10.74-6.8c2.7 0 4.83 2.15 4.83 4.84 0 2.7-2.14 4.83-4.83 4.83-2.7 0-4.83-2.14-4.83-4.83 0-2.7 2.14-4.83 4.83-4.83z" fill="#fff"/></g></svg>