<svg xmlns="http://www.w3.org/2000/svg" xmlns:lucid="lucid" width="100" height="100"><g lucid:page-tab-id="0_0" stroke="#000" stroke-opacity="0" stroke-width="0"><path d="M50 0C22.4 0 0 22.4 0 50s22.4 50 50 50 50-22.4 50-50S77.6 0 50 0z" fill="#032d60"/><path d="M74.75 23.1h-49.5c-1.18 0-2.15.97-2.15 2.15v49.5c0 1.18.97 2.15 2.15 2.15h49.5c1.18 0 2.15-.97 2.15-2.15v-49.5c0-1.18-.97-2.15-2.15-2.15zM72.6 72.6H27.4V27.4h45.2v45.2z" fill="#fff"/><path d="M57.83 36.83l1.06.6 2.45 1.43c1.68.98 2.63 2.62 2.63 4.55v13.8c0 1.9-1.02 3.64-2.63 4.58l-2.42 1.37-1.06.63c-1.03.6-1.4 1.9-.8 2.94.4.7 1.13 1.08 1.86 1.08.37 0 .73-.07 1.06-.28l3.5-2.03c3.04-1.76 4.8-4.77 4.8-8.3V43.4c0-3.4-1.83-6.57-4.8-8.3L60 33.1c-1.03-.6-2.35-.24-2.94.8-.58 1.02-.25 2.35.77 2.95zM36.5 65.46l3.55 2.03c.32.2.7.3 1.06.3.8 0 1.47-.42 1.87-1.08.6-1.05.22-2.35-.8-2.94l-1.06-.63-2.45-1.4c-1.68-.98-2.63-2.63-2.63-4.6V43.38c0-1.85 1.02-3.64 2.63-4.55l2.42-1.4 1.06-.6c1.03-.6 1.4-1.88.8-2.93-.58-1.03-1.9-1.38-2.92-.78l-3.5 2c-3.04 1.74-4.8 4.75-4.8 8.3V57.2c0 3.43 1.83 6.6 4.8 8.3z" fill="#fff"/><path d="M45.23 60.08c.4.4.96.62 1.5.62.57 0 1.12-.2 1.55-.64l8.6-8.65c.84-.83.83-2.2 0-3.02l-8.6-8.56c-.84-.83-2.2-.8-3.03 0-.86.84-.83 2.22 0 3.04l7.05 7.03L45.23 57c-.85.86-.84 2.22 0 3.04z" fill="#fff"/></g></svg>