<svg xmlns="http://www.w3.org/2000/svg" xmlns:lucid="lucid" width="100" height="100"><g lucid:page-tab-id="0_0" stroke="#000" stroke-opacity="0" stroke-width="2.34"><path d="M50 0C22.4 0 0 22.4 0 50s22.4 50 50 50 50-22.4 50-50S77.6 0 50 0z" fill="#032d60"/><path d="M27.4 72.6h45.2V27.4H27.4v45.2zM50 37.4c4.47 0 8.45 1.57 11.75 4.15l2.9-2.94c.9-.85 2.25-.85 3.1 0 .87.87.87 2.27 0 3.13l-3.1 3.07c2.44 3.12 3.8 6.92 3.8 11.08 0 1.17-.87 2.2-2.04 2.2-1.2 0-2.25-.85-2.25-2.02 0-2.94-1.04-5.7-2.58-7.96l-7.4 7.4c.3 1.42 0 2.77-.87 3.8-1.58 1.73-4.34 2.1-6.06.55-1.7-1.58-2.08-4.34-.54-6.05 1.04-1.4 2.8-1.72 4.52-1.4l7.4-7.6c-2.43-1.85-5.32-2.9-8.62-2.9-7.77 0-14.15 6.38-14.15 13.98 0 1.17-1.04 2.08-2.08 2.08-1.17 0-2.08-1.04-2.08-2.26-.14-10 8.3-18.3 18.3-18.3z" fill-opacity="0"/><path d="M74.65 23.1H25.4c-1.24 0-2.1 1.02-2.1 2.1v49.4c0 1.24 1.02 2.1 2.1 2.1h49.4c1.24 0 2.1-1.02 2.1-2.1V25.36c0-1.23-1.02-2.25-2.25-2.25zM72.6 72.57H27.44V27.4H72.6v45.17z" fill="#fff"/><path d="M33.6 57.96c1.24 0 2.27-.86 2.27-2.07.15-7.77 6.4-14 14.14-14 3.27 0 6.2 1.06 8.65 2.95l-7.6 7.6c-1.56-.36-3.27 0-4.5 1.37-1.55 1.72-1.36 4.47.53 6.03 1.7 1.56 4.5 1.38 6.05-.5.85-1.06 1.18-2.6.85-3.8l7.42-7.42c1.56 2.24 2.6 5 2.6 7.92 0 1.22 1.04 2.08 2.22 2.08 1.23 0 2.08-1.03 2.08-2.24 0-4.16-1.56-7.95-3.78-11.05l2.93-2.94c.85-.85.85-2.23 0-3.1-.9-.85-2.27-.85-3.12 0l-2.93 2.95c-3.27-2.6-7.23-4.15-11.72-4.15-10.2 0-18.48 8.27-18.48 18.3.33 1.02 1.22 2.06 2.4 2.06z" fill="#fff"/></g></svg>