<svg xmlns="http://www.w3.org/2000/svg" xmlns:lucid="lucid" width="100" height="100"><g lucid:page-tab-id="0_0" stroke="#000" stroke-opacity="0" stroke-width="2.34"><path d="M100 50c0 27.6-22.4 50-50 50S0 77.6 0 50 22.4 0 50 0s50 22.4 50 50z" fill="#481a54"/><path d="M70.52 61.1H67.7l-.02-17.52h2.84c1.08 0 1.98-.88 1.98-1.9 0-1.1-.9-1.98-1.98-1.98H67.5c-.9-8.24-7.33-14.66-15.52-15.54v-1.1c0-1.08-.9-1.96-1.98-1.96s-1.98.88-1.98 1.97v1.1c-8.2.87-14.63 7.3-15.52 15.53h-3.02c-1.08 0-1.98.88-1.98 1.97 0 1.03.9 1.9 1.98 1.9h2.83l.02 17.52h-2.84c-1.08 0-1.98.92-1.98 1.96v7.87c0 1.1.9 1.97 1.98 1.97h41.04c1.08 0 1.98-.88 1.98-1.97v-7.87c0-1.04-.9-1.97-1.98-1.97zm-18.54 0V43.57h3.9v17.5H52zm-7.87 0V43.57h3.92v17.5h-3.9zm15.7-17.67h3.97v17.5H59.8v-17.5zM50 27.9c6.8 0 12.5 5 13.6 11.8H36.4c1.1-6.8 6.8-11.8 13.6-11.8zM36.23 43.42h3.96v17.5h-3.97v-17.5zM68.4 68.96H31.43v-3.93H68.6l-.2 3.93z" fill="#fff"/></g></svg>