<svg xmlns="http://www.w3.org/2000/svg" xmlns:lucid="lucid" width="100" height="100"><g lucid:page-tab-id="0_0" stroke="#000" stroke-opacity="0" stroke-width="2.34"><path d="M100 50c0 27.6-22.4 50-50 50S0 77.6 0 50 22.4 0 50 0s50 22.4 50 50z" fill="#481a54"/><path d="M37.12 35.34h16.26c1.25 0 2.32-1.07 2.32-2.32 0-1.25-1.07-2.32-2.32-2.32H37.12c-1.25 0-2.32 1.07-2.32 2.32 0 1.25 1.07 2.32 2.32 2.32zM37.12 44.84h16.46c1.24 0 2.32-1.07 2.32-2.32 0-1.25-1.08-2.32-2.32-2.32H37.12c-1.24 0-2.32 1.07-2.32 2.32 0 1.25 1.08 2.32 2.32 2.32zM44.08 49.5h-6.96c-1.25 0-2.32 1.07-2.32 2.32 0 1.25 1.07 2.32 2.32 2.32h6.96c1.25 0 2.32-1.07 2.32-2.32 0-1.25-1.07-2.32-2.32-2.32z" fill="#fff"/><path d="M67.46 21.4H31.9c-3.56 0-6.4 2.86-6.4 6.45v44.77c0 1.26 1.08 2.28 2.3 2.28h26.8v1.26c0 .9.53 1.6 1.22 2 .73.34 1.6.34 2.34 0l4.65-2.86 4.66 2.86c.34.17.68.34 1.22.34.4 0 .73-.17 1.07-.34.74-.4 1.28-1.26 1.28-2v-13.2c1.4-1.76 2.3-4.1 2.3-6.6 0-4.98-3.38-9.1-8.22-10.18V35.5h7c1.22 0 2.3-1.08 2.3-2.34v-4.62c0-3.94-3.03-7.14-6.94-7.14zm.68 32.66c.4.7.54 1.43.54 2.3 0 1.98-.88 3.58-2.3 4.67-.4.17-.73.5-1.07.68-.73.36-1.4.58-2.34.58-.88 0-1.57-.22-2.3-.57-.34-.16-.88-.33-1.27-.67-1.43-1.1-2.3-2.7-2.3-4.68 0-.86.18-1.6.53-2.3.53-1.42 1.6-2.5 3.03-3 .73-.4 1.42-.6 2.3-.6.93 0 1.6.2 2.35.6 1.08.5 2.16 1.58 2.84 3zm-1.95 18l-1.1-.7-1.2-.74c-.4-.17-.75-.34-1.28-.34-.35 0-.88.17-1.23.34l-2.36 1.43V66.18c.35.16.74.16 1.28.4.68.16 1.42.16 2.3.16.73 0 1.6-.17 2.34-.4.35-.17.7-.17 1.03-.34v6.05zm-36.05-44.2c0-1.1.88-1.83 1.76-1.83h28.95c-.2.74-.4 1.42-.4 2.34V46c-4.63 1.1-8.2 5.2-8.2 10.17 0 2.52.93 4.86 2.35 6.63v7.48H30.15V27.85zm39.6.5v2.3h-4.64v-2.3c0-1.25 1.1-2.33 2.36-2.33 1.22 0 2.3 1.08 2.3 2.34z" fill="#fff"/></g></svg>