<svg xmlns="http://www.w3.org/2000/svg" xmlns:lucid="lucid" width="100" height="100"><g lucid:page-tab-id="0_0" stroke="#000" stroke-opacity="0" stroke-width="2.34"><path d="M100 50c0 27.6-22.4 50-50 50S0 77.6 0 50 22.4 0 50 0s50 22.4 50 50z" fill="#481a54"/><path d="M73.36 33.93c-5.52-5.37-14.25-5.37-19.77 0L50 37.5l-3.56-3.57c-5.35-5.2-13.92-5.2-19.27 0-5.57 5.32-5.9 14.07-.55 19.77l21.95 21.94c.38.38.87.56 1.42.56.54 0 1.08-.18 1.4-.56L73.37 53.7c5.4-5.33 5.4-14.26 0-19.77zM50 71.57l-15.2-15.2h8.42c.7 0 1.42-.3 1.8-.87l1.75-3.2 3.38 9.64c.22.7.93 1.25 1.64 1.25h.32c.55 0 1.26-.38 1.64-.94l4.26-6.06h7.3L50 71.57zm20.52-20.5l-1.42 1.38H56.76c-.7 0-1.2.37-1.58.92l-2.68 3.75-3.55-10.18c-.2-.37-.54-.88-.93-1.07-.87-.55-2.12-.18-2.67.7l-3.4 5.88H30.9l-1.42-1.4c-1.96-1.98-3-4.48-3-7.12 0-5.56 4.42-10 10-10 2.66 0 5.18 1.06 7.14 2.82l4.97 5c.7.74 1.97.74 2.84 0l5.03-5c3.94-3.75 10-3.75 13.93 0 3.93 3.75 4.1 10.2.16 14.3z" fill="#fff"/></g></svg>