<svg xmlns="http://www.w3.org/2000/svg" xmlns:lucid="lucid" width="100" height="100"><g lucid:page-tab-id="0_0" stroke="#000" stroke-opacity="0" stroke-width="2.34"><path d="M50 0C22.4 0 0 22.4 0 50s22.4 50 50 50 50-22.4 50-50S77.6 0 50 0z" fill="#032d60"/><path d="M73.2 33.26C73.2 27.16 61.5 24 50 24s-23.2 3.17-23.2 9.26v9.1c0 3.53 3.67 6.03 8.9 7.6-5.2 1.55-8.9 4.04-8.9 7.48v9.04C26.8 72.72 38.5 76 50 76s23.2-3.28 23.2-9.52v-9.04c0-3.44-3.57-5.93-8.9-7.44 5.2-1.6 8.9-4.16 8.9-7.64v-9.1zM50 48.23c-11.92 0-19.5-3.6-19.5-5.87v-3.8c4.37 2.65 11.98 4 19.5 4s15.13-1.35 19.5-4v3.8c0 2.28-7.58 5.87-19.5 5.87zm19.5 9.26c0 1.9-6.88 5.6-19.5 5.6-12.62 0-19.5-3.7-19.5-5.6 0-1.36 3.58-3.55 10.22-4.8v1.93c0-1 .84-1.82 1.86-1.82s1.85.84 1.85 1.83v-2.5c1.16-.1 2.4-.2 3.7-.26v5.57c0-1.04.85-1.88 1.87-1.88s1.86.84 1.86 1.88v-5.57c1.3 0 2.55.16 3.7.26v2.5c0-1 .84-1.82 1.86-1.82s1.86.84 1.86 1.83v-1.98c6.64 1.15 10.2 3.43 10.2 4.8zM50 72.3c-11.92 0-19.5-3.42-19.5-5.76v-3.8c4.37 2.65 11.98 4 19.5 4s15.13-1.35 19.5-4v3.8c0 2.34-7.58 5.77-19.5 5.77zm0-33.43c-12.62 0-19.5-3.7-19.5-5.6 0-1.9 6.88-5.58 19.5-5.58 12.62 0 19.5 3.68 19.5 5.56 0 1.92-6.88 5.6-19.5 5.6z" fill="#fff"/></g></svg>