<svg xmlns="http://www.w3.org/2000/svg" xmlns:lucid="lucid" width="100" height="100"><g lucid:page-tab-id="0_0" stroke="#000" stroke-opacity="0" stroke-width="2.34"><path d="M100 50c0 27.6-22.4 50-50 50S0 77.6 0 50 22.4 0 50 0s50 22.4 50 50z" fill="#032d60"/><path d="M50.73 18.4c-11.62 0-21.43 9.26-21.43 20.37 0 4.6 1.6 9.06 4.45 12.68l.17.13c1.64 1.84 5.58 6.96 5.58 10.9v16.96c0 1.24 1.03 2.36 2.28 2.36h6.8c0 1.25 1.07 2.3 2.32 2.3 1.25 0 2.33-1.05 2.33-2.3h6.8c1.24 0 2.27-1.12 2.27-2.36V62.47c0-3.93 4.15-9.05 5.58-10.9l.17-.12c2.85-3.62 4.45-8.08 4.45-12.68-.35-11.1-10.2-20.37-21.77-20.37zm6.78 58.74H43.94v-4.47h13.58v4.47zm0-13.54V68H43.95v-4.4H57.5zm.53-4.47H43.38c-1.42-5.06-5.53-9.65-6.22-10.57-2.33-2.83-3.4-6.25-3.4-9.8 0-8.4 7.85-15.9 16.97-15.9 9.1 0 16.93 7.3 16.93 15.9 0 3.55-1.2 6.97-3.37 9.8-.74.72-4.85 5.38-6.27 10.57z" fill="#fff"/><path d="M50.73 28c-1.26 0-2.33 1.08-2.33 2.33 0 1.26 1.07 2.33 2.33 2.33 3.93 0 7.32 3.22 7.32 6.8 0 1.26 1.07 2.34 2.33 2.34 1.25 0 2.32-1.08 2.32-2.33C62.7 33.2 57.15 28 50.73 28z" fill="#fff"/></g></svg>