<svg xmlns="http://www.w3.org/2000/svg" xmlns:lucid="lucid" width="100" height="100"><g lucid:page-tab-id="0_0" stroke="#000" stroke-opacity="0" stroke-width="0"><path d="M100 50c0 27.6-22.4 50-50 50S0 77.6 0 50 22.4 0 50 0s50 22.4 50 50z" fill="#032d60"/><path d="M75.43 29.5H24.67c-1.1 0-1.97.86-1.97 1.93v37.14c0 1.07.88 1.93 1.97 1.93h50.76c1.1 0 1.97-.86 1.97-1.93V31.43c0-1.07-.88-1.93-1.97-1.93zm-1.9 31.7L61.25 50.5 73.52 42v19.2zm0-27.8v3.85L50.04 53.57l-23.4-16.32V33.4H73.5zM26.62 42l12.26 8.5-12.26 10.7V42zm0 24.6v-.32l.17-.2 15.26-13.33 6.8 4.67c.7.45 1.57.45 2.23 0l6.77-4.67L73.3 66.07c.05.08.16.12.27.17v.32l-46.93.04z" fill="#fff"/></g></svg>