<svg xmlns="http://www.w3.org/2000/svg" xmlns:lucid="lucid" width="100" height="100"><g lucid:page-tab-id="0_0" stroke="#000" stroke-opacity="0" stroke-width="2.34"><path d="M100 50c0 27.6-22.4 50-50 50S0 77.6 0 50 22.4 0 50 0s50 22.4 50 50z" fill="#032d60"/><path d="M65 28.35h10.9l-5.45-5.45z" fill-opacity="0"/><path d="M37.75 35.34V33.7c0-.97.38-1.38 1.32-1.38h2.26c3.2-.34 7.35-2.6 7.35-8.04 0-6.04-4.9-8.3-8.3-8.3H24.07c-1.5 0-2.82 1.36-2.82 2.8 0 1.52 1.32 2.82 2.82 2.82H40.4c1.3 0 2.82.62 2.82 2.82 0 2.27-1.5 2.68-2.83 2.88h-1.33c-5.02 0-6.72 4.13-6.72 6.74v1.7C24.63 37.07 18.6 43.8 18.6 51.9v16.35c0 9 7.35 16.35 16.33 16.35 9.04 0 16.4-7.35 16.4-16.35V51.9c0-8.45-5.85-15.25-13.58-16.56zM24.05 51.5c0-5.03 3.6-9.36 8.3-10.52v13.4h-8.3v-2.9zm21.8 16.34c0 6.04-4.9 10.92-10.92 10.92-5.97 0-10.87-4.88-10.87-10.92V59.6h21.8v8.24zm0-13.67h-8.28V40.84c4.7 1.1 8.3 5.42 8.3 10.5v2.83zm34.8-29.13l-8.3-8.32c-1.12-1.1-2.82-1.1-3.95 0l-8.23 8.32c-.56.55-.75 1.1-.75 1.85v49.25c0 3.37 2.26 8.24 8.23 8.24h5.46c3.4 0 8.3-2.27 8.3-8.25V26.9c0-.76-.38-1.3-.75-1.86zm-4.7 51.1c0 2.28-1.52 2.62-2.84 2.83h-5.45c-2.2 0-2.58-1.52-2.77-2.82v-2.82h10.87v2.82zm0-8.3H65.06v-34h10.87v34zM65.06 28.4l5.4-5.42 5.47 5.42H65.07z" fill="#fff"/></g></svg>