<svg xmlns="http://www.w3.org/2000/svg" xmlns:lucid="lucid" width="100" height="100"><g lucid:page-tab-id="0_0" stroke="#000" stroke-opacity="0" stroke-width="2.34"><path d="M100 50c0 27.6-22.4 50-50 50S0 77.6 0 50 22.4 0 50 0s50 22.4 50 50z" fill="#032d60"/><path d="M73.1 28.2H27c-5 0-9.1 4.12-9.1 9.1v25.2c0 4.98 4.1 9.1 9.1 9.1h45.9c5 0 9.1-4.12 9.1-9.1V37.3c.2-4.98-3.9-9.1-8.9-9.1zm4.4 34.46c0 2.52-2.1 4.64-4.6 4.64H27c-2.5 0-4.6-2.12-4.6-4.64V37.3c0-2.5 2.1-4.63 4.6-4.63h45.9c2.5 0 4.6 2.13 4.6 4.64v25.36z" fill="#fff"/><path d="M70.68 57H54.62c-1.24 0-2.32 1.07-2.32 2.32 0 1.25 1.08 2.32 2.32 2.32h16.06c1.24 0 2.32-1.07 2.32-2.32 0-1.25-1.08-2.32-2.32-2.32zM70.77 47.7h-9.14c-1.25 0-2.33 1.07-2.33 2.32 0 1.25 1.08 2.32 2.33 2.32h9.14c1.25 0 2.33-1.07 2.33-2.32 0-1.25-1.08-2.32-2.33-2.32zM52.53 51.64c2.87-3.04 2.7-7.87-.17-10.72-1.43-1.44-3.4-2.32-5.54-2.32-2.13 0-3.92.88-5.52 2.32l-.56.72-.52-.53c-1.43-1.43-3.4-2.3-5.55-2.3-2.12 0-4.1.87-5.52 2.3-2.87 3.02-2.87 7.85 0 10.9l8.2 8.36c.9.9 2 1.44 3.23 1.44 1.24 0 2.32-.53 3.2-1.44l8.23-8.2.53-.52zm-3.37-3.04l-8.42 8.37-8.2-8.37c-1.26-1.25-1.26-3.23 0-4.48.53-.53 1.42-.88 2.13-.88.72 0 1.63.35 2.16.88l2.5 2.32c.37.56 1.06.72 1.6.72.53 0 1.25-.16 1.6-.72l2.33-2.32c.55-.53 1.43-.88 2.15-.88.73 0 1.6.35 2.16.88 1.24 1.1 1.24 3.23 0 4.48z" fill="#fff"/></g></svg>