<svg xmlns="http://www.w3.org/2000/svg" xmlns:lucid="lucid" width="100" height="100"><g lucid:page-tab-id="0_0" stroke="#000" stroke-opacity="0" stroke-width="2.34"><path d="M100 50c0 27.6-22.4 50-50 50S0 77.6 0 50 22.4 0 50 0s50 22.4 50 50z" fill="#481a54"/><path d="M75.33 44.1h-3.76c-.5-1.8-1.2-3.7-2.13-5.35l2.67-2.67c.72-.7.72-1.97 0-2.68l-5.5-5.5c-.7-.72-1.97-.72-2.68 0l-2.67 2.66c-1.64-.93-3.55-1.8-5.35-2.13v-3.76c0-1.1-.88-1.97-1.97-1.97h-7.86c-1.1 0-1.97.87-1.97 1.97v3.76c-1.8.5-3.7 1.2-5.35 2.13l-2.67-2.67c-.7-.72-1.97-.72-2.68 0l-5.5 5.5c-.72.7-.72 1.97 0 2.68l2.66 2.67c-.93 1.64-1.8 3.55-2.13 5.35h-3.76c-1.1 0-1.97.88-1.97 1.97v7.86c0 1.1.87 1.97 1.97 1.97h3.76c.5 1.8 1.2 3.7 2.13 5.35l-2.67 2.67c-.72.7-.72 1.97 0 2.68l5.5 5.5c.7.72 1.97.72 2.68 0l2.67-2.66c1.64.93 3.55 1.8 5.35 2.13v3.76c0 1.1.88 1.97 1.97 1.97h7.86c1.1 0 1.97-.87 1.97-1.97v-3.76c1.8-.5 3.7-1.2 5.35-2.13l2.67 2.67c.7.72 1.97.72 2.68 0l5.5-5.5c.72-.7.72-1.97 0-2.68l-2.66-2.67c.93-1.64 1.8-3.55 2.13-5.35h3.76c1.1 0 1.97-.88 1.97-1.97v-7.86c0-1.1-.87-1.97-1.97-1.97zm-1.96 7.87h-3.4c-.86 0-1.8.7-1.95 1.58-.55 2.5-1.42 4.86-2.84 6.82-.55.7-.38 1.75.16 2.46l2.35 2.35-2.7 2.67-2.33-2.34c-.7-.7-1.8-.7-2.5-.16-1.98 1.42-4.27 2.35-6.8 2.84-.86.22-1.57.93-1.57 1.97v3.22h-3.93v-3.22c0-.88-.7-1.75-1.64-1.97-2.45-.5-4.8-1.42-6.77-2.84-.7-.54-1.74-.32-2.5.17l-2.3 2.35-2.68-2.67 2.3-2.35c.7-.7.7-1.75.2-2.46-1.4-2.18-2.33-4.3-2.88-6.82-.16-.87-.87-1.58-1.97-1.58h-3.38v-3.94h3.38c.93 0 1.8-.7 1.97-1.58.55-2.5 1.47-4.86 2.9-6.82.5-.7.32-1.75-.22-2.46l-2.3-2.35 2.68-2.67 2.3 2.34c.76.7 1.8.7 2.5.16 2.13-1.42 4.32-2.35 6.77-2.84.93-.22 1.64-.93 1.64-1.97v-3.38h3.93v3.38c0 .88.7 1.75 1.58 1.97 2.52.5 4.8 1.42 6.78 2.84.7.54 1.8.33 2.5-.17l2.35-2.35 2.7 2.67-2.36 2.35c-.7.7-.7 1.75-.16 2.46 1.42 1.96 2.3 4.3 2.84 6.82.16.88.87 1.58 1.96 1.58h3.23l.17 3.94z" fill="#fff"/><path d="M50.05 35.4c-8.03 0-14.65 6.62-14.65 14.65 0 8.03 6.62 14.65 14.65 14.65 8.03 0 14.65-6.62 14.65-14.65 0-8.03-6.62-14.65-14.65-14.65zm0 25.37c-5.9 0-10.72-4.83-10.72-10.72 0-5.9 4.83-10.72 10.72-10.72 5.9 0 10.72 4.83 10.72 10.72 0 5.9-4.83 10.72-10.72 10.72z" fill="#fff"/><path d="M50 43.2c-3.75 0-6.8 3.05-6.8 6.8s3.05 6.8 6.8 6.8 6.8-3.05 6.8-6.8-3.05-6.8-6.8-6.8zm0 9.67c-1.6 0-2.87-1.26-2.87-2.87 0-1.6 1.27-2.87 2.87-2.87s2.87 1.27 2.87 2.87-1.27 2.87-2.87 2.87z" fill="#fff"/></g></svg>