<svg xmlns="http://www.w3.org/2000/svg" xmlns:lucid="lucid" width="100" height="100"><g lucid:page-tab-id="0_0" stroke="#000" stroke-opacity="0" stroke-width="0"><path d="M100 50c0 27.6-22.4 50-50 50S0 77.6 0 50 22.4 0 50 0s50 22.4 50 50z" fill="#032d60"/><path d="M77.86 40.55L66.43 37c.18-.43.36-.88.48-1.26.56-1.5.87-3.03.87-4.67 0-7.7-6.27-13.97-14-13.97-7.7 0-13.97 6.26-13.97 13.97 0 1.64.24 3.16.8 4.67.35 1.02.96 2.34 1.7 3.8l-2.56.82-18-5.63c-.73-.25-1.46-.12-2.07.32-.6.44-.97 1.14-.97 1.9v35.13c0 1.02.67 1.96 1.64 2.22L39 80.17c.5.13.92.13 1.4 0l18.06-5.62 18 5.62c.73.26 1.46.13 2.07-.3.6-.45.97-1.15.97-1.9V42.8c0-1-.67-1.9-1.64-2.2zM44.9 34.23c-1.76-4.93.86-10.3 5.78-12 1.03-.4 1.95-.58 3.1-.58 5.17 0 9.43 4.23 9.43 9.48 0 1.07-.18 2.02-.54 3.1-.12.38-.37.88-.55 1.4l-1.02 2.14c-.12.2-.25.38-.3.57-.74 1.32-1.53 2.7-2.32 4.17 0 0-.06.07-.06.13-.73 1.27-1.52 2.6-2.25 3.8-.06 0-.06.06-.06.06-.86 1.38-1.7 2.58-2.32 3.46-1.2-1.7-3.1-4.6-4.8-7.64-.43-.7-.8-1.4-1.16-2.1l-1.15-2.07c-.8-1.58-1.46-2.97-1.77-3.92zM46.42 47c5.1 8.46 6.2 8.46 7.36 8.46.55 0 1.16 0 2.3-1.14v16l-14.03 4.42v-30.2l2.5-.83C45.2 44.9 45.8 46 46.4 47zm28.4 27.74L60.77 70.3V47.45l.3-.5c1.04-1.65 2.2-3.74 3.3-5.7l10.45 3.23v30.2zM23.38 40.1l14 4.43v30.2l-14-4.42V40.1z" fill="#fff"/><path d="M58.46 31.08c0-2.6-2.1-4.68-4.68-4.68-2.6 0-4.68 2.1-4.68 4.68 0 2.6 2.1 4.68 4.68 4.68.27 0 .54-.04.8-.08.42-.06.8-.2 1.18-.37 1.6-.74 2.72-2.35 2.72-4.22z" fill="#fff"/></g></svg>