<svg xmlns="http://www.w3.org/2000/svg" xmlns:lucid="lucid" width="100" height="100"><g lucid:page-tab-id="0_0" stroke="#000" stroke-opacity="0" stroke-width="0"><path d="M100 50c0 27.6-22.4 50-50 50S0 77.6 0 50 22.4 0 50 0s50 22.4 50 50z" fill="#032d60"/><path d="M72.45 25.6h-44.9c-1.07 0-1.95.88-1.95 1.95v44.9c0 1.07.88 1.95 1.95 1.95h44.9c1.07 0 1.95-.88 1.95-1.95v-44.9c0-1.07-.88-1.95-1.95-1.95zM39.3 70.5v-1.96c0-5.9 4.8-10.68 10.7-10.68 5.9 0 10.7 4.78 10.7 10.68v1.96H39.3zm2.94-24.4c0-4.35 3.47-7.8 7.8-7.8 4.3 0 7.82 3.45 7.82 7.8 0 4.3-3.52 7.8-7.8 7.8H50c-4.3 0-7.8-3.46-7.8-7.8h.04zM70.5 70.5h-5.86v-1.96c-.05-5.6-2.93-10.34-7.9-12.88v-.05c5.3-3.7 6.53-11.02 2.82-16.3-3.75-5.26-11.07-6.53-16.34-2.77-1.13.78-2 1.66-2.78 2.78-3.76 5.33-2.5 12.6 2.78 16.36-4.93 2.54-7.86 7.27-7.86 12.88v1.96H29.5V29.46h41.04L70.5 70.5z" fill="#fff"/></g></svg>