<svg xmlns="http://www.w3.org/2000/svg" xmlns:lucid="lucid" width="100" height="100"><g lucid:page-tab-id="0_0" stroke="#000" stroke-opacity="0" stroke-width="0"><path d="M100 50c0 27.6-22.4 50-50 50S0 77.6 0 50 22.4 0 50 0s50 22.4 50 50z" fill="#032d60"/><path d="M61.9 35.72v-2.1h1c1.14 0 2-.88 2-2 0-1.13-.86-2-2-2h-5.96c-1.13 0-2 .87-2 2 0 1.12.87 2 2 2h.97v2.1c-1.77.25-3.43.74-5 1.47-.7-6.5-6.24-11.6-12.9-11.6-7.1 0-12.92 5.82-12.92 12.96 0 4.4 2 8.16 5.6 10.66-5.65 2.7-9.58 8.36-9.58 14.9v8.37c0 1.12.9 2 2 2h29.85c1.13 0 2.04-.88 2.04-2V69.2c.96.2 1.93.3 3 .3 9.3 0 16.9-7.64 16.9-16.98 0-8.65-6.56-15.84-14.96-16.82zm-4.96 29.4v-1c0-6.54-3.87-12.16-9.47-14.9v-.1c2.58-1.8 4.2-4.1 5-7.14 2.32-1.6 4.7-2.4 7.48-2.4 7.16 0 12.97 5.82 12.97 12.96 0 7.14-5.8 12.96-12.97 12.96-1.02 0-2.04-.14-3-.4zm-3.98 2.83v2.54H27.08v-6.37c0-6.94 5.8-12.6 12.9-12.6 1.1 0 2.1.13 3.08.38.7.15 1.34.35 2 .64.7.3 1.34.64 1.98 1.08 3.34 2.1 5.65 5.67 5.87 9.78 0 .3.06.54.06.78v3.77zM40 29.55c4.94 0 8.98 4.07 8.98 9 0 .4-.06.8-.1 1.18-.4 2.98-2.05 5.38-4.7 6.75-1.28.68-2.68 1.03-4.2 1.03-4.88 0-8.92-4-8.92-8.94 0-4.94 4.04-9 8.93-9z" fill="#fff"/><path d="M65.92 53.7l-4.02-2.4v-5.8c0-1.1-.9-2-2-2s-2 .9-2 2v6.92c0 .7.38 1.35.97 1.7l4.98 3c.94.56 2.17.25 2.73-.68.58-.94.27-2.17-.68-2.74z" fill="#fff"/></g></svg>