<svg xmlns="http://www.w3.org/2000/svg" xmlns:lucid="lucid" width="100" height="100"><g lucid:page-tab-id="0_0" stroke="#000" stroke-opacity="0" stroke-width="2.34"><path d="M100 50c0 27.6-22.4 50-50 50S0 77.6 0 50 22.4 0 50 0s50 22.4 50 50z" fill="#481a54"/><path d="M76.67 42.5c-.54-.36-1.22-.5-1.75-.16l-7.16 2.3v-3.38c0-1.08-.88-1.97-1.95-1.97h-3.4c2.87-3.93 2-9.48-1.95-12.33C56.5 24.12 51 25 48.13 28.93c-3.02-3.73-8.57-4.27-12.27-1.22-3.4 2.85-4.3 7.86-1.8 11.6h-3.4c-1.08 0-1.96.88-1.96 1.96v17.48c0 1.08.88 1.96 1.95 1.96h8.9l-3.9 11.1c-.33 1.08.2 2.1 1.23 2.5 1.07.35 2.14-.2 2.53-1.27l4.45-12.48h8.96l4.44 12.48c.34 1.08 1.4 1.62 2.48 1.27 1.07-.4 1.6-1.42 1.27-2.5l-4.3-11.1h8.9c1.1 0 2-.7 2-1.77v-3.58l7.12 2.36c1.07.35 2.14-.2 2.48-1.27 0-.2.2-.34.2-.54V44.1c0-.53-.2-1.22-.73-1.6zM54.9 29.46c2.68 0 4.82 2.16 4.82 4.82 0 2.7-2.14 4.8-4.82 4.8-2.63 0-4.77-2.1-4.77-4.8 0-2.67 2.14-4.83 4.77-4.83zM36.54 34.3c0-2.67 2.14-4.83 4.82-4.83s4.82 2.16 4.82 4.82c0 2.7-2.14 4.8-4.82 4.8-2.68.2-4.96-1.97-4.82-4.8-.14.18-.14.18 0 0zm27.32 22.47h-31.2V43.03h31.2v13.74zm9.6-3.53l-5.7-1.97v-2.35l5.9-1.97-.2 6.3z" fill="#fff"/></g></svg>