<svg xmlns="http://www.w3.org/2000/svg" xmlns:lucid="lucid" width="100" height="100"><g lucid:page-tab-id="0_0" stroke="#000" stroke-opacity="0" stroke-width="0"><path d="M100 50c0 27.6-22.4 50-50 50S0 77.6 0 50 22.4 0 50 0s50 22.4 50 50z" fill="#032d60"/><path d="M72.14 59.3c1.5-1.5 2.37-3.5 2.37-5.75 0-3-1.64-5.6-4.06-7.05V27.05c0-1.15-.88-2.05-2.04-2.05H31.7c-1.16 0-2.04.9-2.04 2.05V46.5c-2.42 1.45-4.13 4.05-4.13 7.05 0 2.25.94 4.3 2.37 5.75-3.47 2.1-5.4 5.55-5.4 9.6v4.05c0 1.15.94 2.05 2.04 2.05H42.9c1.14 0 2.03-.9 2.03-2.05V68.9c0-4.05-2.15-7.6-5.4-9.6 1.2-1.25 2.03-2.9 2.3-4.7h3.04l3.47 5.2c.17.25.33.45.6.6.94.6 2.2.35 2.82-.6l3.47-5.2h3.03c.22 1.75 1.05 3.4 2.3 4.7-3.46 2.1-5.4 5.55-5.4 9.6v4.05c0 1.15.9 2.05 2.05 2.05h18.36c1.1 0 2.04-.9 2.04-2.05V68.9c0-4.05-2.2-7.6-5.4-9.6zm1.33 11.65H59.2V68.9c0-3.95 3.2-7.15 7.16-7.15 3.9 0 7.1 3.2 7.1 7.15v2.05zM52.42 51.4L50.05 55l-2.37-3.6c-.4-.55-1.05-.9-1.7-.9h-4.7c-1.26-3.15-4.18-5.1-7.6-5.1V29.05h32.68V45.4c-3.42 0-6.28 1.95-7.55 5.1h-4.67c-.66 0-1.33.35-1.7.9zm-14.66 2.15c0 .4-.05.7-.1 1.05-.5 1.75-2.05 3.05-3.97 3.05-2.22 0-4.1-1.85-4.1-4.1 0-.2.06-.35.06-.55.22-1.25.94-2.35 2-2.95.6-.35 1.3-.55 2.03-.55 1.86 0 3.46 1.2 3.95 3.05.06.3.1.65.1 1zm3.1 17.4H26.57V68.9c0-3.95 3.2-7.15 7.1-7.15 3.97 0 7.17 3.2 7.17 7.15v2.05zm21.42-17.4c0-2.2 1.82-4.05 4.08-4.05.72 0 1.43.2 2.04.55 1.05.65 1.82 1.7 1.98 2.95 0 .2.06.4.06.55 0 2.3-1.88 4.1-4.08 4.1-1.1 0-2.15-.4-2.92-1.2-.55-.5-.88-1.1-1.05-1.85-.12-.35-.17-.65-.17-1z" fill="#fff"/><path d="M57.15 32.42c-.94-.6-2.2-.32-2.82.63l-2.1 3.33-3.8 5.96-2.72-2.16-.6-.5c-.87-.7-2.14-.56-2.86.3-.7.9-.55 2.17.33 2.9l5.08 4.08c.36.3.83.44 1.27.44.12 0 .23 0 .35-.03.57-.1 1.05-.43 1.38-.92l7.12-11.2c.62-.96.33-2.23-.62-2.83z" fill="#fff"/></g></svg>