<svg xmlns="http://www.w3.org/2000/svg" xmlns:lucid="lucid" width="100" height="100"><g lucid:page-tab-id="0_0" stroke="#000" stroke-opacity="0" stroke-width="2.34"><path d="M100 50c0 27.6-22.4 50-50 50S0 77.6 0 50 22.4 0 50 0s50 22.4 50 50z" fill="#032d60"/><path d="M58.87 25H41.03c-3.95 0-7.13 3.2-7.13 7.15v35.7c0 3.95 3.18 7.15 7.13 7.15h17.84c3.95 0 7.13-3.2 7.13-7.15v-35.7C66 28.2 62.82 25 58.87 25zm3.57 42.85c0 2-1.6 3.6-3.57 3.6H41.03c-1.96 0-3.57-1.6-3.57-3.6v-35.7c0-2 1.6-3.6 3.57-3.6h17.84c1.96 0 3.57 1.6 3.57 3.6z" fill="#fff"/><path d="M56.3 46.4h-.9v-1.77c0-2.98-2.4-5.38-5.35-5.38-2.96 0-5.36 2.4-5.36 5.38v1.77h-.9c-1 0-1.8.8-1.8 1.8v10.73c0 .97.8 1.77 1.8 1.77h12.5c1 0 1.8-.8 1.8-1.77V48.2c0-1-.8-1.8-1.8-1.8zm-10.73 3.58h8.96v7.15h-8.96zm2.7-5.35c0-1 .8-1.8 1.78-1.8s1.8.8 1.8 1.8v1.77h-3.6zm-.9-8.95h5.37c.98 0 1.8-.8 1.8-1.78 0-1-.82-1.8-1.8-1.8h-5.38c-.98 0-1.8.8-1.8 1.8 0 .97.82 1.78 1.8 1.78zM51.77 66.1c0 .97-.8 1.77-1.78 1.77-1 0-1.8-.8-1.8-1.78 0-1 .8-1.8 1.8-1.8.97 0 1.77.8 1.77 1.8z" fill="#fff"/></g></svg>