<svg xmlns="http://www.w3.org/2000/svg" xmlns:lucid="lucid" width="100" height="100"><g lucid:page-tab-id="0_0" stroke="#000" stroke-opacity="0" stroke-width="2.34"><path d="M50 0C22.4 0 0 22.4 0 50s22.4 50 50 50 50-22.4 50-50S77.6 0 50 0z" fill="#481a54"/><path d="M76.8 53.82c.17-1.24.34-2.64.34-3.82 0-14.85-12.04-26.9-26.84-26.9h-.52C35.08 23.42 23.4 35.37 23.4 50c0 14.63 11.87 26.74 26.55 26.9h.18c5.47 0 10.82-1.72 15.15-4.68L67 74c.35.32.87.48 1.56.48.52 0 1.03-.16 1.55-.48l2.6-2.64L79.05 65c.7-.7 1.2-1.4 1.56-2.25 1.2-3.44-.52-7.42-3.8-8.93zm-8.4 15.66l-1.57-1.56-5.88-5.87c-1.03-1.02-1.03-2.9 0-3.93.52-.53 1.22-.86 2.08-.86.34 0 .52 0 .86.16.34.17.86.33 1.2.7l2.08 2.05c.34.38.86.54 1.38.54.52 0 1.03-.15 1.38-.53l1.2-1.18.87-.88c.36-.37 1.05-.7 1.57-.7h.52c.68 0 1.37.17 1.9.7h.16c.98 1.03.98 2.75 0 3.93l-4.84 4.68-2.93 2.75zm-12.28-8.6c-1.15-.17-2.54-.33-4.1-.55v-8.45h8.24c0 .54 0 1.24-.17 1.73-2.77 1.4-4.33 4.3-3.98 7.27zm2.24-20.72c.18 0 .52-.17.7-.17.7 2.25 1.2 4.84 1.2 7.96h-8.23v-6.94c2.42-.17 4.43-.33 6.33-.86zm-6.33-3.3V28.8c1.72 1.35 3.74 3.6 5.47 7.2-1.73.55-3.4.87-5.47.87zm12.2 16.42v-1.24h8.48c0 .38-.17.87-.17 1.24-1.2.16-2.6.86-3.63 1.9l-.34.36-.17.16-.2-.16-.33-.37c-.87-1.03-2.25-1.56-3.63-1.9zm8.65-5.32H64.4c-.16-3.66-.68-6.73-1.54-9.37 2.42-1.03 4.14-2.05 5.18-2.75 2.6 3.28 4.5 7.6 4.84 12.1zm-11.4-13.13c-1.22-2.58-2.6-4.84-4.15-6.4 2.93 1.07 5.53 2.42 7.77 4.52-.86.32-2.07 1.18-3.63 1.88zm-9.45 29.8c1.72 0 3.4.38 4.78.7-1.55 2.8-3.22 4.68-4.77 5.87v-6.57zm5.3 6.94c1.03-1.23 2.07-2.58 3.1-4.3l1.9 1.88c-1.55 1.03-3.28 1.9-5 2.42zm-15.67-9.84c-1.04-2.58-1.73-5.87-1.9-9.7h7.95v8.68c-1.72.17-3.8.5-6.04 1.03zm6.22 3.12v6.02c-1.38-1.23-2.94-2.95-4.32-5.38 1.38-.33 2.94-.65 4.32-.65zm-5.18 6.5c-2.25-.64-4.15-1.87-6.05-3.22 1.04-.54 1.9-.86 2.94-1.4.85 1.9 1.9 3.45 3.1 4.63zm-2.77-23.4c.17-3.28.7-6.07 1.38-8.28 2.43.7 4.5 1.02 6.58 1.35v7.1h-7.95zM38.9 34.52c-1.04-.53-2.25-1.07-3.46-1.77 2.07-1.72 4.5-3.23 7.26-4.1-1.4 1.52-2.77 3.46-3.8 5.88zm-1.56 3.77c-.87 2.75-1.38 6.03-1.56 9.7h-8.23c.34-4.53 2.24-8.84 4.84-12.12 1.66.86 3.38 1.72 4.94 2.42zm-1.56 13.77c.18 4.36 1.04 8.13 2.08 11.1-1.4.47-2.94 1.33-4.44 2.03-3.28-3.6-5.35-8.12-5.87-13.13h8.23zm12.1-15.17c-1.55-.16-3.28-.48-5.18-1.02 1.55-3.12 3.45-5.33 5.18-6.72v7.74z" fill="#fff"/></g></svg>