<svg xmlns="http://www.w3.org/2000/svg" xmlns:lucid="lucid" width="100" height="100"><g lucid:page-tab-id="0_0" stroke="#000" stroke-opacity="0" stroke-width="2.34"><path d="M100 50c0 27.6-22.4 50-50 50S0 77.6 0 50 22.4 0 50 0s50 22.4 50 50z" fill="#032d60"/><path d="M50.05 22.7c-15.1 0-27.35 12.25-27.35 27.35 0 15.1 12.25 27.35 27.35 27.35 15.1 0 27.35-12.25 27.35-27.35 0-15.1-12.25-27.35-27.35-27.35zm0 50.76c-12.96 0-23.4-10.45-23.4-23.4 0-12.97 10.44-23.42 23.4-23.42 12.96 0 23.4 10.45 23.4 23.4 0 12.97-10.44 23.42-23.4 23.42z" fill="#fff"/><path d="M61.66 42.2h-2.92v-2.93c0-4.84-3.93-8.77-8.8-8.77-4.85 0-8.78 3.94-8.78 8.77v2.93h-2.92c-1.07 0-1.94.9-1.94 1.95v20.5c0 1.08.87 1.95 1.94 1.95h23.42c1.1 0 1.94-.9 1.94-1.95v-20.5c0-1.1-.87-1.95-1.94-1.95zm-1.94 20.5H40.18V46.1h19.54zM45.1 39.27c0-2.67 2.15-4.87 4.85-4.87 2.7 0 4.86 2.2 4.86 4.87v2.93h-9.7z" fill="#fff"/><path d="M48.08 57.8c0-1.08.87-1.96 1.95-1.96s1.95.88 1.95 1.95v-3.7c.65-.56 1-1.3.98-2.17 0-1.62-1.3-2.93-2.93-2.93-1.62 0-2.93 1.3-2.93 2.93 0 .87.33 1.6.98 2.18z" fill="#fff"/></g></svg>