<svg xmlns="http://www.w3.org/2000/svg" xmlns:lucid="lucid" width="100" height="100"><g lucid:page-tab-id="0_0" stroke="#000" stroke-opacity="0" stroke-width="2.34"><path d="M100 50c0 27.6-22.4 50-50 50S0 77.6 0 50 22.4 0 50 0s50 22.4 50 50z" fill="#032d60"/><path d="M76.48 36.97c-1.34-7.02-6.55-12.16-13.53-13.5-1.13-.22-2.1-.32-3.23-.27-.37 0-.75 0-1.12.1-2.7.33-4.94 1.35-6.88 3.28l-3.92 3.9-5.53 5.53c-.7.76-1.18 1.56-1.5 2.53-1.24.6-2.15 1.3-3.12 2.2l-11.1 11.04c-2.97 3.1-4.1 7.13-3.13 11.3.7 3.55 2.2 6.4 4.73 8.9 3.22 3.17 7.1 4.78 11.65 4.83 3.22.05 6.07-1.07 8.38-3.32l3.92-3.97 5.48-5.46c.75-.75 1.23-1.5 1.55-2.52 1.24-.6 2.15-1.28 3.12-2.25l11.1-11.04c2.97-3.1 4.04-7.07 3.13-11.26zM43.02 58.42c.33.37.65.64 1.02.96l-4.5 4.5c-.92-.16-1.67-.53-2.32-1.18-.64-.64-1.02-1.4-1.18-2.3l5.2-5.2c.28 1.3.82 2.36 1.78 3.27zm15.63-13.73c-.32-1.3-.86-2.3-1.83-3.22-.32-.32-.64-.65-1.02-.97l4.5-4.5c.93.17 1.68.55 2.32 1.2.65.63 1.02 1.38 1.18 2.3zm-9.18 21.38l-4.25 4.3c-1.5 1.44-3.32 2.2-5.47 2.13-.5 0-.92-.04-1.4-.1-2.85-.42-5.1-1.55-7.14-3.6-1.92-1.86-3.05-3.95-3.6-6.58-.63-2.73.06-5.4 1.94-7.45l11-11.04.44-.38c2-1.55 4.24-2.2 6.7-1.77 1.95.27 3.5.92 5.06 2.04.43.32.75.6 1.13.9l.75.82c.86.85.86 2.2 0 3.05-.8.8-2.2.8-3 0l-.8-.8c-.5-.5-.98-.87-1.57-1.2-.7-.3-1.34-.53-2.1-.63-1.12-.16-2.1 0-3 .6-.2.1-.38.25-.54.36l-11 11.04c-.85 1.02-1.12 2.3-.75 3.6.54 3.1 2.58 5.5 5.6 6.48 1.6.8 3.37.7 4.82-.38l4.14-4.34 1.4-1.45c1.4.6 2.7.92 4.24 1.08.22.05.43.05.7 0zm20.9-20.85L59.28 56.27l-.44.38c-1.55 1.28-3.27 1.93-5.3 1.87-2.43 0-4.52-.7-6.46-2.14l-1.07-.9-.75-.82c-.86-.85-.86-2.2 0-3v-.05c.8-.8 2.15-.8 3 0l.8.8c.5.5.98.82 1.57 1.14 1.66.9 3.5.96 5.15.05.16-.12.33-.22.5-.38l11-11.05c.85-1 1.12-2.25.75-3.53-.65-3.5-3.22-6.06-6.72-6.76-1.28-.32-2.57-.05-3.6.75l-5.7 5.74c-1.27-.54-2.35-.8-3.74-1.02h-1.25L48.4 36l6.33-6.26c2.04-1.93 4.67-2.63 7.4-1.93 5.27 1.03 9.14 4.9 10.1 10.14.65 2.68 0 5.25-1.87 7.3z" fill="#fff"/></g></svg>