<svg xmlns="http://www.w3.org/2000/svg" xmlns:lucid="lucid" width="100" height="100"><g lucid:page-tab-id="0_0" stroke="#000" stroke-opacity="0" stroke-width="0"><path d="M100 50c0 27.6-22.4 50-50 50S0 77.6 0 50 22.4 0 50 0s50 22.4 50 50z" fill="#032d60"/><path d="M49.95 28c-10.1 0-11.6 1.72-11.85 4.77h23.7C61.6 29.72 60.05 28 49.95 28z" fill-opacity="0"/><path d="M80.9 32.74H66.58c-.6-8.8-8.2-9.54-16.58-9.54-8.4 0-15.98.75-16.58 9.54H19.1c-1.33 0-2.4 1.07-2.4 2.36v8.47l.13 2.36c0 .48.14.9.47 1.28.53.76 1.13 1.46 1.8 2.1v25.14c0 1.3 1.06 2.36 2.33 2.36h57.14c1.33 0 2.33-1.07 2.33-2.36V49.3c.67-.64 1.27-1.34 1.8-2.03.27-.38.47-.8.47-1.3l.13-2.4V35.1c0-1.3-1.07-2.36-2.4-2.36zm-4.73 39.3H23.83v-19.2c5.12 2.95 11.58 4.4 17.85 5v2.3c0 1.28 1.06 2.35 2.4 2.35h11.85c1.33 0 2.4-1.08 2.4-2.37v-2.36c7.4-.75 13.32-2.4 17.84-4.93v19.2zm-22.64-16.3v1.98H46.4v-4.77h7.13v2.78zm2.4-7.5H44c-1.33 0-2.32 1.06-2.32 2.35v2.46c-7.86-.86-13.92-2.85-17.85-5.95-.87-.64-1.67-1.4-2.33-2.2l-.07-1.5v-5.9H78.5v5.9l-.06 1.56c-.67.8-1.4 1.5-2.27 2.2-3.93 3.05-9.85 5.04-17.84 5.84v-2.4c0-1.3-1.07-2.37-2.4-2.37zM50 27.96c10.06 0 11.6 1.72 11.85 4.77h-23.7c.2-3.05 1.73-4.77 11.85-4.77z" fill="#fff"/></g></svg>