<svg xmlns="http://www.w3.org/2000/svg" xmlns:lucid="lucid" width="100" height="100"><g lucid:page-tab-id="0_0" stroke="#000" stroke-opacity="0" stroke-width="2.34"><path d="M100 50c0 27.6-22.4 50-50 50S0 77.6 0 50 22.4 0 50 0s50 22.4 50 50z" fill="#481a54"/><path d="M55.58 44.1v14.3c.35.9.72 1.95.88 3.05h3.04V44.1h-3.92zm7.68 0h3.92v17.35h-3.92zM47.9 50.03c1.44.7 2.67 1.58 3.92 2.68v-6.97c-.88 1.78-2.32 3.2-3.92 4.3zm13.57 15.3h-4.82v3.78H71.1v-3.77h-1.97zm-8.2-25.46v.32h13.9c-.9-6.4-6.6-11.58-13.38-11.58-1.98 0-3.93.36-5.55 1.26 3.04 2.3 5 5.87 5 10z" fill-opacity="0"/><path d="M72.82 61.43h-1.94V44.1h1.94c1.1 0 1.98-.87 1.98-1.95 0-1.07-.9-1.95-1.98-1.95h-1.94c-.9-8.07-7.34-14.5-15.32-15.37v-1.08c0-1.08-.9-1.95-2-1.95-1.08 0-1.97.87-1.97 1.95v1.3c-2.84.3-5.52 1.38-7.85 3.02-.9-.2-1.93-.36-2.83-.36-6.8 0-12.35 5.5-12.35 12.3 0 4.1 2.18 7.86 5.36 10.17-5.16 2.52-8.73 7.87-8.73 13.93v7.15c0 1.08.9 1.95 1.98 1.95h45.64c1.1 0 1.98-.87 1.98-1.95V63.6c0-1.3-.9-2.17-1.98-2.17zm-16.42 0c-.15-1.08-.35-2.16-.84-3.03V44.1h3.9v17.33H56.4zM36.46 69.1h-7.5v-5.36c0-4.83 3.04-8.94 7.3-10.7 1.24-.55 2.48-.7 3.92-.9h.74c1.05 0 2.14.2 3.18.35 1.44.35 2.68 1.07 3.92 1.8 1.63 1.22 3.07 2.86 3.96 4.6.35.73.5 1.45.7 2.32.2.72.2 1.65.2 2.32v5.4H36.46zM32.7 41.6c-.2-.52-.2-1.04-.2-1.6 0-4.48 3.4-8.02 7.68-8.38h.9c1.23 0 2.52.36 3.76.87 2.83 1.43 4.8 4.3 4.8 7.7v.36c0 1.4-.53 2.67-1.08 3.9-.15.16-.15.37-.35.52-.88 1.44-2.32 2.52-3.9 3.03-.9.37-2 .58-3.23.58h-.7c-1.43-.2-2.67-.57-3.9-1.23-1.3-.72-2.2-1.8-2.9-3.04-.53-1.07-.68-2-.88-2.7zM47.86 50c1.58-1.08 2.82-2.52 3.92-4.32v7c-1.25-1.1-2.5-1.96-3.93-2.68zm15.32-5.9h3.9v17.3h-3.9v-17.3zm-9.43-15.38c6.74 0 12.3 5.04 13.34 11.62H53.23V40c0-4.12-1.98-7.66-5-9.98 1.58-.92 3.57-1.28 5.55-1.28zM71.03 69.1H56.8v-3.92h14.43v3.9z" fill="#fff"/></g></svg>