<svg xmlns="http://www.w3.org/2000/svg" xmlns:lucid="lucid" width="100" height="100"><g lucid:page-tab-id="0_0" stroke="#000" stroke-opacity="0" stroke-width="2.34"><path d="M50 0C22.4 0 0 22.4 0 50s22.4 50 50 50 50-22.4 50-50S77.6 0 50 0z" fill="#032d60"/><path d="M50.05 22.1C34.5 22.1 22.1 34.68 22.1 50.05S34.5 78 50.05 78C65.6 78 78 65.6 78 50.05 78 34.5 65.6 22.1 50.05 22.1zM70.4 62.63c-2.07-.84-4.3-1.5-6.7-2.07.32-1.57.66-3.07.83-4.64 1.9-.5 3.46-1.9 4.13-3.8h5.2c-.16 3.8-1.4 7.43-3.46 10.5zm-40.7 0c-1.9-3.08-3.13-6.7-3.46-10.68h9c0 1.73.16 3.3.5 4.98-1.57 1.06-2.57 2.62-2.8 4.52-1.17.34-2.23.84-3.24 1.18zm0-25.16c2.07.84 4.3 1.5 6.7 2.07-.66 2.57-1 5.48-1.16 8.44h-9c.16-3.8 1.4-7.43 3.46-10.5zm35.4 12.58c0 1.23-.9 2.07-2.14 2.07-1.17 0-2.07-.84-2.07-2.07s.9-2.07 2.06-2.07c1.23 0 2.13.84 2.13 2.07zm-4.37-5.53c-1.5.72-2.74 1.9-3.24 3.63H52.1v-3.3c1.73-.67 3.3-2.07 3.8-3.97 1.4-.16 2.74-.33 3.97-.5.32 1.23.66 2.57.83 4.14zm-12.75-5.54c0-1.17.84-2.07 2.07-2.07s2.07.9 2.07 2.08c0 1.23-.84 2.13-2.07 2.13s-2.07-.9-2.07-2.12zm7.6-2.23c-.72-1.5-1.9-2.9-3.63-3.4V27.3c2.74 2.4 4.98 5.48 6.54 9.1-.85.18-1.9.35-2.92.35zm-7.6-9.45v6.04c-1.73.5-2.96 1.9-3.63 3.4-1-.16-1.9-.16-2.9-.33 1.72-3.62 3.8-6.53 6.53-9.1zm-3.8 13.42c.5 1.9 1.9 3.3 3.8 3.96v3.3h-9c.22-2.74.56-5.36 1.23-7.77 1.4.35 2.75.52 3.98.52zM47.98 59c-1.23 0-2.57.22-3.8.22-.84-1.73-2.57-3.13-4.64-3.3-.17-1.23-.34-2.57-.34-3.97h8.95V59zm-9.17 5.03c-1.16 0-2.05-.84-2.05-2.07s.9-2.07 2.06-2.07c1.24 0 2.08.83 2.08 2.06s-.84 2.07-2.07 2.07zm5.88-.68c1.07-.16 2.24-.16 3.3-.16v9.6c-2.07-1.68-3.8-3.74-5.2-6.2 1.07-1 1.74-2.07 1.9-3.25zm7.44 9.45v-9.6c2.23 0 4.47.15 6.54.5-1.5 3.62-3.8 6.7-6.54 9.1zm0-13.8v-7.05h5.37c.5 1.57 1.72 2.9 3.23 3.63-.17 1.35-.5 2.9-.84 4.14-2.58-.33-5.2-.5-7.78-.73zm16.7-11.02c-.66-1.9-2.22-3.3-4.12-3.8-.17-1.56-.5-3.07-.84-4.64 2.4-.56 4.64-1.23 6.7-2.07 1.9 3.08 3.14 6.7 3.47 10.5h-5.2zm-6.2-12.24c-1.17-3.13-2.9-6.04-4.97-8.44 4.14 1.34 7.6 3.74 10.34 6.87-1.74.5-3.47 1.07-5.37 1.57zm-20-8.44c-2.07 2.4-3.8 5.3-4.98 8.44-1.9-.5-3.8-1.06-5.53-1.57 2.75-3.3 6.38-5.7 10.52-6.87zm-8.78 38.12c1 1.5 2.9 2.74 4.97 2.74h.4c.84 1.73 2.07 3.3 3.25 4.64-3.97-1.34-7.6-3.74-10.34-6.87.5-.17 1.07-.34 1.74-.5zm23.8 7.38c2.08-2.4 3.65-5.14 4.82-8.44 1.9.34 3.8.9 5.37 1.57-2.58 3.13-6.04 5.53-10.18 6.87z" fill="#fff"/></g></svg>