<svg xmlns="http://www.w3.org/2000/svg" xmlns:lucid="lucid" width="100" height="100"><g lucid:page-tab-id="0_0" stroke="#000" stroke-opacity="0" stroke-width="0"><path d="M100 50c0 27.6-22.4 50-50 50S0 77.6 0 50 22.4 0 50 0s50 22.4 50 50z" fill="#032d60"/><path d="M59.14 61.1H41c-1.14 0-2.03-.9-2.03-2.02 0-1.1.9-2.02 2.02-2.02h18.14c1.1 0 2.02.9 2.02 2.02 0 1.1-.92 2.02-2.02 2.02zm0-18.16H41c-1.14 0-2.03-.9-2.03-2.02 0-1.1.9-2.02 2.02-2.02h18.14c1.1 0 2.02.9 2.02 2.02 0 1.1-.92 2.02-2.02 2.02zm6.04 9.08H34.92c-1.1 0-2.02-.9-2.02-2.02 0-1.1.93-2.02 2.02-2.02h30.26c1.1 0 2.02.9 2.02 2.02 0 1.1-.93 2.02-2.02 2.02z" fill="#fff"/><path d="M74.1 76.2H49.96c-7.22 0-14.12-3.04-19.1-8.28-9.87-10.53-9.3-27.14 1.2-37.05 10.1-9.43 25.74-9.43 35.8 0C73.1 35.85 76.1 42.77 76.1 50v24.16c0 1.15-.9 2.04-2.04 2.04zM49.96 27.78h-1.4c-12.25.42-21.87 10.7-21.46 22.9.36 12.26 10.6 21.85 22.85 21.5h22.12V50c0-12.26-9.88-22.22-22.12-22.22z" fill="#fff"/></g></svg>