<svg xmlns="http://www.w3.org/2000/svg" xmlns:lucid="lucid" width="100" height="100"><g lucid:page-tab-id="0_0" stroke="#000" stroke-opacity="0" stroke-width="2.34"><path d="M100 50c0 27.6-22.4 50-50 50S0 77.6 0 50 22.4 0 50 0s50 22.4 50 50z" fill="#481a54"/><path d="M68.63 33.25h-4.8V29.3c0-5.36-4.33-9.8-9.83-9.8-1.44 0-2.72.38-3.95.88-5-2.14-10.73 0-12.86 4.98-.55 1.26-.92 2.52-.92 3.95v3.95h-4.8c-1.08 0-1.98.88-1.98 1.98v37.1c0 1.1.9 1.97 1.97 1.97h37.16c1.07 0 1.97-.88 1.97-1.97v-37.1c0-1.1-.9-1.98-1.97-1.98zm-8.76-3.94v3.95h-3.94V29.3c0-2.13-.7-4.1-1.93-5.85 3.2 0 5.87 2.68 5.87 5.86zm-11.8 3.95V29.3c0-1.58.75-3.17 1.98-4.27 1.23 1.1 1.97 2.7 1.97 4.28v3.95h-3.94zm-7.84-3.94c0-3.17 2.67-5.85 5.87-5.85-1.23 1.58-1.93 3.72-1.93 5.86v3.95h-3.94V29.3zm26.42 41.05h-33.2v-33.2h33.2v33.2z" fill="#fff"/><path d="M59.8 46.8H40.17c-1.08 0-1.97.9-1.97 1.97 0 1.07.9 1.96 1.97 1.96H59.6c1.1 0 1.98-.9 1.98-1.96.18-1.08-.7-1.97-1.78-1.97zM56.83 54.6H43.06c-1.06 0-1.96.9-1.96 1.96 0 1.08.9 1.97 1.96 1.97h13.77c1.07 0 1.97-.9 1.97-1.97 0-1.07-.9-1.96-1.97-1.96z" fill="#fff"/></g></svg>