<svg xmlns="http://www.w3.org/2000/svg" xmlns:lucid="lucid" width="100" height="100"><g lucid:page-tab-id="0_0" stroke="#000" stroke-opacity="0" stroke-width="0"><path d="M100 50c0 27.6-22.4 50-50 50S0 77.6 0 50 22.4 0 50 0s50 22.4 50 50z" fill="#032d60"/><path d="M81.4 43.85c0-1.2-1-2.22-2.26-2.22H75.7c-.2-.35-.32-.75-.5-1.1l2.44-2.47c.44-.46.7-1 .7-1.62 0-.6-.26-1.16-.7-1.56l-6.33-6.35c-.87-.9-2.25-.9-3.13 0L65.72 31c-.37-.15-.75-.35-1.12-.5v-3.48c0-1.2-1-2.22-2.26-2.22h-8.97c-1.25 0-2.2 1-2.2 2.22v3.48c-.37.15-.8.35-1.12.5l-2.5-2.47c-.9-.9-2.27-.9-3.14 0l-6.33 6.35c-.87.86-.87 2.27 0 3.12l2.45 2.47c-.2.4-.3.76-.44 1.16h-3.5c-1.26 0-2.2 1-2.2 2.22v6.7H20.95c-1.26 0-2.26 1-2.26 2.22v20.2c0 1.22 1 2.23 2.26 2.23h32.48c1.2 0 2.2-1 2.2-2.22v-1.1h6.7c1.25 0 2.26-1 2.26-2.22v-3.53c.37-.15.75-.3 1.06-.46l2.5 2.47c.9.9 2.27.9 3.15 0l6.34-6.35c.44-.4.7-.96.7-1.57 0-.6-.26-1.16-.7-1.6l-2.45-2.48c.12-.35.3-.76.43-1.1h3.5c.64 0 1.2-.26 1.58-.67.45-.45.7-1 .7-1.6V43.8zM67.67 61.4c-.7-.7-1.82-.87-2.63-.36-1.07.55-2.14 1-3.33 1.36-.93.25-1.62 1.1-1.62 2.17v2.87h-4.45v-9.28c.7.2 1.44.26 2.2.26 5.57 0 10.1-4.5 10.1-10.08 0-5.55-4.53-10.08-10.1-10.08-5.52 0-10.04 4.53-10.04 10.08 0 .8.06 1.56.24 2.26h-9.2v-4.48h2.87c1 0 1.9-.66 2.14-1.6.32-1.17.75-2.28 1.38-3.3.5-.9.32-2-.37-2.7l-2-2.03 3.12-3.18 2 2c.7.72 1.83.87 2.7.37 1-.57 2.14-1.02 3.33-1.37.94-.26 1.63-1.1 1.63-2.17v-2.82h4.45v2.82c0 1 .7 1.9 1.7 2.17 1.12.35 2.25.8 3.26 1.36.87.5 2 .34 2.7-.37l2-2 3.2 3.16-2 2c-.76.7-.9 1.82-.4 2.73.58 1 1.02 2.12 1.33 3.28.3.96 1.2 1.62 2.2 1.62h2.88v4.48h-2.9c-1 0-1.87.7-2.18 1.67-.3 1.2-.7 2.22-1.32 3.27-.5.9-.37 2.02.38 2.73l2 2-3.13 3.2-2.07-2.03zM52.24 48.33c0-3.08 2.5-5.6 5.58-5.6 3.14 0 5.65 2.52 5.65 5.6 0 3.07-2.5 5.6-5.65 5.6-3.07 0-5.58-2.53-5.58-5.6zm-29.1 6.7h27.98v15.72H23.15V55.04z" fill="#fff"/><path d="M43.3 62.85c0-1.23 1-2.23 2.23-2.23s2.23 1 2.23 2.23c0-.38-.1-.73-.27-1.05-.13-.25-.28-.43-.48-.62-.9-.82-2.3-.76-3.1.13-.4.4-.62.94-.62 1.55zM30.96 62.83c0 1.23-1 2.23-2.23 2.23s-2.23-1-2.23-2.23 1-2.23 2.23-2.23 2.23 1 2.23 2.23zM37.42 60.12l-.24-.02c-1.53 0-2.78 1.25-2.78 2.78 0 1.54 1.25 2.8 2.78 2.8 1.3 0 2.36-.88 2.68-2.06.08-.23.1-.48.1-.74 0-1.46-1.12-2.66-2.56-2.76z" fill="#fff"/></g></svg>