<svg xmlns="http://www.w3.org/2000/svg" xmlns:lucid="lucid" width="100" height="100"><g lucid:page-tab-id="0_0" stroke="#000" stroke-opacity="0" stroke-width="2.34"><path d="M50 0C22.4 0 0 22.4 0 50s22.4 50 50 50 50-22.4 50-50S77.6 0 50 0z" fill="#032d60"/><path d="M78.76 40.17L66.5 35.7V24.5c0-1.22-.86-2.1-2.05-2.1h-36.4c-1.2 0-2.05.88-2.05 2.1v51.06c0 1.16.86 2.04 2.05 2.04h36.4c1.2 0 2.05-.88 2.05-2.04V69.5l2.1-1.4c6.54-4.3 11.35-7.23 11.35-17.93v-8.12c.2-.83-.33-1.54-1.2-1.88zm-2.76 10c0 8.28-3.13 10.37-9.28 14.35h-.22l-1.9 1.16-.3.38L62.55 65l-.7-.48c-6.38-3.98-9.45-6.07-9.45-14.35V43.6l10.16-3.76 1.73-.7.3.15 2.12.7L76 43.44v6.74zM30.16 26.54H62.4v8.78l-12.8 4.7H36.37c-1.24 0-2.1.82-2.1 2.03 0 1.22.86 2.1 2.1 2.1H48.1v4.14H36.36c-1.24 0-2.1.82-2.1 2.03 0 1.22.86 2.1 2.1 2.1h11.88c.16 1.54.32 2.92.7 4.14H36.37c-1.24 0-2.1.83-2.1 2.04 0 1.23.86 2.1 2.1 2.1h14.47c2.05 2.93 4.97 4.8 8.6 7.07l2.96 1.88v3.48H30.16v-46.6z" fill="#fff"/><path d="M36.38 35.84h19.84c1.2 0 2.05-.87 2.05-2.07 0-1.2-.84-2.07-2.05-2.07H36.38c-1.2 0-2.08.87-2.08 2.07 0 1.2 1.02 2.07 2.08 2.07zm10.5 29.32H36.54c-1.2 0-2.04.87-2.04 2.07 0 1.2.82 2.07 2.03 2.07H46.9c1.2 0 2.07-.86 2.07-2.07 0-1.2-1.02-2.07-2.08-2.07zM64.5 51.9l-1.2 1.87-.88-.68-1.36-1.4c-.87-.67-2.27-.52-2.95.34-.67.87-.52 2.26.35 2.93l4.16 3.28.16.18c.34.34.87.53 1.4.53h.34c.15 0 .15 0 .34-.2.53-.14.87-.5 1.02-.85l1.06-1.53 4.84-7.6c.68-1 .34-2.26-.72-2.93-1.02-.68-2.23-.34-2.9.67l-1.4 2.12-2.24 3.27z" fill="#fff"/></g></svg>