<svg xmlns="http://www.w3.org/2000/svg" xmlns:lucid="lucid" width="100" height="100"><g lucid:page-tab-id="0_0" stroke="#000" stroke-opacity="0" stroke-width="2.34"><path d="M50 0C22.4 0 0 22.4 0 50s22.4 50 50 50 50-22.4 50-50S77.6 0 50 0z" fill="#032d60"/><path d="M76.17 66.54l-10-14.1c1.6-2.93 2.6-6.58 2.6-11.72v-10c0-.9-.53-1.56-1.22-1.9l-16.67-6.4c-.52-.17-.9-.17-1.42 0L32.8 28.8c-.7.34-1.22 1-1.22 1.9v10c0 5.14.84 8.8 2.6 11.72l-10 14.1c-.38.55-.54 1.38-.17 1.94.33.66.86 1 1.55 1.2l6.87.84 3.44 6.03c.37.72 1.06 1.05 1.75 1.05.7 0 1.38-.33 1.7-1.05l7.78-13.1 2.22 1.38c.37.16.7.38 1.06.38.3 0 .68-.2 1-.37l2.28-1.4 7.72 13.12c.37.55 1.06 1.05 1.74 1.05.7 0 1.38-.33 1.7-1.05l3.44-6.03 6.93-.83c.68 0 1.16-.56 1.53-1.22 0-.56 0-1.22-.53-1.94zM65 67.76l-2.27 3.98-6.18-10.34c2.75-1.88 5.18-3.65 7.08-5.7l7.4 10.5-4.65.56c-.52.17-1.05.5-1.37 1zm-31.52-1l-4.65-.55 7.4-10.5c1.9 2.05 4.3 3.82 7.04 5.7l-6.2 10.34-2.2-3.98c-.23-.5-.7-.83-1.4-1zm13.44-7.8c-3.44-2.2-6.4-4.14-8.3-6.52-.7-.9-1.17-1.72-1.7-2.77-1.06-2.26-1.6-4.97-1.6-8.95v-8.63l14.88-5.54L65 32.1v8.62c0 3.75-.52 6.7-1.58 8.95-.53 1.05-1 1.88-1.7 2.77-1.9 2.38-4.65 4.3-8.3 6.52L50 61.06l-3.08-2.1z" fill="#fff"/><path d="M51.94 47.68v-4.64c1.38-.7 2.24-2.06 2.24-3.6 0-2.25-1.9-4.14-4.14-4.14-2.24 0-4.14 1.9-4.14 4.13 0 1.55.86 2.92 2.24 3.6v4.65c0 1.05.87 1.9 1.9 1.9 1.04.18 1.9-.85 1.9-1.9z" fill="#fff"/></g></svg>