<svg xmlns="http://www.w3.org/2000/svg" xmlns:lucid="lucid" width="100" height="100"><g lucid:page-tab-id="0_0" stroke="#000" stroke-opacity="0" stroke-width="2.34"><path d="M50 0C22.4 0 0 22.4 0 50s22.4 50 50 50 50-22.4 50-50S77.6 0 50 0z" fill="#032d60"/><path d="M50 22.4c-15.18 0-27.6 12.42-27.6 27.6 0 15.18 12.42 27.6 27.6 27.6 15.18 0 27.6-12.42 27.6-27.6 0-15.18-12.42-27.6-27.6-27.6zm0 51.23c-13.08 0-23.63-10.7-23.63-23.63 0-13.08 10.7-23.63 23.63-23.63 13.14 0 23.63 10.7 23.63 23.63 0 13.14-10.5 23.63-23.63 23.63z" fill="#fff"/><path d="M69.7 50c0 1.04-.86 1.9-1.9 1.9-1.05 0-1.9-.86-1.9-1.9 0-1.05.85-1.9 1.9-1.9 1.04 0 1.9.85 1.9 1.9zM34.1 50c0 1.04-.86 1.9-1.9 1.9-1.05 0-1.9-.86-1.9-1.9 0-1.05.85-1.9 1.9-1.9 1.04 0 1.9.85 1.9 1.9zM51.9 67.8c0 1.04-.86 1.9-1.9 1.9-1.05 0-1.9-.86-1.9-1.9 0-1.05.85-1.9 1.9-1.9 1.04 0 1.9.85 1.9 1.9zM60.9 48.08h-5.86c-.5-1.38-1.72-2.58-3.1-3.1V32.4c0-1.05-.87-1.9-1.9-1.9-1.03 0-1.9.85-1.9 1.9v12.75c-2.06.88-3.44 2.78-3.44 5 0 2.93 2.4 5.35 5.34 5.35 2.24 0 4.3-1.37 5-3.45h5.86c1.03 0 1.9-.85 1.9-1.9 0-1.02-.87-2.07-1.9-2.07z" fill="#fff"/></g></svg>