<svg xmlns="http://www.w3.org/2000/svg" xmlns:lucid="lucid" width="100" height="100"><g lucid:page-tab-id="0_0" stroke="#000" stroke-opacity="0" stroke-width="2.34"><path d="M50 0C22.4 0 0 22.4 0 50s22.4 50 50 50 50-22.4 50-50S77.6 0 50 0z" fill="#032d60"/><path d="M75.28 45.84c-2.24-9.44-9.65-16.86-19.12-19.1-.72-2.76-3.13-4.84-6.2-4.84-2.96 0-5.5 2.08-6.22 4.83-9.47 2.25-16.9 9.67-19.12 19.1-2.77.74-4.82 3.16-4.82 6.25 0 2.92 2.05 5.5 4.82 6.18 2.78 11.4 13.1 19.84 25.33 19.84 12.24 0 22.55-8.43 25.33-19.84 2.77-.67 4.82-3.1 4.82-6.18 0-2.92-2.05-5.5-4.82-6.24zM49.95 73.77c-3.44 0-6.87-.84-9.83-2.4 0-5.35 4.34-9.62 9.65-9.62 5.37 0 9.65 4.27 9.65 9.6-2.78 1.58-6.03 2.42-9.47 2.42zM43.38 51c0-3.58 2.95-6.5 6.57-6.5s6.57 2.92 6.57 6.5c0 3.67-2.95 6.6-6.57 6.6s-6.57-2.93-6.57-6.6zm20.38 17.94c-.9-4.1-3.5-7.6-6.94-9.44 2.42-1.9 3.98-5 3.98-8.32 0-6-4.82-10.85-10.85-10.85-6.03 0-10.85 4.84-10.85 10.85 0 3.32 1.56 6.4 3.98 8.32-3.44 2.08-6.03 5.34-6.94 9.44-3.44-2.75-6.03-6.7-7.23-11.18 2.12-1.02 3.5-3.1 3.5-5.5 0-2.43-1.38-4.5-3.5-5.52 2.12-7.42 7.97-13.5 15.38-15.34 1.03 2.08 3.08 3.43 5.5 3.43 2.4 0 4.45-1.35 5.54-3.43 7.35 2.08 13.38 7.92 15.3 15.34-2.04 1-3.42 3.1-3.42 5.5 0 2.43 1.38 4.5 3.43 5.52-.84 4.32-3.43 8.26-6.87 11.18zM26.2 50s0 .17 0 0c1.2 0 2.04.84 2.04 2.08 0 1-.84 1.9-1.87 2.08h-.18c-1.03 0-2.12-.9-2.12-2.08 0-1.07.9-2.08 2.1-2.08zm21.7-21.75c0-1 .84-2.02 2.05-2.02 1.02 0 2.05.84 2.05 2.02v.23c0 1-.84 1.85-2.05 1.85-1.02-.17-1.87-1-2.05-2.08zm25.8 25.9c-1.2 0-2.04-.9-2.04-2.07 0-1.07.84-1.9 1.87-2.08h.18c1.03 0 2.12.84 2.12 2.08 0 1-.9 2.08-2.1 2.08z" fill="#fff"/></g></svg>