<svg xmlns="http://www.w3.org/2000/svg" xmlns:lucid="lucid" width="100" height="100"><g lucid:page-tab-id="0_0" stroke="#000" stroke-opacity="0" stroke-width="2.34"><path d="M50 0C22.4 0 0 22.4 0 50s22.4 50 50 50 50-22.4 50-50S77.6 0 50 0z" fill="#032d60"/><path d="M68.64 26.38H60.7v-1.86c0-1.04-.88-1.92-1.9-1.92H41.23c-1.07 0-1.93.88-1.93 1.92v1.86h-7.9c-1.03 0-1.9.88-1.9 1.92v47.18c0 1.04.87 1.92 1.9 1.92h37.4c1.04 0 1.9-.88 1.9-1.92V28.3c0-1.04-.86-1.92-2.06-1.92zm-1.9 47.24H33.3V30.38h5.84v1.87c0 1.04.87 1.9 1.9 1.9H58.8c1.02 0 1.9-.86 1.9-1.9v-1.87h5.88v43.24zm-23.6-47.24H56.9v3.78H43.14v-3.78z" fill="#fff"/><path d="M55.72 56.32c-.87-.5-2.08-.35-2.77.7l-4.32 6.87-2.25-1.7c-.86-.72-2.07-.54-2.76.32-.7.87-.52 2.06.35 2.77l3.97 3.1c.35.32.86.5 1.2.5h.36c.5-.18 1.03-.36 1.38-.86l5.53-8.8c.53-1.2.18-2.4-.68-2.92zm3.1-17.22H41.2c-1.04 0-1.9.86-1.9 1.9 0 1.02.86 1.9 1.9 1.9H59c1.04 0 1.9-.88 1.9-1.9 0-1.04-.86-1.9-2.07-1.9zm0 7.93H41.2c-1.04 0-1.9.86-1.9 1.87 0 1.05.86 1.9 1.9 1.9H59c1.04 0 1.9-.85 1.9-1.9 0-1-.86-1.87-2.07-1.87z" fill="#fff"/></g></svg>