<svg xmlns="http://www.w3.org/2000/svg" xmlns:lucid="lucid" width="100" height="100"><g lucid:page-tab-id="0_0" stroke="#000" stroke-opacity="0" stroke-width="2.34"><path d="M100 50c0 27.6-22.4 50-50 50S0 77.6 0 50 22.4 0 50 0s50 22.4 50 50z" fill="#032d60"/><path d="M72.1 55.2V27.03c0-.7-.27-1.26-.8-1.66-.48-.34-1.06-.45-1.68-.34-3.1.63-5.8.74-8.9.4-3.55-.57-6.43-1.66-9.44-3.6-.75-.45-1.64-.45-2.4 0-3 1.94-5.88 3.03-9.43 3.6-3.2.34-5.94.23-9.08-.4-.66-.1-1.3 0-1.77.46-.53.4-.8.97-.8 1.6v28.1c0 1.2.22 13.12 21.18 23.17.62.3 1.24.3 1.8 0C71.9 68.32 72.15 56.4 72.1 55.2zM50 74.14c-17.95-8.97-17.86-18.73-17.86-18.73V29.5c2.75.34 5.05.34 7.75 0 3.76-.52 6.82-1.6 10.1-3.43 3.27 1.88 6.37 2.9 10.1 3.48 2.74.3 5.05.3 7.8 0v25.87c-.23 2.28-.9 4.17-2.22 6.05-2 3.2-6.38 8.05-15.7 12.68z" fill="#fff"/><path d="M61.6 33.9c-.7 0-1.4 0-2.06-.16-3.17-.42-5.83-1.18-8.74-2.5-.6-.32-1.2-.32-1.8 0-2.9 1.32-5.57 2.08-8.74 2.5-.66.08-1.37.12-2.06.16-1.12.07-2 1-2 2.13v18.4c.03 1 .2 1.8.58 2.7.93 2.33 3.75 6.94 12.1 11.7.7.35 1.43.35 2.12 0 8.35-4.76 11.18-9.37 12.1-11.7.34-.87.5-1.7.5-2.66V35.95c-.03-1.1-.9-1.98-2-2.05zm-2.22 20.53c0 .38-.05.73-.2 1.07-.57 1.37-2.57 4.95-9.25 8.95-6.7-4.04-8.7-7.58-9.24-8.95-.14-.34-.2-.7-.2-1.07V37.9h.3c3.32-.42 6.1-1.18 9.13-2.52 3.07 1.34 5.83 2.1 9.15 2.48h.3z" fill="#fff"/></g></svg>