<svg xmlns="http://www.w3.org/2000/svg" xmlns:lucid="lucid" width="100" height="100"><g lucid:page-tab-id="0_0" stroke="#000" stroke-opacity="0" stroke-width="2.34"><path d="M100 50c0 27.6-22.4 50-50 50S0 77.6 0 50 22.4 0 50 0s50 22.4 50 50z" fill="#032d60"/><path d="M47 59.47h-6.8c-1.08 0-1.8-.9-1.8-1.8 0-.88.9-1.77 1.8-1.77H47c1.08 0 1.8.9 1.8 1.78 0 .9-.72 1.8-1.8 1.8z" fill="#fff"/><path d="M77.15 44.3l-6.07-15.55c-.38-.7-1.1-1.25-1.8-1.25h-39.1c-.7 0-1.57.54-1.74 1.25L22.7 44.3c-.15.5-.15 1.2.34 1.75 1.63 1.97 3.93 3.22 6.28 3.58v20.7c0 1.07.87 1.97 1.96 1.97h24.46c1.04 0 1.9-.9 1.9-1.97v-20.7c1.8-.18 3.62-.9 5.04-2.15 1.1.9 2.5 1.6 3.93 1.97v20.89c0 1.07.88 1.97 1.97 1.97 1.04 0 1.97-.9 1.97-1.97V49.8v-.17c2.3-.36 4.64-1.43 6.22-3.4.4-.36.55-1.26.4-1.93zM33.4 68.36v-18.9c1.43-.37 2.7-.9 3.94-1.8 1.8 1.43 4.1 2.33 6.44 2.33 2.3 0 4.43-.73 6.23-2.16 1.26.9 2.52 1.43 3.94 1.8v18.9H33.4zm35.5-22.3c-1.96 0-3.7-.9-4.97-2.3l-.16-.18c-.7-.7-1.8-.53-2.5.18-1.27 1.4-3.07 2.3-5.04 2.3-1.74.17-3.55-.73-4.64-1.94-.17-.36-.34-.54-.72-.72-.87-.53-1.96-.35-2.45.54-1.26 1.4-3.06 2.3-4.86 2.3-1.97 0-3.72-.9-4.8-2.3-.34-.36-.88-.72-1.43-.72-.54 0-1.1.18-1.42.72-1.25 1.4-3.06 2.3-4.8 2.3-1.64 0-3.06-.55-4.15-1.45l4.86-13.36H68.2l5.18 13.17c-1.42.9-2.84 1.45-4.48 1.45z" fill="#fff"/></g></svg>