<svg xmlns="http://www.w3.org/2000/svg" xmlns:lucid="lucid" width="100" height="100"><g lucid:page-tab-id="0_0" stroke="#000" stroke-opacity="0" stroke-width="2.34"><path d="M100 50c0 27.6-22.4 50-50 50S0 77.6 0 50 22.4 0 50 0s50 22.4 50 50z" fill="#032d60"/><path d="M65.25 43.6c-3.6 0-6.45 2.86-6.45 6.45 0 3.6 2.86 6.45 6.45 6.45 3.6 0 6.45-2.86 6.45-6.45 0-3.6-2.86-6.45-6.45-6.45zm0 8.6c-1.25 0-2.15-.9-2.15-2.15s.9-2.15 2.15-2.15 2.15.9 2.15 2.15-.9 2.15-2.15 2.15z" fill="#fff"/><path d="M65.13 34.85c-7.17 0-13.24 4.97-14.82 11.8-4.3-1.98-7.33-5.9-7.88-10.88 2.55-1.66 4.3-4.3 4.3-7.55 0-4.8-3.93-8.72-8.73-8.72-4.8 0-8.75 3.93-8.75 8.72C29.25 33.07 33.2 37 38 37h.36c.72 4.48 2.85 8.23 6.07 10.87h-7.7c-.86-3.75-4.26-6.4-8.4-6.4-4.78 0-8.73 3.94-8.73 8.73 0 4.8 3.95 8.72 8.74 8.72 2.3 0 4.5-.86 6.07-2.46 1.1-1.1 1.95-2.5 2.32-3.93h7.7c-3.2 2.64-5.34 6.4-6.06 10.87H38c-4.8 0-8.75 3.93-8.75 8.78 0 4.8 3.95 8.72 8.74 8.72 4.8 0 8.73-3.93 8.73-8.72 0-3.25-1.58-5.9-4.3-7.55.54-4.97 3.57-8.9 7.88-10.87 1.6 6.82 7.48 11.8 14.83 11.8 8.37 0 15.17-6.76 15.17-15.18 0-8.4-6.8-15.53-15.17-15.53zM33.67 28.4c0-2.27 2-4.23 4.3-4.23 2.32 0 4.32 1.96 4.32 4.23 0 2.34-2 4.3-4.3 4.3s-4.32-1.96-4.32-4.3zm-5.34 25.9c-2.3 0-4.25-1.95-4.25-4.28 0-2.34 1.93-4.3 4.24-4.3 2.3 0 4.3 1.96 4.3 4.3 0 2.33-2 4.3-4.3 4.3zM38 76.1c-2.3 0-4.32-1.95-4.32-4.3 0-2.32 2-4.28 4.3-4.28 2.32 0 4.32 1.96 4.32 4.3.12 2.33-1.82 4.3-4.3 4.3zM65.12 60.9c-5.9 0-10.87-4.8-10.87-10.86 0-6.08 4.8-10.87 10.87-10.87 6.06 0 10.86 4.8 10.86 10.87 0 6.07-5 10.86-10.88 10.86z" fill="#fff"/></g></svg>