<svg xmlns="http://www.w3.org/2000/svg" xmlns:lucid="lucid" width="100" height="100"><g lucid:page-tab-id="0_0" stroke="#000" stroke-opacity="0" stroke-width="2.34"><path d="M100 50c0 27.6-22.4 50-50 50S0 77.6 0 50 22.4 0 50 0s50 22.4 50 50z" fill="#032d60"/><path d="M73.26 46.18c-.94-.6-2.06-.93-3.14-.93-2 0-3.85 1.04-4.97 2.73l-.94 1.53c-2-2.56-4.25-4.3-7.25-5.6 3.23-2.3 5.33-6.07 5.33-10.33 0-7-5.7-12.67-12.68-12.67-6.94 0-12.63 5.68-12.63 12.67 0 4.26 2.1 8.02 5.28 10.32-6.54 2.83-11.15 9.38-11.15 16.97v12.66c0 1.1.9 1.97 1.93 1.97h33.15c1.07 0 1.93-.87 1.93-1.97v-8.46l.1-.1 6.8-10.7c1.7-2.74.9-6.34-1.83-8.1zm-9 25.44H35.03V60.87c0-8.08 6.54-14.64 14.6-14.64 5.16 0 9.73 2.73 12.33 6.83l-.1.16c-2.55-1.85-6.04-1.36-8 1.1-1 1.2-1.44 2.73-1.27 4.3.18 1.54.95 2.96 2.15 3.94l4.9 3.88c1.33 1.1 2.9 1.47 4.6 1.2v3.98zm-23.4-38.05c0-4.8 3.95-8.8 8.8-8.8 4.83 0 8.77 4 8.77 8.8 0 4.86-3.94 8.8-8.78 8.8s-8.78-3.94-8.78-8.8zM66.2 60.92l-1.26 1.97c-.17.26-.44.48-.67.64-.22.1-.45.22-.67.22-.13 0-.22.06-.3.06-.46 0-.9-.17-1.22-.44l-4.9-3.88c-.84-.7-.97-1.9-.3-2.78.4-.44.9-.7 1.52-.7.4 0 .85.15 1.2.42l.6.44 2.6 2.08 1.02-1.6 1.35-2.12 1.25-1.96v-.06l2.02-3.16c.54-.88 1.75-1.15 2.64-.6h.05c.9.6 1.17 1.8.6 2.73l-3.82 5.94-1.7 2.73z" fill="#fff"/></g></svg>