<svg xmlns="http://www.w3.org/2000/svg" xmlns:lucid="lucid" width="100" height="100"><g lucid:page-tab-id="0_0" stroke="#000" stroke-opacity="0" stroke-width="2.34"><path d="M100 50c0 27.6-22.4 50-50 50S0 77.6 0 50 22.4 0 50 0s50 22.4 50 50z" fill="#032d60"/><path d="M79.6 50c0-1.16-.95-2.13-2.13-2.13h-13.7v-18.9c0-1.15-.95-2.12-2.14-2.12L38.4 26.8c-.52 0-1.06.23-1.47.6-.36.42-.6.93-.6 1.53v11.6h-13.7c-.6 0-1.13.2-1.48.6-.4.38-.65.94-.65 1.5V71.1c0 1.17.95 2.1 2.13 2.1h54.84c1.18 0 2.13-.93 2.13-2.1V50.06zm-4.25 18.98H24.7v-4.23h50.64v4.23zm0-16.9v8.45h-11.6V52.1h11.6zM59.56 50v10.53H40.52v-29.5l19.03.04v18.88zM36.33 60.53H24.7V44.7h11.64v15.83z" fill="#fff"/><path d="M44.5 44.88l3.44 2.76c.38.3.85.46 1.32.46.12 0 .24 0 .35-.04.6-.1 1.1-.44 1.44-.94l4.82-7.57c.64-.98.35-2.3-.64-2.92-.98-.63-2.28-.34-2.9.65l-3.57 5.58-1.6-1.28c-.93-.75-2.25-.6-3 .3-.7.92-.58 2.24.34 3z" fill="#fff"/></g></svg>