<svg xmlns="http://www.w3.org/2000/svg" xmlns:lucid="lucid" width="100" height="100"><g lucid:page-tab-id="0_0" stroke="#000" stroke-opacity="0" stroke-width="2.34"><path d="M100 50c0 27.6-22.4 50-50 50S0 77.6 0 50 22.4 0 50 0s50 22.4 50 50z" fill="#481a54"/><path d="M64.1 57.77h7.2c.84.06 1.55-.36 1.97-1.14.42-.73.42-1.5 0-2.23L51.93 19.78c-.18-.36-.42-.54-.75-.78-1.03-.6-2.4-.3-3.05.78L26.93 54.4c-.42.72-.42 1.5 0 2.23.38.72 1.08 1.14 1.93 1.14H36l-9.02 14.48c-.43.72-.43 1.5 0 2.23.42.78 1.12 1.2 1.97 1.2H47.8V79c0-1.2 1.03-2.23 2.25-2.23s2.2 1.02 2.2 2.23v-3.32H71.3c.84 0 1.55-.42 1.97-1.2.42-.73.42-1.5 0-2.23zM52.27 71.22V55.54c0-1.2-1-2.23-2.2-2.23-1.23 0-2.26 1.04-2.26 2.24v15.68H32.85l9.02-14.47c.24-.36.38-.78.33-1.2 0-1.2-.98-2.24-2.2-2.24h-7.15l17.2-28.1 17.2 28.1H60.1c-.4 0-.84.13-1.2.37-1.04.67-1.33 2.05-.67 3.08l8.93 14.47z" fill="#fff"/><path d="M51 35.83h-.02c-1.05-.65-2.42-.3-3.06.75l-6.1 9.94c-.64 1.05-.3 2.4.74 3.06.37.22.73.32 1.15.32.82 0 1.5-.37 1.92-1.05l6.17-9.97c.62-1.08.25-2.44-.8-3.05z" fill="#fff"/></g></svg>