<svg xmlns="http://www.w3.org/2000/svg" xmlns:lucid="lucid" width="100" height="100"><g lucid:page-tab-id="0_0" stroke="#000" stroke-opacity="0" stroke-width="2.34"><path d="M100 50c0 27.6-22.4 50-50 50S0 77.6 0 50 22.4 0 50 0s50 22.4 50 50z" fill="#032d60"/><path d="M54.5 23.2c-7.64 0-15 3.2-20 8.94-6.26.53-11.26 5.7-11.26 12.13 0 3.93 1.8 7.34 4.7 9.63-5.4 2.87-9.14 8.4-9.14 14.84v5.53c0 1.23 1.06 2.13 2.13 2.13h36.43c8.25-.9 13.07-4.84 14.82-6.6 5.56-5 9.12-12.13 9.12-20 0-14.63-11.94-26.6-26.8-26.6zM40.73 72.3h-17.5v-3.4c0-6.76 5.56-12.3 12.2-12.3.67 0 1.55 0 2.3.17.7.16 1.44.37 2.12.7 2 .74 3.57 1.96 5 3.56.57.74 1.07 1.43 1.44 2.34.56 1.06.88 2.12 1.06 3.4.2.7.2 1.44.2 2.13v3.4h-6.82zm-13-27.87c0-3.2 1.94-6.07 4.8-7.13.7-.37 1.45-.53 2.14-.53h.93c.5 0 .9 0 1.4.16 3.6.74 6.43 3.93 6.43 7.7 0 1.6-.5 3.04-1.25 4.1-.5.9-1.25 1.6-2.13 2.3-.7.58-1.62.9-2.5 1.1-.56.17-1.25.17-1.94.17-4.3-.16-7.86-3.56-7.86-7.87zM54.5 27.67c12.36 0 22.36 10 22.36 22.3 0 5.74-2.18 10.74-5.56 14.67L59.68 53c-.5-.54-1.07-.86-1.75-1.07V48.9h8.93c.5 0 1.07-.16 1.57-.7.37-.37.75-1.06.75-1.6v-8.93c0-1.28-1.07-2.13-2.2-2.13H55.94c-1.25 0-2.13 1.07-2.13 2.13v14.1c-.56.37-1.25.7-1.8 1.06l-4.26 4.3c-1.25-1.27-2.7-2.33-4.3-3.23 2.86-2.3 4.67-5.7 4.67-9.63 0-5.16-3.24-9.63-7.86-11.44 3.75-3.2 8.94-5.16 14.25-5.16zm3.43 14.63v-2.34h6.56v4.47h-6.76V42.3zm-3.44 30h-2.14v-3.4c0-3.03-.68-5.7-2.12-8.03l4.62-4.63c.38-.38.57-.38.75-.38.14 0 .5 0 .7.38l11.63 11.6c-2 1.75-6.44 4.46-13.44 4.46z" fill="#fff"/></g></svg>