<svg xmlns="http://www.w3.org/2000/svg" xmlns:lucid="lucid" width="100" height="100"><g lucid:page-tab-id="0_0" stroke="#000" stroke-opacity="0" stroke-width="2.34"><path d="M100 50c0 27.6-22.4 50-50 50S0 77.6 0 50 22.4 0 50 0s50 22.4 50 50z" fill="#481a54"/><path d="M85.6 50.05c0-4.48-2.65-8.28-6.45-9.98-2.78-8.35-9.03-15.2-16.97-18.74-1.98-3.12-5.37-5.23-9.3-5.23-2.72 0-5.17.95-7.07 2.58C30 20.45 17.7 33.82 17.7 50.05S30 79.65 45.8 81.42c2.05 1.7 4.36 2.58 7.07 2.58 3.94 0 7.33-2.1 9.3-5.23 7.95-3.53 14.2-10.4 16.98-18.74 4-1.83 6.45-5.57 6.45-9.98zM63.74 72.4c-.34-5.7-5.1-10.26-10.87-10.26-2.65 0-5.1.95-6.92 2.5l-3.4-3.05c-1.42-1.23-3-1.9-4.9-1.9H24.43c-.88-2.25-1.5-4.7-1.76-7.27h41.42c1 4.55 4.82 8 9.5 8.42-2.17 4.95-5.3 8.62-9.84 11.54zm9.84-33.2c-4.68.46-8.5 3.92-9.5 8.4H22.66c.27-2.5.8-4.95 1.7-7.26h13.3c1.84 0 3.53-.68 4.9-1.9l3.4-3.06c1.82 1.57 4.26 2.52 6.9 2.52 5.78 0 10.54-4.55 10.88-10.26 4.27 2.8 7.74 6.8 9.84 11.55zM58.92 26.95c0 3.33-2.72 6.05-6.05 6.05-3.32 0-6.04-2.7-6.04-6.04 0-3.32 2.72-6.04 6.04-6.04 3.33 0 6.05 2.72 6.05 6.04zm-16.57-2.7c-.27.87-.4 1.82-.4 2.7 0 1.63.4 3.2 1 4.55l-3.66 3.34c-.42.4-1.03.6-1.64.6H26.93c3.74-5.7 8.76-9.43 15.42-11.2zm0 51.52c-6.45-1.7-11.9-5.77-15.42-11.2h10.73c.6 0 1.22.2 1.63.6l3.66 3.34c-.6 1.36-1.02 2.92-1.02 4.55 0 .95.14 1.83.4 2.7zm4.48-2.7c0-3.34 2.72-6.05 6.04-6.05 3.33 0 6.05 2.7 6.05 6.04 0 3.33-2.72 6.04-6.05 6.04-3.32 0-6.04-2.7-6.04-6.03zm27.84-17c-3.33 0-6.05-2.7-6.05-6.03S71.34 44 74.67 44c3.4 0 6.1 2.72 6.1 6.05 0 3.33-2.7 6.04-6.1 6.04z" fill="#fff"/></g></svg>