<svg xmlns="http://www.w3.org/2000/svg" xmlns:lucid="lucid" width="100" height="100"><g lucid:page-tab-id="0_0" stroke="#000" stroke-opacity="0" stroke-width="0"><path d="M100 50c0 27.6-22.4 50-50 50S0 77.6 0 50 22.4 0 50 0s50 22.4 50 50z" fill="#032d60"/><path d="M62.6 42.85L59.1 29.8l-4.02 1.08.53 2c.32 1.12-.34 2.24-1.45 2.55l-2.02.54c-1.1.3-2.27-.37-2.58-1.46l-.53-2.02L45 33.56l3.5 13.05L62.1 43l.5-.15zm-2.95 5.1l.53 2c.32 1.1-.35 2.26-1.46 2.56l-2.02.52-.42.1c-.34 0-.65-.06-.96-.2-.2-.07-.35-.17-.5-.3-.32-.28-.56-.62-.65-1.06l-.56-2-.08.04-3.92 1.05 3.5 13.05 4.93-1.32 9.17-2.44-3.5-13.05-4.03 1.07z" fill-opacity="0"/><path d="M75.75 59.7c-.3-1.1-1.45-1.75-2.54-1.45l-2 .55-4.03-15.06-4.6-17.1c-.32-1.1-1.45-1.8-2.54-1.5l-18.15 4.88c-.5.15-.98.5-1.24.94-.3.5-.36 1.05-.2 1.6L45 49.6 49 64.7l-.3.06c-1.2-1.5-2.75-2.34-4.6-2.43l-9.06-33.75c-.2-.75-.83-1.34-1.6-1.5l-6.83-1.38c-1.13-.2-2.27.5-2.48 1.64-.26 1.14.52 2.23 1.6 2.43l5.6 1.14 8.73 32.57c-2.18 1.54-3.1 4.12-2.38 6.7.4 1.6 1.44 2.94 2.9 3.78 1.5.85 3.04 1.05 4.75.6 2.7-.7 4.5-2.98 4.6-5.8l2.17-.56 6.4-1.75 15.73-4.22c1.14-.3 1.76-1.45 1.5-2.54zm-30.6 10.33c-.68.64-1.6.8-2.44.3-.3-.2-.56-.45-.7-.75-.43-.7-.43-1.44 0-2.1.35-.63 1.02-1.03 1.75-1.03.93 0 1.8.6 2 1.54.22.74-.04 1.53-.56 2.03zm3.35-23.5l-3.46-13.08 3.98-1.04.57 2c.3 1.14 1.44 1.78 2.52 1.48l2.02-.54c1.13-.3 1.8-1.44 1.5-2.54l-.57-2.03 4.03-1.05 3.52 13.07-.52.1-13.6 3.62zm5.12 2.97l.52 2c.1.4.36.8.67 1.03.16.15.32.25.53.3.4.25.88.25 1.34.15l2.02-.55c1.12-.3 1.8-1.44 1.5-2.58l-.58-2 4.03-1.08 3.52 13.07-9.15 2.44-4.92 1.34-3.5-13.07" fill="#fff"/></g></svg>