<svg xmlns="http://www.w3.org/2000/svg" xmlns:lucid="lucid" width="100" height="100"><g lucid:page-tab-id="0_0" stroke="#000" stroke-opacity="0" stroke-width="2.34"><path d="M100 50c0 27.6-22.4 50-50 50S0 77.6 0 50 22.4 0 50 0s50 22.4 50 50z" fill="#481a54"/><path d="M69.43 42.12l-4.62.22-12.34-18.96c-.33-.5-.87-.88-1.58-.88h-6.8c-1.03 0-1.96.88-1.96 1.97v.33l4.3 18.25-5 .16-5.55-8.2c-.33-.55-.88-.88-1.58-.88h-7.9c-1.03 0-1.96.87-1.96 1.97 0 .16 0 .32.22.48l2.5 7.35c-3.2.7-5 3.94-4.3 7.12.55 2.14 2.13 3.78 4.3 4.28l-2.5 7.34c-.38 1.04.16 2.14 1.25 2.52.17 0 .34.15.5.15h7.9c.7 0 1.24-.38 1.57-.93l5.54-8.16 5.02.16L42.12 75c-.16 1.04.38 2.14 1.4 2.3h7.2c.7 0 1.25-.38 1.57-.88l12.3-18.96 4.67.22c4.24 0 7.83-3.56 7.83-7.9 0-4.26-3.2-7.44-7.67-7.66zm-22.85-15.5h3.37l10.4 16.05-9.85.54-3.92-16.6zM33.36 38.2l3.6 5.32-5.72.22L29.28 38l4.08.23zm0 23.57h-4.08l1.96-5.76 5.7.38-3.58 5.37zm16.6 11.55h-3.38l3.92-16.6 9.84.55-10.4 16.05zM69.58 53.9l-41.03-1.97c-1.08 0-1.95-.88-1.95-1.92 0-1.1.87-1.96 1.95-1.96l40.86-1.98c2.12.17 3.75 1.98 3.75 4.1 0 2-1.63 3.58-3.6 3.74z" fill="#fff"/></g></svg>