<svg xmlns="http://www.w3.org/2000/svg" xmlns:lucid="lucid" width="100" height="100"><g lucid:page-tab-id="0_0" stroke="#000" stroke-opacity="0" stroke-width="2.34"><path d="M100 50c0 27.6-22.4 50-50 50S0 77.6 0 50 22.4 0 50 0s50 22.4 50 50z" fill="#032d60"/><path d="M80.4 48.76c0-.85-.74-1.76-1.6-2.12l-12.87-5.02L79 35.4c.85-.37 1.4-1.28 1.4-2.3 0-.92-.74-1.83-1.6-2.2L50.93 20.03c-.56-.18-1.23-.18-1.78 0l-28.08 10.9c-.92.35-1.4 1.26-1.6 2.17 0 .84.56 1.74 1.42 2.3l13.06 6.22-13.06 5.02c-.86.36-1.4 1.27-1.6 2.12 0 .9.56 1.8 1.4 2.36l13.07 6.23-13.06 5.02c-.86.36-1.42 1.27-1.6 2.12 0 .9.55 1.8 1.4 2.35L48.6 80.22c.74.18 1.1.18 1.42.18.36 0 .73 0 1.1-.18L79 66.85c.85-.36 1.4-1.27 1.4-2.36 0-.86-.74-1.77-1.6-2.13l-12.87-5.02L79 51.12c.85-.55 1.4-1.45 1.4-2.36zm-52.17 16.1l11.96-4.67 8.75 4.3c.37.17.74.17 1.05.17.36 0 .73 0 1.1-.18l8.77-4.3 11.95 4.65L50 75.2 28.23 64.85zm28.57-8.6l-3 1.45-3.8 1.83-3.74-1.82-3-1.44-3.07-1.4-12.15-5.92L40 44.34l8.77 4.3c.37.12.73.12 1.04.12.38 0 .75 0 1.12-.12l8.76-4.3 11.95 4.6-12.13 5.93-2.7 1.4zM50 24.68l21.82 8.6-12.14 5.86-3.06 1.45-3 1.38-3.8 1.82-3.75-1.82-3-1.4L40 39.15l-12.13-5.87L50 24.67z" fill="#fff"/></g></svg>