<svg xmlns="http://www.w3.org/2000/svg" xmlns:lucid="lucid" width="100" height="100"><g lucid:page-tab-id="0_0" stroke="#000" stroke-opacity="0" stroke-width="2.34"><path d="M100 50c0 27.6-22.4 50-50 50S0 77.6 0 50 22.4 0 50 0s50 22.4 50 50z" fill="#032d60"/><path d="M47 40.7v-3.43c1.76-.68 3.05-2.5 3.05-4.62V30.7c0-2.9-2.32-5.2-5.18-5.2H32.55c-2.86 0-5.23 2.35-5.23 5.2v1.95c0 2.1 1.28 3.94 3.06 4.62v3.43c-3.2 1.94-5.18 4.97-5.18 8.34v23.4c0 3.38 2.66 6.06 6.06 6.06h14.3c3.4 0 6.06-2.68 6.06-6.05V48.87c.35-3.2-1.43-6.23-4.63-8.23zm1.07 31.75c0 1.08-.88 1.94-1.97 1.94H31.8c-1.08 0-1.97-.87-1.97-1.95v-5.2h18.4v5.2zM29.7 52.98h18.37v10.16H29.7V52.98zm0-4.1c0-3.04 2.85-4.64 3.88-5.33.74-.4 1.1-1.08 1.1-1.82v-4.1h8.22v4.1c0 .74.34 1.43 1.03 1.82 1.3.52 3.95 2.3 3.95 5.32h-18.2zm16.2-18.4v2c0 .5-.54 1.08-1.03 1.08H32.55c-.55 0-1.1-.57-1.1-1.08v-2c0-.5.55-1.03 1.1-1.03h12.32c.7.17 1.04.52 1.04 1.03zm26.63 32.66v-18.4c0-3-2.12-5.47-5.18-6.04V23.34c0-1.03-.9-1.94-1.97-1.94-1.1 0-1.97.9-1.97 1.94V38.7c-2.85.57-5.17 3.03-5.17 6.05v18.4c-1.03 0-1.97.9-1.97 2 0 1.02.94 1.93 1.97 1.93h5.03v7.14H61.3c-1.1 0-1.98.9-1.98 1.94 0 1.08.88 2 1.97 2h8.22c1.04 0 1.92-.92 1.92-2 0-1.03-.88-1.94-1.92-1.94h-1.97v-7.14h4.98c1.08 0 1.97-.9 1.97-1.94 0-1.1-.9-2-1.97-2zm-7.15 0h-3v-18.4c0-1 .88-1.93 1.9-1.93h2.18c1.1 0 1.98.93 1.98 1.95v18.4h-3.06z" fill="#fff"/></g></svg>