<svg xmlns="http://www.w3.org/2000/svg" xmlns:lucid="lucid" width="100" height="100"><g lucid:page-tab-id="0_0" stroke="#000" stroke-opacity="0" stroke-width="2.34"><path d="M100 50c0 27.6-22.4 50-50 50S0 77.6 0 50 22.4 0 50 0s50 22.4 50 50z" fill="#032d60"/><path d="M76.1 54.1c0-3.6-3-6.6-6.6-6.6-1.8 0-3.4.7-4.65 1.96l-.36.32c-2-2.67-4.65-4.64-7.53-5.84 3.25-2.35 5.36-6.1 5.36-10.37 0-6.94-5.7-12.67-12.64-12.67-7 0-12.7 5.73-12.7 12.67 0 4.26 2.16 8.02 5.35 10.37-1.26.5-2.7 1.2-3.73 2.13-3.96 3-6.62 7.48-7.34 12.3L31.1 75.5h37.12V64.8l5.9-5.9c1.26-1.42 1.98-3 1.98-4.8zM40.9 33.57c0-4.8 3.97-8.74 8.8-8.74 4.8 0 8.7 3.93 8.7 8.74 0 4.8-3.9 8.73-8.53 8.73h-.37c-4.8 0-8.6-3.93-8.6-8.73zm23.4 38H35V60.32c.2-8.02 7-14.4 15.04-14.1 2.3 0 4.46.72 6.58 1.82-3.38 1.42-5 5.18-3.56 8.57.36.88.9 1.6 1.44 2.14l8.37 8.35c.36.37.9.54 1.44.54v3.93zm7.17-15.67l-7.16 6.93-6.96-6.93c-1.04-1.1-1.04-2.68 0-3.77 1.07-1.1 2.7-1.1 3.78 0l1.93 1.97c.72.7 1.98.7 2.7 0l1.94-1.97c1.06-1.1 2.68-1.1 3.77 0 .9 1.1.9 2.84 0 3.77z" fill="#fff"/></g></svg>