<svg xmlns="http://www.w3.org/2000/svg" xmlns:lucid="lucid" width="100" height="100"><g lucid:page-tab-id="0_0" stroke="#000" stroke-opacity="0" stroke-width="2.34"><path d="M100 50c0 27.6-22.4 50-50 50S0 77.6 0 50 22.4 0 50 0s50 22.4 50 50z" fill="#032d60"/><path d="M73.75 39.6h-3.03V29.25c0-1.1-.93-2.16-2.15-2.16H23.05c-1.1 0-2.15.87-2.15 2.16v33.18c0 1.1.87 2.16 2.15 2.16h20.72v3.03H38.6c-1.1 0-2.16.92-2.16 2.16 0 1.04.87 2.14 2.15 2.14h14.43c1.1 0 2.15-.9 2.15-2.15 0-1.07-.87-2.17-2.15-2.17h-5.18V64.6H58.2v3.03c0 2.9 2.33 5.37 5.36 5.37h10.2c2.84 0 5.34-2.34 5.34-5.37V44.96c0-3.03-2.5-5.37-5.35-5.37zm1.22 27.85c0 .73-.53 1.28-1.22 1.28h-10.2c-.7 0-1.2-.55-1.2-1.28v-22.5c0-.68.5-1.23 1.2-1.23h10.37c.7 0 1.28.55 1.28 1.24v22.5zm-47.84-7.12h-2.1V31.2H66.6v8.4h-3.04c-2.85 0-5.35 2.33-5.35 5.36V59.4c-.7-1.6-1.62-3.02-2.85-4.25-.87-.92-1.97-1.8-3.2-2.35 1.75-1.8 3.03-4.08 3.03-6.8 0-5.13-4.13-9.26-9.3-9.26-5.2 0-9.27 4.13-9.27 9.27 0 2.72 1.06 5.2 3.04 6.8-3.03 1.6-5.35 4.5-6.4 7.72h-6.1zM40.7 45.87c0-2.9 2.32-5.18 5.17-5.18 2.9 0 5.18 2.28 5.18 5.17 0 2.85-2.27 5.14-5.18 5.14-2.85 0-5.18-2.28-5.18-5.13zm-3.2 14.46c1.62-3.03 4.64-5.18 8.37-5.18 2.5 0 4.83.87 6.63 2.66.7.74 1.23 1.6 1.8 2.53H37.5z" fill="#fff"/><path d="M68.76 62.5c-1.06 0-2.13.9-2.13 2.17 0 1.06.9 2.13 2.13 2.13 1.07 0 2.14-.9 2.14-2.13 0-.36-.17-.7-.34-1.07-.4-.74-1.07-1.1-1.8-1.1zm-34.33-28c-3.37 0-6.23 2.84-6.23 6.23v2.17c0 1.06.9 2.13 2.13 2.13 1.07 0 2.14-.9 2.14-2.13v-2.17c0-1.06.9-2.13 2.18-2.13 1.06 0 2.13-.9 2.13-2.13-.38-1.07-1.24-1.97-2.35-1.97z" fill="#fff"/></g></svg>