<svg xmlns="http://www.w3.org/2000/svg" xmlns:lucid="lucid" width="100" height="100"><g lucid:page-tab-id="0_0" stroke="#000" stroke-opacity="0" stroke-width="0"><path d="M50 0C22.4 0 0 22.4 0 50s22.4 50 50 50 50-22.4 50-50S77.6 0 50 0z" fill="#032d60"/><path d="M67.9 32.1c-.96 0-1.93.16-2.78.44-5.9-6.23-14.16-8.5-22.4-6.1-2.15-2.8-5.1-4.24-8.6-4.24-6.04 0-10.92 4.9-10.92 10.9 0 3.56 1.66 6.67 4.3 8.67-.55 1.9-.87 3.9-.87 6 0 7.96 4.18 14.96 10.5 18.9.43 6.18 5.58 11.13 11.85 11.13 6.33 0 11.58-5 11.9-11.3 5.74-3.66 9.65-9.94 10.18-17.1 3.54-1.35 5.74-4.57 5.74-8.35 0-4.9-4.02-8.9-8.95-8.9zM56.43 68.68c-1.12 3-4.02 5.12-7.45 5.12-4.13 0-7.56-3.17-7.88-7.3 0-.2-.05-.43-.05-.6 0-.55.05-1.05.16-1.56.33-1.83 1.4-3.5 2.8-4.67.53-.38 1.12-.72 1.7-1.05.6-.22 1.24-.45 1.94-.56.43-.05.86-.1 1.34-.1 1.07 0 2.15.2 3.1.6.6.28 1.2.6 1.73 1 1.56 1.23 2.52 2.73 2.95 4.67.1.56.16 1.06.16 1.67v.5c-.04.78-.25 1.6-.52 2.34zm-22.3-42.53c1.77 0 3.38.66 4.6 1.83.55.45.98.95 1.35 1.56.33.56.6 1.17.75 1.83.1.45.17.84.22 1.28v.45c0 .55-.05 1.05-.16 1.55-.17.73-.4 1.28-.76 1.9-.75 1.27-1.72 2.16-3.06 2.83-.6.28-1.23.5-1.93.56-.96.16-1.77.1-2.73-.1-.64-.18-1.23-.46-1.82-.8-.6-.33-1.13-.77-1.6-1.27-1.2-1.34-1.83-2.84-1.83-4.67 0-3.84 3.1-6.95 6.96-6.95zm14.74 3.33c5 0 9.44 2 12.76 5.17-.7.73-1.3 1.5-1.7 2.4L45 33.6v-.5c0-1.06-.15-2.12-.4-3.12 1.38-.33 2.77-.5 4.27-.5zM61.1 46.83l-6.54 8.5c-2.74-1.44-5.58-1.77-8.58-1L40.4 42c1.6-1.17 2.9-2.73 3.7-4.57l14.85 3.5V41c0 2.22.8 4.22 2.1 5.78zm-30.02-3.28c.96.33 1.98.45 3.05.45.92 0 1.83-.12 2.68-.34l5.6 12.3c-2.32 1.55-3.87 3.55-4.73 6.22-4.3-3.34-7.07-8.57-7.07-14.46 0-1.4.16-2.78.48-4.17zM60.28 62c-.53-1.6-1.44-3.05-2.56-4.27l6.54-8.5c.86.33 1.77.6 2.78.7-.58 4.9-3.1 9.2-6.75 12.08zm10.68-17.06c-.54.4-1.18.72-1.88.9-.37.1-.8.16-1.18.16-.32 0-.53 0-.8-.06-.1 0-.22-.05-.27-.05-.7-.18-1.34-.46-1.88-.9-.53-.4-.96-.9-1.34-1.5-.25-.5-.47-1.06-.57-1.62-.06-.28-.1-.55-.1-.83 0-.45.1-.84.15-1.22.16-.67.48-1.28.9-1.84l.22-.23c.43-.5.97-.9 1.56-1.23.64-.27 1.34-.44 2.03-.5h.1c2.74 0 4.93 2.28 4.93 5 0 1.57-.75 2.96-1.87 3.9z" fill="#fff"/></g></svg>