<svg xmlns="http://www.w3.org/2000/svg" xmlns:lucid="lucid" width="100" height="100"><g lucid:page-tab-id="0_0" stroke="#000" stroke-opacity="0" stroke-width="2.34"><path d="M100 50c0 27.6-22.4 50-50 50S0 77.6 0 50 22.4 0 50 0s50 22.4 50 50z" fill="#032d60"/><path d="M80.7 46.62c0-.5-.2-1.08-.74-1.6-.37-.34-1.05-.5-1.6-.5H75.9c-.56 0-1.1 0-1.6.16.5-3.77.3-7.7-.75-11.42l-.73-2.5c-.2-.58-.5-1.1-1.24-1.44-.55-.34-1.23-.34-1.78 0l-2.16 1.1c-2.65 1.2-5.36 2.67-7.45 4.44-1.6-3.77-3.77-7.14-6.48-10.4l-2.16-2.27c-.86-.93-2.46-.93-3.2 0l-2.1 2.27c-2.9 3.25-5.05 6.8-6.46 10.56-2.16-1.77-4.62-3.42-7.52-4.62L30 29.5c-.55-.18-1.23-.18-1.78 0-.56.34-1.1.68-1.23 1.42l-.75 2.5c-1.05 3.73-1.42 7.67-1.05 11.43-.37 0-.93 0-1.3-.17h-2.46c-.55 0-1.3.17-1.6.52-.37.34-.74.9-.74 1.6v1.08c.18 16.96 13.92 30.72 30.86 30.72 8.26 0 15.9-3.2 21.8-9.08 5.92-5.94 9.12-13.6 8.94-21.8v-1.1zm-56.98 2.35c.74 0 1.6.17 2.34.17.93.17 1.6.17 2.53.34.85.17 1.77.57 2.45.74 2.16.7 4.3 1.77 6.28 3.2l2.65 2.17c1.23 1.02 2.34 2.44 3.2 3.7.75 1.1 1.42 2.17 1.98 3.26.55 1.02 1.1 2.1 1.4 3.36 0 .18.2.35.2.35.18.9.55 1.77.74 2.68.18.74.37 1.6.37 2.5 0 .7.18 1.6.18 2.53-.37 0-.74-.18-1.1-.18-12.7-1.65-22.68-12.16-23.23-25v.17zm6.78-14.45c3.08 1.2 5.54 3.03 7.7 4.97-.68 2.84-1.05 5.7-1.24 8.55-2.15-1.25-4.68-2.1-7.14-2.85-.56-3.37-.37-6.97.68-10.68zm12.7 3.88c1.4-3.88 3.37-7.65 6.45-11.08l.5-.5.55.5c2.83 3.26 5 6.8 6.22 10.74.37.9.56 1.6.74 2.5l.56 2.7c.5 2.68.5 5.36.37 8.05-2.17 1.78-4.14 3.9-5.74 6.4-.74 1.26-1.42 2.34-2.16 3.77-.18.5-.55 1.1-.74 1.6-.18-.17-.18-.5-.3-.74-.38-.86-.75-1.77-1.3-2.46l-.5-1.08c-.73-1.1-1.47-2.18-2.33-3.2-1.24-1.67-2.7-3.1-4.13-4.3-.2-2.33 0-4.85.37-7.2.18-1.02.37-1.93.55-3 .37-.87.5-1.78.87-2.7zm26.23-3.88c1.1 3.54 1.1 7.3.37 11.02-2.34.57-4.62 1.66-6.78 2.68 0-3.02-.55-5.88-1.23-8.73 2.08-2.13 4.8-3.78 7.63-4.98zm-16.2 39.46c-.37 0-.74.17-1.1.17 0-.92 0-1.6.17-2.52 0-.68.2-1.42.37-2.1l.56-2.52c0-.16 0-.4.12-.4.18-.85.55-1.6.92-2.27.74-1.6 1.6-3.2 2.53-4.7.86-1.4 2.1-2.6 3.2-3.7.87-.74 1.6-1.6 2.65-2.17 1.6-1.25 3.4-2.1 5.36-2.85.93-.34 1.8-.68 2.72-.85.86-.23 1.6-.4 2.47-.57.9-.17 1.96-.17 2.88-.34h.12c-.3 6.62-3.02 12.67-7.64 17.47-4.12 4.12-9.48 6.63-15.33 7.38z" fill="#fff"/></g></svg>