<svg xmlns="http://www.w3.org/2000/svg" xmlns:lucid="lucid" width="100" height="100"><g lucid:page-tab-id="0_0" stroke="#000" stroke-opacity="0" stroke-width="2.34"><path d="M100 50c0 27.6-22.4 50-50 50S0 77.6 0 50 22.4 0 50 0s50 22.4 50 50z" fill="#032d60"/><path d="M72.44 74.4H27.46c-1.08 0-1.96-.88-1.96-1.96V27.46c0-1.08.88-1.96 1.96-1.96h44.98c1.08 0 1.96.88 1.96 1.96v44.98c0 1.08-.88 1.96-1.96 1.96zM29.4 70.5h41.1V29.4H29.4v41.1z" fill="#fff"/><path d="M64.68 39.33H60.2l-4.83-5c-.7-.7-1.94-.7-2.68 0l-5.2 5h-7.48l-3.4-3.37c-.73-.72-1.98-.72-2.68 0-.7.7-.7 1.96 0 2.68l2.32 2.32v.36l-2.32 2.5c-.7.7-.7 1.95 0 2.67.37.35.9.5 1.44.5.5 0 1.04-.15 1.4-.5l3.4-3.4h7.53l5 5c.36.35.9.55 1.43.55.54 0 1.08-.2 1.45-.56l5-5h2.5v15.55h-6.8v-.55c0-1.08-.9-1.97-1.98-1.97s-1.95.9-1.95 1.97v.55H45.2c-.9-2.32-3.03-3.95-5.55-3.95-3.23 0-5.88 2.68-5.88 5.9s2.65 5.9 5.88 5.9c2.52 0 4.64-1.6 5.54-3.92h7.15v.52c0 1.08.87 1.96 1.95 1.96 1.07 0 1.98-.88 1.98-1.96v-.52h8.74c1.07 0 1.98-.92 1.98-1.97V41.33c-.37-1.08-1.24-2-2.32-2zm-10.72-.9l2.66 2.7-2.66 2.68-2.7-2.67 2.7-2.7zM37.33 60.8c0-1.08.9-1.96 1.98-1.96 1.06 0 1.96.88 1.96 1.96s-.9 1.96-1.95 1.96c-1.06 0-1.97-.88-1.97-1.96z" fill="#fff"/></g></svg>