<svg xmlns="http://www.w3.org/2000/svg" xmlns:lucid="lucid" width="100" height="100"><g lucid:page-tab-id="0_0" stroke="#000" stroke-opacity="0" stroke-width="2.34"><path d="M100 50c0 27.6-22.4 50-50 50S0 77.6 0 50 22.4 0 50 0s50 22.4 50 50z" fill="#032d60"/><path d="M68.63 38.06h-5.88v-5.9c0-6.93-5.7-12.66-12.7-12.66-7 0-12.7 5.73-12.7 12.67v5.9h-5.88c-1.07 0-1.97.87-1.97 1.96v32.1c0 1.1.9 1.97 1.97 1.97h37.16c1.07 0 1.97-.87 1.97-1.97v-32.1c0-1.1-.9-1.97-1.97-1.97zm-27.33-5.9c0-4.8 3.94-8.73 8.75-8.73 4.8 0 8.75 3.93 8.75 8.74v5.9H41.3v-5.9zm25.35 38.17h-33.2V42h33.2v28.33z" fill="#fff"/><path d="M56.3 49.26L47 58.54l-3.58-3.58c-.72-.7-1.97-.7-2.67 0-.73.72-.73 1.98 0 2.7l4.8 4.8c.38.37.9.54 1.46.54.53 0 1.08-.17 1.43-.53l10.72-10.7c.73-.72.73-1.97 0-2.68-.87-.56-1.95-.56-2.84.16z" fill="#fff"/></g></svg>