<svg xmlns="http://www.w3.org/2000/svg" xmlns:lucid="lucid" width="100" height="100"><g lucid:page-tab-id="0_0" stroke="#000" stroke-opacity="0"><path d="M100 50c0 27.6-22.4 50-50 50S0 77.6 0 50 22.4 0 50 0s50 22.4 50 50z" fill="#032d60"/><path d="M73.34 20.6H26.66c-3.3 0-6.06 2.76-6.06 6.06v46.68c0 3.3 2.76 6.06 6.06 6.06h46.68c3.3 0 6.06-2.76 6.06-6.06V26.66c0-3.3-2.76-6.06-6.06-6.06zM28.7 26.66h42.6c1.04 0 2.04.88 2.04 2.05v3.84H26.66V28.7c0-1.16.88-2.04 2.05-2.04zm42.6 46.68H28.7c-1.04 0-2.04-.88-2.04-2.05V38.4h46.68V71.3c0 1.16-.88 2.04-2.05 2.04z" fill="#fff"/><path d="M46.8 63.1l-6.47-6.5 6.46-6.48c.4-.4.4-.98 0-1.38L44.04 46c-.4-.4-.98-.4-1.37 0l-7.14 7.17-1.48 1.47-1.27 1.27c-.2.2-.3.5-.3.7 0 .3.1.5.3.7l9.98 10.02c.4.37.98.37 1.37 0l2.75-2.76c.3-.5.3-1.08-.1-1.47zM67.3 55.8l-1.26-1.26-1.47-1.48-7.16-7.15c-.4-.4-.97-.4-1.36 0l-2.75 2.75c-.4.4-.4.98 0 1.38l6.46 6.47-6.47 6.47c-.4.4-.4 1 0 1.38l2.74 2.75c.4.4.97.4 1.37 0l10-10c.2-.2.3-.5.3-.7-.1-.1-.2-.4-.4-.6z" fill="#fff"/></g></svg>