<svg xmlns="http://www.w3.org/2000/svg" xmlns:lucid="lucid" width="100" height="100"><g lucid:page-tab-id="0_0" stroke="#000" stroke-opacity="0"><path d="M100 50c0 27.6-22.4 50-50 50S0 77.6 0 50 22.4 0 50 0s50 22.4 50 50z" fill="#032d60"/><path d="M78.7 33.07c-.3-.7-1.12-.83-1.77-.36l-9.88 9.95c-.76.7-1.94.7-2.7 0l-7-7c-.7-.7-.7-1.94 0-2.7l10.05-9.88c.48-.53.24-1.35-.35-1.7-1.7-.54-3.58-.77-5.3-.77-10.4 0-18.7 8.94-17.45 19.58.23 1.7.58 3.18 1.23 4.65L22.6 67.63c-2.65 2.7-2.65 7.12 0 9.7 1.35 1.3 3.17 2.07 4.94 2.07 1.7 0 3.53-.76 4.88-2.06l22.75-22.8c1.47.58 3.06 1 4.65 1.22C70.46 57 79.4 48.66 79.4 38.24c0-1.82-.24-3.53-.7-5.17z" fill="#fff"/></g></svg>