<svg xmlns="http://www.w3.org/2000/svg" xmlns:lucid="lucid" width="100" height="100"><g lucid:page-tab-id="0_0" stroke="#000" stroke-opacity="0" stroke-width="2.34"><path d="M100 50c0 27.6-22.4 50-50 50S0 77.6 0 50 22.4 0 50 0s50 22.4 50 50z" fill="#032d60"/><path d="M73.33 75.3H26.77c-1.06 0-1.97-.9-1.97-1.98V26.58c0-1.07.9-1.98 1.97-1.98h46.56c1.06 0 1.97.9 1.97 1.98v46.6c0 1.2-.9 2.12-1.97 2.12zm-44.6-4.1h42.63V28.7H28.74v42.5z" fill="#fff"/><path d="M50.03 61.07c-1.6 0-3.03-1.43-3.03-3.04 0-1.6 1.43-3.03 3.03-3.03 1.6 0 3.04 1.43 3.04 3.03 0 1.8-1.25 3.04-3.04 3.04zm0-3.93c-.53 0-1.06.54-1.06 1.07 0 .55.53 1.08 1.06 1.08.54 0 1.07-.53 1.07-1.07 0-.52-.35-1.06-1.07-1.06zM57.13 54.06c-.52 0-1.07-.18-1.42-.54-1.6-1.6-3.55-2.5-5.7-2.5-2.15 0-4.1.9-5.7 2.5-.72.72-2.14.72-2.87 0-.7-.7-.7-2.14 0-2.85 2.33-2.32 5.37-3.57 8.57-3.57s6.24 1.25 8.57 3.57c.7.7.7 2.14 0 2.85-.36.36-.9.54-1.44.54zM61.33 46.9c-.53 0-1.08-.17-1.42-.52-1.6-1.6-5.2-3.58-9.83-3.58-4.65 0-8.07 1.8-9.68 3.4-.72.7-2.14.7-2.87 0-.7-.72-.7-2.15 0-2.86 2.34-2.32 6.8-4.64 12.54-4.64 5.9 0 10.36 2.32 12.7 4.64.7.7.7 2.14 0 2.86-.36.53-.9.7-1.44.7z" fill="#fff"/></g></svg>