<svg xmlns="http://www.w3.org/2000/svg" xmlns:lucid="lucid" width="100" height="100"><g lucid:page-tab-id="0_0" stroke="#000" stroke-opacity="0"><path d="M100 50c0 27.6-22.4 50-50 50S0 77.6 0 50 22.4 0 50 0s50 22.4 50 50z" fill="#032d60"/><path d="M72.05 43.65c-3.1 0-5.82 2.1-6.52 5h-4.7C60.05 43.26 55.4 39 49.7 39c-5.7 0-10.36 4.16-11.12 9.66h-4.7c-.83-2.9-3.44-5-6.53-5-3.67 0-6.75 2.98-6.75 6.73 0 3.67 2.97 6.78 6.75 6.78 3.1 0 5.82-2.14 6.52-5.05h4.7c.77 4.85 4.55 8.52 9.38 9.3v4.72c-2.9.77-5 3.4-5 6.5 0 3.64 2.97 6.75 6.75 6.75s6.75-3 6.75-6.75c0-3.1-2.1-5.8-5-6.5v-4.73c4.83-.7 8.6-4.44 9.37-9.3h4.7c.83 2.92 3.44 5.06 6.53 5.06 3.67 0 6.75-3 6.75-6.8 0-3.74-2.97-6.73-6.75-6.73zM53.2 72.53c0 1.86-1.58 3.4-3.38 3.4-1.87 0-3.38-1.54-3.38-3.4 0-1.82 1.5-3.4 3.38-3.4 1.8 0 3.37 1.58 3.37 3.4z" fill="#fff"/><path d="M33.68 36.42c-.78.78-.78 1.94 0 2.7.78.8 1.92.8 2.7 0 7.15-7.14 18.8-7.14 25.94 0 .4.4.87.6 1.33.6.5 0 .97-.2 1.36-.6.8-.76.8-1.92 0-2.7-8.6-8.7-22.7-8.7-31.32 0z" fill="#fff"/><path d="M28.7 32.92c11.4-11.3 29.7-11.3 41.1 0 .4.4.87.58 1.4.58.47 0 .95-.2 1.33-.58.76-.77.76-1.92 0-2.7-12.83-12.83-33.73-12.83-46.56 0-.76.78-.76 1.93 0 2.7.77.77 1.96.77 2.72 0z" fill="#fff"/></g></svg>