<svg xmlns="http://www.w3.org/2000/svg" xmlns:lucid="lucid" width="100" height="100"><g lucid:page-tab-id="0_0" stroke="#000" stroke-opacity="0" stroke-width="2.34"><path d="M100 50c0 27.6-22.4 50-50 50S0 77.6 0 50 22.4 0 50 0s50 22.4 50 50z" fill="#032d60"/><path d="M57.86 56.22c-1.07 0-1.96-.9-1.96-1.96v-5.9c0-1.07.9-1.96 1.96-1.96 1.08 0 1.97.9 1.97 1.96v5.9c0 1.07-.9 1.96-1.97 1.96zM37.36 43.62c-1.07 0-1.96-.9-1.96-1.96v-5.9c0-1.07.9-1.96 1.96-1.96 1.08 0 1.97.9 1.97 1.96v5.9c0 1.07-.9 1.96-1.97 1.96zM37.36 56.22c-1.07 0-1.96-.9-1.96-1.96v-5.9c0-1.07.9-1.96 1.96-1.96 1.08 0 1.97.9 1.97 1.96v5.9c0 1.07-.9 1.96-1.97 1.96z" fill="#fff"/><path d="M74.4 61.95V35.7c0-1.04-.88-1.93-1.96-1.93H52.8v-5.93c0-1.04-.9-1.94-1.97-1.94H27.46c-1.08 0-1.96.9-1.96 1.94v45.92c0 1.04.88 1.94 1.96 1.94h30.17c1.07 0 1.95-.9 1.95-1.94V63.9h10.7v9.86c0 1.04.9 1.94 1.97 1.94 1.07 0 1.95-.9 1.95-1.94l.2-11.8c0 .2 0 .2 0 0zm-45-31.97h19.47v3.94h-1.95c-1.08 0-1.96.9-1.96 2v36.04h-15.7V29.98zm21.43 7.72H70.3v22.46H57.62c-1.08 0-1.96.9-1.96 2v9.8h-6.8V37.7h1.96z" fill="#fff"/></g></svg>