<svg xmlns="http://www.w3.org/2000/svg" xmlns:lucid="lucid" width="100" height="100"><g lucid:page-tab-id="0_0" stroke="#000" stroke-opacity="0" stroke-width="2.34"><path d="M50 0C22.4 0 0 22.4 0 50s22.4 50 50 50 50-22.4 50-50S77.6 0 50 0z" fill="#032d60"/><path d="M74.7 30.87c-5.18-5.15-11.92-8.1-19.34-8.1l-26-.17c-1.44 0-2.47 1.04-2.47 2.4 0 1.38 1.02 2.42 2.45 2.42H39.7c-2.93 1.92-5.38 4.5-7.3 7.4H19.35c-1.37 0-2.46 1.04-2.46 2.4 0 1.38 1.1 2.42 2.46 2.42h10.48c-.8 2.4-1.5 4.82-1.7 7.46H16.88c-1.36 0-2.38.98-2.38 2.4 0 1.38 1.02 2.42 2.38 2.42h11.24c.2 2.57.9 5.15 1.7 7.4H19.34c-1.37 0-2.46 1.04-2.46 2.4 0 1.38 1.1 2.42 2.46 2.42H32.4c1.92 2.9 4.37 5.48 7.1 7.4H29.13c-1.36 0-2.38 1.04-2.38 2.4 0 1.38 1.02 2.42 2.38 2.42l26.02 1.04h.2c7.22 0 13.96-2.74 19.14-7.95 5.17-5.15 8.1-11.9 8.1-19.3 0-7.22-2.8-14.12-7.9-19.28zM55.16 72.4c-12.2 0-22.2-10.18-22.2-22.4 0-12.22 10-22.25 22.2-22.25h.2c6.06 0 11.58 2.4 15.66 6.58 4.16 4.27 6.6 9.8 6.4 15.83 0 6.03-2.38 11.57-6.53 15.68-4.17 4.33-9.68 6.57-15.74 6.57z" fill="#fff"/><path d="M66.53 39.87c-1.2-.7-2.75-.35-3.44.68L52.9 56.38l-6.03-5c-1.05-.84-2.6-.68-3.45.35-.85 1.03-.7 2.6.34 3.43l8.28 6.7c.5.36 1 .54 1.53.54h.36c.7-.18 1.36-.53 1.7-1.03L67.24 43.3c.84-1.2.52-2.75-.7-3.43z" fill="#fff"/></g></svg>