<svg xmlns="http://www.w3.org/2000/svg" xmlns:lucid="lucid" width="100" height="100"><g lucid:page-tab-id="0_0" stroke="#000" stroke-opacity="0"><path d="M100 50c0 27.6-22.4 50-50 50S0 77.6 0 50 22.4 0 50 0s50 22.4 50 50z" fill="#fff"/><path d="M50.02 20.6c-2.62 0-4.72 2.1-4.72 4.72 0 2.63 2.1 4.73 4.72 4.73 2.63 0 4.73-2.1 4.73-4.73 0-2.62-2.1-4.72-4.73-4.72z" fill="#01c3b3"/><path d="M64.72 24.6c-2.2-1.24-5.14-.5-6.4 1.7-1.26 2.2-.53 5.15 1.68 6.4 2.2 1.26 5.14.53 6.4-1.67 1.27-2.2.63-5.16-1.68-6.42z" fill="#e26e8c"/><path d="M75.45 35.34c-1.26-2.2-4.2-3.05-6.4-1.68-2.22 1.26-3.06 4.2-1.7 6.4 1.27 2.22 4.2 3.06 6.42 1.7 2.2-1.37 3.05-4.22 1.68-6.42z" fill="#fe9339"/><path d="M79.45 50.02c0-2.62-2.1-4.72-4.73-4.72-2.62 0-4.72 2.1-4.72 4.72 0 2.63 2.1 4.73 4.72 4.73 2.63 0 4.73-2.1 4.73-4.73z" fill="#70bf75"/><path d="M75.4 64.72c1.26-2.2.53-5.14-1.67-6.4-2.2-1.27-5.16-.53-6.42 1.68-1.24 2.2-.5 5.15 1.7 6.4 2.2 1.37 5.15.63 6.4-1.68z" fill="#0b5cab"/><path d="M64.67 75.45c2.2-1.26 3.05-4.2 1.68-6.4-1.26-2.22-4.2-3.06-6.4-1.7-2.22 1.27-3.06 4.2-1.7 6.42 1.27 2.2 4.1 3.05 6.42 1.68z" fill="#032d60"/><path d="M50.02 79.45c2.63 0 4.73-2.1 4.73-4.73 0-2.62-2.1-4.72-4.73-4.72-2.62 0-4.72 2.1-4.72 4.72 0 2.63 2.1 4.73 4.72 4.73z" fill="#8a8ed1"/><path d="M35.27 75.4c2.2 1.26 5.14.53 6.4-1.67 1.27-2.2.53-5.16-1.68-6.42-2.2-1.24-5.16-.5-6.4 1.7-1.4 2.2-.64 5.15 1.67 6.4z" fill="#730394"/><path d="M24.56 64.67c1.26 2.2 4.2 3.05 6.4 1.68 2.22-1.36 3.06-4.2 1.7-6.4-1.27-2.22-4.22-3.06-6.42-1.7-2.2 1.37-3.05 4.2-1.68 6.42z" fill="#0176d3"/><path d="M20.6 50.02c0 2.63 2.1 4.73 4.72 4.73 2.63 0 4.73-2.1 4.73-4.73 0-2.62-2.1-4.72-4.73-4.72-2.62 0-4.72 2.1-4.72 4.72z" fill="#ff784f"/><path d="M24.6 35.32c-1.24 2.2-.5 5.14 1.7 6.4 2.2 1.26 5.15.53 6.4-1.68 1.26-2.2.53-5.14-1.67-6.4-2.2-1.27-5.16-.63-6.42 1.68z" fill="#fcc003"/><path d="M35.34 24.56c-2.2 1.26-3.05 4.2-1.68 6.4 1.26 2.22 4.2 3.06 6.4 1.7 2.22-1.27 3.06-4.22 1.7-6.42-1.27-2.2-4.1-3.05-6.42-1.68z" fill="#0d9dda"/></g></svg>