<svg xmlns="http://www.w3.org/2000/svg" xmlns:lucid="lucid" width="100" height="100"><g lucid:page-tab-id="0_0" stroke="#000" stroke-opacity="0"><path d="M100 50c0 27.6-22.4 50-50 50S0 77.6 0 50 22.4 0 50 0s50 22.4 50 50z" fill="#fff"/><path d="M39.36 69.93c.23.1.48.22.7.46 1.4-1.07 3.36-1.07 4.76-.7.12-.37.25-.6.37-.83.2-.23.44-.23.7 0 .2.24.2.46 0 .7-.14.12-.26.46-.26.82 0 .34.25.68.47.8.36.24.83.46 1.4.46 1.05 0 1.88-.46 1.88-1.15 0-.23-.13-.57-.13-.7-.12-.23-.12-.6.13-.7.22-.1.57-.1.7.1.12.25.22.6.22.95 2.56-.7 4.43.47 5.6 1.75.1 0 .22-.12.35-.12 1.04-.24 1.4-.34 1.4-.34 1.5-.6 2.78-1.5 3.83-2.7 0-.1.57-2.08-.13-4.06-.22-.46-.45-1.64-1.04-3.85-.34.6-.82.94-1.26 1.06-.6.1-1.18-.13-1.4-.47-.12-.12-.12-.24-.25-.36-1.28-4.08-4.3-5.7-6.06-6.17.35.24.82.58 1.52 1.05.13.1.35.22.35.22.36.24.48.7.36 1.18 0 .12-.23.7-1.05 1.04-1.5.58-4.17-.12-8.13-2.23-.6 0-1.17.12-1.87.36-3.38.82-4.65 3.03-5.13 4.3-.1.24-.22.6-.22.94-.22.93-.35 2.1-.35 3.5.35.92.7 3.94 2.56 4.66zm16.2-3.15c-.13 1.04-.73 1.86-1.43 1.74-.7 0-1.14-.92-1.04-1.97.1-1.06.68-1.88 1.38-1.76.6 0 1.17.93 1.07 1.98zm-1.18-6.17c1.27.23 2.32.7 2.32.7 1.5 1.64-.1 3.15-.1 3.15-1.3-1.4-4.1-1.4-4.1-1.4h-.8c-.23-3.03 2.08-2.44 2.68-2.44zm-10.6 5.95c-.1 1.05-.7 1.87-1.4 1.75-.7 0-1.15-.94-1.05-2 .13-1.03.7-1.85 1.4-1.74.7.1 1.17.93 1.04 1.98zm-4.66-4.3c0-.94.34-1.88 2.68-2.1 3.27 0 2.67 2.32 2.67 2.32-1.84-.46-4.4 1.4-4.4 1.4-.95-.35-.95-1.63-.95-1.63z" fill="#fff"/><path d="M49.18 74.78c.35.12.7.47.93.93 0-.1.13-.22.13-.34.1-.34.35-.7.8-.8.36-.13.83.1 1.06.34 0 0 .1.12.22.35.12-.35.35-.7.82-.82.23-.12.47 0 .7.12.1-.24.35-.47.58-.58.22-.12.35-.12.58 0v-.35c-.58-.7-2.1-2.33-4.2-2.1-.34.82-1.74 1.28-3.37 1.28-1.16 0-1.97-.46-2.2-1.05 0 0-.82-.1-1.3-.1-.8-.13-1.74 0-2.32.45-.33.35-.7.82-.8 1.3.23-.13.47-.36.7-.36.35-.12.7-.12 1.05.1.22.25.46.6.35.94.1 0 .23-.1.34-.1.12-.02.36-.02.47.1.37.12.6.47.6.82v.12c.1.46.22 1.04.46 1.4.23-.48.34-.83.58-1.06.46-.8.7-.93 1.17-.93.46 0 .82.24.93.6l.36.68v-.21c.2-.35.8-.93 1.38-.7zM72.57 55.17c-.6 0-1.03-.6-.92-1.14 0-.6.6-.95 1.14-.95h.26c1.02-.36 2.53.14 3.13.23-.6-.45-1.63-.9-3.04-1.17-.6-.1-.9-.54-.8-1.13.1-.6.7-.95 1.13-.82 1.07.23 2 .46 2.7.82-.6-4.44-3.85-5.85-5.36-6.3h-1.3c-1.13-.14-1.94-1.04-1.94-2.22.1-1.18 1.03-2 2.16-2h.5c-1.04-1.62-2.33-2.9-3.85-3.7-4.2-2-9.06-.23-9.17-.23-.7.22-1.4.1-1.9-.23-.58-.36-.9-1.04-.9-1.77 0-2.53-.92-4.3-2-5.57 0 .1-.1.23-.22.36-.7.9-2 1.14-2.9.55-.92-.56-1.14-1.73-.7-2.68-.33-1.14-1.25-2.68-2.44-3.72.1.45.1 1.04.22 1.4.1.6-.32 1.05-.92 1.18-.1 0-.2 0-.48-.13h-.1c-.12 0-.12-.14-.23-.14-.38-.22-.7-.53-1.02-1.03.1 2-.27 5.03-.87 8.97-.43 2.35-.8 3.85-.8 3.85-.22.8-.82 1.4-1.52 1.48-.1 0-.32.14-.43.14-.6 0-1.18-.23-1.6-.68-3.3-3.85-7.95-2.36-8.87-1.9 3.62-.68 5.46.27 6.16.6h.1l.1.12c.27.23.38.6.38.9-.1.6-.6.96-1.2.82-1-.1-1.82-.1-2.63-.1 1.83.92 3.13 2.46 3.24 2.55.3.36.3.8.1 1.18v.14c-.1 1.14-1.14 1.95-2.33 1.86-.8-.14-7.34-.45-9.77 8.6 1.84-.67 2.8-.67 3.35 0 .27.23.6.82-.1 2.1.8 0 1.5-.1 2.1-.1l1.4-.36c1.2-.23 2.2.45 2.43 1.63.27 1.18-.43 2.22-1.62 2.45-3.5.8-4.86 3.03-5.24 4.2.6-1.17 1.03-1.4 1.3-1.4.32-.36 1.02-.5 1.4-.13.43.35.43 1.03.1 1.53 0 0-.1.1-.1.23 1.03-.73 1.84-1.18 1.84-1.32.48-.23 1.2-.1 1.4.5.22.45.1 1.13-.48 1.4 0 0-1.14.68-2.43 1.63-.44 1.05-.6 1.95-.6 2.68.8-2.8 3.03-4.08 3.2-4.22.42-.22 1-.1 1.34.37.26-.95 1.07-1.63 2-1.63 1.17 0 2.1.9 2.1 2.08v.23c0-1.5.1-2.68.32-3.5-.1.6-.54.96-1.14.82-.6-.1-.92-.6-.92-1.17 0-.23.65-5.44 6.97-7.07.8-.23 1.62-.5 2.65-.36.16 0 .37 0 .48.13 2.1 1.04 3.5 1.63 4.54 1.95-.7-.68-1.14-1.5-1.03-2.45.1-.3.33-.9 1.5-1.04 1.96-.1 6.5 1.53 8.7 6.38.28-.32.5-.9.7-1.72.12-.45.6-.68 1.1-.68.2 0 .3 0 .53.1.16 0 .27.13.27.35.1.36.32.9.6 2.22.2 1.04.53 2.45.8 3.5.1 0 .22-.15.22-.15.2-.1.48-.1.7-.1.2.1.6.24.7.56.2.5 0 1.17-.5 1.4 0 0-.1 0-.1.14-.22.1-.6.36-.8.45-.4.23-.6.36-.93.36h-.27c-.2-.12-.43-.12-.54-.58.54 2.1.1 3.94.1 4.08.12-.6.44-1.18 1.04-1.4.37-.23.7-.37 1.08-.6 3.83-2.08 6.26-2.9 6.37-3.03.6-.23 1.3-.1 1.73.27L75 66c.16.13.38.22.5.35-.23-.22-.34-.58-.6-.8-.93-.96-2.22-2-2.76-2.23-.6-.23-.87-.82-.7-1.27.1-.6.7-.8 1.24-.72.6.27 1.9 1.08 2.9 2.13-.7-3.5-2.63-4.3-2.8-4.45-.53-.2-.8-.8-.53-1.4.1-.44.54-.67 1.02-.67 2.1-.13 4.1 3.13 4.43 3.72-1.84-4.76-4.43-5.35-5.13-5.48z" fill="#0d9dda"/><path d="M37.73 60.7c-.23.47-.23.8-.23.93 0-.35.12-.7.23-.93z" fill="#0d9dda"/><path d="M40.18 63.82s2.45-1.86 4.43-1.4c0 0 .47-2.32-2.67-2.32-2.33.12-2.68 1.16-2.68 2.1-.1 0-.1 1.27.93 1.62zM42.8 64.5c-.7 0-1.27.7-1.4 1.75-.1 1.04.48 1.86 1.06 1.97.7 0 1.3-.7 1.4-1.75.12-1.04-.35-1.86-1.05-1.97zM54.5 64.7c-.7 0-1.27.7-1.4 1.74-.1 1.05.48 1.87 1.06 1.98.7 0 1.28-.7 1.4-1.75.1-1.04-.47-1.97-1.05-1.97zM52.63 63.1s2.8 0 4.08 1.4c0 0 1.64-1.4.12-3.13 0 0-1.16-.47-2.32-.7-.7 0-2.9-.7-2.68 2.33l.8.1z" fill="#032d60"/><path d="M37.5 61.6c0-.1.12-.46.24-.92.47-1.28 1.75-3.37 5.15-4.3.8-.24 1.26-.35 1.85-.35 3.97 2.1 6.63 2.78 8.14 2.2.7-.34.94-.8 1.06-1.04.12-.47 0-.95-.36-1.17 0 0-.1-.12-.35-.24-.7-.47-1.16-.83-1.5-1.05 1.74.47 4.76 2.1 6.06 6.16 0 .13.13.24.24.36.2.23.68.6 1.4.46.47-.1.9-.46 1.27-1.04.6 2.2.84 3.37 1.07 3.84.2.47.33.47.57.58h.23c.36 0 .6-.1.95-.35.24-.1.56-.35.8-.47l.12-.1c.47-.25.7-.94.47-1.4-.1-.24-.34-.47-.7-.6-.24 0-.44 0-.68.13-.12 0-.24.13-.24.13-.23-1.05-.6-2.45-.83-3.5-.35-1.15-.47-1.86-.56-2.2-.13-.12-.24-.23-.24-.36-.12-.12-.36-.12-.6-.12-.47 0-.83.36-1.03.7-.24.83-.48 1.4-.7 1.75-2.23-4.88-6.8-6.52-8.74-6.4-1.2 0-1.55.7-1.55 1.05-.24.93.35 1.75 1.06 2.44-1.05-.35-2.45-.94-4.55-1.98-.12-.13-.35-.13-.47-.13-1.04 0-1.87.12-2.67.35-6.3 1.63-6.85 6.86-6.97 7.1-.12.57.33 1.04.92 1.16.47.36 1.06 0 1.15-.7 0 .12-.1.12 0 0 0 .12 0 .12 0 0zM80.1 60.66c-2.3-6.06-5.7-7.22-7.2-7.46h-.23c-.6 0-1.06.34-1.17.94 0 .58.35 1.04.93 1.16.82.12 3.38.7 5.36 5.58.1.24.22.46.22.7.12.46.58.7.93.7.12 0 .23 0 .35-.12.8-.34 1.05-1.04.8-1.5z" fill="#032d60"/><path d="M72.6 57.6c-.24.6.1 1.16.57 1.4.12 0 2.1.93 2.8 4.43-1.17-1.05-2.33-1.86-2.92-2.1-.58-.12-1.04.1-1.28.7-.23.58.12 1.16.7 1.28.47.24 1.75 1.3 2.8 2.23.58.57 1.05 1.03 1.05 1.27.1.47.57.7 1.04.7h.12c.46-.12.93-.46.93-1.05.24-7.7-4.18-9.3-4.3-9.43h-.35c-.58-.12-1.04.23-1.16.6zM31.97 62.58c-.23-.47-.93-.7-1.4-.47-.1 0-.93.48-1.86 1.3.13-.13.13-.24.13-.24.35-.47.35-1.05-.12-1.5-.46-.36-1.04-.36-1.4.1-.1.12-2.2 2.57-1.73 5.35.12.48.35.7.8.83h.25c.35 0 .7-.12.8-.46.48-.7 1.17-1.4 1.76-1.86 1.16-1.05 2.33-1.63 2.44-1.63.47-.23.7-.92.35-1.4z" fill="#032d60"/><path d="M31.38 59.02c1.18-.23 1.87-1.4 1.65-2.44-.25-1.16-1.4-1.86-2.46-1.64l-1.4.34c-.6 0-1.28 0-2.1.14.7-1.3.23-1.86.1-2.1-.56-.7-1.5-.7-3.36 0 2.46-9.07 8.98-8.74 9.8-8.62 1.17.14 2.2-.68 2.33-1.84v-.1c.25-.38.25-.84-.12-1.2-.1-.12-1.4-1.5-3.24-2.55.7-.1 1.63-.1 2.68.12.57.12 1.04-.34 1.16-.82 0-.34-.12-.68-.35-.93l-.12-.12h-.12c-.1-.1-.2-.1-.33-.1-4.78-.7-7.24 1.27-7.24 1.4-.34.23-.46.8-.34 1.17.1.45.46.68 1.04.68.82 0 1.5.1 2.22.48-3.86.45-10.04 3.14-12.02 13.5-.23 1.16.58 2.2 1.64 2.43h.34c.7 0 1.4-.33 1.75-.92.7-.34 1.28-.6 1.63-.82-.23.22-.35.48-.57.7-.25.34-.37.82-.12 1.16.23.34.6.6 1.06.6h.1c-2.56 2.32-3.14 5.1-3.25 5.35-.23 1.16.58 2.2 1.64 2.43h.34c.94 0 1.87-.7 2.12-1.75 0 0 0-.23.22-.57.47-.93 1.87-3.14 5.36-3.96z" fill="#032d60"/><path d="M38.63 38.5c.34.47.93.7 1.63.7.12 0 .36 0 .46-.13.82-.23 1.4-.8 1.52-1.5 0 0 .34-1.5.82-3.84.7-3.82.93-6.85.8-8.93 0-.82-.1-1.5-.22-1.98-.12-.23-.24-.58-.48-.82-.8-.8-2.08-.8-2.9 0-.46.47-.58 1.06-.58 1.64 0 .23 0 .34.12.47v.1c0 .24.34 2.22-.7 8.84v.23c-4.07-2.44-8.74-1.5-11.07-.46-1.04.47-1.52 1.75-1.04 2.8.45 1.04 1.73 1.52 2.78 1.04 0 0 .1 0 .23-.1.72-.37 5.25-1.86 8.63 1.97zM45.1 26.1h.16c.1 0 .2.1.46.1.57-.1.93-.57.93-1.15 0-.34-.14-.9-.25-1.4 1.18 1.17 2 2.7 2.46 3.75-.46.92-.25 2.07.68 2.65.93.72 2.2.38 2.93-.58.1-.1.1-.23.2-.34 1.08 1.16 2 3.03 2 5.58 0 .72.33 1.3.94 1.74.58.38 1.3.48 1.87.24 0 0 5-1.73 9.17.24 1.54.82 2.93 1.97 3.86 3.74h-.47c-1.18 0-2.1.82-2.2 1.97-.12 1.16.8 2.08 2 2.2l1.24.1c1.43.5 4.78 1.88 5.35 6.3-.68-.34-1.6-.7-2.68-.8-.57-.15-1.03.23-1.14.8-.1.58.36 1.06.82 1.16 1.4.23 2.43.7 3 1.15.15 0 .15.13.25.13.22.44.68.92 1.3.92h.1c.82 0 1.5-.7 1.5-1.5.24-4.55-1.6-7.44-3.83-9.2.22-.45.22-1.03.1-1.5-1.38-4.43-3.84-7.45-7.3-9.08-3.6-1.74-7.36-1.5-9.8-1.06-1.17-6.5-6.88-8.7-7.1-8.84-.7-.2-1.63-.1-2.2.48-1.04-1.5-2.47-2.8-4.18-3.27-.5-.1-.97 0-1.18.38-.25.35-.25.8 0 1.16.2.34.46 1.84.68 3.37 0 .24.14.48.35.68-.2-.2-.1-.2 0-.1 0 0-.1 0 0 0zM72.1 63.96c-.6-.35-1.18-.47-1.75-.24-.1 0-2.57.8-6.38 3.03-.38.23-.7.34-1.05.57-.6.35-.95.8-1.04 1.4-1.05 1.28-2.33 2.08-3.86 2.66 0 0-.33.12-1.38.36-.14 0-.24.12-.38.12-1.14-1.3-3-2.56-5.57-1.75 0-.34-.1-.68-.25-.9-.1-.24-.47-.36-.66-.13-.25.12-.4.46-.16.7.15.1.15.46.15.7 0 .68-.96 1.14-1.87 1.14-.48 0-1.05-.22-1.43-.45-.24-.12-.47-.46-.47-.8 0-.24.14-.7.23-.82.24-.23.15-.57 0-.7-.23-.22-.57-.1-.66 0-.24.24-.38.6-.38.82-1.38-.46-3.38-.46-4.76.7-.24-.24-.48-.35-.72-.47-1.85-.8-2.2-3.7-2.2-4.65V65c0-1.16-.9-2.08-2.08-2.08-.9-.12-1.76.7-1.95 1.6-.37-.45-.94-.56-1.42-.33-.1.1-2.33 1.4-3.14 4.16-.1.36-.24.7-.24 1.06-.1.58.38 1.04.95 1.15h.1c.47 0 .95-.34 1.04-.92.38-2.44 2.23-3.6 2.33-3.6.14-.1.23-.1.38-.23.1 1.85.82 6.4 4.86 8 .15.12.34.12.48.12-.14.7-.14 1.52 0 2.33 0 .46.33.8.7.92.44.1.82 0 1.06-.36.1.7.33 1.17 1.05 1.4.43.12 1.04 0 1.24-.47.13-.12.13-.23.22-.46.48.95 1.05 1.75 2.1 1.87.47 0 .95-.23 1.04-.58.15-.24.24-.47.38-.7l.34.92c.1.35.33.58.7.58h.25c.2 0 .43-.12.67-.23.24-.23.47-.46.7-.8 0 .22.1.34.25.57.33.34.9.46 1.28.1.1-.1.2-.22.34-.33 0 0 .1-.1.1-.22.14.23.23.57.6.7.44.22.92.1 1.25-.24.14-.12.38-.35.62-.8l.1.1c.23.47.7.7 1.18.58.43-.1.8-.46.8-.92l.1-.83c1.05.94 1.3.94 1.77.7.32-.12.56-.46.66-.8.14-.36.14-.7 0-1.17.85-.1 1.2-.34 1.28-.34 2.67-.94 4.9-2.68 6.43-5 2.2-1.27 3.8-1.98 4.76-2.33l2.2 1.4c.94.58 2.22.35 2.9-.57.46-.6.46-1.4.13-1.98-.14-.12-.24-.35-.38-.47-.1-.1-.2-.22-.43-.33l-3.14-2.2zM47.8 75.8l-.35-.8c-.14-.37-.57-.6-.95-.6-.47 0-.66.12-1.14.94-.14.23-.38.58-.57 1.04-.15-.35-.4-.8-.5-1.38v-.12c-.13-.36-.23-.6-.56-.83-.24-.1-.38-.1-.47-.1-.15 0-.24 0-.38.1.13-.34-.1-.7-.35-.92-.24-.23-.7-.35-1.05-.1l-.7.33c.13-.46.47-.92.85-1.27.66-.5 1.47-.6 2.28-.5.38 0 1.3.14 1.3.14.22.47 1.03.93 2.22 1.04 1.62.12 3-.46 3.38-1.28 2.1-.23 3.57 1.4 4.2 2.1v.34h-.63c-.23.1-.42.34-.57.58-.24-.12-.47-.12-.7-.12-.44.12-.68.48-.82.83-.1-.12-.23-.23-.23-.35-.2-.36-.66-.48-1.05-.36-.33.1-.66.36-.8.82 0 .12-.1.23-.1.35-.33-.47-.57-.95-.95-.95-.57-.12-1.14.36-1.24.94-.14 0-.14 0-.14.1z" fill="#032d60"/></g></svg>