<svg xmlns="http://www.w3.org/2000/svg" xmlns:lucid="lucid" width="100" height="100"><g lucid:page-tab-id="0_0" stroke="#000" stroke-opacity="0"><path d="M50 0C22.4 0 0 22.4 0 50s22.4 50 50 50 50-22.4 50-50S77.6 0 50 0z" fill="#fff"/><path d="M50 75.2c13.9 0 25.2-11.3 25.2-25.2 0-13.9-11.3-25.2-25.2-25.2-13.9 0-25.2 11.3-25.2 25.2 0 13.9 11.3 25.2 25.2 25.2z" fill="#0d9dda"/><path d="M66.8 54.2c0 1.1-.44 2.18-1.24 2.96-.78.8-1.85 1.24-2.96 1.24h-4.2v4.2c0 1.1-.44 2.18-1.24 2.96-.78.8-1.85 1.24-2.96 1.24h-8.4c-1.1 0-2.18-.44-2.96-1.24-.8-.78-1.24-1.85-1.24-2.96v-4.2h-4.2c-1.1 0-2.18-.44-2.96-1.24-.8-.78-1.24-1.85-1.24-2.96v-8.4c0-1.1.44-2.18 1.24-2.96.78-.8 1.85-1.24 2.96-1.24h4.2v-4.2c0-1.1.44-2.18 1.24-2.96.78-.8 1.85-1.24 2.96-1.24h8.4c1.1 0 2.18.44 2.96 1.24.8.78 1.24 1.85 1.24 2.96v4.2h4.2c1.1 0 2.18.44 2.96 1.24.8.78 1.24 1.85 1.24 2.96v8.4z" fill="#0d9dda"/><path d="M50 79.4c16.23 0 29.4-13.17 29.4-29.4 0-16.23-13.17-29.4-29.4-29.4-16.23 0-29.4 13.17-29.4 29.4 0 16.23 13.17 29.4 29.4 29.4z" fill="#032d60"/><path d="M50 75.2c13.9 0 25.2-11.3 25.2-25.2 0-13.9-11.3-25.2-25.2-25.2-13.9 0-25.2 11.3-25.2 25.2 0 13.9 11.3 25.2 25.2 25.2z" fill="#0d9dda"/><path d="M62.6 41.6h-4.2v-4.2c0-1.1-.44-2.18-1.24-2.96-.78-.8-1.85-1.24-2.96-1.24h-8.4c-1.1 0-2.18.44-2.96 1.24-.8.78-1.24 1.85-1.24 2.96v4.2h-4.2c-1.1 0-2.18.44-2.96 1.24-.8.78-1.24 1.85-1.24 2.96v8.4c0 1.1.44 2.18 1.24 2.96.78.8 1.85 1.24 2.96 1.24h4.2v4.2c0 1.1.44 2.18 1.24 2.96.78.8 1.85 1.24 2.96 1.24h8.4c1.1 0 2.18-.44 2.96-1.24.8-.78 1.24-1.85 1.24-2.96v-4.2h4.2c1.1 0 2.18-.44 2.96-1.24.8-.78 1.24-1.85 1.24-2.96v-8.4c0-1.1-.44-2.18-1.24-2.96-.78-.8-1.85-1.24-2.96-1.24z" fill="#032d60"/><path d="M62.6 54.2h-8.4v8.4h-8.4v-8.4h-8.4v-8.4h8.4v-8.4h8.4v8.4h8.4v8.4z" fill="#032d60"/><path d="M54.2 37.4h-8.4v8.4h-8.4v8.4h8.4v8.4h8.4v-8.4h8.4v-8.4h-8.4v-8.4z" fill="#fff"/></g></svg>