<svg xmlns="http://www.w3.org/2000/svg" xmlns:lucid="lucid" width="100" height="100"><g lucid:page-tab-id="0_0" stroke="#000" stroke-opacity="0"><path d="M100 50c0 27.6-22.4 50-50 50S0 77.6 0 50 22.4 0 50 0s50 22.4 50 50z" fill="#fff"/><path d="M30.8 58.94V35.9c-2.8 0-5.1 2.3-5.1 5.1v28.2c0 2.8 2.3 5.1 5.1 5.1H59c2.8 0 5.1-2.3 5.1-5.1H41.06c-5.65 0-10.25-4.62-10.25-10.26z" fill="#fff"/><path d="M69.2 25.7H41c-2.8 0-5.1 2.3-5.1 5.1V59c0 2.8 2.3 5.1 5.1 5.1H69.2c2.8 0 5.1-2.3 5.1-5.1V30.8c0-2.8-2.3-5.1-5.1-5.1z" fill="#fcf1da"/><path d="M69.1 44.85c0 1.4-1.15 2.56-2.56 2.56H57.6v8.94c0 1.4-1.15 2.56-2.55 2.56s-2.56-1.15-2.56-2.56V47.4h-8.94c-1.4 0-2.56-1.15-2.56-2.55s1.15-2.56 2.56-2.56h8.93V33.35c0-1.4 1.14-2.56 2.55-2.56 1.4 0 2.56 1.15 2.56 2.56v8.95H66.55c1.4 0 2.56 1.14 2.56 2.55z" fill="#fcf1da"/><path d="M69.17 20.6h-28.1c-5.65 0-10.24 4.6-10.24 10.23-5.64 0-10.23 4.6-10.23 10.23v28.1c0 5.65 4.6 10.24 10.23 10.24h28.1c5.65 0 10.24-4.6 10.24-10.23 5.64 0 10.23-4.6 10.23-10.23v-28.1c0-5.65-4.6-10.24-10.23-10.24z" fill="#e4a201"/><path d="M74.3 59c0 2.8-2.3 5.1-5.1 5.1H41c-2.8 0-5.1-2.3-5.1-5.1V30.8c0-2.8 2.3-5.1 5.1-5.1h28.2c2.8 0 5.1 2.3 5.1 5.1V59z" fill="#f9e3b6"/><path d="M59 74.3H30.8c-2.8 0-5.1-2.3-5.1-5.1V41c0-2.8 2.3-5.1 5.1-5.1v23.04c0 5.64 4.6 10.25 10.26 10.25H64.1c0 2.8-2.3 5.1-5.1 5.1z" fill="#fff"/><path d="M66.54 42.3H57.6V33.35c0-1.4-1.15-2.56-2.55-2.56s-2.56 1.15-2.56 2.56v8.95h-8.94c-1.4 0-2.56 1.14-2.56 2.55 0 1.4 1.15 2.56 2.56 2.56h8.93v8.94c0 1.4 1.14 2.56 2.55 2.56 1.4 0 2.56-1.15 2.56-2.56V47.4H66.55c1.4 0 2.56-1.15 2.56-2.55s-1.15-2.56-2.56-2.56z" fill="#e4a201"/></g></svg>