<svg xmlns="http://www.w3.org/2000/svg" xmlns:lucid="lucid" width="100" height="100"><g lucid:page-tab-id="0_0" stroke="#000" stroke-opacity="0"><path d="M100 50c0 27.6-22.4 50-50 50S0 77.6 0 50 22.4 0 50 0s50 22.4 50 50z" fill="#fff"/><path d="M50.2 60.43c-2.73 0-5.2-.6-7.55-1.53L40.4 72.4l8.73-4.7c.7-.35 1.53-.35 2.24 0l8.73 4.7-2.25-13.5c-2.48 1.05-4.94 1.53-7.66 1.53z" fill="#0d9dda"/><path d="M61.98 56.6c4.96-3.66 8.12-9.42 8.12-16 0-11.06-8.96-20-20-20s-20 8.94-20 20c0 6.58 3.16 12.34 8.12 16l-3.4 19.98c-.12.94.24 1.76.92 2.35.72.6 1.64.6 2.48.12l11.76-6.47 11.76 6.47c.36.23.72.23 1.2.23.44 0 .92-.1 1.4-.47.72-.46 1.04-1.4.92-2.34L61.98 56.6zM51.26 67.86c-.68-.35-1.52-.35-2.2 0l-8.72 4.7 2.24-13.5c2.36.93 4.92 1.5 7.52 1.5 2.6 0 5.16-.57 7.52-1.5l2.24 13.5-8.6-4.7zM50.1 25.2c8.48 0 15.28 6.8 15.28 15.27 0 8.47-6.8 15.3-15.28 15.3s-15.28-6.83-15.28-15.3c0-8.46 6.8-15.28 15.28-15.28z" fill="#032d60"/><path d="M50.2 55.8c8.48 0 15.3-6.82 15.3-15.3s-6.82-15.3-15.3-15.3-15.3 6.82-15.3 15.3 6.82 15.3 15.3 15.3zm-8.94-14.35c.83-1.07 2.24-1.2 3.28-.37l.7.58 3.2 2.48 4.36-6.82 2.45-3.9c.7-1.03 2.14-1.4 3.3-.7 1.08.7 1.4 2.12.7 3.3L51.04 49c-.37.58-.95.95-1.66 1.07h-.33c-.6 0-1.07-.25-1.44-.5l-5.88-4.7c-1.07-.92-1.28-2.36-.46-3.4z" fill="#0d9dda"/><path d="M41.66 44.7l5.9 4.72c.47.36.95.48 1.42.48h.36c.7-.12 1.28-.48 1.64-1.06l8.26-12.98c.7-1.06.34-2.58-.72-3.3-1.06-.7-2.6-.34-3.3.72l-2.48 3.9-4.35 6.95-3.2-2.48-.7-.6c-1.06-.8-2.48-.58-3.3.35-.82 1.07-.6 2.48.46 3.3z" fill="#fff"/></g></svg>