<svg xmlns="http://www.w3.org/2000/svg" xmlns:lucid="lucid" width="100" height="100"><g lucid:page-tab-id="0_0" stroke="#000" stroke-opacity="0"><path d="M100 50c0 27.6-22.4 50-50 50S0 77.6 0 50 22.4 0 50 0s50 22.4 50 50z" fill="#fff"/><path d="M51.06 79.4h.12c9.76-.3 19.16-3.35 27.28-8.82.53-.4.94-1.06.94-1.65V64.7c.3-19.05-11.05-36.52-28.58-43.92-.53-.24-1.1-.24-1.64 0-17.53 7.4-28.87 24.75-28.58 43.8v4.24c0 .64.3 1.23.82 1.64 8.53 5.7 18.4 8.82 28.58 8.94h1.06z" fill="#032d60"/><path d="M30.34 57.2l13.63-20.03c.1-.22.3-.42.55-.5.93-.66 2.27-.43 2.9.5l6.73 9.76 2.52-3.6c.1-.18.3-.4.5-.5.98-.62 2.32-.42 2.96.5l9.43 13.68.1.1h5.04c-4-24.03-23.17-31.46-24.75-32.2 0 0-7.95 2.84-15.12 11.34-4.2 5-8.15 11.85-9.53 20.96h5.04z" fill="#90d0fe"/><path d="M64.53 57.42l-6.2-8.92-2.93 4.3 3.46 4.62h5.67z" fill="#a372b5"/><path d="M55.45 52.8l-3.15 4.62h6.6l-3.45-4.62z" fill="#741b89"/><path d="M46.85 43.77L45.8 42.2l1.05 1.57z" fill="#8ed1f4"/><path d="M40.5 49.95l5.34 7.45h1.25l4.5-6.6-4.82-7.03-1.04-1.57-5.24 7.75z" fill="#a372b5"/><path d="M40.55 49.9l-5.15 7.45h10.5l-5.35-7.45z" fill="#741b89"/><path d="M51.66 72.13c.33-.62 0-1.47-.62-1.68l-1.9-.85c-.2-.1-.4-.2-.7-.4-2.63-1.6-3.4-5.07-1.8-7.7H24.9c-.1 1.06-.1 2.1-.1 3.16v3.17c4.4 2.73 9.23 4.83 14.28 6.1 3.9.84 7.24 1.36 10.8 1.47l1.78-3.06c-.08-.1 0-.2 0-.2zM75.2 61.5H52.1l-1.77 2.1c-.1.1-.1.2-.2.3-.33.63 0 1.47.73 1.68l1.88.84c.2.1.3.2.54.2 2.6 1.48 3.55 4.94 2.08 7.55l-.3.63c1.04-.1 2.2-.32 3.45-.52 2.02-.42 4-.94 6-1.57l.94-.3c3.46-1.16 6.8-2.84 9.96-4.72v-3.04c-.1-1.05-.2-2.1-.2-3.14z" fill="#009a44"/><path d="M53.2 66.72c-.2-.1-.3-.2-.5-.2l-1.9-.84c-.63-.3-.94-1.05-.73-1.67 0-.1.1-.2.2-.3l1.8-2.1H46.7c-1.57 2.62-.84 5.96 1.8 7.63.2.1.4.22.7.43l1.9.83c.63.3.94 1.03.63 1.66 0 0 0 .1-.1.1l-1.8 3.04c1.7 0 3.36-.1 5.14-.3l.3-.64c1.48-2.72.53-6.06-2.1-7.64z" fill="#fff"/><path d="M61 68.37h6.2l-3.15-3.57L61 68.37zM35.9 70.87h6.3l-3.15-3.57-3.15 3.57zM32.85 63.6l-3.15 3.57H36l-3.15-3.57z" fill="#046a38"/></g></svg>