<svg xmlns="http://www.w3.org/2000/svg" xmlns:lucid="lucid" width="100" height="100"><g lucid:page-tab-id="0_0" stroke="#000" stroke-opacity="0"><path d="M100 50c0 27.6-22.4 50-50 50S0 77.6 0 50 22.4 0 50 0s50 22.4 50 50z" fill="#fff"/><path d="M70.62 45.3l1.7 1.7C70.74 36.16 61.37 27.8 50.1 27.8c-12.26.12-22.3 10.14-22.3 22.52 0 6.35 2.68 12.04 6.9 16.18.55-5.34 3.8-9.83 8.26-12.15-2.9-2.25-4.9-5.7-4.9-9.7 0-6.7 5.48-12.17 12.17-12.17 6.7 0 12.13 5.34 12.13 12.04 0 3.9-1.87 7.47-4.9 9.7 4.6 2.37 7.67 6.82 8.25 12.16 3.58-3.32 5.94-7.9 6.7-13.04l-4.9-4.9c-.9-.9-.9-2.22 0-3.15.9-.78 2.22-.78 3.12 0z" fill="#0d9dda"/><path d="M57.9 44.5c0-4.23-3.47-7.7-7.7-7.7s-7.7 3.47-7.7 7.7 3.47 7.7 7.7 7.7 7.7-3.47 7.7-7.7zM39 67.94v1.23c1.34 1 4.9 3.23 11.15 3.23 6.24 0 9.8-2.23 11.15-3.23v-1.23c0-6.24-4.9-11.14-11.15-11.14C43.9 56.8 39 61.7 39 67.94z" fill="#fff"/><path d="M81.65 45.22c-.94-.86-2.23-.86-3.1 0l-1.95 1.93C75.07 33.88 63.84 23.5 50.14 23.5c-14.7 0-26.64 12.04-26.64 26.75 0 10.27 5.76 19.15 14.23 23.65 2.35 1.44 6.47 3.1 12.4 3.1 5.9 0 10-1.66 12.35-3.1 7.6-4.02 12.94-11.5 14.06-20.17l5.1-5.14c.9-1.02.9-2.47 0-3.38z" fill="#032d60"/><path d="M67.5 48.5l4.9 4.9c-.67 5.1-3.12 9.54-6.7 13-.57-5.35-3.78-9.78-8.24-12.13 2.9-2.23 4.9-5.66 4.9-9.66 0-6.7-5.44-12.16-12.13-12.16-6.7 0-12.17 5.47-12.17 12.17 0 3.9 1.92 7.44 4.9 9.67-4.55 2.35-7.7 6.78-8.25 12.13-4.22-4.12-6.9-9.9-6.9-16.13 0-12.36 10.04-22.37 22.43-22.37 11.24 0 20.6 8.35 22.17 19.13l-1.65-1.65c-.94-.9-2.23-.9-3.17 0-.98.77-.98 2.23-.1 3.12z" fill="#0d9dda"/><path d="M42.5 44.5c0-4.23 3.47-7.7 7.7-7.7s7.7 3.47 7.7 7.7-3.47 7.7-7.7 7.7-7.7-3.47-7.7-7.7zM61.3 67.94v1.23c-1.34 1-4.9 3.23-11.15 3.23-6.24 0-9.8-2.23-11.15-3.23v-1.23c0-6.24 4.9-11.14 11.15-11.14 6.24 0 11.15 4.9 11.15 11.14z" fill="#fff"/></g></svg>