<?xml version="1.0" encoding="UTF-8"?>
<svg id="Camada_1" xmlns="http://www.w3.org/2000/svg" version="1.1" xmlns:lucid="lucid" viewBox="0 0 76.85 66.54">
  <!-- Generator: Adobe Illustrator 29.5.0, SVG Export Plug-In . SVG Version: 2.1.0 Build 137)  -->
  <defs>
    <style>
      .st0 {
        fill: #222d64;
      }

      .st1 {
        fill: #fff;
      }

      .st2 {
        fill: #009ddc;
      }
    </style>
  </defs>
  <g lucid:page-tab-id="0_0">
    <path class="st2" d="M65.28,45.64l2.4-.4c.7-.2,4.1-1.7,3.8-7.2-2.2.5-5.1.7-7.3-.6-1.2-.7-2.7-2.1-3.1-4.8-.1-.9.3-1.7.8-2.2.3-.2.5-.4.8-.5.9-.3,1.6-.8,2.4-1.2.5-.2.9-.5,1.4-.7-.9-1.7-2.4-3.1-4.9-4.4-.8-.4-1.3-1.1-1.3-2-.1-.9.3-1.7,1-2.2.1,0,.1-.1.2-.1-2.2-.8-4.3-1.8-5.8-2.6-1.5-.8-3.6-.3-5.9.2l-.6.1c-1.3.3-2.6-.5-3-1.8-.1-.2-.1-.4-.1-.6.1-3.3-.1-5.1-.3-5.7-.1-.6-.3-1-.7-1.4-3.9,1.2-8.1,3.1-9.1,4.5-.9,1.1-2.5,1.2-3.5.3-.5-.4-.7-.8-.9-1.4-.3-1.3-1.9-3.2-3.7-4.5-.5,1.2-1.3,2.2-2,3.2-1.4,2-2.5,3.6-2.4,6.5,0,.9-.4,1.7-1,2.2-.7.5-1.6.6-2.4.3-1.6-.7-4.9-.4-7.4.5.3.4.7.8,1,1.4l.2.1c.4.6.5,1.3.5,2-.1.7-.6,1.3-1.2,1.6l-.4.2c-2.1,1.3-4,2.5-5.4,4h.6c.1,0,.3,0,.3.1q.1,0,.2.1c.1,0,.1.1.3.1.1,0,.1.1.1.1.1,0,.1.1.3.2l.1.1q.1.1.1.2c.1,0,.1.1.1.2.1,0,.1.1.1.2,0,0,.1.1.1.2l.1.3v.2c0,.1.1.2.1.2,0,5.6,2.3,6.6,2.4,6.6,1,.2,1.6.9,1.8,1.9s-.4,2-1.3,2.5c-2.6,1.6-5.1,2.2-7.1,2.3,1.7,3.4,3.4,3.7,6.1,4.2h.2c.1,0,.2.1.3.1s.2.1.3.2h.1c.1.1.3.2.4.3.1,0,.1.1.2.2.1,0,.1.1.1.1l.1.2c.1,0,.1.1.1.2,0,0,0,.1.1.1,0,.1.1.2.1.3.1.2.1.3.1.5v.5c-.1.1-.1.3-.1.4l-1.1,2.6c1.6.6,3.3.4,5.1-.5-.6-1.7-1-3.6-1.3-5.6-1.1-9.6,2.4-17.4,9.9-21.9h.1c.1,0,.2-.1.3-.1s.1,0,.3-.1h1.5q.1,0,.2.1h.1s.1,0,.1.1c.1,0,.1.1.2.1s.1.1.3.2h.1c.8.7,2.7,1.6,4.6,2.2-.3-1.4-.3-2.7-.1-4,.1-.3.1-.5.3-.7.2-.4.5-.7.8-1,.6-.4,1.3-.5,2-.3.7.1,1.6.4,2.4.7,4,1.4,9.2,4,12.3,7.4.4-.7,1-1.2,1.7-1.4h.1c.9-.2,1.9.2,2.4,1,3,4.1,7.2,13.8,3.9,23.5,1.6-.1,3.2-.5,4.6-1.2-1.1-1.5-1.6-3.1-1.5-4.7.1-1.2.9-2,2-2.2l.2.2Z"/>
    <path class="st1" d="M51.88,36.74c-1,.1-1.9-.3-2.4-1.2-1.7-2.8-6.1-5.5-10.2-7.1.3.8.7,1.6,1.2,2.1.6.8.8,1.8.3,2.7-.4.9-1.3,1.5-2.3,1.4-2.6,0-7.6-1.6-10.6-3.4-6.1,4.5-6.7,11.2-6.2,16.3.8,9,7.1,13.9,17.6,13.9,6.6,0,12-2.4,14.9-6.5v-.1c3.7-6.9,1.7-14.4-.4-18.8-.6.3-1.2.5-2,.6l.1.1Z"/>
    <path class="st1" d="M27.08,42.44c-.9-.3-1.4-1.3-1.1-2.2.9-2.8,4.2-4.3,7.1-3.3.9.3,1.4,1.3,1.1,2.2-.3.9-1.3,1.4-2.2,1.1-1.1-.4-2.4.2-2.6,1-.3,1-1.3,1.4-2.3,1.1v.1ZM31.68,42.14c1.1,0,2,1.3,2,2.9s-.9,3-2,3-2-1.3-2-2.9.9-3,2-3ZM49.18,57.24c-1.1.9-3,.4-5.3,0-1.5-.3-3.2-.8-4.9-.8s-3.4.4-5,.8c-1.3.3-2.3.6-3.2.6-.6,0-1.1-.1-1.5-.4-.6-.5-.9-1.3-.9-2.5,0-.8.4-1.7,1.1-2.2,2.2-1.7,4.4-2.8,6.6-3.3.2,0,.4,0,.5.2.5.8,1.5,1.3,2.6,1.3s2.1-.5,2.6-1.2c.1-.1.3-.2.5-.2,3.5.8,6,2.9,7,3.6.6.5.9,1.2.8,1.9,0,1-.3,1.7-.9,2.2ZM44.48,45.14c0-1.6.9-3,2-3s2,1.3,2,3c0,1.6-.9,3-2,3s-2-1.3-2-3ZM50.98,41.74c-.9.5-1.9.1-2.4-.8-.5-.8-1.8-1.1-2.8-.6-.8.5-1.9.1-2.4-.7-.5-.9-.1-2,.8-2.4,2.7-1.5,6.2-.5,7.6,2.1.5.8.1,1.9-.8,2.4Z"/>
    <path class="st0" d="M75.98,34.34c0-.1-.1-.3-.1-.4-.5-1.3-2-1.9-3.3-1.4-1.5.6-4.1,1.2-5.4.8l.6-.3c.9-.5,1.7-1,2.7-1.3,1.3-.4,2.1-1.8,1.8-3.1-.9-3.1-2.5-5.6-5.2-7.6.5-.6,1.1-1.2,1.4-1.9.4-.7.5-1.5.1-2.2-.3-.7-.9-1.2-1.7-1.3-2.6-.6-6.3-2.1-8.6-3.5-2.3-1.2-4.7-1.1-6.9-.8,0-1.8-.2-3.1-.4-4-.6-2.3-2.1-4.2-3.9-5-.6-.3-1.2-.3-1.7-.2-2.5.7-7,2.1-10.1,4.2-2-2.9-5.4-5.4-7.9-6.2-.8-.3-1.5-.1-2.2.3-.7.5-1,1.2-1,2.1,0,1.3-.7,2.3-1.8,4-1.2,1.6-2.6,3.6-3.1,6.4-4-.3-9,1.1-11.5,3.5-.2.1-.2.2-.3.3-.9,1.1-.6,2.7.5,3.5.1.1.4.3.8.9-3.2,2.1-6.4,4.6-7.6,8.8-.2.8-.1,1.5.4,2.2.5.6,1.2,1,2,1h2c.3,2.5,1.1,4.3,1.9,5.7-2.4.5-4.2,0-4.3,0-.9-.3-1.8-.1-2.5.6-.6.7-.8,1.7-.6,2.5,2.4,7.1,5,9.4,8.4,10.5l-.8,1.9s0,.1-.1.1l-.1.3v1c0,.1,0,.2.1.2,0,.1,0,.2.1.3,0,.1.1.1.1.2q.1.1.2.2c0,.1.1.1.1.2q.1.1.1.2l.2.2c0,.1.1.1.1.1h.1l.1.1c2,1.4,4.1,2.1,6.4,2.1,1.8,0,3.7-.5,5.5-1.3,3.8,5.3,10.4,8.3,19,8.3,7.8,0,14.4-2.8,18.3-7.8.5.1.9.1,1.4.1,3.6,0,8.1-1,11-3.8.1-.1.2-.2.2-.3l.1-.1.1-.1c0-.1.1-.1.1-.1q.1-.1.2-.2c0-.1.1-.1.1-.3,0-.1.1-.1.1-.2s.1-.1.1-.2,0-.2.1-.3v-.5c0-.1,0-.2-.1-.3v-.3c0-.1-.1-.1-.2-.2q0-.1-.1-.2c0-.1-.1-.1-.1-.3l-.1-.1c-.1-.1-.2-.1-.2-.2q-.1-.1-.2-.1v-.1l-.1-.1c-.5-.3-.8-.7-1-1,3.4-.9,9.3-5.4,7.1-15.7l-.4.2Z"/>
    <path class="st2" d="M60.08,53.74c3.2-9.7-.9-19.4-3.9-23.5-.6-.9-1.6-1.2-2.6-1-.7.2-1.3.6-1.7,1.4-3.2-3.4-8.3-6-12.3-7.4-.9-.3-1.7-.5-2.4-.7-.7-.1-1.4,0-2,.3-.3.2-.6.6-.8,1-.1.2-.2.4-.3.7-.2,1.4-.2,2.7.1,4-2-.6-3.9-1.5-4.6-2.2h-.1c-.1,0-.1-.1-.3-.2q-.1,0-.2-.1h-.2q-.1,0-.2-.1h-1.5c-.1,0-.2,0-.3.1q-.1,0-.3.1h-.1c-7.5,4.5-11,12.3-9.9,21.9.2,2,.6,3.9,1.2,5.6-1.8.9-3.5,1.1-5.1.5l1.1-2.6c0-.2.1-.3.1-.4v-.5c0-.2,0-.3-.1-.5,0-.1-.1-.2-.1-.3,0,0,0-.1-.1-.1,0-.1-.1-.2-.1-.2l-.1-.2q-.1-.1-.1-.2c-.1-.1-.1-.2-.2-.2-.1-.1-.2-.2-.4-.3h-.1c-.1-.1-.3-.2-.3-.2l-.3-.1h-.2c-2.8-.5-4.4-.9-6.1-4.2,2.1-.1,4.6-.7,7.1-2.3.9-.5,1.4-1.5,1.3-2.5-.2-1-.8-1.7-1.8-1.9-.1,0-2.4-1-2.4-6.6,0-.1,0-.2-.1-.3v-.2c0-.1-.1-.2-.1-.3,0,0-.1-.1-.1-.2s-.1-.2-.1-.2c0,0-.1-.1-.1-.2q-.1-.1-.1-.2c-.1,0-.1-.1-.1-.1q-.1-.1-.3-.2c-.1,0-.1-.1-.1-.1-.1,0-.2-.1-.3-.1l-.2-.1c-.1,0-.2,0-.3-.1h-.6c1.4-1.5,3.3-2.6,5.4-4l.4-.2c.7-.3,1.1-1,1.2-1.6.1-.7,0-1.4-.5-2l-.2-.1c-.3-.5-.6-.9-1-1.4,2.4-.9,5.8-1.2,7.3-.5.8.3,1.7.2,2.4-.3.6-.5,1-1.3,1-2.2-.2-2.8,1-4.5,2.4-6.5.7-1,1.5-2,2-3.2,1.8,1.3,3.4,3.2,3.7,4.5.1.6.4,1,.9,1.4,1,.9,2.6.7,3.5-.3,1-1.4,5.2-3.3,9.1-4.5.3.3.6.9.7,1.4.2.6.3,2.4.3,5.7,0,.8.3,1.4.9,2,.6.5,1.4.7,2.1.5l.6-.1c2.4-.5,4.4-1,5.9-.2,1.5.9,3.7,1.8,5.8,2.7-.1,0-.1.1-.2.1-.3.3-.5.5-.7.8-.7,1.2-.2,2.7,1,3.4,2.5,1.4,4,2.7,4.9,4.4-.5.2-.9.4-1.4.7-.8.4-1.5.9-2.4,1.3-.3.1-.6.3-.8.5-.6.5-.9,1.4-.9,2.2.4,2.8,1.9,4.2,3.1,4.8,2.2,1.3,5.1,1.1,7.3.6.3,5.5-3.1,7-3.8,7.2l-2.4.4c-1.1.2-2,1.1-2.1,2.2-.1,1.6.4,3.2,1.4,4.8-1.3.6-3,1-4.6,1.1l.5-.4Z"/>
    <path class="st1" d="M54.18,54.94v.1c-2.9,4.1-8.3,6.5-14.9,6.5-10.5,0-16.8-4.9-17.6-13.9-.6-5.1.1-11.8,6.2-16.3,3,1.8,8.1,3.3,10.6,3.4.6,0,1.2-.2,1.7-.6,1-.9,1.2-2.5.3-3.5-.5-.6-.9-1.4-1.2-2.2,4.1,1.6,8.5,4.3,10.1,7.1.5.8,1.5,1.3,2.4,1.2.8-.1,1.4-.3,2-.6,2.1,4.4,4.1,11.8.4,18.8Z"/>
    <path class="st0" d="M42.08,49.54c-.2-.1-.4,0-.5.2-.5.7-1.5,1.2-2.6,1.2s-2.1-.5-2.6-1.3c-.1-.2-.3-.2-.5-.2-2.3.5-4.5,1.6-6.6,3.3-.7.5-1.1,1.3-1.1,2.2,0,1.2.3,2,.9,2.5.4.3.9.4,1.5.4.9,0,1.9-.3,3.2-.6,1.5-.4,3.3-.9,5-.8,1.7,0,3.4.4,4.9.8,2.2.5,4.2.9,5.3.1.5-.5.8-1.2.8-2.2,0-.7-.3-1.4-.8-1.8-.9-.8-3.5-2.8-7-3.6l.1-.2ZM31.68,42.14c1.1,0,2,1.3,2,2.9s-.9,3-2,3-2-1.3-2-2.9.9-3,2-3ZM48.48,45.14c0-1.6-.9-3-2-3s-2,1.3-2,3c0,1.6.9,2.9,2,2.9s2-1.3,2-2.9ZM29.28,41.24c.3-.9,1.6-1.4,2.7-1,.9.3,1.9-.2,2.2-1.1.3-.9-.2-1.9-1.1-2.2-3-1-6.2.5-7.2,3.3-.3.9.2,1.9,1.1,2.2s1.9-.2,2.2-1.1l.1-.1ZM44.08,37.24c-.9.5-1.2,1.5-.8,2.4.5.9,1.6,1.2,2.4.7,1-.5,2.3-.2,2.8.6.5.9,1.5,1.2,2.4.8.9-.5,1.2-1.5.7-2.4-1.4-2.6-4.8-3.5-7.6-2.1h.1Z"/>
  </g>
</svg>