<svg xmlns="http://www.w3.org/2000/svg" xmlns:lucid="lucid" width="100" height="100"><g lucid:page-tab-id="0_0" stroke="#000" stroke-opacity="0" stroke-width="0"><path d="M77.27 62.38l2.43-.4c.72-.23 4.06-1.67 3.8-7.17-2.16.45-5.05.7-7.28-.57-1.18-.72-2.7-2.07-3.08-4.82-.07-.85.26-1.67.85-2.2.25-.2.5-.4.84-.5.85-.32 1.58-.76 2.36-1.24.46-.24.86-.48 1.38-.72-.92-1.74-2.43-3.1-4.92-4.44-.8-.43-1.25-1.15-1.25-2.02-.05-.87.34-1.7 1-2.17.06-.04.13-.1.2-.1-2.17-.8-4.33-1.77-5.84-2.64-1.5-.82-3.55-.33-5.9.2l-.6.1c-1.3.33-2.62-.54-2.95-1.84-.06-.24-.06-.43-.06-.63.07-3.28-.06-5.12-.26-5.7-.13-.57-.33-1-.72-1.44-3.94 1.16-8.07 3.08-9.12 4.48-.92 1.06-2.5 1.2-3.54.34-.46-.4-.72-.82-.85-1.4-.27-1.25-1.9-3.18-3.68-4.48-.52 1.2-1.3 2.22-1.96 3.18-1.37 1.98-2.55 3.62-2.36 6.46 0 .87-.4 1.7-1.05 2.17-.73.5-1.65.64-2.43.3-1.58-.68-4.92-.4-7.35.53.33.43.66.82.98 1.35l.2.14c.4.58.53 1.3.46 1.98-.13.67-.6 1.3-1.18 1.64l-.4.24c-2.1 1.3-4 2.46-5.37 3.95.14 0 .33 0 .47.05.06 0 .13 0 .13.05.13.05.26.05.32.1.07 0 .14.04.2.1.07.04.13.1.26.13.07 0 .07.1.13.1.15.05.15.1.28.2 0 .04.06.1.13.14.07.1.07.14.14.24.07.05.07.1.13.2.07.04.07.14.13.23 0 .05.07.15.07.2l.06.3v.18c0 .1.07.2.07.24 0 5.58 2.3 6.6 2.43 6.6.98.2 1.57.9 1.77 1.92.2 1-.4 1.98-1.25 2.5-2.56 1.65-5.05 2.22-7.15 2.32 1.7 3.42 3.4 3.7 6.1 4.24.07 0 .13.05.2.05.13 0 .2.05.33.1.13.04.2.1.32.2 0 0 .07 0 .07.04.13.05.26.2.4.3.06.03.12.13.2.18.06.05.06.1.12.14l.07.2c.07.04.14.13.14.23 0 0 0 .1.06.1 0 .1.07.24.07.33.06.15.06.3.06.48v.48c-.06.14-.06.28-.13.43l-1.05 2.6c1.58.58 3.28.44 5.12-.48-.6-1.73-1.05-3.6-1.25-5.64-1.05-9.6 2.43-17.4 9.9-21.93 0 0 .08 0 .08-.04.13-.05.2-.1.26-.1.06-.04.13-.04.26-.1.07 0 .13-.04.2-.04.06 0 .13-.05.26-.05h.46c.06 0 .13 0 .2.05.06 0 .2 0 .26.05.06 0 .13.05.2.1.06 0 .13 0 .13.04 0 0 .06 0 .06.06.06.05.12.1.2.1.12.05.12.14.25.2l.07.04c.78.67 2.7 1.6 4.65 2.22-.32-1.35-.32-2.7-.13-4.05.07-.3.13-.53.27-.73.2-.38.46-.72.8-.96.58-.4 1.3-.53 1.96-.34.72.15 1.57.4 2.43.68 4.05 1.35 9.17 3.95 12.32 7.37.4-.68.98-1.16 1.7-1.36h.14c.92-.2 1.9.24 2.42 1.02 3.02 4.1 7.15 13.78 3.94 23.47 1.57-.1 3.2-.48 4.6-1.16-1.06-1.5-1.58-3.13-1.45-4.72.06-1.16.92-2.03 2.03-2.22z" fill="#009ddc"/><path d="M63.8 53.47c-1 .14-1.92-.33-2.4-1.2-1.74-2.77-6.1-5.5-10.17-7.07.28.8.7 1.56 1.22 2.15.62.76.76 1.8.34 2.68-.42.93-1.3 1.46-2.3 1.43-2.6-.04-7.6-1.56-10.65-3.35-6.07 4.45-6.73 11.23-6.2 16.3.82 9 7.07 13.9 17.58 13.9 6.63 0 11.97-2.38 14.9-6.55v-.07c3.7-6.92 1.72-14.4-.4-18.77-.55.3-1.24.5-2 .57z" fill="#fff"/><path d="M39.02 59.14c-.93-.3-1.44-1.3-1.13-2.23.9-2.76 4.2-4.28 7.14-3.3.93.3 1.42 1.3 1.1 2.24-.3.9-1.28 1.4-2.2 1.12-1.08-.36-2.35.16-2.65 1.05-.32.95-1.34 1.44-2.25 1.14zM43.65 58.9c1.12 0 2.04 1.32 2.04 2.95 0 1.64-.93 2.96-2.05 2.96-1.13 0-2.05-1.3-2.05-2.95 0-1.63.92-2.95 2.05-2.95zM61.1 73.98c-1.12.9-3.03.45-5.3-.04-1.53-.34-3.25-.75-4.93-.8-1.72 0-3.44.44-5 .84-1.25.34-2.3.62-3.2.62-.58 0-1.1-.1-1.5-.45-.56-.47-.87-1.28-.87-2.45 0-.83.43-1.66 1.1-2.2 2.16-1.67 4.4-2.78 6.64-3.3.17 0 .38.05.47.2.5.8 1.5 1.28 2.63 1.28 1.14 0 2.1-.47 2.58-1.2.12-.12.3-.2.48-.2 3.47.84 6.04 2.85 6.96 3.63.57.5.87 1.2.85 1.9 0 1-.3 1.7-.86 2.16zM56.4 61.9c0-1.64.92-2.96 2.05-2.96s2.03 1.32 2.03 2.96c0 1.62-.9 2.97-2.03 2.97s-2.05-1.35-2.05-2.97zm6.53-3.4c-.85.47-1.9.12-2.38-.75-.45-.83-1.8-1.13-2.8-.62-.84.47-1.92.15-2.4-.74-.46-.86-.13-1.95.76-2.42 2.73-1.47 6.22-.5 7.6 2.1.46.84.13 1.93-.77 2.4z" fill="#fff"/><path d="M87.96 51.1c0-.12-.07-.25-.07-.4-.55-1.25-2-1.9-3.32-1.38-1.46.6-4.07 1.2-5.45.8l.62-.34c.92-.53 1.68-1 2.68-1.26 1.3-.4 2.08-1.8 1.77-3.06-.92-3.12-2.53-5.58-5.22-7.65.53-.58 1.07-1.18 1.38-1.85.38-.66.46-1.46.08-2.2-.3-.72-.93-1.2-1.7-1.32-2.6-.6-6.3-2.13-8.6-3.46-2.3-1.2-4.68-1.13-6.9-.8 0-1.8-.16-3.12-.4-4-.6-2.32-2.06-4.18-3.9-5.04-.62-.27-1.16-.34-1.7-.2-2.53.66-7 2.13-10.13 4.2-2-2.87-5.37-5.4-7.9-6.2-.77-.26-1.54-.13-2.23.34-.7.53-1 1.2-1 2.06 0 1.33-.7 2.32-1.84 4-1.23 1.65-2.62 3.64-3.15 6.44-4-.27-9 1.06-11.52 3.52-.16.06-.23.2-.3.32-.85 1.13-.62 2.66.53 3.46.14.14.37.33.83.93-3.22 2.07-6.37 4.6-7.6 8.8-.23.8-.08 1.52.38 2.2.47.65 1.17.98 2 .98h2c.3 2.53 1.08 4.33 1.93 5.66-2.38.53-4.23 0-4.3 0-.93-.34-1.85-.07-2.54.6-.62.66-.85 1.66-.55 2.52 2.38 7.12 5 9.38 8.45 10.5l-.77 1.94s0 .06-.07.13l-.08.27V72.53c0 .06 0 .2.08.2 0 .13 0 .2.07.26 0 .06.08.13.08.2.1.06.1.12.16.2 0 .06.08.12.08.2.08.06.08.12.15.2l.23.2c0 .06.07.06.07.12h.08l.08.07c2 1.45 4.14 2.12 6.37 2.12 1.84 0 3.7-.47 5.53-1.33 3.76 5.3 10.37 8.3 18.97 8.3 7.83 0 14.36-2.8 18.28-7.78.47.07.93.07 1.4.07 3.6 0 8.13-1 10.97-3.8.08-.07.16-.2.23-.27l.08-.07.08-.06c0-.07.07-.07.07-.14.08-.06.08-.13.16-.2 0-.13.06-.13.06-.26 0-.07.08-.14.08-.2 0-.07.08-.13.08-.2 0-.13 0-.2.07-.27v-.46c0-.14 0-.2-.08-.27v-.26c0-.07-.08-.14-.16-.2 0-.07 0-.14-.07-.2 0-.07-.1-.14-.1-.27l-.14-.13c-.08-.14-.16-.14-.16-.2-.07-.07-.07-.14-.15-.14v-.06l-.08-.07c-.46-.33-.77-.66-1-1 3.38-.93 9.3-5.38 7.07-15.7z" fill="#222d64"/><path d="M72.02 70.53c3.2-9.7-.92-19.38-3.94-23.47-.6-.87-1.57-1.2-2.55-1.02-.73.2-1.32.63-1.7 1.35-3.16-3.43-8.28-6.03-12.34-7.38-.87-.3-1.72-.53-2.44-.68-.72-.14-1.38-.05-1.97.34-.34.24-.6.58-.8.96-.13.2-.2.44-.26.73-.2 1.35-.2 2.74.13 4.05-1.96-.63-3.87-1.55-4.65-2.22-.07 0-.07-.05-.07-.05-.13-.05-.13-.14-.26-.2-.08-.04-.14-.04-.2-.1l-.07-.04c-.07 0-.14-.03-.14-.03-.07-.05-.14-.05-.2-.1-.13 0-.2-.05-.26-.05-.07 0-.14 0-.2-.05h-.46c-.13 0-.2 0-.26.05-.07 0-.2 0-.2.05-.13 0-.2.05-.26.1-.07 0-.13.04-.26.1 0 0 0 .04-.07.04-7.48 4.54-10.96 12.3-9.9 21.94.2 2.03.65 3.9 1.24 5.64-1.84.92-3.54 1.06-5.12.48l1.05-2.6c0-.15.07-.3.13-.43v-.5c0-.2 0-.33-.06-.48 0-.1-.07-.24-.07-.34 0 0 0-.1-.06-.1 0-.1-.07-.18-.13-.23l-.06-.2c-.06-.05-.06-.1-.13-.15-.06-.05-.12-.15-.2-.2-.12-.14-.18-.23-.38-.28l-.07-.05c-.13-.1-.26-.15-.32-.2l-.33-.1s-.07-.04-.2-.04c-2.75-.53-4.4-.87-6.1-4.24 2.1-.1 4.6-.67 7.15-2.3.85-.54 1.44-1.5 1.25-2.52-.2-.96-.8-1.73-1.77-1.93-.14 0-2.43-1.02-2.43-6.6 0-.06 0-.16-.07-.25v-.2c0-.1-.06-.2-.06-.28 0-.05-.07-.1-.07-.2s-.06-.2-.13-.24c0-.05-.06-.14-.13-.2-.07-.1-.07-.14-.13-.23-.06-.05-.12-.1-.12-.15-.07-.1-.13-.14-.27-.2-.05 0-.05-.1-.12-.1-.13-.03-.2-.08-.26-.13l-.2-.1c-.06-.04-.2-.04-.32-.1 0 0-.07-.04-.13-.04-.14-.05-.33-.05-.46-.05 1.38-1.45 3.3-2.65 5.4-3.95l.38-.24c.65-.34 1.05-.97 1.18-1.64.13-.72 0-1.4-.46-1.98l-.2-.14c-.32-.48-.65-.92-.98-1.35 2.43-.92 5.77-1.2 7.35-.53.78.34 1.7.2 2.42-.3.65-.47 1.04-1.3 1.04-2.16-.2-2.84 1-4.48 2.37-6.46.66-.96 1.45-1.98 1.97-3.18 1.77 1.3 3.4 3.23 3.68 4.48.13.58.4 1 .85 1.4 1.05.87 2.62.72 3.54-.34 1.05-1.35 5.18-3.32 9.12-4.48.33.34.6.87.72 1.45.2.58.33 2.37.26 5.7 0 .76.33 1.44.92 1.97.6.48 1.38.67 2.1.48l.6-.1c2.35-.52 4.4-1 5.9-.2 1.5.88 3.67 1.84 5.83 2.66-.07 0-.14.06-.2.1-.33.25-.53.5-.72.83-.66 1.2-.2 2.7.98 3.37 2.5 1.35 4 2.7 4.92 4.44-.52.24-.92.43-1.38.72-.78.43-1.5.92-2.36 1.25-.33.1-.6.3-.85.5-.6.53-.93 1.35-.86 2.2.4 2.76 1.9 4.16 3.08 4.83 2.23 1.3 5.12 1.06 7.28.58.26 5.5-3.08 6.95-3.8 7.2l-2.43.38c-1.12.2-1.97 1.1-2.1 2.22-.13 1.6.4 3.23 1.44 4.77-1.3.62-3 1-4.58 1.1z" fill="#009ddc"/><path d="M66.18 71.68s0 .07-.04.07c-2.9 4.13-8.28 6.55-14.86 6.55-10.54 0-16.77-4.9-17.6-13.9-.6-5.07.06-11.82 6.2-16.3 3.05 1.8 8.06 3.32 10.64 3.36.62.03 1.18-.17 1.67-.6 1.03-.9 1.17-2.45.27-3.5-.53-.64-.94-1.4-1.2-2.16 4.08 1.56 8.47 4.3 10.14 7.08.53.83 1.47 1.3 2.4 1.2.78-.07 1.44-.27 2.03-.57 2.12 4.38 4.1 11.83.42 18.78z" fill="#fff"/><path d="M54.07 66.3c-.18-.05-.37.03-.48.2-.48.7-1.5 1.18-2.58 1.18s-2.14-.5-2.6-1.27c-.1-.16-.3-.24-.5-.18-2.25.5-4.5 1.6-6.62 3.26-.7.52-1.1 1.35-1.1 2.2 0 1.2.28 2 .9 2.46.4.3.9.44 1.48.44.86 0 1.94-.28 3.2-.6 1.53-.42 3.25-.87 4.96-.83 1.7 0 3.4.4 4.95.77 2.23.5 4.2.94 5.28.06.54-.45.82-1.17.82-2.2.02-.68-.28-1.37-.82-1.83-.95-.8-3.5-2.8-6.98-3.62zM43.65 58.9c1.12 0 2.04 1.32 2.04 2.95 0 1.64-.93 2.96-2.05 2.96-1.13 0-2.05-1.3-2.05-2.95 0-1.63.92-2.95 2.05-2.95zM60.47 61.86c0-1.63-.9-2.95-2.05-2.95-1.12 0-2.03 1.33-2.03 2.96 0 1.62.9 2.94 2.02 2.94 1.14 0 2.05-1.32 2.05-2.94zM41.27 58c.3-.9 1.6-1.4 2.67-1.04.93.3 1.92-.2 2.2-1.14.32-.93-.18-1.92-1.1-2.22-2.95-.97-6.23.52-7.16 3.3-.3.93.2 1.92 1.14 2.23.94.3 1.93-.2 2.24-1.13zm14.76-4c-.86.47-1.2 1.55-.76 2.4.47.86 1.56 1.2 2.42.74.98-.52 2.33-.22 2.77.6.47.86 1.54 1.2 2.4.76.85-.47 1.16-1.54.72-2.4-1.4-2.56-4.84-3.52-7.57-2.06z" fill="#222d64"/></g></svg>