<svg xmlns="http://www.w3.org/2000/svg" xmlns:lucid="lucid" width="79" height="68"><g lucid:page-tab-id="0_0" stroke="#000000" stroke-opacity="0" stroke-width="0"><path d="M 66 46 l 2.4 -0.4 c 0.7 -0.2 4.1 -1.7 3.8 -7.2 c -2.2 0.5 -5.1 0.7 -7.3 -0.6 c -1.2 -0.7 -2.7 -2.1 -3.1 -4.8 c -0.1 -0.9 0.3 -1.7 0.8 -2.2 c 0.3 -0.2 0.5 -0.4 0.8 -0.5 c 0.9 -0.3 1.6 -0.8 2.4 -1.2 c 0.5 -0.2 0.9 -0.5 1.4 -0.7 c -0.9 -1.7 -2.4 -3.1 -4.9 -4.4 c -0.8 -0.4 -1.3 -1.1 -1.3 -2 c -0.1 -0.9 0.3 -1.7 1 -2.2 c 0.1 0 0.1 -0.1 0.2 -0.1 c -2.2 -0.8 -4.3 -1.8 -5.8 -2.6 c -1.5 -0.8 -3.6 -0.3 -5.9 0.2 l -0.6 0.1 c -1.3 0.3 -2.6 -0.5 -3 -1.8 c -0.1 -0.2 -0.1 -0.4 -0.1 -0.6 c 0.1 -3.3 -0.1 -5.1 -0.3 -5.7 c -0.1 -0.6 -0.3 -1 -0.7 -1.4 c -3.9 1.2 -8.1 3.1 -9.1 4.5 c -0.9 1.1 -2.5 1.2 -3.5 0.3 c -0.5 -0.4 -0.7 -0.8 -0.9 -1.4 c -0.3 -1.3 -1.9 -3.2 -3.7 -4.5 c -0.5 1.2 -1.3 2.2 -2 3.2 c -1.4 2 -2.5 3.6 -2.4 6.5 c 0 0.9 -0.4 1.7 -1 2.2 c -0.7 0.5 -1.6 0.6 -2.4 0.3 c -1.6 -0.7 -4.9 -0.4 -7.4 0.5 c 0.3 0.4 0.7 0.8 1 1.4 l 0.2 0.1 c 0.4 0.6 0.5 1.3 0.5 2 c -0.1 0.7 -0.6 1.3 -1.2 1.6 l -0.4 0.2 c -2.1 1.3 -4 2.5 -5.4 4 c 0.1 0 0.3 0 0.5 0 c 0.1 0 0.1 0 0.1 0 c 0.1 0 0.3 0 0.3 0.1 c 0.1 0 0.1 0 0.2 0.1 c 0.1 0 0.1 0.1 0.3 0.1 c 0.1 0 0.1 0.1 0.1 0.1 c 0.1 0 0.1 0.1 0.3 0.2 c 0 0 0.1 0.1 0.1 0.1 c 0.1 0.1 0.1 0.1 0.1 0.2 c 0.1 0 0.1 0.1 0.1 0.2 c 0.1 0 0.1 0.1 0.1 0.2 c 0 0 0.1 0.1 0.1 0.2 l 0.1 0.3 v 0.2 c 0 0.1 0.1 0.2 0.1 0.2 c 0 5.6 2.3 6.6 2.4 6.6 c 1 0.2 1.6 0.9 1.8 1.9 c 0.2 1 -0.4 2 -1.3 2.5 c -2.6 1.6 -5.1 2.2 -7.1 2.3 c 1.7 3.4 3.4 3.7 6.1 4.2 c 0.1 0 0.1 0 0.2 0 c 0.1 0 0.2 0.1 0.3 0.1 c 0.1 0 0.2 0.1 0.3 0.2 c 0 0 0.1 0 0.1 0 c 0.1 0.1 0.3 0.2 0.4 0.3 c 0.1 0 0.1 0.1 0.2 0.2 c 0.1 0 0.1 0.1 0.1 0.1 l 0.1 0.2 c 0.1 0 0.1 0.1 0.1 0.2 c 0 0 0 0.1 0.1 0.1 c 0 0.1 0.1 0.2 0.1 0.3 c 0.1 0.2 0.1 0.3 0.1 0.5 v 0.5 c -0.1 0.1 -0.1 0.3 -0.1 0.4 l -1.1 2.6 c 1.6 0.6 3.3 0.4 5.1 -0.5 c -0.6 -1.7 -1 -3.6 -1.3 -5.6 c -1.1 -9.6 2.4 -17.4 9.9 -21.9 c 0 0 0.1 0 0.1 0 c 0.1 0 0.2 -0.1 0.3 -0.1 c 0.1 0 0.1 0 0.3 -0.1 c 0.1 0 0.1 0 0.2 0 c 0.1 0 0.1 0 0.3 0 h 0.5 c 0.1 0 0.1 0 0.2 0 c 0.1 0 0.2 0 0.3 0 c 0.1 0 0.1 0 0.2 0.1 c 0.1 0 0.1 0 0.1 0 c 0 0 0.1 0 0.1 0.1 c 0.1 0 0.1 0.1 0.2 0.1 c 0.1 0 0.1 0.1 0.3 0.2 l 0.1 0 c 0.8 0.7 2.7 1.6 4.6 2.2 c -0.3 -1.4 -0.3 -2.7 -0.1 -4 c 0.1 -0.3 0.1 -0.5 0.3 -0.7 c 0.2 -0.4 0.5 -0.7 0.8 -1 c 0.6 -0.4 1.3 -0.5 2 -0.3 c 0.7 0.1 1.6 0.4 2.4 0.7 c 4 1.4 9.2 4 12.3 7.4 c 0.4 -0.7 1 -1.2 1.7 -1.4 h 0.1 c 0.9 -0.2 1.9 0.2 2.4 1 c 3 4.1 7.2 13.8 3.9 23.5 c 1.6 -0.1 3.2 -0.5 4.6 -1.2 c -1.1 -1.5 -1.6 -3.1 -1.5 -4.7 c 0.1 -1.2 0.9 -2 2 -2.2 z" fill="#009ddc"/><path d="M 52.6 37.1 c -1 0.1 -1.9 -0.3 -2.4 -1.2 c -1.7 -2.8 -6.1 -5.5 -10.2 -7.1 c 0.3 0.8 0.7 1.6 1.2 2.1 c 0.6 0.8 0.8 1.8 0.3 2.7 c -0.4 0.9 -1.3 1.5 -2.3 1.4 c -2.6 0 -7.6 -1.6 -10.6 -3.4 c -6.1 4.5 -6.7 11.2 -6.2 16.3 c 0.8 9 7.1 13.9 17.6 13.9 c 6.6 0 12 -2.4 14.9 -6.5 v -0.1 c 3.7 -6.9 1.7 -14.4 -0.4 -18.8 c -0.6 0.3 -1.2 0.5 -2 0.6 z" fill="#ffffff"/><path d="M 27.8 42.8 c -0.9 -0.3 -1.4 -1.3 -1.1 -2.2 c 0.9 -2.8 4.2 -4.3 7.1 -3.3 c 0.9 0.3 1.4 1.3 1.1 2.2 c -0.3 0.9 -1.3 1.4 -2.2 1.1 c -1.1 -0.4 -2.4 0.2 -2.6 1 c -0.3 1 -1.3 1.4 -2.3 1.1 z M 32.4 42.5 c 1.1 0 2 1.3 2 2.9 c 0 1.6 -0.9 3 -2 3 c -1.1 0 -2 -1.3 -2 -2.9 c 0 -1.6 0.9 -3 2 -3 z M 49.9 57.6 c -1.1 0.9 -3 0.4 -5.3 0 c -1.5 -0.3 -3.2 -0.8 -4.9 -0.8 c -1.7 0 -3.4 0.4 -5 0.8 c -1.3 0.3 -2.3 0.6 -3.2 0.6 c -0.6 0 -1.1 -0.1 -1.5 -0.4 c -0.6 -0.5 -0.9 -1.3 -0.9 -2.5 c 0 -0.8 0.4 -1.7 1.1 -2.2 c 2.2 -1.7 4.4 -2.8 6.6 -3.3 c 0.2 0 0.4 0 0.5 0.2 c 0.5 0.8 1.5 1.3 2.6 1.3 c 1.1 0 2.1 -0.5 2.6 -1.2 c 0.1 -0.1 0.3 -0.2 0.5 -0.2 c 3.5 0.8 6 2.9 7 3.6 c 0.6 0.5 0.9 1.2 0.8 1.9 c 0 1 -0.3 1.7 -0.9 2.2 z M 45.2 45.5 c 0 -1.6 0.9 -3 2 -3 s 2 1.3 2 3 c 0 1.6 -0.9 3 -2 3 s -2 -1.3 -2 -3 z m 6.5 -3.4 c -0.9 0.5 -1.9 0.1 -2.4 -0.8 c -0.5 -0.8 -1.8 -1.1 -2.8 -0.6 c -0.8 0.5 -1.9 0.1 -2.4 -0.7 c -0.5 -0.9 -0.1 -2 0.8 -2.4 c 2.7 -1.5 6.2 -0.5 7.6 2.1 c 0.5 0.8 0.1 1.9 -0.8 2.4 z" fill="#ffffff"/><path d="M 76.7 34.7 c 0 -0.1 -0.1 -0.3 -0.1 -0.4 c -0.5 -1.3 -2 -1.9 -3.3 -1.4 c -1.5 0.6 -4.1 1.2 -5.4 0.8 l 0.6 -0.3 c 0.9 -0.5 1.7 -1 2.7 -1.3 c 1.3 -0.4 2.1 -1.8 1.8 -3.1 c -0.9 -3.1 -2.5 -5.6 -5.2 -7.6 c 0.5 -0.6 1.1 -1.2 1.4 -1.9 c 0.4 -0.7 0.5 -1.5 0.1 -2.2 c -0.3 -0.7 -0.9 -1.2 -1.7 -1.3 c -2.6 -0.6 -6.3 -2.1 -8.6 -3.5 c -2.3 -1.2 -4.7 -1.1 -6.9 -0.8 c 0 -1.8 -0.2 -3.1 -0.4 -4 c -0.6 -2.3 -2.1 -4.2 -3.9 -5 c -0.6 -0.3 -1.2 -0.3 -1.7 -0.2 c -2.5 0.7 -7 2.1 -10.1 4.2 c -2 -2.9 -5.4 -5.4 -7.9 -6.2 c -0.8 -0.3 -1.5 -0.1 -2.2 0.3 c -0.7 0.5 -1 1.2 -1 2.1 c 0 1.3 -0.7 2.3 -1.8 4 c -1.2 1.6 -2.6 3.6 -3.1 6.4 c -4 -0.3 -9 1.1 -11.5 3.5 c -0.2 0.1 -0.2 0.2 -0.3 0.3 c -0.9 1.1 -0.6 2.7 0.5 3.5 c 0.1 0.1 0.4 0.3 0.8 0.9 c -3.2 2.1 -6.4 4.6 -7.6 8.8 c -0.2 0.8 -0.1 1.5 0.4 2.2 c 0.5 0.6 1.2 1 2 1 h 2 c 0.3 2.5 1.1 4.3 1.9 5.7 c -2.4 0.5 -4.2 0 -4.3 0 c -0.9 -0.3 -1.8 -0.1 -2.5 0.6 c -0.6 0.7 -0.8 1.7 -0.6 2.5 c 2.4 7.1 5 9.4 8.4 10.5 l -0.8 1.9 s 0 0.1 -0.1 0.1 l -0.1 0.3 V 56.1 c 0 0.1 0 0.2 0.1 0.2 c 0 0.1 0 0.2 0.1 0.3 c 0 0.1 0.1 0.1 0.1 0.2 c 0.1 0.1 0.1 0.1 0.2 0.2 c 0 0.1 0.1 0.1 0.1 0.2 c 0.1 0.1 0.1 0.1 0.1 0.2 l 0.2 0.2 c 0 0.1 0.1 0.1 0.1 0.1 h 0.1 l 0.1 0.1 c 2 1.4 4.1 2.1 6.4 2.1 c 1.8 0 3.7 -0.5 5.5 -1.3 c 3.8 5.3 10.4 8.3 19 8.3 c 7.8 0 14.4 -2.8 18.3 -7.8 c 0.5 0.1 0.9 0.1 1.4 0.1 c 3.6 0 8.1 -1 11 -3.8 c 0.1 -0.1 0.2 -0.2 0.2 -0.3 l 0.1 -0.1 l 0.1 -0.1 c 0 -0.1 0.1 -0.1 0.1 -0.1 c 0.1 -0.1 0.1 -0.1 0.2 -0.2 c 0 -0.1 0.1 -0.1 0.1 -0.3 c 0 -0.1 0.1 -0.1 0.1 -0.2 c 0 -0.1 0.1 -0.1 0.1 -0.2 c 0 -0.1 0 -0.2 0.1 -0.3 v -0.5 c 0 -0.1 0 -0.2 -0.1 -0.3 v -0.3 c 0 -0.1 -0.1 -0.1 -0.2 -0.2 c 0 -0.1 0 -0.1 -0.1 -0.2 c 0 -0.1 -0.1 -0.1 -0.1 -0.3 l -0.1 -0.1 c -0.1 -0.1 -0.2 -0.1 -0.2 -0.2 c -0.1 -0.1 -0.1 -0.1 -0.2 -0.1 v -0.1 l -0.1 -0.1 c -0.5 -0.3 -0.8 -0.7 -1 -1 c 3.4 -0.9 9.3 -5.4 7.1 -15.7 z" fill="#222d64"/><path d="M 60.8 54.1 c 3.2 -9.7 -0.9 -19.4 -3.9 -23.5 c -0.6 -0.9 -1.6 -1.2 -2.6 -1 c -0.7 0.2 -1.3 0.6 -1.7 1.4 c -3.2 -3.4 -8.3 -6 -12.3 -7.4 c -0.9 -0.3 -1.7 -0.5 -2.4 -0.7 c -0.7 -0.1 -1.4 0 -2 0.3 c -0.3 0.2 -0.6 0.6 -0.8 1 c -0.1 0.2 -0.2 0.4 -0.3 0.7 c -0.2 1.4 -0.2 2.7 0.1 4 c -2 -0.6 -3.9 -1.5 -4.6 -2.2 c -0.1 0 -0.1 0 -0.1 0 c -0.1 0 -0.1 -0.1 -0.3 -0.2 c -0.1 0 -0.1 0 -0.2 -0.1 l -0.1 0 c -0.1 0 -0.1 0 -0.1 0 c -0.1 0 -0.1 0 -0.2 -0.1 c -0.1 0 -0.2 0 -0.3 0 c -0.1 0 -0.1 0 -0.2 0 h -0.5 c -0.1 0 -0.2 0 -0.3 0 c -0.1 0 -0.2 0 -0.2 0 c -0.1 0 -0.2 0 -0.3 0.1 c -0.1 0 -0.1 0 -0.3 0.1 c 0 0 0 0 -0.1 0 c -7.5 4.5 -11 12.3 -9.9 21.9 c 0.2 2 0.6 3.9 1.2 5.6 c -1.8 0.9 -3.5 1.1 -5.1 0.5 l 1.1 -2.6 c 0 -0.2 0.1 -0.3 0.1 -0.4 v -0.5 c 0 -0.2 0 -0.3 -0.1 -0.5 c 0 -0.1 -0.1 -0.2 -0.1 -0.3 c 0 0 0 -0.1 -0.1 -0.1 c 0 -0.1 -0.1 -0.2 -0.1 -0.2 l -0.1 -0.2 c -0.1 -0.1 -0.1 -0.1 -0.1 -0.2 c -0.1 -0.1 -0.1 -0.2 -0.2 -0.2 c -0.1 -0.1 -0.2 -0.2 -0.4 -0.3 l -0.1 0 c -0.1 -0.1 -0.3 -0.2 -0.3 -0.2 l -0.3 -0.1 s -0.1 0 -0.2 0 c -2.8 -0.5 -4.4 -0.9 -6.1 -4.2 c 2.1 -0.1 4.6 -0.7 7.1 -2.3 c 0.9 -0.5 1.4 -1.5 1.3 -2.5 c -0.2 -1 -0.8 -1.7 -1.8 -1.9 c -0.1 0 -2.4 -1 -2.4 -6.6 c 0 -0.1 0 -0.2 -0.1 -0.3 v -0.2 c 0 -0.1 -0.1 -0.2 -0.1 -0.3 c 0 0 -0.1 -0.1 -0.1 -0.2 s -0.1 -0.2 -0.1 -0.2 c 0 0 -0.1 -0.1 -0.1 -0.2 c -0.1 -0.1 -0.1 -0.1 -0.1 -0.2 c -0.1 0 -0.1 -0.1 -0.1 -0.1 c -0.1 -0.1 -0.1 -0.1 -0.3 -0.2 c -0.1 0 -0.1 -0.1 -0.1 -0.1 c -0.1 0 -0.2 -0.1 -0.3 -0.1 l -0.2 -0.1 c -0.1 0 -0.2 0 -0.3 -0.1 c 0 0 -0.1 0 -0.1 0 c -0.1 0 -0.3 0 -0.5 0 c 1.4 -1.5 3.3 -2.6 5.4 -4 l 0.4 -0.2 c 0.7 -0.3 1.1 -1 1.2 -1.6 c 0.1 -0.7 0 -1.4 -0.5 -2 l -0.2 -0.1 c -0.3 -0.5 -0.6 -0.9 -1 -1.4 c 2.4 -0.9 5.8 -1.2 7.3 -0.5 c 0.8 0.3 1.7 0.2 2.4 -0.3 c 0.6 -0.5 1 -1.3 1 -2.2 c -0.2 -2.8 1 -4.5 2.4 -6.5 c 0.7 -1 1.5 -2 2 -3.2 c 1.8 1.3 3.4 3.2 3.7 4.5 c 0.1 0.6 0.4 1 0.9 1.4 c 1 0.9 2.6 0.7 3.5 -0.3 c 1 -1.4 5.2 -3.3 9.1 -4.5 c 0.3 0.3 0.6 0.9 0.7 1.4 c 0.2 0.6 0.3 2.4 0.3 5.7 c 0 0.8 0.3 1.4 0.9 2 c 0.6 0.5 1.4 0.7 2.1 0.5 l 0.6 -0.1 c 2.4 -0.5 4.4 -1 5.9 -0.2 c 1.5 0.9 3.7 1.8 5.8 2.7 c -0.1 0 -0.1 0.1 -0.2 0.1 c -0.3 0.3 -0.5 0.5 -0.7 0.8 c -0.7 1.2 -0.2 2.7 1 3.4 c 2.5 1.4 4 2.7 4.9 4.4 c -0.5 0.2 -0.9 0.4 -1.4 0.7 c -0.8 0.4 -1.5 0.9 -2.4 1.3 c -0.3 0.1 -0.6 0.3 -0.8 0.5 c -0.6 0.5 -0.9 1.4 -0.9 2.2 c 0.4 2.8 1.9 4.2 3.1 4.8 c 2.2 1.3 5.1 1.1 7.3 0.6 c 0.3 5.5 -3.1 7 -3.8 7.2 l -2.4 0.4 c -1.1 0.2 -2 1.1 -2.1 2.2 c -0.1 1.6 0.4 3.2 1.4 4.8 c -1.3 0.6 -3 1 -4.6 1.1 z" fill="#009ddc"/><path d="M 54.9 55.3 s 0 0.1 0 0.1 c -2.9 4.1 -8.3 6.5 -14.9 6.5 c -10.5 0 -16.8 -4.9 -17.6 -13.9 c -0.6 -5.1 0.1 -11.8 6.2 -16.3 c 3 1.8 8.1 3.3 10.6 3.4 c 0.6 0 1.2 -0.2 1.7 -0.6 c 1 -0.9 1.2 -2.5 0.3 -3.5 c -0.5 -0.6 -0.9 -1.4 -1.2 -2.2 c 4.1 1.6 8.5 4.3 10.1 7.1 c 0.5 0.8 1.5 1.3 2.4 1.2 c 0.8 -0.1 1.4 -0.3 2 -0.6 c 2.1 4.4 4.1 11.8 0.4 18.8 z" fill="#ffffff"/><path d="M 42.8 49.9 c -0.2 -0.1 -0.4 0 -0.5 0.2 c -0.5 0.7 -1.5 1.2 -2.6 1.2 s -2.1 -0.5 -2.6 -1.3 c -0.1 -0.2 -0.3 -0.2 -0.5 -0.2 c -2.3 0.5 -4.5 1.6 -6.6 3.3 c -0.7 0.5 -1.1 1.3 -1.1 2.2 c 0 1.2 0.3 2 0.9 2.5 c 0.4 0.3 0.9 0.4 1.5 0.4 c 0.9 0 1.9 -0.3 3.2 -0.6 c 1.5 -0.4 3.3 -0.9 5 -0.8 c 1.7 0 3.4 0.4 4.9 0.8 c 2.2 0.5 4.2 0.9 5.3 0.1 c 0.5 -0.5 0.8 -1.2 0.8 -2.2 c 0 -0.7 -0.3 -1.4 -0.8 -1.8 c -0.9 -0.8 -3.5 -2.8 -7 -3.6 z M 32.4 42.5 c 1.1 0 2 1.3 2 2.9 c 0 1.6 -0.9 3 -2 3 c -1.1 0 -2 -1.3 -2 -2.9 c 0 -1.6 0.9 -3 2 -3 z M 49.2 45.5 c 0 -1.6 -0.9 -3 -2 -3 c -1.1 0 -2 1.3 -2 3 c 0 1.6 0.9 2.9 2 2.9 c 1.1 0 2 -1.3 2 -2.9 z M 30 41.6 c 0.3 -0.9 1.6 -1.4 2.7 -1 c 0.9 0.3 1.9 -0.2 2.2 -1.1 c 0.3 -0.9 -0.2 -1.9 -1.1 -2.2 c -3 -1 -6.2 0.5 -7.2 3.3 c -0.3 0.9 0.2 1.9 1.1 2.2 c 0.9 0.3 1.9 -0.2 2.2 -1.1 z m 14.8 -4 c -0.9 0.5 -1.2 1.5 -0.8 2.4 c 0.5 0.9 1.6 1.2 2.4 0.7 c 1 -0.5 2.3 -0.2 2.8 0.6 c 0.5 0.9 1.5 1.2 2.4 0.8 c 0.9 -0.5 1.2 -1.5 0.7 -2.4 c -1.4 -2.6 -4.8 -3.5 -7.6 -2.1 z" fill="#222d64"/></g></svg>