<?xml version="1.0" encoding="UTF-8"?>
<svg id="Camada_1" xmlns="http://www.w3.org/2000/svg" version="1.1" xmlns:lucid="lucid" viewBox="0 0 59.8 53">
  <!-- Generator: Adobe Illustrator 29.5.0, SVG Export Plug-In . SVG Version: 2.1.0 Build 137)  -->
  <defs>
    <style>
      .st0 {
        fill: #fff;
      }

      .st0, .st1, .st2 {
        stroke: #000;
        stroke-opacity: 0;
      }

      .st1 {
        fill: #70bf75;
      }

      .st2 {
        fill: #396547;
      }
    </style>
  </defs>
  <g lucid:page-tab-id="0_0">
    <path class="st1" d="M54.2,11.8H13.7l3.4,17h33.5s3.6-17,3.6-17Z"/>
    <path class="st2" d="M54.6,31.5l4.7-21.5v-.6c0-1.2-1-2.3-2.2-2.3H12.8l-1.1-4.8c-.3-1-1.1-1.8-2.2-1.8H2.7c-1.2,0-2.2,1-2.2,2.2s1,2.3,2.2,2.3h5l7,34.5c-2.4,1-4.1,3.4-4.1,6.2,0,3.7,3.1,6.8,6.8,6.8s6.8-3.1,6.8-6.8c0-.8-.1-1.6-.4-2.3h16.6c-.2.7-.4,1.5-.4,2.3,0,3.7,3,6.8,6.7,6.8s6.8-3.1,6.8-6.8c0-.8-.1-1.6-.3-2.3h1.7c1.2,0,2.2-1,2.2-2.2,0-1.3-1-2.3-2.2-2.3H19.2l-1.1-5.7h34.4c1,0,1.9-.7,2.1-1.8,0,0,0,.1,0,.1ZM49.1,45.7c0,1.2-1,2.2-2.3,2.2-1.2,0-2.2-1-2.2-2.2,0-1.3,1-2.3,2.2-2.3,1.3,0,2.3,1.1,2.3,2.3ZM13.7,11.7h40.4l-3.5,17H17.1s-3.4-17-3.4-17ZM19.7,45.7c0,1.2-1,2.2-2.3,2.2-1.2,0-2.2-1-2.2-2.2,0-1.3,1-2.3,2.2-2.3,1.3,0,2.3,1.1,2.3,2.3Z"/>
    <path class="st0" d="M17.4,48c1.3,0,2.3-1,2.3-2.3s-1-2.3-2.3-2.3-2.3,1-2.3,2.3,1,2.3,2.3,2.3ZM46.8,48c1.3,0,2.3-1,2.3-2.3s-1-2.3-2.3-2.3-2.3,1-2.3,2.3,1,2.3,2.3,2.3Z"/>
  </g>
</svg>