<svg xmlns="http://www.w3.org/2000/svg" xmlns:lucid="lucid" width="59" height="53"><g lucid:page-tab-id="0_0" stroke="#000000" stroke-opacity="0"><path d="M 53.8 11.6 H 13.3 l 3.4 17 h 33.5 l 3.6 -17 z" fill="#70bf75"/><path d="M 54.2 31.3 L 58.9 9.8 v -0.6 c 0 -1.2 -1 -2.3 -2.2 -2.3 H 12.4 l -1.1 -4.8 c -0.3 -1 -1.1 -1.8 -2.2 -1.8 h -6.8 c -1.2 0 -2.2 1 -2.2 2.2 c 0 1.2 1 2.3 2.2 2.3 h 5 l 7 34.5 c -2.4 1 -4.1 3.4 -4.1 6.2 c 0 3.7 3.1 6.8 6.8 6.8 c 3.8 0 6.8 -3.1 6.8 -6.8 c 0 -0.8 -0.1 -1.6 -0.4 -2.3 h 16.6 c -0.2 0.7 -0.4 1.5 -0.4 2.3 c 0 3.7 3 6.8 6.7 6.8 c 3.8 0 6.8 -3.1 6.8 -6.8 c 0 -0.8 -0.1 -1.6 -0.3 -2.3 H 54.5 c 1.2 0 2.2 -1 2.2 -2.2 c 0 -1.3 -1 -2.3 -2.2 -2.3 H 18.8 l -1.1 -5.7 h 34.4 c 1 0 1.9 -0.7 2.1 -1.8 z m -5.5 14.2 c 0 1.2 -1 2.2 -2.3 2.2 c -1.2 0 -2.2 -1 -2.2 -2.2 c 0 -1.3 1 -2.3 2.2 -2.3 c 1.3 0 2.3 1.1 2.3 2.3 z m -35.4 -34 h 40.4 L 50.2 28.5 H 16.7 l -3.4 -17 z m 6 34 c 0 1.2 -1 2.2 -2.3 2.2 c -1.2 0 -2.2 -1 -2.2 -2.2 c 0 -1.3 1 -2.3 2.2 -2.3 c 1.3 0 2.3 1.1 2.3 2.3 z" fill="#396547"/><path d="M 17 47.8 c 1.3 0 2.3 -1 2.3 -2.3 c 0 -1.3 -1 -2.3 -2.3 -2.3 c -1.3 0 -2.3 1 -2.3 2.3 c 0 1.3 1 2.3 2.3 2.3 z M 46.4 47.8 c 1.3 0 2.3 -1 2.3 -2.3 c 0 -1.3 -1 -2.3 -2.3 -2.3 c -1.3 0 -2.3 1 -2.3 2.3 c 0 1.3 1 2.3 2.3 2.3 z" fill="#ffffff"/></g></svg>