<svg xmlns="http://www.w3.org/2000/svg" xmlns:lucid="lucid" width="100" height="100"><g lucid:page-tab-id="0_0" stroke="#000" stroke-opacity="0"><path d="M74.3 35.6H33.8l3.4 17h33.5l3.6-17z" fill="#70bf75"/><path d="M74.76 55.3L79.4 33.8v-.58c0-1.24-1-2.28-2.23-2.28H32.95l-1.06-4.84c-.25-1.04-1.13-1.82-2.24-1.82h-6.83c-1.23 0-2.23 1.04-2.23 2.24 0 1.24 1 2.28 2.23 2.28h5l7 34.48c-2.35 1.04-4.06 3.38-4.06 6.24 0 3.7 3.06 6.76 6.76 6.76 3.77 0 6.83-3.07 6.83-6.76 0-.83-.12-1.6-.36-2.3h16.64c-.23.7-.35 1.47-.35 2.3 0 3.7 3.05 6.76 6.75 6.76 3.77 0 6.82-3.07 6.82-6.76 0-.83-.1-1.6-.35-2.3H75c1.22 0 2.22-.98 2.22-2.22 0-1.25-1-2.3-2.23-2.3H39.35l-1.12-5.66h34.4c1 0 1.88-.68 2.12-1.77zm-5.53 14.24c0 1.2-1 2.24-2.3 2.24-1.23 0-2.23-1.04-2.23-2.24 0-1.25 1-2.3 2.23-2.3 1.3 0 2.3 1.05 2.3 2.3zm-35.4-33.96h40.45L70.7 52.54H37.24l-3.4-16.96zm6 33.96c0 1.2-1 2.24-2.3 2.24-1.23 0-2.23-1.04-2.23-2.24 0-1.25 1-2.3 2.23-2.3 1.3 0 2.3 1.05 2.3 2.3z" fill="#396547"/><path d="M37.56 71.82c1.25 0 2.26-1 2.26-2.26 0-1.25-1-2.26-2.26-2.26-1.25 0-2.26 1-2.26 2.26 0 1.25 1 2.26 2.26 2.26zM66.96 71.82c1.25 0 2.26-1 2.26-2.26 0-1.25-1-2.26-2.26-2.26-1.25 0-2.26 1-2.26 2.26 0 1.25 1 2.26 2.26 2.26z" fill="#fff"/></g></svg>