<?xml version="1.0" encoding="UTF-8"?>
<svg id="Camada_1" xmlns="http://www.w3.org/2000/svg" version="1.1" xmlns:lucid="lucid" viewBox="0 0 59.8 59.9">
  <!-- Generator: Adobe Illustrator 29.5.0, SVG Export Plug-In . SVG Version: 2.1.0 Build 137)  -->
  <defs>
    <style>
      .st0 {
        fill: #0176d3;
      }

      .st0, .st1, .st2, .st3, .st4, .st5, .st6, .st7, .st8, .st9, .st10, .st11 {
        stroke: #000;
        stroke-opacity: 0;
      }

      .st1 {
        fill: #e26e8c;
      }

      .st2 {
        fill: #01c3b3;
      }

      .st3 {
        fill: #fe9339;
      }

      .st4 {
        fill: #032d60;
      }

      .st5 {
        fill: #fcc003;
      }

      .st6 {
        fill: #8a8ed1;
      }

      .st7 {
        fill: #0b5cab;
      }

      .st8 {
        fill: #70bf75;
      }

      .st9 {
        fill: #ff784f;
      }

      .st10 {
        fill: #0d9dda;
      }

      .st11 {
        fill: #730394;
      }
    </style>
  </defs>
  <g lucid:page-tab-id="0_0">
    <path class="st2" d="M29.9.5c-2.6,0-4.7,2.1-4.7,4.7s2.1,4.7,4.7,4.7,4.7-2.1,4.7-4.7S32.5.5,29.9.5Z"/>
    <path class="st1" d="M44.6,4.5c-2.2-1.2-5.1-.5-6.4,1.7-1.3,2.2-.5,5.2,1.7,6.4,2.2,1.3,5.1.5,6.4-1.7,1.3-2.2.6-5.2-1.7-6.4Z"/>
    <path class="st3" d="M55.3,15.2c-1.3-2.2-4.2-3-6.4-1.7s-3.1,4.2-1.7,6.4c1.3,2.2,4.2,3.1,6.4,1.7s3.1-4.2,1.7-6.4Z"/>
    <path class="st8" d="M59.3,29.9c0-2.6-2.1-4.7-4.7-4.7s-4.7,2.1-4.7,4.7,2.1,4.7,4.7,4.7,4.7-2.1,4.7-4.7Z"/>
    <path class="st7" d="M55.3,44.6c1.3-2.2.5-5.1-1.7-6.4-2.2-1.3-5.2-.5-6.4,1.7-1.3,2.2-.5,5.2,1.7,6.4,2.2,1.4,5.2.6,6.4-1.7Z"/>
    <path class="st4" d="M44.6,55.4c2.2-1.3,3-4.2,1.7-6.4s-4.2-3.1-6.4-1.7c-2.2,1.3-3.1,4.2-1.7,6.4,1.3,2.2,4.1,3.1,6.4,1.7Z"/>
    <path class="st6" d="M29.9,59.4c2.6,0,4.7-2.1,4.7-4.7s-2.1-4.7-4.7-4.7-4.7,2.1-4.7,4.7,2.1,4.7,4.7,4.7Z"/>
    <path class="st11" d="M15.2,55.3c2.2,1.3,5.1.5,6.4-1.7s.5-5.2-1.7-6.4-5.2-.5-6.4,1.7c-1.4,2.2-.6,5.1,1.7,6.4Z"/>
    <path class="st0" d="M4.5,44.6c1.3,2.2,4.2,3.1,6.4,1.7,2.2-1.4,3.1-4.2,1.7-6.4-1.3-2.2-4.2-3.1-6.4-1.7-2.2,1.4-3.1,4.2-1.7,6.4Z"/>
    <path class="st9" d="M.5,29.9c0,2.6,2.1,4.7,4.7,4.7s4.7-2.1,4.7-4.7-2.1-4.7-4.7-4.7S.5,27.3.5,29.9Z"/>
    <path class="st5" d="M4.5,15.2c-1.2,2.2-.5,5.1,1.7,6.4s5.2.5,6.4-1.7c1.3-2.2.5-5.1-1.7-6.4-2.2-1.3-5.2-.6-6.4,1.7Z"/>
    <path class="st10" d="M15.2,4.5c-2.2,1.3-3,4.2-1.7,6.4s4.2,3.1,6.4,1.7c2.2-1.3,3.1-4.2,1.7-6.4-1.3-2.2-4.1-3.1-6.4-1.7Z"/>
  </g>
</svg>