<svg xmlns="http://www.w3.org/2000/svg" xmlns:lucid="lucid" width="60" height="60"><g lucid:page-tab-id="0_0" stroke="#000000" stroke-opacity="0"><path d="M 30.2 0.4 c -2.6 0 -4.7 2.1 -4.7 4.7 c 0 2.6 2.1 4.7 4.7 4.7 c 2.6 0 4.7 -2.1 4.7 -4.7 c 0 -2.6 -2.1 -4.7 -4.7 -4.7 z" fill="#01c3b3"/><path d="M 44.9 4.4 c -2.2 -1.2 -5.1 -0.5 -6.4 1.7 c -1.3 2.2 -0.5 5.2 1.7 6.4 c 2.2 1.3 5.1 0.5 6.4 -1.7 c 1.3 -2.2 0.6 -5.2 -1.7 -6.4 z" fill="#e26e8c"/><path d="M 55.6 15.1 c -1.3 -2.2 -4.2 -3 -6.4 -1.7 c -2.2 1.3 -3.1 4.2 -1.7 6.4 c 1.3 2.2 4.2 3.1 6.4 1.7 c 2.2 -1.4 3.1 -4.2 1.7 -6.4 z" fill="#fe9339"/><path d="M 59.6 29.8 c 0 -2.6 -2.1 -4.7 -4.7 -4.7 c -2.6 0 -4.7 2.1 -4.7 4.7 c 0 2.6 2.1 4.7 4.7 4.7 c 2.6 0 4.7 -2.1 4.7 -4.7 z" fill="#70bf75"/><path d="M 55.6 44.5 c 1.3 -2.2 0.5 -5.1 -1.7 -6.4 c -2.2 -1.3 -5.2 -0.5 -6.4 1.7 c -1.3 2.2 -0.5 5.2 1.7 6.4 c 2.2 1.4 5.2 0.6 6.4 -1.7 z" fill="#0b5cab"/><path d="M 44.9 55.3 c 2.2 -1.3 3 -4.2 1.7 -6.4 c -1.3 -2.2 -4.2 -3.1 -6.4 -1.7 c -2.2 1.3 -3.1 4.2 -1.7 6.4 c 1.3 2.2 4.1 3.1 6.4 1.7 z" fill="#032d60"/><path d="M 30.2 59.3 c 2.6 0 4.7 -2.1 4.7 -4.7 c 0 -2.6 -2.1 -4.7 -4.7 -4.7 c -2.6 0 -4.7 2.1 -4.7 4.7 c 0 2.6 2.1 4.7 4.7 4.7 z" fill="#8a8ed1"/><path d="M 15.5 55.2 c 2.2 1.3 5.1 0.5 6.4 -1.7 c 1.3 -2.2 0.5 -5.2 -1.7 -6.4 c -2.2 -1.2 -5.2 -0.5 -6.4 1.7 c -1.4 2.2 -0.6 5.1 1.7 6.4 z" fill="#730394"/><path d="M 4.8 44.5 c 1.3 2.2 4.2 3.1 6.4 1.7 c 2.2 -1.4 3.1 -4.2 1.7 -6.4 c -1.3 -2.2 -4.2 -3.1 -6.4 -1.7 c -2.2 1.4 -3.1 4.2 -1.7 6.4 z" fill="#0176d3"/><path d="M 0.8 29.8 c 0 2.6 2.1 4.7 4.7 4.7 c 2.6 0 4.7 -2.1 4.7 -4.7 c 0 -2.6 -2.1 -4.7 -4.7 -4.7 c -2.6 0 -4.7 2.1 -4.7 4.7 z" fill="#ff784f"/><path d="M 4.8 15.1 c -1.2 2.2 -0.5 5.1 1.7 6.4 c 2.2 1.3 5.2 0.5 6.4 -1.7 c 1.3 -2.2 0.5 -5.1 -1.7 -6.4 c -2.2 -1.3 -5.2 -0.6 -6.4 1.7 z" fill="#fcc003"/><path d="M 15.5 4.4 c -2.2 1.3 -3 4.2 -1.7 6.4 c 1.3 2.2 4.2 3.1 6.4 1.7 c 2.2 -1.3 3.1 -4.2 1.7 -6.4 c -1.3 -2.2 -4.1 -3.1 -6.4 -1.7 z" fill="#0d9dda"/></g></svg>