<svg xmlns="http://www.w3.org/2000/svg" xmlns:lucid="lucid" width="100" height="100"><g lucid:page-tab-id="0_0" stroke="#000" stroke-opacity="0" stroke-width="0"><path d="M50 26.1c-13.2 0-23.9 10.76-23.9 23.93 0 7.9 3.82 14.86 9.7 19.23.72-4.63 3.3-8.3 7.46-10.5C40.5 56.6 39 53.56 39 50.08c0-6.1 4.93-11.02 11-11.02 6.02 0 10.95 4.97 10.95 11.02 0 3.5-1.68 6.65-4.26 8.68 3.9 2.07 6.78 5.96 7.45 10.54 6.36-4.67 9.75-11.36 9.75-19.22 0-13.22-10.7-23.94-23.9-23.94z" fill="#8a8ed1"/><path d="M33.17 40.42c.7-1.2 2.2-1.6 3.38-.9 1.2.66 1.6 2.18.94 3.37-.48.8-1.3 1.27-2.15 1.27-1.37 0-2.5-1.13-2.5-2.5 0-.46.12-.85.36-1.25zm-2.57 9.7c0-1.37 1.1-2.47 2.5-2.5 1.35 0 2.48 1.1 2.48 2.47 0 1.4-1.1 2.5-2.45 2.5-1.4 0-2.5-1.1-2.5-2.5zm6.03 10.64c-.4.25-.78.34-1.25.34-.85 0-1.7-.43-2.17-1.25-.66-1.2-.27-2.72.94-3.42 1.17-.7 2.72-.27 3.42.92.7 1.2.27 2.7-.93 3.4zm6.15-23.2c-.4.24-.82.33-1.3.33-.84 0-1.66-.44-2.13-1.26-.7-1.2-.3-2.7.9-3.42 1.2-.7 2.72-.27 3.42.92.7 1.2.3 2.7-.9 3.4zm7.27-1.96h-.08c-1.4 0-2.5-1.1-2.5-2.5 0-1.37 1.1-2.47 2.5-2.5h.08c1.4 0 2.5 1.13 2.5 2.5s-1.14 2.47-2.5 2.47zm10.66 1c-.7 1.2-2.2 1.62-3.42.92-1.16-.7-1.6-2.22-.9-3.4.67-1.2 2.23-1.6 3.4-.93 1.2.7 1.6 2.22.93 3.4zm2.77 2.8c1.2-.7 2.72-.26 3.42.93.66 1.2.27 2.74-.94 3.42-1.17.7-2.68.27-3.38-.92-.7-1.2-.28-2.7.9-3.42zm3.42 20.4c-.47.8-1.3 1.27-2.15 1.27-1.36 0-2.48-1.1-2.48-2.47 0-.46.1-.85.34-1.25h.02c.66-1.2 2.2-1.62 3.42-.92 1.16.7 1.6 2.2.9 3.4zm.1-7.24c-1.35 0-2.48-1.1-2.48-2.47 0-1.4 1.13-2.54 2.5-2.54 1.4 0 2.48 1.1 2.48 2.5 0 1.37-1.1 2.47-2.5 2.47z" fill="#8a8ed1"/><path d="M57 50c0 3.86-3.14 7-7 7s-7-3.14-7-7 3.14-7 7-7 7 3.14 7 7zM49.98 61.1c-5.74 0-10.38 4.67-10.38 10.4v.13C42.74 73.15 46.28 74 50.02 74c3.72 0 7.24-.85 10.38-2.37v-.14c0-5.76-4.66-10.4-10.38-10.4z" fill="#fff"/><path d="M77.9 50c0 15.4-12.5 27.9-27.9 27.9-15.4 0-27.9-12.5-27.9-27.9 0-15.4 12.5-27.9 27.9-27.9 15.4 0 27.9 12.5 27.9 27.9z" fill="#200d38"/><path d="M60.4 71.63C57.26 73.15 53.74 74 50.02 74c-3.74 0-7.28-.85-10.42-2.37v-.14c0-5.76 4.66-10.4 10.38-10.4 5.72 0 10.4 4.67 10.4 10.4v.13zM57 50c0 3.86-3.14 7-7 7s-7-3.14-7-7 3.14-7 7-7 7 3.14 7 7z" fill="#fff"/><path d="M64.23 69.3c-.72-4.67-3.3-8.34-7.47-10.54 2.58-2.03 4.26-5.2 4.26-8.68 0-6.1-4.94-11.02-11.02-11.02-6.03 0-10.97 4.97-10.97 11.02 0 3.5 1.68 6.65 4.27 8.68-4.12 2.2-6.76 5.87-7.48 10.5C29.5 64.6 26.1 57.9 26.1 50.03c0-13.17 10.73-23.93 23.95-23.93C63.27 26.1 74 36.86 74 50.03c0 7.9-3.83 14.86-9.77 19.23z" fill="#8a8ed1"/><path d="M59.67 33.22c-1.16-.7-2.68-.27-3.38.92-.7 1.2-.28 2.7.92 3.4 1.17.68 2.7.3 3.4-.9.65-1.2.26-2.7-.95-3.42zM33.03 52.6c1.36 0 2.45-1.1 2.45-2.48 0-1.37-1.13-2.5-2.5-2.5-1.4.03-2.48 1.13-2.48 2.53 0 1.37 1.1 2.47 2.5 2.47zm31.58-8.52c.48 0 .87-.12 1.26-.33 1.2-.7 1.6-2.23.93-3.42v-.03c-.7-1.16-2.22-1.6-3.43-.9-1.17.72-1.6 2.24-.9 3.43.47.8 1.3 1.25 2.14 1.25zM34 43.8c.4.22.82.3 1.25.3.85 0 1.7-.4 2.13-1.24.7-1.2.28-2.74-.93-3.42-1.17-.67-2.68-.27-3.38.92-.7 1.2-.27 2.7.9 3.42zm31.9 12.54c-1.2-.67-2.72-.27-3.42.92-.24.4-.35.8-.35 1.25 0 1.38 1.12 2.48 2.48 2.48.87 0 1.73-.43 2.2-1.25.66-1.2.27-2.72-.94-3.42zm1-8.78c-1.35 0-2.48 1.1-2.48 2.5s1.13 2.47 2.5 2.47c1.4 0 2.48-1.1 2.48-2.47s-1.1-2.47-2.5-2.47zM50 30.6h-.1c-1.4 0-2.48 1.13-2.48 2.5 0 1.4 1.1 2.5 2.5 2.5h.07c1.35 0 2.48-1.1 2.48-2.5 0-1.37-1.13-2.47-2.5-2.47zm-9.8 2.65c-1.22.7-1.6 2.23-.9 3.42.46.8 1.28 1.25 2.13 1.25.43 0 .86-.12 1.25-.33 1.2-.72 1.6-2.24.93-3.43-.7-1.2-2.2-1.62-3.4-.92zm-6.16 23.18c-1.17.7-1.6 2.23-.9 3.42.47.82 1.3 1.25 2.14 1.25.47 0 .86-.12 1.3-.34 1.2-.67 1.54-2.22.88-3.4-.7-1.2-2.2-1.6-3.42-.93z" fill="#fff"/></g></svg>