<?xml version="1.0" encoding="UTF-8"?>
<svg id="Camada_1" xmlns="http://www.w3.org/2000/svg" version="1.1" xmlns:lucid="lucid" viewBox="0 0 55.8 55.8">
  <!-- Generator: Adobe Illustrator 29.5.0, SVG Export Plug-In . SVG Version: 2.1.0 Build 137)  -->
  <defs>
    <style>
      .st0 {
        fill: #fff;
      }

      .st1 {
        fill: #8a8ed1;
      }

      .st2 {
        fill: #200d38;
      }
    </style>
  </defs>
  <g lucid:page-tab-id="0_0">
    <path class="st1" d="M27.9,4C14.7,4,4,14.8,4,27.9c0,7.9,3.8,14.9,9.7,19.2.7-4.6,3.3-8.3,7.5-10.5-2.8-2.1-4.3-5.1-4.3-8.6,0-6.1,4.9-11,11-11s11,5,11,11c0,3.5-1.7,6.7-4.3,8.7,3.9,2.1,6.8,6,7.4,10.5,6.4-4.7,9.8-11.4,9.8-19.2,0-13.2-10.7-23.9-23.9-23.9v-.1Z"/>
    <path class="st1" d="M11,18.3c.7-1.2,2.2-1.6,3.4-.9s1.6,2.2.9,3.4c-.5.8-1.3,1.3-2.1,1.3-1.4,0-2.5-1.1-2.5-2.5,0-.5.1-.9.4-1.3h-.1ZM8.4,28c0-1.4,1.1-2.5,2.5-2.5s2.5,1.1,2.5,2.5-1.1,2.5-2.5,2.5-2.5-1.1-2.5-2.5ZM14.4,38.6c-.4.3-.8.3-1.3.3-.9,0-1.7-.4-2.2-1.3-.7-1.2-.3-2.7.9-3.4s2.7-.3,3.4.9c.7,1.2.3,2.7-.9,3.4l.1.1ZM20.5,15.4c-.4.2-.8.3-1.3.3-.8,0-1.7-.4-2.1-1.3-.7-1.2-.3-2.7.9-3.4,1.2-.7,2.7-.3,3.4.9.7,1.2.3,2.7-.9,3.4v.1ZM27.8,13.4h-.1c-1.4,0-2.5-1.1-2.5-2.5s1.1-2.5,2.5-2.5h.1c1.4,0,2.5,1.1,2.5,2.5s-1.1,2.5-2.5,2.5ZM38.5,14.4c-.7,1.2-2.2,1.6-3.4.9-1.2-.7-1.6-2.2-.9-3.4.7-1.2,2.2-1.6,3.4-.9,1.2.7,1.6,2.2.9,3.4ZM41.3,17.2c1.2-.7,2.7-.3,3.4.9.7,1.2.3,2.7-.9,3.4-1.2.7-2.7.3-3.4-.9-.7-1.2-.3-2.7.9-3.4ZM44.7,37.6c-.5.8-1.3,1.3-2.1,1.3-1.4,0-2.5-1.1-2.5-2.5,0-.5.1-.9.3-1.3h0c.7-1.2,2.2-1.6,3.4-.9,1.2.7,1.6,2.2.9,3.4ZM44.8,30.4c-1.3,0-2.5-1.1-2.5-2.5s1.1-2.5,2.5-2.5,2.5,1.1,2.5,2.5-1.1,2.5-2.5,2.5Z"/>
    <path class="st0" d="M34.9,27.9c0,3.9-3.1,7-7,7s-7-3.1-7-7,3.1-7,7-7,7,3.1,7,7ZM27.9,39c-5.7,0-10.4,4.7-10.4,10.4v.1c3.1,1.6,6.7,2.4,10.4,2.4s7.2-.8,10.4-2.4v-.1c0-5.8-4.7-10.4-10.4-10.4Z"/>
    <path class="st2" d="M55.8,27.9c0,15.4-12.5,27.9-27.9,27.9S0,43.3,0,27.9,12.5,0,27.9,0s27.9,12.5,27.9,27.9Z"/>
    <path class="st0" d="M38.3,49.5c-3.2,1.6-6.7,2.4-10.4,2.4s-7.3-.8-10.4-2.4v-.1c0-5.8,4.7-10.4,10.4-10.4s10.4,4.7,10.4,10.4c0,0,0,.1,0,.1ZM34.9,27.9c0,3.9-3.1,7-7,7s-7-3.1-7-7,3.1-7,7-7,7,3.1,7,7Z"/>
    <path class="st1" d="M42.1,47.2c-.7-4.7-3.3-8.3-7.5-10.5,2.6-2,4.3-5.2,4.3-8.7,0-6.1-4.9-11-11-11s-11,5-11,11c0,3.5,1.7,6.7,4.3,8.7-4.1,2.2-6.8,5.9-7.5,10.5-6.3-4.7-9.7-11.4-9.7-19.3C4,14.7,14.7,4,27.9,4c13.2,0,24,10.8,24,23.9,0,7.9-3.8,14.9-9.8,19.2v.1Z"/>
    <path class="st0" d="M37.5,11.1c-1.2-.7-2.7-.3-3.4.9s-.3,2.7.9,3.4,2.7.3,3.4-.9.3-2.7-1-3.4h.1ZM10.9,30.5c1.4,0,2.5-1.1,2.5-2.5s-1.1-2.5-2.5-2.5-2.5,1.1-2.5,2.5,1.1,2.5,2.5,2.5ZM42.5,22c.5,0,.9-.1,1.3-.3,1.2-.7,1.6-2.2.9-3.4h0c-.7-1.2-2.2-1.6-3.4-.9s-1.6,2.2-.9,3.4c.5.8,1.3,1.3,2.1,1.3v-.1ZM11.9,21.7c.4.2.8.3,1.3.3.9,0,1.7-.4,2.1-1.2.7-1.2.3-2.7-.9-3.4-1.2-.7-2.7-.3-3.4.9-.7,1.2-.3,2.7.9,3.4ZM43.8,34.2c-1.2-.7-2.7-.3-3.4.9-.2.4-.3.8-.3,1.3,0,1.4,1.1,2.5,2.5,2.5.9,0,1.7-.4,2.2-1.3.7-1.2.3-2.7-.9-3.4h-.1ZM44.8,25.4c-1.3,0-2.5,1.1-2.5,2.5s1.1,2.5,2.5,2.5,2.5-1.1,2.5-2.5-1.1-2.5-2.5-2.5ZM27.9,8.5h-.1c-1.4,0-2.5,1.1-2.5,2.5s1.1,2.5,2.5,2.5h.1c1.4,0,2.5-1.1,2.5-2.5s-1.1-2.5-2.5-2.5ZM18.1,11.1c-1.2.7-1.6,2.2-.9,3.4.5.8,1.3,1.3,2.1,1.3.4,0,.9-.1,1.3-.3,1.2-.7,1.6-2.2.9-3.4s-2.2-1.6-3.4-.9v-.1ZM11.9,34.3c-1.2.7-1.6,2.2-.9,3.4.5.8,1.3,1.3,2.1,1.3.5,0,.9-.1,1.3-.3,1.2-.7,1.5-2.2.9-3.4-.7-1.2-2.2-1.6-3.4-.9v-.1Z"/>
  </g>
</svg>