<svg xmlns="http://www.w3.org/2000/svg" xmlns:lucid="lucid" width="57" height="56"><g lucid:page-tab-id="0_0" stroke="#000000" stroke-opacity="0" stroke-width="0"><path d="M 28.3 4.2 c -13.2 0 -23.9 10.8 -23.9 23.9 c 0 7.9 3.8 14.9 9.7 19.2 c 0.7 -4.6 3.3 -8.3 7.5 -10.5 C 18.8 34.7 17.3 31.7 17.3 28.2 c 0 -6.1 4.9 -11 11 -11 c 6 0 11 5 11 11 c 0 3.5 -1.7 6.7 -4.3 8.7 c 3.9 2.1 6.8 6 7.4 10.5 c 6.4 -4.7 9.8 -11.4 9.8 -19.2 c 0 -13.2 -10.7 -23.9 -23.9 -23.9 z" fill="#8a8ed1"/><path d="M 11.4 18.5 c 0.7 -1.2 2.2 -1.6 3.4 -0.9 c 1.2 0.7 1.6 2.2 0.9 3.4 c -0.5 0.8 -1.3 1.3 -2.1 1.3 c -1.4 0 -2.5 -1.1 -2.5 -2.5 c 0 -0.5 0.1 -0.9 0.4 -1.3 z m -2.6 9.7 c 0 -1.4 1.1 -2.5 2.5 -2.5 c 1.4 0 2.5 1.1 2.5 2.5 c 0 1.4 -1.1 2.5 -2.5 2.5 c -1.4 0 -2.5 -1.1 -2.5 -2.5 z m 6 10.6 c -0.4 0.3 -0.8 0.3 -1.3 0.3 c -0.9 0 -1.7 -0.4 -2.2 -1.3 c -0.7 -1.2 -0.3 -2.7 0.9 -3.4 c 1.2 -0.7 2.7 -0.3 3.4 0.9 c 0.7 1.2 0.3 2.7 -0.9 3.4 z m 6.1 -23.2 c -0.4 0.2 -0.8 0.3 -1.3 0.3 c -0.8 0 -1.7 -0.4 -2.1 -1.3 c -0.7 -1.2 -0.3 -2.7 0.9 -3.4 c 1.2 -0.7 2.7 -0.3 3.4 0.9 c 0.7 1.2 0.3 2.7 -0.9 3.4 z m 7.3 -2 h -0.1 c -1.4 0 -2.5 -1.1 -2.5 -2.5 c 0 -1.4 1.1 -2.5 2.5 -2.5 h 0.1 c 1.4 0 2.5 1.1 2.5 2.5 s -1.1 2.5 -2.5 2.5 z m 10.7 1 c -0.7 1.2 -2.2 1.6 -3.4 0.9 c -1.2 -0.7 -1.6 -2.2 -0.9 -3.4 c 0.7 -1.2 2.2 -1.6 3.4 -0.9 c 1.2 0.7 1.6 2.2 0.9 3.4 z m 2.8 2.8 c 1.2 -0.7 2.7 -0.3 3.4 0.9 c 0.7 1.2 0.3 2.7 -0.9 3.4 c -1.2 0.7 -2.7 0.3 -3.4 -0.9 c -0.7 -1.2 -0.3 -2.7 0.9 -3.4 z m 3.4 20.4 c -0.5 0.8 -1.3 1.3 -2.1 1.3 c -1.4 0 -2.5 -1.1 -2.5 -2.5 c 0 -0.5 0.1 -0.9 0.3 -1.3 h 0 c 0.7 -1.2 2.2 -1.6 3.4 -0.9 c 1.2 0.7 1.6 2.2 0.9 3.4 z m 0.1 -7.2 c -1.3 0 -2.5 -1.1 -2.5 -2.5 c 0 -1.4 1.1 -2.5 2.5 -2.5 c 1.4 0 2.5 1.1 2.5 2.5 c 0 1.4 -1.1 2.5 -2.5 2.5 z" fill="#8a8ed1"/><path d="M 35.3 28.1 c 0 3.9 -3.1 7 -7 7 s -7 -3.1 -7 -7 s 3.1 -7 7 -7 s 7 3.1 7 7 z M 28.3 39.2 c -5.7 0 -10.4 4.7 -10.4 10.4 v 0.1 C 21 51.3 24.6 52.1 28.3 52.1 c 3.7 0 7.2 -0.8 10.4 -2.4 v -0.1 c 0 -5.8 -4.7 -10.4 -10.4 -10.4 z" fill="#ffffff"/><path d="M 56.2 28.1 c 0 15.4 -12.5 27.9 -27.9 27.9 c -15.4 0 -27.9 -12.5 -27.9 -27.9 c 0 -15.4 12.5 -27.9 27.9 -27.9 c 15.4 0 27.9 12.5 27.9 27.9 z" fill="#200d38"/><path d="M 38.7 49.7 C 35.5 51.3 32 52.1 28.3 52.1 c -3.7 0 -7.3 -0.8 -10.4 -2.4 v -0.1 c 0 -5.8 4.7 -10.4 10.4 -10.4 c 5.7 0 10.4 4.7 10.4 10.4 v 0.1 z M 35.3 28.1 c 0 3.9 -3.1 7 -7 7 s -7 -3.1 -7 -7 s 3.1 -7 7 -7 s 7 3.1 7 7 z" fill="#ffffff"/><path d="M 42.5 47.4 c -0.7 -4.7 -3.3 -8.3 -7.5 -10.5 c 2.6 -2 4.3 -5.2 4.3 -8.7 c 0 -6.1 -4.9 -11 -11 -11 c -6 0 -11 5 -11 11 c 0 3.5 1.7 6.7 4.3 8.7 c -4.1 2.2 -6.8 5.9 -7.5 10.5 C 7.8 42.7 4.4 36 4.4 28.1 c 0 -13.2 10.7 -23.9 23.9 -23.9 C 41.5 4.2 52.3 15 52.3 28.1 c 0 7.9 -3.8 14.9 -9.8 19.2 z" fill="#8a8ed1"/><path d="M 37.9 11.3 c -1.2 -0.7 -2.7 -0.3 -3.4 0.9 c -0.7 1.2 -0.3 2.7 0.9 3.4 c 1.2 0.7 2.7 0.3 3.4 -0.9 c 0.7 -1.2 0.3 -2.7 -1 -3.4 z M 11.3 30.7 c 1.4 0 2.5 -1.1 2.5 -2.5 c 0 -1.4 -1.1 -2.5 -2.5 -2.5 c -1.4 0 -2.5 1.1 -2.5 2.5 c 0 1.4 1.1 2.5 2.5 2.5 z m 31.6 -8.5 c 0.5 0 0.9 -0.1 1.3 -0.3 c 1.2 -0.7 1.6 -2.2 0.9 -3.4 v 0 c -0.7 -1.2 -2.2 -1.6 -3.4 -0.9 c -1.2 0.7 -1.6 2.2 -0.9 3.4 c 0.5 0.8 1.3 1.3 2.1 1.3 z M 12.3 21.9 c 0.4 0.2 0.8 0.3 1.3 0.3 c 0.9 0 1.7 -0.4 2.1 -1.2 c 0.7 -1.2 0.3 -2.7 -0.9 -3.4 c -1.2 -0.7 -2.7 -0.3 -3.4 0.9 c -0.7 1.2 -0.3 2.7 0.9 3.4 z m 31.9 12.5 c -1.2 -0.7 -2.7 -0.3 -3.4 0.9 c -0.2 0.4 -0.3 0.8 -0.3 1.3 c 0 1.4 1.1 2.5 2.5 2.5 c 0.9 0 1.7 -0.4 2.2 -1.3 c 0.7 -1.2 0.3 -2.7 -0.9 -3.4 z m 1 -8.8 c -1.3 0 -2.5 1.1 -2.5 2.5 s 1.1 2.5 2.5 2.5 c 1.4 0 2.5 -1.1 2.5 -2.5 s -1.1 -2.5 -2.5 -2.5 z M 28.3 8.7 h -0.1 c -1.4 0 -2.5 1.1 -2.5 2.5 c 0 1.4 1.1 2.5 2.5 2.5 h 0.1 c 1.4 0 2.5 -1.1 2.5 -2.5 c 0 -1.4 -1.1 -2.5 -2.5 -2.5 z m -9.8 2.6 c -1.2 0.7 -1.6 2.2 -0.9 3.4 c 0.5 0.8 1.3 1.3 2.1 1.3 c 0.4 0 0.9 -0.1 1.3 -0.3 c 1.2 -0.7 1.6 -2.2 0.9 -3.4 c -0.7 -1.2 -2.2 -1.6 -3.4 -0.9 z m -6.2 23.2 c -1.2 0.7 -1.6 2.2 -0.9 3.4 c 0.5 0.8 1.3 1.3 2.1 1.3 c 0.5 0 0.9 -0.1 1.3 -0.3 c 1.2 -0.7 1.5 -2.2 0.9 -3.4 c -0.7 -1.2 -2.2 -1.6 -3.4 -0.9 z" fill="#ffffff"/></g></svg>