<?xml version="1.0" encoding="UTF-8"?>
<svg id="Camada_1" xmlns="http://www.w3.org/2000/svg" version="1.1" xmlns:lucid="lucid" viewBox="0 0 53.5 59.8">
  <!-- Generator: Adobe Illustrator 29.5.0, SVG Export Plug-In . SVG Version: 2.1.0 Build 137)  -->
  <defs>
    <style>
      .st0 {
        fill: #481a54;
      }

      .st0, .st1, .st2 {
        stroke: #000;
        stroke-opacity: 0;
      }

      .st1 {
        fill: #8c5ec6;
      }

      .st2 {
        fill: #fff;
      }
    </style>
  </defs>
  <g lucid:page-tab-id="0_0">
    <path class="st0" d="M50.9,16.26h-10.5V2.62c0-1.18-.95-2.12-2.1-2.12H11c-1.16,0-2.1.94-2.1,2.12v31.46H2.6c-1.15,0-2.1.94-2.1,2.1v21c0,1.18.95,2.12,2.1,2.12h48.3c1.15,0,2.1-.94,2.1-2.12V18.38c0-1.18-.95-2.12-2.1-2.12Z"/>
    <path class="st0" d="M13.1,4.7h23.1v11.55h-10.5c-1.17,0-2.1.95-2.1,2.1v15.75h-10.5V4.7ZM36.2,55.1H4.7v-16.8h31.5v16.8Z"/>
    <path class="st0" d="M48.8,55.1h-8.4v-18.9c0-1.2-.95-2.13-2.1-2.13h-10.5v-13.67h21v34.7Z"/>
    <path class="st1" d="M23.6,18.34c0-1.14.93-2.1,2.1-2.1h10.5V4.7H13.1v29.4h10.5v-15.76ZM4.7,55.1h4.2v-10.5c0-1.16.94-2.1,2.1-2.1s2.1.94,2.1,2.1v10.5h5.24v-10.5c0-1.16.94-2.1,2.1-2.1s2.12.94,2.12,2.1v10.5h5.23v-10.5c0-1.16.94-2.1,2.1-2.1s2.1.94,2.1,2.1v10.5h4.2v-16.8H4.7v16.8Z"/>
    <path class="st1" d="M27.8,34.07h10.5c1.15,0,2.1.94,2.1,2.12v18.9h8.4V20.4h-21s0,13.67,0,13.67Z"/>
    <path class="st1" d="M34.1,24.6h8.4c1.16,0,2.1.95,2.1,2.1s-.94,2.1-2.1,2.1h-8.4c-1.15,0-2.1-.94-2.1-2.1s.95-2.1,2.1-2.1Z"/>
    <path class="st2" d="M34.1,28.8h8.4c1.16,0,2.1-.94,2.1-2.1s-.94-2.1-2.1-2.1h-8.4c-1.15,0-2.1.95-2.1,2.1s.95,2.1,2.1,2.1ZM11,42.5c-1.16,0-2.1.95-2.1,2.1v10.5h4.2v-10.5c0-1.15-.94-2.1-2.1-2.1ZM20.5,42.5c-1.16,0-2.1.95-2.1,2.1v10.5h4.2v-10.5c0-1.15-.94-2.1-2.1-2.1ZM29.9,42.5c-1.16,0-2.1.95-2.1,2.1v10.5h4.2v-10.5c0-1.15-.95-2.1-2.1-2.1Z"/>
  </g>
</svg>