<svg xmlns="http://www.w3.org/2000/svg" xmlns:lucid="lucid" width="100" height="100"><g lucid:page-tab-id="0_0" stroke="#000" stroke-opacity="0"><path d="M73.9 36.36H63.4V22.72c0-1.18-.95-2.12-2.1-2.12H34c-1.16 0-2.1.94-2.1 2.12v31.46h-6.3c-1.15 0-2.1.94-2.1 2.1v21c0 1.18.95 2.12 2.1 2.12h48.3c1.15 0 2.1-.94 2.1-2.12v-38.8c0-1.18-.95-2.12-2.1-2.12z" fill="#481a54"/><path d="M36.1 24.8h23.1v11.55H48.7c-1.17 0-2.1.95-2.1 2.1V54.2H36.1V24.8zM59.2 75.2H27.7V58.4h31.5v16.8z" fill="#481a54"/><path d="M71.8 75.2h-8.4V56.3c0-1.2-.95-2.13-2.1-2.13H50.8V40.5h21v34.7z" fill="#481a54"/><path d="M46.6 38.44c0-1.14.93-2.1 2.1-2.1h10.5V24.8H36.1v29.4h10.5V38.44zM27.7 75.2h4.2V64.7c0-1.16.94-2.1 2.1-2.1 1.17 0 2.1.94 2.1 2.1v10.5h5.24V64.7c0-1.16.94-2.1 2.1-2.1 1.18 0 2.12.94 2.12 2.1v10.5h5.23V64.7c0-1.16.94-2.1 2.1-2.1 1.17 0 2.1.94 2.1 2.1v10.5h4.2V58.4H27.7v16.8z" fill="#8c5ec6"/><path d="M50.8 54.17h10.5c1.15 0 2.1.94 2.1 2.12v18.9h8.4V40.5h-21v13.67z" fill="#8c5ec6"/><path d="M57.1 44.7h8.4c1.16 0 2.1.95 2.1 2.1 0 1.16-.94 2.1-2.1 2.1h-8.4c-1.15 0-2.1-.94-2.1-2.1 0-1.15.95-2.1 2.1-2.1z" fill="#8c5ec6"/><path d="M57.1 48.9h8.4c1.16 0 2.1-.94 2.1-2.1 0-1.15-.94-2.1-2.1-2.1h-8.4c-1.15 0-2.1.95-2.1 2.1 0 1.16.95 2.1 2.1 2.1zM34 62.6c-1.16 0-2.1.95-2.1 2.1v10.5h4.2V64.7c0-1.15-.94-2.1-2.1-2.1zM43.5 62.6c-1.16 0-2.1.95-2.1 2.1v10.5h4.2V64.7c0-1.15-.94-2.1-2.1-2.1zM52.9 62.6c-1.16 0-2.1.95-2.1 2.1v10.5H55V64.7c0-1.15-.95-2.1-2.1-2.1z" fill="#fff"/></g></svg>