<?xml version="1.0" encoding="UTF-8"?>
<svg id="Camada_1" xmlns="http://www.w3.org/2000/svg" version="1.1" xmlns:lucid="lucid" viewBox="0 0 58.71 59.79">
  <!-- Generator: Adobe Illustrator 29.5.0, SVG Export Plug-In . SVG Version: 2.1.0 Build 137)  -->
  <defs>
    <style>
      .st0 {
        fill: #ffba90;
      }

      .st0, .st1, .st2 {
        stroke: #000;
        stroke-opacity: 0;
      }

      .st1 {
        fill: #fff;
      }

      .st2 {
        fill: #dd7a01;
      }
    </style>
  </defs>
  <g lucid:page-tab-id="0_0">
    <path class="st1" d="M25.41,32.2c-5.67,0-10.2,4.53-10.2,10.2,0,.23,0,.45-.1.57,3.05,1.8,6.57,2.83,10.3,2.83s7.25-1.02,10.3-2.83c0-.23-.1-.34-.1-.57,0-5.67-4.54-10.2-10.2-10.2ZM25.41,27.7c3.75,0,6.8-3.05,6.8-6.8s-3.05-6.8-6.8-6.8-6.8,3.05-6.8,6.8,3.05,6.8,6.8,6.8Z"/>
    <path class="st0" d="M18.11,29.53c-2.48-2.04-4.06-5.2-4.06-8.7,0-6.22,5.08-11.32,11.3-11.32s11.32,5.1,11.32,11.32c0,3.5-1.58,6.67-4.07,8.7,3.7,2.16,6.43,5.77,7.24,10.18,3.58-3.7,5.86-8.8,5.86-14.37,0-11.17-9.16-20.33-20.35-20.33S5,14.17,5,25.34c0,5.56,2.28,10.66,5.86,14.37.8-4.4,3.54-8.02,7.25-10.17h0Z"/>
    <path class="st2" d="M57.51,49.77l-11.06-11.05c2.36-3.82,3.86-8.47,3.86-13.35C50.31,11.55,39.21.5,25.37.5S.5,11.55.5,25.37s11.08,24.88,24.87,24.88c4.33,0,8.37-1.12,11.88-3.06l11.43,11.4c.46.47,1.04.7,1.6.7.6,0,1.1-.23,1.57-.7l5.66-5.65c.93-.88.93-2.23,0-3.18h0Z"/>
    <path class="st0" d="M5.01,25.33C5.01,14.16,14.17,5,25.36,5s20.35,9.16,20.35,20.33c0,5.56-2.28,10.66-5.86,14.37-.8-4.4-3.54-8.02-7.25-10.17,2.48-2.04,4.06-5.2,4.06-8.7,0-6.22-5.08-11.32-11.3-11.32s-11.32,5.1-11.32,11.32c0,3.5,1.58,6.67,4.07,8.7-3.7,2.16-6.43,5.77-7.24,10.18-3.58-3.7-5.86-8.8-5.86-14.37h0Z"/>
    <path class="st1" d="M25.41,27.7c3.75,0,6.8-3.05,6.8-6.8s-3.05-6.8-6.8-6.8-6.8,3.05-6.8,6.8,3.05,6.8,6.8,6.8ZM25.41,45.8c-3.73,0-7.25-1.02-10.3-2.83,0-.23.1-.34.1-.57,0-5.67,4.53-10.2,10.2-10.2s10.2,4.53,10.2,10.2c0,.23,0,.45.1.57-3.05,1.8-6.57,2.83-10.3,2.83Z"/>
    <path class="st2" d="M50.24,53.8l-9.13-9.13c.45-.35.9-.68,1.24-1.13l.12-.1c.45-.35.78-.8,1.12-1.14l9.02,9.02s-2.37,2.48-2.37,2.48Z"/>
    <path class="st1" d="M43.61,42.3c-.35.45-.8.8-1.13,1.13l-.12.1c-.45.35-.8.8-1.25,1.14l9.2,9.13,2.5-2.48s-9.2-9.02-9.2-9.02Z"/>
  </g>
</svg>