<?xml version="1.0" encoding="UTF-8"?>
<svg id="Camada_1" xmlns="http://www.w3.org/2000/svg" version="1.1" xmlns:lucid="lucid" viewBox="0 0 59.8 59.8">
  <!-- Generator: Adobe Illustrator 29.5.0, SVG Export Plug-In . SVG Version: 2.1.0 Build 137)  -->
  <defs>
    <style>
      .st0 {
        fill: #fff;
      }

      .st0, .st1, .st2 {
        stroke: #000;
        stroke-opacity: 0;
      }

      .st1 {
        fill: #032d60;
      }

      .st2 {
        fill: #0d9dda;
      }
    </style>
  </defs>
  <g lucid:page-tab-id="0_0">
    <path class="st2" d="M29.9,57c-14.9.1-27-11.86-27.1-26.8C2.7,15.28,14.8,3.2,29.7,3.1s27,11.97,27.1,26.8v.1c0,14.93-12.1,27-26.9,27Z"/>
    <path class="st0" d="M22.5,43.16c-4.63-2.3-7.6-7.15-7.6-12.3,0-2.75.85-5.45,2.3-7.8l9.7,14.5h5.87l9.66-14.5c1.5,2.35,2.34,5.05,2.34,7.8,0,4.83-2.52,9.37-6.62,11.87l1.9,7.16c10.8-5.68,15.13-19.05,9.44-29.96-1.9-3.68-4.73-6.73-8.3-8.84l-11.24,17.45-11.15-17.44c-10.5,6.22-14.08,19.75-7.77,30.26,2.3,3.8,5.7,6.96,9.66,8.84l1.8-7.04h0Z"/>
    <path class="st1" d="M29.9.5C13.6.5.5,13.6.5,29.9s13.1,29.4,29.4,29.4,29.4-13.1,29.4-29.4S46.2.5,29.9.5ZM29.9,57c-14.94.07-27-11.87-27.1-26.8C2.68,15.32,14.8,3.2,29.66,3.15c14.94-.12,27,11.93,27.1,26.75v.12c0,14.87-12.04,27-26.86,27v-.02Z"/>
  </g>
</svg>