<?xml version="1.0" encoding="UTF-8"?>
<svg id="Camada_1" xmlns="http://www.w3.org/2000/svg" version="1.1" xmlns:lucid="lucid" viewBox="0 0 45.22 59.8">
  <!-- Generator: Adobe Illustrator 29.5.0, SVG Export Plug-In . SVG Version: 2.1.0 Build 137)  -->
  <defs>
    <style>
      .st0 {
        fill: #fff;
      }

      .st0, .st1, .st2 {
        stroke: #000;
        stroke-opacity: 0;
      }

      .st1 {
        fill: #194e31;
      }

      .st2 {
        fill: #91db8b;
      }
    </style>
  </defs>
  <g lucid:page-tab-id="0_0">
    <path class="st2" d="M30.22,34.14c.2-.35.47-.6.8-.78.32-.22.67-.3,1.06-.3h6.74L22.62,6.6,6.42,33.06h6.74c.4,0,.74.08,1.07.3.33.17.6.43.8.78.18.3.25.7.25,1.04,0,.4-.13.73-.33,1.04l-8.51,13.68h14.08v-14.72c0-.56.22-1.08.6-1.47.4-.43.95-.64,1.5-.64s1.1.2,1.5.65c.38.4.6.92.6,1.48v14.7h14.07l-8.5-13.6c-.22-.34-.32-.7-.35-1.08,0-.4.1-.78.3-1.08h-.02Z"/>
    <path class="st2" d="M24.22,19.43l-5.75,9.42c-.18.32-.45.57-.75.76-.32.2-.68.3-1.04.3-.38,0-.74-.1-1.06-.3-.48-.3-.8-.76-.94-1.3-.13-.55-.04-1.12.25-1.6l5.7-9.42c.3-.46.77-.8,1.32-.93.53-.12,1.1-.02,1.57.26.46.3.8.76.93,1.3.13.53.05,1.1-.24,1.57v-.06Z"/>
    <path class="st1" d="M35.88,37.25h6.72c.35,0,.7-.12,1.06-.3.3-.17.57-.46.75-.76.17-.36.26-.7.26-1.07,0-.35-.1-.7-.27-1.05L24.38,1.5c-.18-.3-.44-.53-.75-.7-.3-.18-.67-.3-1.02-.3s-.75.12-1.06.3c-.3.17-.58.4-.75.7L.8,34.07c-.17.36-.3.7-.3,1.06s.13.7.3,1.06c.2.3.45.58.76.76.3.17.66.3,1.02.3h6.76L.82,50.82c-.17.3-.3.65-.3,1.06,0,.34.1.7.27,1.05.17.3.44.6.75.76.3.25.7.37,1.06.37h17.9v3.1c0,.6.22,1.13.62,1.54.4.37.93.6,1.5.6.53,0,1.06-.23,1.46-.6.4-.4.62-.93.62-1.52v-3.1h17.9c.35,0,.75-.13,1.06-.3.3-.18.57-.48.8-.77.17-.34.26-.7.26-1.05s-.1-.76-.27-1.06c0,0-8.57-13.65-8.57-13.65Z"/>
    <path class="st2" d="M24.72,49.9v-14.72c0-.56-.22-1.08-.6-1.47-.4-.43-.95-.64-1.5-.64s-1.1.2-1.5.65c-.38.4-.6.92-.6,1.48v14.7H6.44l8.5-13.6c.2-.34.32-.7.32-1.04,0-.4-.07-.73-.26-1.08-.18-.34-.47-.6-.8-.82-.32-.17-.67-.3-1.06-.3h-6.72L22.62,6.6l16.2,26.46h-6.74c-.4,0-.74.08-1.07.3-.33.17-.6.43-.8.78-.18.3-.28.65-.28,1.04,0,.34.1.73.3,1.04l8.55,13.68h-14.06Z"/>
    <path class="st0" d="M23.57,16.5c-.48-.3-1.05-.37-1.58-.25-.55.14-1.02.48-1.3.96l-5.76,9.4c-.28.48-.37,1.05-.24,1.6.13.54.46,1,.94,1.3.32.2.68.3,1.06.3.36,0,.72-.1,1.03-.3.3-.18.57-.43.75-.75l5.75-9.4c.28-.47.37-1.03.25-1.55-.13-.53-.45-1-.9-1.3h0Z"/>
  </g>
</svg>