<svg xmlns="http://www.w3.org/2000/svg" xmlns:lucid="lucid" width="100" height="100"><g lucid:page-tab-id="0_0" stroke="#000" stroke-opacity="0"><path d="M57.6 54.24c.2-.35.47-.6.8-.78.32-.22.67-.3 1.06-.3h6.74L50 26.7 33.8 53.16h6.74c.4 0 .74.08 1.07.3.33.17.6.43.8.78.18.3.25.7.25 1.04 0 .4-.13.73-.33 1.04L33.82 70H47.9V55.28c0-.56.22-1.08.6-1.47.4-.43.95-.64 1.5-.64s1.1.2 1.5.65c.38.4.6.92.6 1.48V70h14.07l-8.5-13.6c-.22-.34-.32-.7-.35-1.08 0-.4.1-.78.3-1.08z" fill="#91db8b"/><path d="M51.6 39.53l-5.75 9.42c-.18.32-.45.57-.75.76-.32.2-.68.3-1.04.3-.38 0-.74-.1-1.06-.3-.48-.3-.8-.76-.94-1.3-.13-.55-.04-1.12.25-1.6l5.7-9.42c.3-.46.77-.8 1.32-.93.53-.12 1.1-.02 1.57.26.46.3.8.76.93 1.3.13.53.05 1.1-.24 1.57v-.04z" fill="#91db8b"/><path d="M63.26 57.35h6.72c.35 0 .7-.12 1.06-.3.3-.17.57-.46.75-.76.17-.36.26-.7.26-1.07 0-.35-.1-.7-.27-1.05L51.76 21.6c-.18-.3-.44-.53-.75-.7-.3-.18-.67-.3-1.02-.3s-.75.12-1.06.3c-.3.17-.58.4-.75.7l-20 32.57c-.17.36-.3.7-.3 1.06 0 .36.13.7.3 1.06.2.3.45.58.76.76.3.17.66.3 1.02.3h6.76L28.2 70.92c-.17.3-.3.65-.3 1.06 0 .34.1.7.27 1.05.17.3.44.6.75.76.3.25.7.37 1.06.37h17.9v3.1c0 .6.22 1.13.62 1.54.4.37.93.6 1.5.6.53 0 1.06-.23 1.46-.6.4-.4.62-.93.62-1.52v-3.1h17.9c.35 0 .75-.13 1.06-.3.3-.18.57-.48.8-.77.17-.34.26-.7.26-1.05 0-.35-.1-.76-.27-1.06l-8.57-13.65z" fill="#194e31"/><path d="M52.1 70V55.28c0-.56-.22-1.08-.6-1.47-.4-.43-.95-.64-1.5-.64s-1.1.2-1.5.65c-.38.4-.6.92-.6 1.48V70H33.82l8.5-13.6c.2-.34.32-.7.32-1.04 0-.4-.07-.73-.26-1.08-.18-.34-.47-.6-.8-.82-.32-.17-.67-.3-1.06-.3H33.8L50 26.7l16.2 26.46h-6.74c-.4 0-.74.08-1.07.3-.33.17-.6.43-.8.78-.18.3-.28.65-.28 1.04 0 .34.1.73.3 1.04L66.16 70H52.1z" fill="#91db8b"/><path d="M50.95 36.6c-.48-.3-1.05-.37-1.58-.25-.55.14-1.02.48-1.3.96l-5.76 9.4c-.28.48-.37 1.05-.24 1.6.13.54.46 1 .94 1.3.32.2.68.3 1.06.3.36 0 .72-.1 1.03-.3.3-.18.57-.43.75-.75l5.75-9.4c.28-.47.37-1.03.25-1.55-.13-.53-.45-1-.9-1.3z" fill="#fff"/></g></svg>