<?xml version="1.0" encoding="UTF-8"?>
<svg id="Camada_1" xmlns="http://www.w3.org/2000/svg" version="1.1" xmlns:lucid="lucid" viewBox="0 0 59.8 59.8">
  <!-- Generator: Adobe Illustrator 29.5.0, SVG Export Plug-In . SVG Version: 2.1.0 Build 137)  -->
  <defs>
    <style>
      .st0 {
        fill: #e4a201;
      }

      .st0, .st1, .st2, .st3 {
        stroke: #000;
        stroke-opacity: 0;
      }

      .st1 {
        fill: #f9e3b6;
      }

      .st2 {
        fill: #fff;
      }

      .st3 {
        fill: #fcf1da;
      }
    </style>
  </defs>
  <g lucid:page-tab-id="0_0">
    <path class="st2" d="M10.7,38.84V15.8c-2.8,0-5.1,2.3-5.1,5.1v28.2c0,2.8,2.3,5.1,5.1,5.1h28.2c2.8,0,5.1-2.3,5.1-5.1h-23.04c-5.64,0-10.25-4.62-10.25-10.26h-.01Z"/>
    <path class="st3" d="M49.1,5.6h-28.2c-2.8,0-5.1,2.3-5.1,5.1v28.2c0,2.8,2.3,5.1,5.1,5.1h28.2c2.8,0,5.1-2.3,5.1-5.1V10.7c0-2.8-2.3-5.1-5.1-5.1Z"/>
    <path class="st3" d="M49,24.75c0,1.4-1.15,2.56-2.56,2.56h-8.94v8.94c0,1.4-1.15,2.56-2.55,2.56s-2.56-1.15-2.56-2.56v-8.95h-8.94c-1.4,0-2.56-1.15-2.56-2.55s1.15-2.56,2.56-2.56h8.93v-8.94c0-1.4,1.14-2.56,2.55-2.56s2.56,1.15,2.56,2.56v8.95h8.96c1.4,0,2.56,1.14,2.56,2.55h-.01Z"/>
    <path class="st0" d="M49.07.5h-28.1c-5.65,0-10.24,4.6-10.24,10.23C5.09,10.73.5,15.33.5,20.96v28.1c0,5.65,4.6,10.24,10.23,10.24h28.1c5.65,0,10.24-4.6,10.24-10.23,5.64,0,10.23-4.6,10.23-10.23V10.74c0-5.65-4.6-10.24-10.23-10.24Z"/>
    <path class="st1" d="M54.2,38.9c0,2.8-2.3,5.1-5.1,5.1h-28.2c-2.8,0-5.1-2.3-5.1-5.1V10.7c0-2.8,2.3-5.1,5.1-5.1h28.2c2.8,0,5.1,2.3,5.1,5.1,0,0,0,28.2,0,28.2Z"/>
    <path class="st2" d="M38.9,54.2H10.7c-2.8,0-5.1-2.3-5.1-5.1v-28.2c0-2.8,2.3-5.1,5.1-5.1v23.04c0,5.64,4.62,10.25,10.26,10.25h23.04c0,2.8-2.3,5.1-5.1,5.1h0Z"/>
    <path class="st0" d="M46.44,22.2h-8.94v-8.95c0-1.4-1.15-2.56-2.55-2.56s-2.56,1.15-2.56,2.56v8.95h-8.94c-1.4,0-2.56,1.14-2.56,2.55s1.15,2.56,2.56,2.56h8.93v8.94c0,1.4,1.14,2.56,2.55,2.56s2.56-1.15,2.56-2.56v-8.95h8.96c1.4,0,2.56-1.15,2.56-2.55s-1.15-2.56-2.56-2.56h-.01Z"/>
  </g>
</svg>