<?xml version="1.0" encoding="UTF-8"?>
<svg id="Camada_1" xmlns="http://www.w3.org/2000/svg" version="1.1" xmlns:lucid="lucid" viewBox="0 0 38.71 59.8">
  <!-- Generator: Adobe Illustrator 29.5.0, SVG Export Plug-In . SVG Version: 2.1.0 Build 137)  -->
  <defs>
    <style>
      .st0 {
        fill: #200d38;
      }

      .st0, .st1, .st2 {
        stroke: #000;
        stroke-opacity: 0;
      }

      .st1 {
        fill: #fff;
      }

      .st2 {
        fill: #8a8ed1;
      }
    </style>
  </defs>
  <g lucid:page-tab-id="0_0">
    <path class="st0" d="M36.19,19.37h-8.3l7.13-15.93c0-.23.12-.53.12-.82,0-1.18-.95-2.12-2.12-2.12H9.95c-.94,0-1.8.65-2,1.6L.6,29.37c0,.24-.1.3-.1.53,0,1.18.94,2.12,2.1,2.12h7.9l-5.8,24.63c0,.12-.1.36-.1.53,0,1.18.95,2.12,2.08,2.12.64,0,1.3-.3,1.6-.7l29.4-35.76c.3-.4.52-.82.52-1.35.1-1.18-.83-2.13-2-2.13h-.01Z"/>
    <path class="st0" d="M10.86,49l4.32-18.56c0-.13.1-.36.1-.53,0-1.14-.95-2.12-2.1-2.12h-7.8L11.59,4.7h18.3l-7.16,15.95c-.1.22-.2.53-.2.84,0,1.14.94,2.12,2.1,2.12h7.16l-20.93,25.39Z"/>
    <path class="st2" d="M22.54,21.5c0-.32.1-.63.2-.85l7.06-15.95H11.49l-6.2,23.08h7.8c1.13,0,2.1.98,2.1,2.13,0,.18,0,.32-.12.54l-4.32,18.55,21.04-25.38h-7.15c-1.14,0-2.1-.98-2.1-2.13h0Z"/>
    <path class="st2" d="M18.24,10.5l-3.15,11.52c-.2.94-1.05,1.57-2,1.57-1.15,0-2.1-.94-2.1-2.1,0-.2,0-.4.1-.52l3.15-11.53c.32-1.16,1.48-1.8,2.64-1.47,1.03.3,1.66,1.47,1.35,2.5v.03Z"/>
    <path class="st1" d="M16.77,7.98c-1.15-.3-2.3.3-2.62,1.47l-3.16,11.53c0,.2-.1.42-.1.52,0,1.16.94,2.1,2.1,2.1.95,0,1.8-.63,2-1.57l3.15-11.54c.42-1.05-.2-2.2-1.37-2.52h0Z"/>
  </g>
</svg>