<svg xmlns="http://www.w3.org/2000/svg" xmlns:lucid="lucid" width="100" height="100"><g lucid:page-tab-id="0_0" stroke="#000" stroke-opacity="0"><path d="M66.6 39.47h-8.3l7.13-15.93c0-.23.12-.53.12-.82 0-1.18-.95-2.12-2.12-2.12H40.36c-.94 0-1.8.65-2 1.6l-7.35 27.27c0 .24-.1.3-.1.53 0 1.18.94 2.12 2.1 2.12h7.9l-5.8 24.63c0 .12-.1.36-.1.53 0 1.18.95 2.12 2.08 2.12.64 0 1.3-.3 1.6-.7l29.4-35.76c.3-.4.52-.82.52-1.35.1-1.18-.83-2.13-2-2.13z" fill="#200d38"/><path d="M41.27 69.1l4.32-18.56c0-.13.1-.36.1-.53 0-1.14-.95-2.12-2.1-2.12h-7.8L42 24.8h18.3l-7.16 15.95c-.1.22-.2.53-.2.84 0 1.14.94 2.12 2.1 2.12h7.16L41.27 69.1z" fill="#200d38"/><path d="M52.95 41.6c0-.32.1-.63.2-.85l7.06-15.95H41.9l-6.2 23.08h7.8c1.13 0 2.1.98 2.1 2.13 0 .18 0 .32-.12.54L41.16 69.1 62.2 43.72h-7.15c-1.14 0-2.1-.98-2.1-2.13z" fill="#8a8ed1"/><path d="M48.65 30.6L45.5 42.12c-.2.94-1.05 1.57-2 1.57-1.15 0-2.1-.94-2.1-2.1 0-.2 0-.4.1-.52l3.15-11.53c.32-1.16 1.48-1.8 2.64-1.47 1.03.3 1.66 1.47 1.35 2.5z" fill="#8a8ed1"/><path d="M47.18 28.08c-1.15-.3-2.3.3-2.62 1.47L41.4 41.08c0 .2-.1.42-.1.52 0 1.16.94 2.1 2.1 2.1.95 0 1.8-.63 2-1.57l3.15-11.54c.42-1.05-.2-2.2-1.37-2.52z" fill="#fff"/></g></svg>