<?xml version="1.0" encoding="UTF-8"?>
<svg id="Camada_1" xmlns="http://www.w3.org/2000/svg" version="1.1" xmlns:lucid="lucid" viewBox="0 0 59.8 42.19">
  <!-- Generator: Adobe Illustrator 29.5.0, SVG Export Plug-In . SVG Version: 2.1.0 Build 137)  -->
  <defs>
    <style>
      .st0 {
        fill: #0d9dda;
        stroke: #000;
        stroke-opacity: 0;
      }
    </style>
  </defs>
  <g lucid:page-tab-id="0_0">
    <path class="st0" d="M24.96,4.99c1.88-2,4.53-3.22,7.47-3.22,3.88,0,7.3,2.18,9.05,5.4,1.6-.7,3.3-1.12,5.12-1.12,7,0,12.7,5.73,12.7,12.82s-5.7,12.8-12.7,12.8c-.82,0-1.65-.07-2.47-.24-1.6,2.84-4.65,4.74-8.06,4.74-1.47,0-2.88-.33-4.05-.9-1.65,3.78-5.4,6.42-9.76,6.42s-8.4-2.88-9.94-6.92c-.65.12-1.3.2-2,.2-5.4,0-9.82-4.45-9.82-9.93,0-3.66,2-6.88,4.88-8.6-.6-1.37-.94-2.93-.94-4.54C4.44,5.6,9.54.5,15.91.5c3.7,0,7,1.77,9.06,4.5h-.01Z"/>
  </g>
</svg>