<svg xmlns="http://www.w3.org/2000/svg" xmlns:lucid="lucid" width="100" height="100"><g lucid:page-tab-id="0_0" stroke="#000" stroke-opacity="0"><path d="M45.06 33.9c1.88-2 4.53-3.22 7.47-3.22 3.88 0 7.3 2.18 9.05 5.4 1.6-.7 3.3-1.12 5.12-1.12 7 0 12.7 5.73 12.7 12.82 0 7.08-5.7 12.8-12.7 12.8-.82 0-1.65-.07-2.47-.24-1.6 2.84-4.65 4.74-8.06 4.74-1.47 0-2.88-.33-4.05-.9-1.65 3.78-5.4 6.42-9.76 6.42-4.53 0-8.4-2.88-9.94-6.92-.65.12-1.3.2-2 .2-5.4 0-9.82-4.45-9.82-9.93 0-3.66 2-6.88 4.88-8.6-.6-1.37-.94-2.93-.94-4.54 0-6.3 5.1-11.4 11.47-11.4 3.7 0 7 1.77 9.06 4.5z" fill="#0d9dda"/></g></svg>