<?xml version="1.0" encoding="UTF-8"?>
<svg id="Camada_1" xmlns="http://www.w3.org/2000/svg" version="1.1" xmlns:lucid="lucid" viewBox="0 0 59.8 59.8">
  <!-- Generator: Adobe Illustrator 29.5.0, SVG Export Plug-In . SVG Version: 2.1.0 Build 137)  -->
  <defs>
    <style>
      .st0 {
        fill: #fff;
      }

      .st0, .st1, .st2 {
        stroke: #000;
        stroke-opacity: 0;
      }

      .st1 {
        fill: #0b827c;
      }

      .st2 {
        fill: #04e1cb;
      }
    </style>
  </defs>
  <g lucid:page-tab-id="0_0">
    <path class="st2" d="M5.2,32.47l8.94-8.94c.94-.94,2.37-.94,3.3,0l7.77,7.65,13.15-13.04h-10.83c-1.3,0-2.32-1.08-2.32-2.37s1.04-2.32,2.33-2.32h16.5c1.28,0,2.32,1.04,2.32,2.32v16.5c0,1.3-1.04,2.32-2.32,2.32s-2.37-1.04-2.37-2.33v-10.81l-14.73,14.82c-.94.94-2.33.94-3.26,0l-7.9-7.8-10.58,10.63v15.5h8.25v-7.06c0-1.3,1.04-2.33,2.32-2.33s2.37,1.05,2.37,2.34v7.06h9.4v-7.06c0-1.3,1.08-2.33,2.36-2.33s2.37,1.05,2.37,2.34v7.06h9.4v-7.06c0-1.3,1.07-2.33,2.36-2.33s2.32,1.05,2.32,2.34v7.06h8.25V5.2H5.2v27.27Z"/>
    <path class="st0" d="M23.7,36.18c.9.95,2.35.95,3.3,0l14.7-14.8v10.8c0,1.3,1.03,2.37,2.35,2.37s2.35-1.08,2.35-2.36V15.74c0-1.3-1.07-2.35-2.35-2.35h-16.48c-1.32,0-2.35,1.05-2.35,2.35s1.03,2.34,2.35,2.34l10.84-.02-13.18,13.06-7.78-7.65c-.95-.94-2.35-.94-3.3,0l-8.95,8.93v6.58l10.6-10.57,7.9,7.75v.02Z"/>
    <path class="st1" d="M56.95.5H2.85C1.55.5.5,1.56.5,2.85v54.1c0,1.3,1.06,2.35,2.35,2.35h54.1c1.3,0,2.35-1.06,2.35-2.35V2.85c0-1.3-1.06-2.35-2.35-2.35ZM54.6,54.6h-8.24v-7.06c0-1.3-1.05-2.35-2.35-2.35s-2.34,1.05-2.34,2.34v7.06h-9.4v-7.06c0-1.3-1.07-2.35-2.36-2.35s-2.35,1.05-2.35,2.34v7.06h-9.4v-7.06c0-1.3-1.07-2.35-2.36-2.35s-2.36,1.05-2.36,2.34v7.06H5.2V5.2h49.4v49.4Z"/>
  </g>
</svg>