<?xml version="1.0" encoding="UTF-8"?>
<svg id="Camada_1" xmlns="http://www.w3.org/2000/svg" version="1.1" xmlns:lucid="lucid" viewBox="0 0 59.8 42.19">
  <!-- Generator: Adobe Illustrator 29.5.0, SVG Export Plug-In . SVG Version: 2.1.0 Build 137)  -->
  <defs>
    <style>
      .st0 {
        fill: #fff;
      }

      .st0, .st1 {
        stroke: #000;
        stroke-opacity: 0;
      }

      .st1 {
        fill: #0d9dda;
      }
    </style>
  </defs>
  <g lucid:page-tab-id="0_0">
    <path class="st1" d="M24.96,5c1.88-2,4.53-3.22,7.47-3.22,3.88,0,7.23,2.14,9.05,5.4,1.6-.7,3.3-1.12,5.12-1.12,7,0,12.7,5.77,12.7,12.8s-5.7,12.83-12.7,12.83c-.82,0-1.65-.1-2.47-.26-1.6,2.8-4.65,4.74-8.1,4.74-1.43,0-2.84-.33-4.07-.9-1.6,3.74-5.35,6.42-9.7,6.42-4.6,0-8.47-2.88-9.94-6.92-.65.12-1.3.2-2,.2-5.4,0-9.82-4.45-9.82-9.93,0-3.66,1.94-6.88,4.88-8.6-.6-1.37-.88-2.9-.88-4.54C4.5,5.6,9.6.5,15.9.5c3.7,0,6.94,1.77,9.06,4.5Z"/>
    <path class="st0" d="M9.02,21.83c-.05.08.02.1.02.12.1.1.2.13.34.2.6.32,1.17.4,1.75.4,1.2,0,1.97-.64,1.97-1.66v-.03c0-.95-.84-1.3-1.64-1.56l-.1-.03c-.62-.2-1.13-.37-1.13-.76,0-.35.3-.6.78-.6.52,0,1.15.18,1.54.4,0,0,.1.06.15-.04,0-.07.2-.6.23-.68.02-.06-.02-.1-.07-.12-.45-.3-1.08-.46-1.73-.46h-.12c-1.1,0-1.88.67-1.88,1.62v.03c0,1,.85,1.34,1.65,1.55l.12.05c.58.17,1.08.32,1.08.73v.02c0,.37-.33.65-.85.65-.2,0-.84,0-1.55-.45-.1-.05-.13-.1-.2-.13-.04-.02-.13-.07-.15.06l-.2.7h-.01ZM26.72,21.83c-.05.08.02.1.02.12.1.1.2.13.34.2.6.32,1.17.4,1.75.4,1.2,0,1.97-.64,1.97-1.66v-.03c0-.95-.84-1.3-1.64-1.56l-.1-.03c-.62-.2-1.13-.37-1.13-.76,0-.35.3-.6.78-.6.52,0,1.15.18,1.54.4,0,0,.1.06.15-.04,0-.07.2-.6.23-.68.02-.06-.02-.1-.07-.12-.45-.3-1.08-.46-1.73-.46h-.12c-1.1,0-1.88.67-1.88,1.62v.03c0,1,.85,1.34,1.65,1.55l.12.05c.58.17,1.08.32,1.08.73v.02c0,.37-.33.65-.85.65-.2,0-.84,0-1.55-.45-.1-.05-.13-.1-.2-.13-.02-.02-.13-.05-.15.06l-.2.7h-.01ZM39.68,18.76c-.1-.32-.26-.62-.46-.86s-.47-.45-.77-.6c-.3-.13-.68-.2-1.1-.2s-.76.07-1.07.2c-.3.17-.56.36-.77.6-.2.24-.36.54-.45.86-.1.33-.15.7-.15,1.1s.04.74.15,1.07c.1.32.26.62.46.86.22.23.48.44.78.58.3.12.68.2,1.08.2s.78-.06,1.1-.2c.3-.14.55-.35.76-.6.2-.23.37-.53.46-.85.1-.33.15-.7.15-1.1s-.04-.74-.15-1.07h-.02ZM38.68,19.86c0,.57-.1,1.02-.32,1.35-.22.33-.54.48-.98.48s-.75-.15-.97-.47c-.2-.32-.3-.77-.3-1.36s.1-1.03.3-1.36c.23-.32.53-.47.98-.47s.78.16.98.48c.22.33.33.78.33,1.36h-.02ZM48.03,21.55c-.04-.1-.13-.06-.13-.06-.15.05-.3.1-.47.12s-.35.04-.57.04c-.5,0-.86-.15-1.14-.43s-.43-.76-.43-1.4c0-.55.12-.98.38-1.3.23-.33.62-.5,1.12-.5.4,0,.74.04,1.06.15,0,0,.1.04.1-.07.1-.22.16-.4.25-.67.03-.1-.04-.1-.06-.1-.13-.06-.43-.14-.67-.2-.2-.03-.47-.03-.76-.03-.42,0-.8.07-1.1.22-.33.15-.62.34-.83.58-.22.24-.4.54-.5.86-.1.33-.17.7-.17,1.08,0,.85.2,1.52.67,2.02.45.5,1.12.75,2,.75.5,0,1.02-.1,1.4-.25,0,0,.08-.04.06-.13l-.2-.67h-.01ZM53.16,18.6c-.1-.33-.3-.66-.43-.8-.2-.24-.43-.42-.65-.5-.28-.13-.6-.2-.97-.2-.42,0-.8.07-1.12.2-.32.17-.58.36-.77.62-.2.26-.36.54-.45.9-.1.33-.15.68-.15,1.07s.04.75.15,1.07c.1.32.26.63.5.86.22.24.52.44.86.57.36.12.77.2,1.24.2,1,0,1.52-.22,1.72-.36.04-.02.06-.06,0-.17l-.2-.63c-.04-.08-.13-.06-.13-.06-.24.1-.6.26-1.4.26-.53,0-.94-.15-1.17-.4-.26-.27-.37-.64-.4-1.14h3.42s.1,0,.1-.08c0,0,.1-.65-.12-1.43l-.03.02ZM49.76,19.3c.05-.32.14-.58.3-.8.2-.32.5-.5.96-.5s.74.18.96.5c.14.22.2.5.2.8h-2.42ZM25.86,18.6c-.1-.33-.3-.66-.43-.8-.2-.24-.43-.42-.65-.5-.28-.13-.6-.2-.97-.2-.42,0-.8.07-1.12.2-.32.17-.58.36-.77.62-.2.26-.36.54-.45.9-.1.33-.15.68-.15,1.07s.04.75.15,1.07c.1.32.26.63.5.86.22.24.52.44.86.57.36.12.77.2,1.24.2,1,0,1.52-.22,1.72-.36.04-.02.06-.06,0-.17l-.2-.63c-.04-.08-.13-.06-.13-.06-.24.1-.6.26-1.4.26-.53,0-.94-.15-1.17-.4-.26-.27-.37-.64-.4-1.14h3.41s.1,0,.1-.08c0,0,.1-.65-.12-1.43l-.02.02ZM22.46,19.3c.05-.32.14-.58.3-.8.2-.32.5-.5.96-.5s.74.18.96.5c.12.22.2.5.2.8h-2.42ZM16.46,19.07l-.54-.02c-.3,0-.58.05-.84.1-.26.07-.5.18-.7.33-.23.16-.38.35-.5.57-.14.2-.18.5-.18.77,0,.3.04.56.15.78.1.22.26.4.46.54.2.13.44.24.7.3.26.07.56.1.9.1s.7-.03,1.04-.1c.33-.06.74-.13.87-.17l.24-.07c.1,0,.1-.1.1-.1v-3.12c0-.7-.18-1.18-.55-1.5-.38-.3-.9-.48-1.57-.48-.26,0-.66.04-.9.1,0,0-.74.14-1.06.38,0,0-.07.04-.02.12l.23.66c.03.08.1.06.1.06,0,0,.03,0,.08-.03.64-.35,1.5-.35,1.5-.35.35,0,.64.07.83.22.18.15.27.36.27.8v.17c-.34-.02-.6-.07-.6-.07h-.01ZM15.1,21.47c-.12-.1-.15-.13-.2-.2-.05-.1-.1-.25-.1-.45,0-.3.1-.5.3-.67,0,0,.3-.26,1-.24.5,0,.93.1.93.1v1.56s-.43.1-.93.13c-.7,0-1-.23-1-.23ZM43.95,17.32c.03-.1-.02-.1-.04-.13-.05-.03-.34-.1-.55-.1-.43-.02-.67.05-.9.16-.2.08-.44.25-.57.43v-.42c0-.07-.04-.1-.1-.1h-.89c-.06,0-.1.03-.1.1v5.08c0,.07.04.1.1.1h.9c.06,0,.1-.03.1-.1v-2.54c0-.34.04-.7.1-.88.07-.2.18-.4.3-.5.14-.13.27-.2.42-.26.15-.04.33-.06.46-.06.17,0,.36.04.36.04.07,0,.1-.04.13-.08.1-.18.26-.65.28-.74Z"/>
    <path class="st0" d="M35.5,15.03l-.33-.1c-.13,0-.3-.03-.46-.03-.62,0-1.1.17-1.44.53-.35.34-.56.86-.7,1.55l-.03.24h-.78s-.1,0-.1.1l-.14.73c0,.06.03.1.12.1h.76l-.76,4.3c-.07.34-.13.62-.2.83-.06.23-.15.38-.23.48-.1.1-.2.2-.32.24-.1.04-.26.07-.4.07l-.3-.03-.18-.06s-.1-.04-.13.06l-.26.7c0,.07,0,.13.05.13l.3.1c.2.03.35.03.5.03.32,0,.6-.04.84-.13.23-.1.45-.24.62-.44.2-.2.33-.45.43-.75s.22-.7.3-1.15l.78-4.37h1.13s.1,0,.1-.1l.14-.73c0-.07-.03-.1-.1-.1h-1.1s.07-.42.18-.8c.05-.14.15-.27.24-.36.1-.08.17-.15.28-.17.1-.04.23-.04.37-.04l.28.02.17.04c.1.04.13,0,.15-.04l.26-.72c.07-.1,0-.1-.02-.13h-.02ZM20.32,22.37c0,.06-.04.1-.1.1h-.9c-.08,0-.12-.03-.12-.1v-7.27s.04-.1.1-.1h.9c.08,0,.12.05.12.1v7.27Z"/>
  </g>
</svg>