<svg xmlns="http://www.w3.org/2000/svg" xmlns:lucid="lucid" width="100" height="100"><g lucid:page-tab-id="0_0" stroke="#000" stroke-opacity="0"><path d="M71.62 32.37c-4.23-4.02-10.73-4.02-14.86 0l-5.4 5.36c-.8.85-2.1.85-2.92 0l-5.4-5.36c-2-2-4.73-3.17-7.6-3.17-6 0-10.84 4.83-10.84 10.76 0 2.84 1.16 5.6 3.18 7.7L49.9 69.8l22.13-22.13c4.13-4.34 3.93-11.2-.4-15.3z" fill="#e26e8c"/><path d="M36.18 37.6C34.38 37.6 33 39 33 40.8c0 1.16-.94 2.1-2.1 2.1-1.15 0-2.1-.94-2.1-2.1 0-4.12 3.26-7.38 7.38-7.38 1.16 0 2.1.95 2.1 2.1 0 1.16-.94 2.1-2.1 2.1z" fill="#e26e8c"/><path d="M75 29.45c-5.95-5.95-15.42-5.95-21.35 0l-3.9 3.9-3.87-3.9c-5.82-5.5-14.87-5.5-20.7 0-5.87 5.7-6.17 15.3-.4 21.3l23.63 23.6c.42.45.95.65 1.48.65s1.06-.2 1.47-.65L75 50.75c5.87-5.9 5.87-15.4 0-21.3z" fill="#8a033e"/><path d="M49.9 69.8L27.78 47.67c-2.02-2.03-3.18-4.75-3.18-7.7 0-6.02 4.84-10.77 10.84-10.77 2.87 0 5.6 1.18 7.6 3.17l5.4 5.36c.8.85 2.12.85 2.92 0l5.4-5.36c4.23-4.02 10.73-4.02 14.86 0 4.34 4.1 4.54 10.96.4 15.3L49.9 69.8z" fill="#e26e8c"/><path d="M36.18 33.4c-4.12 0-7.38 3.26-7.38 7.38 0 1.16.95 2.1 2.1 2.1 1.16 0 2.1-.94 2.1-2.1 0-1.8 1.4-3.17 3.18-3.17 1.16 0 2.1-.94 2.1-2.1 0-1.15-.94-2.1-2.1-2.1z" fill="#fff"/></g></svg>