<?xml version="1.0" encoding="UTF-8"?>
<svg id="Camada_1" xmlns="http://www.w3.org/2000/svg" version="1.1" xmlns:lucid="lucid" viewBox="0 0 59.79 51.01">
  <!-- Generator: Adobe Illustrator 29.5.0, SVG Export Plug-In . SVG Version: 2.1.0 Build 137)  -->
  <defs>
    <style>
      .st0 {
        fill: #e26e8c;
      }

      .st0, .st1, .st2 {
        stroke: #000;
        stroke-opacity: 0;
      }

      .st1 {
        fill: #fff;
      }

      .st2 {
        fill: #8a033e;
      }
    </style>
  </defs>
  <g lucid:page-tab-id="0_0">
    <path class="st0" d="M51.51,7.88c-4.23-4.02-10.73-4.02-14.86,0l-5.4,5.36c-.8.85-2.1.85-2.92,0l-5.4-5.36c-2-2-4.73-3.17-7.6-3.17-6,0-10.84,4.83-10.84,10.76,0,2.84,1.16,5.6,3.18,7.7l22.12,22.14,22.13-22.13c4.13-4.34,3.93-11.2-.4-15.3h0Z"/>
    <path class="st0" d="M16.07,13.11c-1.8,0-3.18,1.4-3.18,3.2,0,1.16-.94,2.1-2.1,2.1s-2.1-.94-2.1-2.1c0-4.12,3.26-7.38,7.38-7.38,1.16,0,2.1.95,2.1,2.1s-.94,2.1-2.1,2.1v-.02Z"/>
    <path class="st2" d="M54.89,4.96c-5.95-5.95-15.42-5.95-21.35,0l-3.9,3.9-3.87-3.9C19.95-.54,10.9-.54,5.07,4.96c-5.87,5.7-6.17,15.3-.4,21.3l23.63,23.6c.42.45.95.65,1.48.65s1.06-.2,1.47-.65l23.64-23.6c5.87-5.9,5.87-15.4,0-21.3Z"/>
    <path class="st0" d="M29.79,45.31L7.67,23.18c-2.02-2.03-3.18-4.75-3.18-7.7,0-6.02,4.84-10.77,10.84-10.77,2.87,0,5.6,1.18,7.6,3.17l5.4,5.36c.8.85,2.12.85,2.92,0l5.4-5.36c4.23-4.02,10.73-4.02,14.86,0,4.34,4.1,4.54,10.96.4,15.3l-22.12,22.13Z"/>
    <path class="st1" d="M16.07,8.91c-4.12,0-7.38,3.26-7.38,7.38,0,1.16.95,2.1,2.1,2.1s2.1-.94,2.1-2.1c0-1.8,1.4-3.17,3.18-3.17,1.16,0,2.1-.94,2.1-2.1s-.94-2.1-2.1-2.1h0Z"/>
  </g>
</svg>