<?xml version="1.0" encoding="UTF-8"?>
<svg id="Camada_1" xmlns="http://www.w3.org/2000/svg" version="1.1" xmlns:lucid="lucid" viewBox="0 0 59.8 59.8">
  <!-- Generator: Adobe Illustrator 29.5.0, SVG Export Plug-In . SVG Version: 2.1.0 Build 137)  -->
  <defs>
    <style>
      .st0 {
        fill: #2eb67d;
      }

      .st0, .st1, .st2, .st3 {
        stroke: #000;
        stroke-opacity: 0;
      }

      .st1 {
        fill: #ecb22e;
      }

      .st2 {
        fill: #36c5f0;
      }

      .st3 {
        fill: #e01e5a;
      }
    </style>
  </defs>
  <g lucid:page-tab-id="0_0">
    <path class="st3" d="M12.8,37.6c0,3.37-2.84,6.2-6.2,6.2s-6.1-2.72-6.1-6.2,2.83-6.2,6.2-6.2h6.2v6.2h-.1ZM15.9,37.6c0-3.36,2.83-6.2,6.2-6.2s6.2,2.84,6.2,6.2v15.4c0,3.36-2.83,6.2-6.2,6.2s-6.2-2.84-6.2-6.2v-15.4Z"/>
    <path class="st2" d="M22.1,12.8c-3.37,0-6.2-2.84-6.2-6.2S18.62.5,22.1.5s6.2,2.83,6.2,6.2v6.2h-6.2v-.1ZM22.1,15.9c3.36,0,6.2,2.83,6.2,6.2s-2.84,6.2-6.2,6.2H6.7c-3.48-.1-6.2-2.83-6.2-6.2s2.84-6.2,6.2-6.2h15.4Z"/>
    <path class="st0" d="M46.9,22.1c0-3.37,2.83-6.2,6.2-6.2s6.2,2.83,6.2,6.2-2.83,6.2-6.2,6.2h-6.2v-6.2ZM43.8,22.1c0,3.36-2.83,6.2-6.2,6.2s-6.2-2.84-6.2-6.2V6.7c.1-3.48,2.83-6.2,6.2-6.2s6.2,2.84,6.2,6.2v15.4Z"/>
    <path class="st1" d="M37.6,46.9c3.37,0,6.2,2.83,6.2,6.2s-2.83,6.2-6.2,6.2-6.2-2.83-6.2-6.2v-6.2h6.2ZM37.6,43.8c-3.36,0-6.2-2.83-6.2-6.2s2.84-6.2,6.2-6.2h15.4c3.36,0,6.2,2.83,6.2,6.2s-2.84,6.2-6.2,6.2h-15.4Z"/>
  </g>
</svg>