<?xml version="1.0" encoding="UTF-8"?>
<svg id="Camada_1" xmlns="http://www.w3.org/2000/svg" version="1.1" xmlns:lucid="lucid" viewBox="0 0 47.62 58.02">
  <!-- Generator: Adobe Illustrator 29.5.0, SVG Export Plug-In . SVG Version: 2.1.0 Build 137)  -->
  <defs>
    <style>
      .st0 {
        fill: #222d64;
      }

      .st0, .st1, .st2 {
        stroke: #000;
        stroke-opacity: 0;
        stroke-width: 0px;
      }

      .st1 {
        fill: #fff;
      }

      .st2 {
        fill: #009ddc;
      }
    </style>
  </defs>
  <g lucid:page-tab-id="0_0">
    <path class="st2" d="M28.92,13.51c0,5.13-4.17,9.3-9.3,9.3s-9.3-4.17-9.3-9.3,4.17-9.3,9.3-9.3,9.3,4.17,9.3,9.3ZM34.2,49.69c-1.4,0-2.8-.48-3.86-1.34l-5.2-4.12c-1.3-1.05-2.07-2.53-2.26-4.2-.37-3.38,2.05-6.45,5.47-6.83.25-.06.47-.06.72-.06,1.3,0,2.58.4,3.67,1.18l.12-.2c-2.77-4.3-7.6-7.22-13.1-7.22-8.57,0-15.54,6.97-15.54,15.52v11.39h31.1v-4.25c-.34.08-.68.08-1,.08l-.12.05Z"/>
    <path class="st1" d="M42.45,30.41c-.97-.58-2.22-.3-2.85.67l-2.1,3.32v.05l-1.36,2.08-1.43,2.32-1.07,1.7-2.75-2.2-.63-.5c-.9-.7-2.18-.56-2.9.35-.7.9-.57,2.2.33,2.9l5.16,4.15c.38.3.83.45,1.27.45h.36c.25-.03.48-.14.7-.28.27-.17.5-.38.72-.66l1.33-2.13,1.84-2.92,4.03-6.4c.63-.95.35-2.23-.63-2.86l-.02-.04Z"/>
    <path class="st0" d="M44.72,26.91c-1-.63-2.15-.97-3.34-.97-2.14,0-4.1,1.04-5.23,2.84l-1,1.62c-2.14-2.73-4.52-4.6-7.66-5.98,3.42-2.44,5.66-6.44,5.66-10.96C33.15,6.03,27.1,0,19.68,0S6.2,6.04,6.2,13.46c0,4.52,2.27,8.52,5.65,10.96C4.9,27.42,0,34.39,0,42.46v13.45c0,1.17.95,2.1,2.05,2.1h35.22c1.1,0,2.05-.93,2.05-2.1v-8.98s.05-.06.05-.1l7.28-11.38c1.8-2.9,1-6.73-1.9-8.6l-.04.06Z"/>
    <path class="st2" d="M35.22,53.83H4.12v-11.4c0-8.55,6.97-15.52,15.55-15.52,5.5,0,10.33,2.86,13.1,7.2l-.13.23c-2.74-1.95-6.47-1.44-8.55,1.16-1.03,1.3-1.53,2.93-1.3,4.55.18,1.67.98,3.16,2.26,4.18l5.2,4.13c1.1.87,2.48,1.36,3.85,1.36.37,0,.72,0,1.03-.06v4.24l.09-.07ZM28.92,13.51c0,5.13-4.17,9.3-9.3,9.3s-9.3-4.17-9.3-9.3,4.17-9.3,9.3-9.3,9.3,4.17,9.3,9.3Z"/>
    <path class="st1" d="M37.22,42.54l-1.32,2.13c-.18.28-.42.52-.73.66-.2.14-.44.22-.7.28h-.34c-.47,0-.9-.17-1.26-.45l-5.17-4.15c-.9-.7-1.04-1.98-.33-2.87v-.03c.72-.9,2-1.06,2.9-.36l.63.5,2.75,2.2,1.08-1.7,1.44-2.3,1.32-2.1v-.05l2.13-3.33c.37-.63,1.06-.97,1.75-.97.38,0,.75.1,1.1.3.97.64,1.25,1.92.62,2.88l-4.03,6.4-1.83,2.9v.06Z"/>
  </g>
</svg>