<?xml version="1.0" encoding="UTF-8"?>
<svg id="Camada_1" xmlns="http://www.w3.org/2000/svg" version="1.1" xmlns:lucid="lucid" viewBox="0 0 59.8 59.1">
  <!-- Generator: Adobe Illustrator 29.5.0, SVG Export Plug-In . SVG Version: 2.1.0 Build 137)  -->
  <defs>
    <style>
      .st0 {
        fill: #1f447e;
      }

      .st0, .st1, .st2, .st3, .st4, .st5, .st6 {
        stroke: #000;
        stroke-opacity: 0;
      }

      .st1 {
        fill: #5b6591;
      }

      .st2 {
        fill: #7099a6;
      }

      .st3 {
        fill: #e8762c;
      }

      .st4 {
        fill: #c72035;
      }

      .st5 {
        fill: #eb912c;
      }

      .st6 {
        fill: #59879b;
      }
    </style>
  </defs>
  <g lucid:page-tab-id="0_0">
    <path class="st3" d="M39.6,30.95h-8.05v8.75h-3.2v-8.75h-8.05v-3.1h8.05v-8.75h3.2v8.75h8.05v3.1Z"/>
    <path class="st4" d="M23.4,42.23h-7.23v-7.93h-2.72v7.93h-7.35v2.37h7.35v7.8h2.72v-7.8h7.23v-2.37Z"/>
    <path class="st6" d="M53.7,14h-7.24v-7.8h-2.72v7.8h-7.24v2.5h7.24v7.8h2.72v-7.8h7.24s0-2.5,0-2.5Z"/>
    <path class="st1" d="M36.1,50.87h-4.86v-5.47h-2.36v5.46h-4.98v2.16h4.98v5.58h2.36v-5.58h4.86v-2.16h0Z"/>
    <path class="st5" d="M23.4,14h-7.35v-7.8h-2.6v7.8h-7.35v2.37h7.35v7.93h2.6v-7.93h7.35s0-2.37,0-2.37Z"/>
    <path class="st1" d="M59.3,28.33h-4.86v-5.43h-2.36v5.43h-4.98v2.14h4.98v5.43h2.36v-5.43h4.86v-2.14Z"/>
    <path class="st0" d="M53.7,42.23h-7.24v-7.93h-2.72v7.93h-7.24v2.37h7.24v7.8h2.72v-7.8h7.24s0-2.37,0-2.37Z"/>
    <path class="st2" d="M35.7,5.98h-4.86V.5h-1.78v5.48h-4.86v1.66h4.86v5.36h1.78v-5.36h4.86s0-1.66,0-1.66ZM12,28.63h-4.86v-5.33h-1.77v5.33H.5v1.64h4.87v5.33h1.77v-5.33h4.86s0-1.64,0-1.64Z"/>
  </g>
</svg>