<svg xmlns="http://www.w3.org/2000/svg" xmlns:lucid="lucid" width="100" height="100"><g lucid:page-tab-id="0_0" stroke="#000" stroke-opacity="0"><path d="M100 50c0 27.6-22.4 50-50 50S0 77.6 0 50 22.4 0 50 0s50 22.4 50 50z" fill="#032d60"/><path d="M68.64 20.6c2 0 3.94.6 5.64 1.65 1.7 1.05 3.12 2.52 4 4.35.88 1.76 1.24 3.82 1.06 5.76-.18 2-.94 3.94-2.12 5.53-1.23 1.57-2.82 2.8-4.7 3.5-1.88.78-3.94.96-5.88.6-2-.35-3.82-1.3-5.3-2.64-1.46-1.36-2.58-3.06-3.1-5h-.42c-1.3 0-2.6.53-3.47 1.47-.94.88-1.47 2.17-1.47 3.47v4.23l6.23 6.23c.2.24.37.42.48.65.06.25.12.54.12.78 0 .23-.06.52-.12.76-.1.24-.3.47-.47.65l-1.28 1.34c-.18.18-.35.35-.65.47-.23.07-.47.13-.7.13-.3 0-.53-.06-.77-.12-.23-.1-.47-.28-.64-.46L53 51.88v8.88c0 2.82-1.06 5.53-3 7.53s-4.65 3.16-7.4 3.28h-.83c-.53 1.94-1.6 3.64-3.12 5-1.47 1.35-3.3 2.3-5.3 2.64-1.93.36-4 .18-5.87-.53-1.82-.77-3.47-2-4.7-3.6-1.18-1.58-1.94-3.52-2.12-5.52-.18-2 .18-4 1.06-5.76.88-1.83 2.3-3.35 4-4.4 1.7-1.07 3.64-1.6 5.7-1.6 2.3 0 4.6.76 6.47 2.18 1.87 1.4 3.22 3.4 3.87 5.64h.4c1.3 0 2.6-.53 3.54-1.47.9-.94 1.42-2.18 1.42-3.47v-8.64l-1.77 1.88c-.17.18-.4.35-.64.47-.23.07-.46.13-.76.13-.23 0-.47-.06-.7-.12-.24-.1-.47-.28-.65-.46l-1.42-1.35c-.18-.2-.3-.42-.4-.66-.13-.24-.2-.53-.2-.76 0-.24.07-.53.2-.77.1-.22.22-.4.4-.64l5.88-5.82V39.3c-.06-2.77 1.06-5.47 3-7.53 1.94-2 4.6-3.17 7.35-3.23h.83c.6-2.3 2-4.3 3.82-5.76 1.9-1.42 4.24-2.18 6.6-2.18zM31.42 63.76c-1.35 0-2.6.53-3.53 1.4-.95.95-1.48 2.24-1.48 3.54 0 1.3.53 2.6 1.47 3.47.93.94 2.17 1.47 3.52 1.47 1.3 0 2.53-.53 3.47-1.47.93-.88 1.46-2.18 1.46-3.47 0-1.3-.53-2.6-1.47-3.53-.95-.88-2.2-1.4-3.48-1.4zm37.22-37.34c-1.35 0-2.6.53-3.53 1.47-.93.93-1.4 2.17-1.4 3.46 0 1.35.47 2.6 1.4 3.53.95.93 2.2 1.46 3.54 1.46 1.3 0 2.6-.53 3.47-1.47.95-.95 1.48-2.2 1.48-3.54 0-1.3-.53-2.53-1.47-3.47-.87-.95-2.17-1.48-3.46-1.48z" fill="#fff"/></g></svg>