<svg xmlns="http://www.w3.org/2000/svg" xmlns:lucid="lucid" width="100" height="100"><g lucid:page-tab-id="0_0" stroke="#000" stroke-opacity="0"><path d="M100 50c0 27.6-22.4 50-50 50S0 77.6 0 50 22.4 0 50 0s50 22.4 50 50z" fill="#032d60"/><path d="M72.4 26.8c-3.82 0-6.94 3.1-6.94 6.92 0 .6.12 1.1.18 1.53l-6.53 4.3c-2-2.34-4.93-3.86-8.34-3.86-2.52 0-4.88.86-6.7 2.28l-10.7-7.37c.65-2.83-.82-5.94-3.53-7.2-3.23-1.47-7-.1-8.47 3-1.47 3.12-.1 7.05 3 8.47 1.65.82 3.53.82 5.18.1l11 7.7c-.48 1.2-.77 2.52-.77 3.88 0 .82.12 1.47.18 2.3l-6.7 2.4c-.9-1-2.07-1.75-3.54-2.13-3.75-1.1-7.75 1.14-8.8 5.07-1.12 3.76 1.1 7.75 5.05 8.84 3.76 1.1 7.76-1.15 8.82-5.08.12-.38.24-.76.24-1.14l7.7-2.73c2 2.1 4.83 3.48 7.95 3.48h.88l1.12 5.46c-2.06 1.64-3.24 4.3-2.94 7.04.36 4.48 4.36 7.7 8.88 7.26 4.47-.38 7.65-4.36 7.3-8.84-.42-4-3.65-7-7.53-7.32l-1.18-5.73c2.77-1.97 4.6-5.24 4.6-8.9 0-.55-.07-1.15-.07-1.64l7.65-5.07c1 .5 2.05.82 3.1.82 3.83 0 6.95-3.1 6.95-6.93-.12-3.82-3.23-6.93-7-6.93zM50.76 53.7c-3.88 0-7-3.1-7-7.04 0-3.88 3.12-7 7-7 3.9 0 7 3.12 7 7 0 3.82-3.1 7.04-7 7.04z" fill="#fff"/><path d="M50.82 49.74c1.72 0 3.12-1.4 3.12-3.12 0-1.72-1.4-3.12-3.12-3.12-1.72 0-3.12 1.4-3.12 3.12 0 1.72 1.4 3.12 3.12 3.12z" fill="#fff"/></g></svg>