<svg xmlns="http://www.w3.org/2000/svg" xmlns:lucid="lucid" width="100" height="100"><g lucid:page-tab-id="0_0" stroke="#000" stroke-opacity="0"><path d="M63 1.7l12 5 10.4 7.9L93.3 25l5 12 1.7 13-1.7 13-5 12-7.9 10.4L75 93.3l-12 5-13 1.7-13-1.7-12-5-10.4-7.9L6.7 75l-5-12L0 50l1.7-13 5-12 7.9-10.4L25 6.7l12-5L50 0z" fill="#fff"/><path d="M74.7 74.7H25.4V25.4h49.3z" fill="#7526e3"/><path d="M78.7 21.4l.7 1.65v54l-.7 1.65-1.65.7h-54l-1.65-.7-.7-1.65v-54l.7-1.65 1.65-.7h54z" fill="#401075"/><path d="M74.7 74.7H25.4V25.4h49.3z" fill="#7526e3"/><path d="M43.7 64.3L37.3 70V58.6zm-.72-18l5.28-1.4 5.4-.56 3.66.56 3.12 2 1.82 2.75.64 3.23V70h-5.73V53l-.67-2-2.84-.95-8.32 1.48L41.32 53l-4.02 1.8V30.1h5.68zm18.54-11.2l-2.9 4.26h-5.68L55.66 35l1.56-4.9h5.68z" fill="#fff"/></g></svg>