<svg xmlns="http://www.w3.org/2000/svg" xmlns:lucid="lucid" width="100" height="100"><g lucid:page-tab-id="0_0" stroke="#000" stroke-opacity="0"><path d="M100 50c0 27.6-22.4 50-50 50S0 77.6 0 50 22.4 0 50 0s50 22.4 50 50z" fill="#fff"/><path d="M46.2 52.3c-5.67 0-10.2 4.53-10.2 10.2 0 .23 0 .45-.1.57 3.05 1.8 6.57 2.83 10.3 2.83 3.73 0 7.25-1.02 10.3-2.83 0-.23-.1-.34-.1-.57 0-5.67-4.54-10.2-10.2-10.2zM46.2 47.8c3.75 0 6.8-3.05 6.8-6.8s-3.05-6.8-6.8-6.8-6.8 3.05-6.8 6.8 3.05 6.8 6.8 6.8z" fill="#fff"/><path d="M38.9 49.63c-2.48-2.04-4.06-5.2-4.06-8.7 0-6.22 5.08-11.32 11.3-11.32 6.24 0 11.32 5.1 11.32 11.32 0 3.5-1.58 6.67-4.07 8.7 3.7 2.16 6.43 5.77 7.24 10.18 3.58-3.7 5.86-8.8 5.86-14.37 0-11.17-9.16-20.33-20.35-20.33-11.2 0-20.35 9.16-20.35 20.33 0 5.56 2.28 10.66 5.86 14.37.8-4.4 3.54-8.02 7.25-10.17z" fill="#ffba90"/><path d="M78.3 69.87L67.24 58.82C69.6 55 71.1 50.35 71.1 45.47 71.1 31.65 60 20.6 46.16 20.6c-13.8 0-24.87 11.05-24.87 24.87s11.08 24.88 24.87 24.88c4.33 0 8.37-1.12 11.88-3.06l11.43 11.4c.46.47 1.04.7 1.6.7.6 0 1.1-.23 1.57-.7l5.66-5.65c.93-.88.93-2.23 0-3.18z" fill="#dd7a01"/><path d="M25.8 45.43c0-11.17 9.16-20.33 20.35-20.33 11.2 0 20.35 9.16 20.35 20.33 0 5.56-2.28 10.66-5.86 14.37-.8-4.4-3.54-8.02-7.25-10.17 2.48-2.04 4.06-5.2 4.06-8.7 0-6.22-5.08-11.32-11.3-11.32-6.24 0-11.32 5.1-11.32 11.32 0 3.5 1.58 6.67 4.07 8.7-3.7 2.16-6.43 5.77-7.24 10.18-3.58-3.7-5.86-8.8-5.86-14.37z" fill="#ffba90"/><path d="M46.2 47.8c3.75 0 6.8-3.05 6.8-6.8s-3.05-6.8-6.8-6.8-6.8 3.05-6.8 6.8 3.05 6.8 6.8 6.8zM46.2 65.9c-3.73 0-7.25-1.02-10.3-2.83 0-.23.1-.34.1-.57 0-5.67 4.53-10.2 10.2-10.2 5.66 0 10.2 4.53 10.2 10.2 0 .23 0 .45.1.57-3.05 1.8-6.57 2.83-10.3 2.83z" fill="#fff"/><path d="M71.03 73.9l-9.13-9.13c.45-.35.9-.68 1.24-1.13l.12-.1c.45-.35.78-.8 1.12-1.14l9.02 9.02-2.37 2.48z" fill="#dd7a01"/><path d="M64.4 62.4c-.35.45-.8.8-1.13 1.13l-.12.1c-.45.35-.8.8-1.25 1.14l9.2 9.13 2.5-2.48-9.2-9.02z" fill="#fff"/></g></svg>