<svg xmlns="http://www.w3.org/2000/svg" xmlns:lucid="lucid" width="100" height="100"><g lucid:page-tab-id="0_0" stroke="#000" stroke-opacity="0"><path d="M100 50c0 27.6-22.4 50-50 50S0 77.6 0 50 22.4 0 50 0s50 22.4 50 50z" fill="#fff"/><path d="M50 77.1c-14.9.1-27-11.86-27.1-26.8-.1-14.92 12-27 26.9-27.1 14.9-.1 27 11.97 27.1 26.8v.1c0 14.93-12.1 27-26.9 27z" fill="#0d9dda"/><path d="M42.6 63.26c-4.63-2.3-7.6-7.15-7.6-12.3 0-2.75.85-5.45 2.3-7.8l9.7 14.5h5.87l9.66-14.5c1.5 2.35 2.34 5.05 2.34 7.8 0 4.83-2.52 9.37-6.62 11.87l1.9 7.16c10.8-5.68 15.13-19.05 9.44-29.96-1.9-3.68-4.73-6.73-8.3-8.84L50.05 48.64 38.9 31.2c-10.5 6.22-14.08 19.75-7.77 30.26 2.3 3.8 5.7 6.96 9.66 8.84l1.8-7.04z" fill="#fff"/><path d="M50 20.6c-16.3 0-29.4 13.1-29.4 29.4 0 16.3 13.1 29.4 29.4 29.4 16.3 0 29.4-13.1 29.4-29.4 0-16.3-13.1-29.4-29.4-29.4zm0 56.5c-14.94.07-27-11.87-27.1-26.8-.12-14.88 12-27 26.86-27.05 14.94-.12 27 11.93 27.1 26.75v.12c0 14.87-12.04 27-26.86 27z" fill="#032d60"/></g></svg>