<svg xmlns="http://www.w3.org/2000/svg" xmlns:lucid="lucid" width="100" height="100"><g lucid:page-tab-id="0_0" stroke="#000" stroke-opacity="0"><path d="M100 50c0 27.6-22.4 50-50 50S0 77.6 0 50 22.4 0 50 0s50 22.4 50 50z" fill="#fff"/><path d="M25.3 52.57l8.94-8.94c.94-.94 2.37-.94 3.3 0l7.77 7.65 13.15-13.04H47.63c-1.3 0-2.32-1.08-2.32-2.37 0-1.28 1.04-2.32 2.33-2.32h16.5c1.28 0 2.32 1.04 2.32 2.32v16.5c0 1.3-1.04 2.32-2.32 2.32-1.3 0-2.37-1.04-2.37-2.33V41.55L47.04 56.37c-.94.94-2.33.94-3.26 0l-7.9-7.8L25.3 59.2v15.5h8.25v-7.06c0-1.3 1.04-2.33 2.32-2.33 1.3 0 2.37 1.05 2.37 2.34v7.06h9.4v-7.06c0-1.3 1.08-2.33 2.36-2.33 1.28 0 2.37 1.05 2.37 2.34v7.06h9.4v-7.06c0-1.3 1.07-2.33 2.36-2.33 1.28 0 2.32 1.05 2.32 2.34v7.06h8.25V25.3H25.3v27.27z" fill="#04e1cb"/><path d="M43.8 56.28c.9.95 2.35.95 3.3 0l14.7-14.8v10.8c0 1.3 1.03 2.37 2.35 2.37 1.28 0 2.35-1.08 2.35-2.36V35.84c0-1.3-1.07-2.35-2.35-2.35H47.67c-1.32 0-2.35 1.05-2.35 2.35 0 1.28 1.03 2.34 2.35 2.34l10.84-.02-13.18 13.06-7.78-7.65c-.95-.94-2.35-.94-3.3 0L25.3 52.5v6.58l10.6-10.57 7.9 7.75z" fill="#fff"/><path d="M77.05 20.6h-54.1c-1.3 0-2.35 1.06-2.35 2.35v54.1c0 1.3 1.06 2.35 2.35 2.35h54.1c1.3 0 2.35-1.06 2.35-2.35v-54.1c0-1.3-1.06-2.35-2.35-2.35zM74.7 74.7h-8.24v-7.06c0-1.3-1.05-2.35-2.35-2.35-1.28 0-2.34 1.05-2.34 2.34v7.06h-9.4v-7.06c0-1.3-1.07-2.35-2.36-2.35-1.3 0-2.35 1.05-2.35 2.34v7.06h-9.4v-7.06c0-1.3-1.07-2.35-2.36-2.35-1.3 0-2.36 1.05-2.36 2.34v7.06H25.3V25.3h49.4v49.4z" fill="#0b827c"/></g></svg>