<svg xmlns="http://www.w3.org/2000/svg" xmlns:lucid="lucid" width="100" height="100"><g lucid:page-tab-id="0_0" stroke="#000" stroke-opacity="0"><path d="M100 50c0 27.6-22.4 50-50 50S0 77.6 0 50 22.4 0 50 0s50 22.4 50 50z" fill="#fff"/><path d="M32.9 57.7c0 3.37-2.84 6.2-6.2 6.2-3.38 0-6.1-2.72-6.1-6.2 0-3.37 2.83-6.2 6.2-6.2H33v6.2h-.1zM36 57.7c0-3.36 2.83-6.2 6.2-6.2s6.2 2.84 6.2 6.2v15.4c0 3.36-2.83 6.2-6.2 6.2S36 76.46 36 73.1V57.7z" fill="#e01e5a"/><path d="M42.2 32.9c-3.37 0-6.2-2.84-6.2-6.2 0-3.38 2.72-6.1 6.2-6.1s6.2 2.83 6.2 6.2V33h-6.2v-.1zM42.2 36c3.36 0 6.2 2.83 6.2 6.2s-2.84 6.2-6.2 6.2H26.8c-3.48-.1-6.2-2.83-6.2-6.2s2.84-6.2 6.2-6.2h15.4z" fill="#36c5f0"/><path d="M67 42.2c0-3.37 2.83-6.2 6.2-6.2s6.2 2.83 6.2 6.2-2.83 6.2-6.2 6.2H67v-6.2zM63.9 42.2c0 3.36-2.83 6.2-6.2 6.2s-6.2-2.84-6.2-6.2V26.8c.1-3.48 2.83-6.2 6.2-6.2s6.2 2.84 6.2 6.2v15.4z" fill="#2eb67d"/><path d="M57.7 67c3.37 0 6.2 2.83 6.2 6.2s-2.83 6.2-6.2 6.2-6.2-2.83-6.2-6.2V67h6.2zM57.7 63.9c-3.36 0-6.2-2.83-6.2-6.2s2.84-6.2 6.2-6.2h15.4c3.36 0 6.2 2.83 6.2 6.2s-2.84 6.2-6.2 6.2H57.7z" fill="#ecb22e"/></g></svg>