<svg xmlns="http://www.w3.org/2000/svg" xmlns:lucid="lucid" width="100" height="100"><g lucid:page-tab-id="0_0" stroke="#000" stroke-opacity="0" stroke-width="2.34"><path d="M100 50c0 27.6-22.4 50-50 50S0 77.6 0 50 22.4 0 50 0s50 22.4 50 50z" fill="#dd7a01"/><path d="M59.45 33.57c-1.25-.72-2.67-.37-3.38.9-.72 1.24-.37 2.67.9 3.38.34.18.7.36 1.23.36.9 0 1.6-.35 2.14-1.24.72-1.25.36-2.86-.9-3.4zM33.4 52.5c1.43 0 2.5-1.07 2.5-2.5s-1.07-2.5-2.5-2.5-2.5 1.07-2.5 2.5 1.07 2.5 2.5 2.5zM64.5 44.1c.36 0 .9-.17 1.25-.35 1.25-.7 1.6-2.14.9-3.4-.72-1.25-2.15-1.6-3.4-.88-1.25.7-1.6 2.14-.88 3.4.35.88 1.24 1.24 2.13 1.24zM34.24 43.95c.36.18.72.36 1.25.36.9 0 1.6-.35 2.13-1.24.72-1.25.18-2.68-.9-3.4-1.24-.7-2.67-.36-3.38.9-.54 1.25-.18 2.68.9 3.4zM65.55 56.27c-1.25-.72-2.67-.37-3.38.9-.72 1.24-.37 2.67.9 3.38.34.18.7.36 1.23.36.9 0 1.6-.35 2.14-1.24.72-1.25.36-2.86-.9-3.4zM66.6 47.5c-1.43 0-2.5 1.07-2.5 2.5 0 1.25 1.07 2.5 2.5 2.5s2.5-1.07 2.5-2.5-1.07-2.5-2.5-2.5zM50 30.9c-1.43 0-2.5 1.07-2.5 2.5s1.07 2.5 2.5 2.5 2.5-1.07 2.5-2.5-1.07-2.5-2.5-2.5zM40.36 33.57c-1.26.7-1.6 2.14-.9 3.4.54.7 1.25 1.24 2.14 1.24.36 0 .9-.17 1.25-.35 1.25-.7 1.6-2.14.9-3.4-.72-1.25-2.15-1.6-3.4-.88zM34.46 56.27c-1.26.72-1.6 2.15-.9 3.4.36.7 1.25 1.07 2.14 1.07.36 0 .9-.18 1.25-.36 1.25-.7 1.6-2.14.9-3.4-.72-1.07-2.33-1.42-3.4-.7z" fill="#fff"/><path d="M50 22.7c-15.02 0-27.3 12.28-27.3 27.3 0 15 12.28 27.3 27.3 27.3C65 77.3 77.3 65 77.3 50 77.3 34.98 65 22.7 50 22.7zm13.92 46.2c-.7-4.43-3.38-8.2-7.3-10.33 2.5-1.96 4.08-5.02 4.08-8.57 0-5.9-4.8-10.7-10.7-10.7-5.9 0-10.7 4.8-10.7 10.7 0 3.4 1.58 6.6 4.1 8.57-3.94 1.97-6.6 5.9-7.32 10.32-5.68-4.27-9.45-11.04-9.45-18.9 0-12.83 10.54-23.37 23.37-23.37 12.83 0 23.37 10.54 23.37 23.37 0 7.7-3.77 14.63-9.45 18.9zM50 73.36c-3.55 0-7.15-.87-10.16-2.3v-.2c0-5.53 4.65-10.17 10.16-10.17 5.5 0 10.16 4.64 10.16 10.16v.22c-3 1.58-6.6 2.3-10.16 2.3zM43.23 50c0-3.77 3-6.77 6.77-6.77 3.77 0 6.77 3 6.77 6.77 0 3.77-3 6.77-6.77 6.77-3.77 0-6.77-3-6.77-6.77z" fill="#fff"/></g></svg>