<svg xmlns="http://www.w3.org/2000/svg" xmlns:lucid="lucid" width="100" height="100"><g lucid:page-tab-id="0_0" stroke="#000" stroke-opacity="0" stroke-width="2.34"><path d="M50 0C22.4 0 0 22.4 0 50s22.4 50 50 50 50-22.4 50-50S77.6 0 50 0z" fill="#032d60"/><path d="M50.05 22.7c-15.1 0-27.35 12.25-27.35 27.35 0 15.1 12.25 27.35 27.35 27.35 15.1 0 27.35-12.25 27.35-27.35 0-15.1-12.25-27.35-27.35-27.35zm0 50.76c-12.96 0-23.4-10.45-23.4-23.4 0-12.97 10.44-23.42 23.4-23.42 12.96 0 23.4 10.45 23.4 23.4 0 12.97-10.44 23.42-23.4 23.42z" fill="#fff"/><path d="M61.8 42.22h-3.93v-3.9c0-2.17-1.75-3.92-3.9-3.92h-7.83c-2.16 0-3.92 1.75-3.92 3.9v3.92h-3.9c-2.17 0-3.92 1.76-3.92 3.92v7.82c0 2.16 1.75 3.9 3.9 3.9h3.92v3.93c0 2.15 1.76 3.9 3.92 3.9h7.82c2.16 0 3.9-1.75 3.9-3.9v-3.93h3.93c2.15 0 3.9-1.75 3.9-3.9v-7.83c0-2.16-1.75-3.92-3.9-3.92zm0 11.74h-7.84v7.83h-7.82v-7.84H38.3v-7.82h7.84V38.3h7.82v7.84h7.83z" fill="#fff"/></g></svg>