<svg xmlns="http://www.w3.org/2000/svg" xmlns:lucid="lucid" width="100" height="100"><g lucid:page-tab-id="0_0" stroke="#000" stroke-opacity="0"><path d="M100 50c0 27.6-22.4 50-50 50S0 77.6 0 50 22.4 0 50 0s50 22.4 50 50z" fill="#200d38"/><path d="M71.1 20.6c2.92 0 5.3 2.35 5.3 5.3v48.2c0 2.95-2.38 5.3-5.3 5.3H28.8c-2.92 0-5.3-2.35-5.3-5.3V25.9c0-2.95 2.38-5.3 5.3-5.3h42.3zm0 2.94H28.8c-1.28 0-2.34 1.06-2.34 2.35v48.2c0 1.3 1.06 2.36 2.33 2.36h42.3c1.33 0 2.34-1.06 2.34-2.35V25.9c0-1.3-1-2.36-2.33-2.36zM37.48 58.82l6.6 5.88-6.6 5.88V58.82zm5.87-29.4v16.7c2.9-.94 7.03-2 11-2 3.65 0 5.82 1.4 7.04 2.65 2.38 2.4 2.54 5.52 2.54 6.1v17.7h-5.88V53c-.05-1.35-.68-3-3.7-3-5.7 0-12.06 2.76-12.7 3l-.05.06-4.13 1.88V29.42h5.87zm20.58 0c-.43 3.35-1.75 6.53-4.4 9.58H53.6c2.33-3.05 3.8-6.23 4.44-9.58h5.88z" fill="#fff"/></g></svg>