<svg xmlns="http://www.w3.org/2000/svg" xmlns:lucid="lucid" width="100" height="100"><g lucid:page-tab-id="0_0" stroke="#000" stroke-opacity="0" stroke-width="2.34"><path d="M50 0C22.4 0 0 22.4 0 50s22.4 50 50 50 50-22.4 50-50S77.6 0 50 0z" fill="#481a54"/><path d="M72.4 37.26h-9.67V24.5c0-1.03-.82-1.9-1.9-1.9H35.38c-1.07 0-1.9.87-1.9 1.9v29.33H27.6c-1.03 0-1.9.87-1.9 1.9V75.2c0 1.03.87 1.9 1.9 1.9h44.8c1.03 0 1.9-.87 1.9-1.9V39c0-.87-.87-1.74-1.9-1.74zM37.27 26.58H58.8v10.68h-9.82c-1.07 0-1.9.87-1.9 1.9v14.67h-9.8V26.58zM58.8 73.5h-4v-9.86c0-1.04-.8-1.9-1.88-1.9-1.02 0-1.9.86-1.9 1.9v9.86h-4.8v-9.86c0-1.04-.9-1.9-1.9-1.9-1.03 0-1.9.86-1.9 1.9v9.86h-4.8v-9.86c0-1.04-.9-1.9-1.9-1.9-1.08 0-1.9.86-1.9 1.9v9.86h-4V57.8h29.32v15.7zm3.93 0V55.9c0-1.04-.82-1.9-1.9-1.9h-9.8V41.23H70.5V73.5h-7.77z" fill="#fff"/></g></svg>