<svg xmlns="http://www.w3.org/2000/svg" xmlns:lucid="lucid" width="100" height="100"><g lucid:page-tab-id="0_0" stroke="#000" stroke-opacity="0" stroke-width="2.34"><path d="M100 50c0 27.6-22.4 50-50 50S0 77.6 0 50 22.4 0 50 0s50 22.4 50 50z" fill="#dd7a01"/><path d="M62 35.66v-2.1h1.07c1.07 0 1.93-.94 1.93-1.97 0-1.1-.86-1.98-1.93-1.98h-5.92c-1.08 0-1.94.9-1.94 1.97 0 1.02.87 1.95 1.95 1.95h1.07v2.1c-1.77.2-3.55.75-5 1.44-.7-6.44-6.24-11.6-12.86-11.6-7.15 0-13.07 5.9-13.07 13 0 4.48 2.14 8.26 5.53 10.76-5.7 2.66-9.63 8.4-9.63 14.98v8.4c0 1.08.9 1.96 2 1.96H55c1.07 0 2-.88 2-1.96v-3.2c1.06.15 1.92.35 3 .35 9.3 0 17-7.72 17-17 0-9.08-6.62-16.25-15-17.14zm-5 29.32v-.94c0-6.58-3.94-12.12-9.48-14.78v-.2c2.3-1.76 4.1-4.26 5-7.1 2.15-1.48 4.63-2.37 7.48-2.37 7.15 0 13.07 5.88 13.07 13.05 0 7.12-5.92 13-13.07 13-1.08-.13-2.1-.33-3-.67zm-3.94 2.84v2.5H27.13V63.9c0-6.98 5.92-12.67 13.07-12.67 1.08 0 2.1.15 3 .34.7.2 1.25.35 2 .54.7.36 1.4.7 1.94 1.1 3.4 2.1 5.54 5.7 5.92 9.8v4.82zM40 29.62c5 0 8.92 4.08 8.92 8.9 0 .38 0 .92-.17 1.27-.37 2.84-2.15 5.34-4.62 6.76-1.3.74-2.7 1.08-4.14 1.08-5.02 0-8.95-4.12-8.95-8.93 0-4.8 3.93-9.08 8.94-9.08z" fill="#fff"/><path d="M65.86 53.8l-3.93-2.33v-5.7c0-1.08-.9-1.97-1.97-1.97-1.07 0-1.96.9-1.96 1.96v6.97c0 .7.36 1.42.9 1.77l5 3.05c.35.17.7.35 1.07.35.7 0 1.25-.35 1.78-.9.36-1.43.18-2.67-.9-3.2z" fill="#fff"/></g></svg>