<svg xmlns="http://www.w3.org/2000/svg" xmlns:lucid="lucid" width="100" height="100"><g lucid:page-tab-id="0_0" stroke="#000" stroke-opacity="0" stroke-width="2.34"><path d="M100 50c0 27.6-22.4 50-50 50S0 77.6 0 50 22.4 0 50 0s50 22.4 50 50z" fill="#0b827c"/><path d="M72.16 59.3c1.43-1.45 2.3-3.6 2.3-5.75 0-3-1.58-5.7-4.1-7.1v-19.5c0-1.05-.9-1.95-2-1.95H31.64c-1.1 0-1.98.9-1.98 1.95v19.5c-2.53 1.4-4.13 4.1-4.13 7.1 0 2.15.88 4.3 2.3 5.75-3.18 1.95-5.32 5.5-5.32 9.65v4.1c0 1.05.88 1.95 1.98 1.95h18.37c1.1 0 1.98-.9 1.98-1.95v-4.1c0-4.15-2.15-7.7-5.4-9.65 1.27-1.25 2-2.85 2.37-4.65h3.03l3.4 5.15c.34.55 1.05.9 1.77.9.7 0 1.26-.35 1.76-.9l3.4-5.15h3.03c.2 1.8 1.1 3.4 2.36 4.65-3.25 1.95-5.4 5.5-5.4 9.65v4.1c0 1.05.9 1.95 2 1.95H75.5c1.1 0 1.98-.9 1.98-1.95v-4.1c0-4.15-2.15-7.7-5.34-9.65zm1.2 11.6H59.14v-1.95c0-3.95 3.2-7.15 7.1-7.15 3.95 0 7.14 3.2 7.14 7.15v1.95zM52.32 51.45L50 55l-2.3-3.55c-.4-.55-1.1-.9-1.83-.9h-4.62c-1.26-3.05-4.12-5.2-7.48-5.2V29.1h32.67v16.25c-3.4 0-6.43 2.15-7.53 5.2h-4.6c-.9 0-1.6.35-2 .9zm-14.62 2.1c0 .4 0 .75-.17 1.1-.54 1.8-1.97 3.05-3.95 3.05-2.3 0-4.07-1.8-4.07-4.15v-.5c.17-1.25.88-2.35 1.93-3.05.56-.35 1.27-.55 2-.55 1.1 0 1.97.35 2.68 1.1.5.5 1.05 1.25 1.2 1.95.4.35.4.7.4 1.05zm3.2 17.35H26.6v-1.95c0-3.95 3.2-7.15 7.15-7.15 3.9 0 7.1 3.2 7.1 7.15v1.95zM62.3 53.55c0-.35 0-.7.16-1.05.22-.9.72-1.45 1.27-1.95.7-.75 1.6-1.1 2.7-1.1.7 0 1.42.2 1.92.55 1.1.55 1.8 1.6 1.98 3.05v.5c0 2.35-1.76 4.15-4.13 4.15-1.04 0-2.14-.4-2.8-1.25-.55-.55-.94-1.25-1.1-1.8v-1.1z" fill="#fff"/><path d="M57.14 32.5c-.9-.55-2.13-.36-2.85.7l-2.15 3.4-3.75 5.9-2.67-2.13-.54-.54c-.9-.72-2.14-.53-2.86.35-.72.9-.54 2.16.36 2.87l5.17 4.1c.35.36.9.55 1.25.55h.36c.52-.2 1.06-.36 1.42-.9l7.14-11.27c.36-1.25.18-2.5-.9-3.04z" fill="#fff"/></g></svg>