<svg xmlns="http://www.w3.org/2000/svg" xmlns:lucid="lucid" width="100" height="100"><g lucid:page-tab-id="0_0" stroke="#000" stroke-opacity="0" stroke-width="2.34"><path d="M100 50c0 27.6-22.4 50-50 50S0 77.6 0 50 22.4 0 50 0s50 22.4 50 50z" fill="#032d60"/><path d="M60.4 32.5L50 48.73 39.66 32.5c-9.83 5.7-13.06 18.38-7.34 28.2 2.16 3.58 5.18 6.42 8.93 8.2l1.8-6.6c-4.3-2.14-7.14-6.6-6.98-11.42 0-2.5.73-4.98 2.16-7.13l8.94 13.36h5.34l8.95-13.35c1.47 2.15 2.16 4.62 2.16 7.13 0 4.44-2.32 8.74-6.23 11.07l1.8 6.6c10.15-5.18 14.1-17.67 8.72-27.86-1.6-3.4-4.3-6.23-7.5-8.2z" fill="#fff"/><path d="M50 22.7c-15.18 0-27.3 12.28-27.3 27.3 0 15 12.12 27.3 27.3 27.3 15.18 0 27.3-12.12 27.3-27.3 0-15.18-12.12-27.3-27.3-27.3zm0 52.47c-13.76 0-25-11.25-25-25 0-13.7 11.24-24.96 25-24.96s25 11.26 25 24.96c0 13.76-11.24 25-25 25z" fill="#fff"/></g></svg>