<svg xmlns="http://www.w3.org/2000/svg" xmlns:lucid="lucid" width="100" height="100"><g lucid:page-tab-id="0_0" stroke="#000" stroke-opacity="0" stroke-width="2.34"><path d="M100 50c0 27.6-22.4 50-50 50S0 77.6 0 50 22.4 0 50 0s50 22.4 50 50z" fill="#d83a00"/><path d="M69.06 40.95c2.13-1.8 3.6-4.5 3.6-7.5 0-5.4-4.46-9.85-9.84-9.85-5.37 0-9.83 4.44-9.83 9.84 0 3 1.46 5.7 3.6 7.5-.37.17-.92.54-1.28.9-1.42-.9-3.2-1.42-5.17-1.42-1.98 0-3.75.53-5.17 1.43-.36-.37-.9-.58-1.27-.9 2.14-1.8 3.6-4.5 3.6-7.5 0-5.4-4.45-9.85-9.83-9.85-5.37 0-9.83 4.44-9.83 9.84 0 3 1.47 5.7 3.6 7.5-3.96 2.13-6.44 6.4-6.44 11.07v5.93c0 1.06.9 1.96 1.98 1.96h14.45c-2.13 2.32-3.55 5.33-3.55 8.72v5.92c0 1.06.86 1.96 1.92 1.96h21.1c1.06 0 1.92-.9 1.92-1.96v-5.92c0-3.4-1.42-6.6-3.55-8.73h14.45c1.07 0 1.98-.9 1.98-1.97V52c0-4.8-2.7-8.93-6.44-11.05zM58.72 68.62v3.97h-17.7V68.6c0-4.82 3.96-8.73 8.78-8.73 4.8 0 8.92 3.9 8.92 8.72zm-30.37-16.6c0-4.83 3.95-8.74 8.77-8.74 1.77 0 3.4.53 4.66 1.43-1.1 1.6-1.82 3.4-1.82 5.5 0 2.18.7 4.3 1.98 5.93H28.2V52zm3.04-18.58c0-3.23 2.68-5.93 5.87-5.93 3.25 0 5.93 2.7 5.93 5.94 0 3.23-2.68 5.87-5.93 5.87-3.34 0-5.88-2.63-5.88-5.86zm18.55 10.74c.9 0 1.62.16 2.33.53.56.17 1.06.7 1.62 1.06.56.53.9 1.06 1.27 1.6.35.73.7 1.8.7 2.7 0 1.8-.7 3.22-1.97 4.43-.56.58-1.27.9-1.98 1.26-.5.16-1.2.37-1.97.37-.7 0-1.42-.2-1.93-.37-.7-.16-1.42-.68-1.98-1.27-1.26-1.06-1.97-2.65-1.97-4.45 0-.9.2-1.8.7-2.7.36-.7.72-1.2 1.27-1.6.56-.36 1.07-.88 1.63-1.04.7-.36 1.42-.52 2.28-.52zM71.6 55.92H57.8c1.27-1.6 1.98-3.7 1.98-5.87 0-1.96-.7-3.9-1.77-5.55 1.43-.9 3.05-1.43 4.62-1.43 4.87 0 8.77 3.96 8.77 8.78v4.07zM56.74 33.44c0-3.23 2.7-5.93 5.88-5.93 3.25 0 5.93 2.7 5.93 5.94 0 3.23-2.53 5.87-5.93 5.87-3.34 0-5.88-2.63-5.88-5.86z" fill="#fff"/></g></svg>