<svg xmlns="http://www.w3.org/2000/svg" xmlns:lucid="lucid" width="100" height="100"><g lucid:page-tab-id="0_0" stroke="#000" stroke-opacity="0" stroke-width="2.34"><path d="M100 50c0 27.6-22.4 50-50 50S0 77.6 0 50 22.4 0 50 0s50 22.4 50 50z" fill="#200d38"/><path d="M67.35 41.48c-.35-.76-1.1-1.1-1.8-1.1H57.9l6.62-14.8c.35-.88 0-2.13-.9-2.52-.2-.16-.54-.16-.9-.16H41.25c-.88 0-1.76.55-1.94 1.42l-6.8 25.34c-.38 1.1.36 2.18 1.4 2.34h7.9l-5.4 23c-.16 1.1.4 2.18 1.46 2.35.7.16 1.44 0 1.97-.7l27.35-33.2c.53-.55.53-1.47.17-1.97zM41.97 67.7l3.95-17.33c.17-1.04-.4-2.13-1.45-2.3H36.8l5.7-21.4h16.97l-6.58 14.8c-.4.9 0 2.14.87 2.47.17.22.52.22.88.22h6.6L41.98 67.7z" fill="#fff"/><path d="M47.47 29.5c-1.07-.36-2.14.35-2.32 1.43L42.3 41.68c-.36 1.06.35 2.14 1.42 2.32h.54c.9 0 1.6-.54 1.78-1.43l2.85-10.75c.35-.9-.36-1.97-1.43-2.33z" fill="#fff"/></g></svg>