<svg xmlns="http://www.w3.org/2000/svg" xmlns:lucid="lucid" width="100" height="100"><g lucid:page-tab-id="0_0" stroke="#000" stroke-opacity="0" stroke-width="2.34"><path d="M100 50c0 27.6-22.4 50-50 50S0 77.6 0 50 22.4 0 50 0s50 22.4 50 50z" fill="#0b827c"/><path d="M81.4 43.9c0-1.25-1.06-2.32-2.33-2.32h-3.54c-.2-.35-.38-.7-.57-1.06l2.53-2.5c.37-.34.7-1.1.7-1.6 0-.57-.14-1.28-.7-1.63l-6.26-6.25c-.9-.9-2.34-.9-3.23 0l-2.45 2.5c-.38-.17-.76-.37-1.08-.52v-3.4c0-1.27-1.07-2.33-2.34-2.33h-8.9c-1.27 0-2.35 1.06-2.35 2.33v3.4c-.37.15-.7.35-1.07.5l-2.33-2.48c-.88-.9-2.27-.9-3.16 0l-6.24 6.24c-.9.9-.9 2.32 0 3.23l2.46 2.5c-.2.34-.32.7-.5 1.05h-3.6c-1.2 0-2.28 1.07-2.28 2.33v6.8h-13.4c-1.27 0-2.34 1.07-2.34 2.3v20.17c0 1.27 1.07 2.33 2.34 2.33h32.48c1.27 0 2.34-1.06 2.34-2.33V72.1h6.76c1.27 0 2.34-1.06 2.34-2.33v-3.55c.32-.2.7-.35 1.08-.56l2.46 2.54c.9.86 2.34.86 3.22 0l6.26-6.3c.38-.34.7-1.05.7-1.56 0-.56-.2-1.27-.7-1.62l-2.53-2.5c.2-.34.38-.7.57-1.05h3.54c.57 0 1.27-.2 1.64-.7.32-.42.7-1.13.7-1.63l-.2-8.93zM67.7 61.4c-.76-.7-1.84-.9-2.72-.35-1.08.5-2.15 1.07-3.22 1.42-.9.36-1.58 1.06-1.58 2.13v2.9h-4.5v-9.34c.77.2 1.46.2 2.16.2 5.56 0 9.98-4.46 9.98-9.98 0-5.53-4.42-10-9.98-10-5.5 0-10 4.47-10 10 0 .7.2 1.57.2 2.33h-9.3v-4.45h2.85c1.07 0 1.95-.76 2.14-1.63.38-1.26.7-2.33 1.46-3.24.5-.86.3-1.93-.38-2.64l-1.96-1.97 3.22-3.2 1.96 1.93c.7.7 1.77.9 2.66.35 1.07-.5 2.14-1.06 3.22-1.42.88-.35 1.64-1.06 1.64-2.13v-2.84H60v2.64c0 1.07.68 1.98 1.63 2.18 1.2.36 2.27.7 3.16 1.42.94.5 2 .36 2.7-.35l1.97-1.98 3.22 3.2-1.97 1.97c-.76.7-.9 1.77-.38 2.7.57 1.05 1.07 2.12 1.45 3.18.13.9 1.08 1.62 2.15 1.62h2.85v4.46h-2.85c-1.07 0-2.02.7-2.15 1.63-.38 1.06-.75 2.33-1.45 3.2-.5.9-.38 1.97.38 2.68l1.96 2-3.04 3.38-1.96-1.97zM52.15 48.4c0-3.05 2.46-5.53 5.5-5.53 3.03 0 5.56 2.48 5.56 5.53 0 3.04-2.52 5.52-5.55 5.52-2.85 0-5.5-2.48-5.5-5.52zM23 54.98h27.87v15.5H23v-15.5z" fill="#fff"/><path d="M43.2 62.84c0 1.25 1.07 2.32 2.32 2.32 1.25 0 2.32-1.07 2.32-2.32 0-.36-.18-.7-.36-1.07-.35-.7-1.07-1.07-1.96-1.07-.7 0-1.25.36-1.6.7-.36.37-.72.9-.72 1.44zM31.04 62.82c0 1.28-1.04 2.32-2.32 2.32-1.28 0-2.32-1.04-2.32-2.32 0-1.28 1.04-2.32 2.32-2.32 1.28 0 2.32 1.04 2.32 2.32zM37.33 60.2h-.18c-1.6 0-2.85 1.25-2.85 2.86 0 1.6 1.25 2.85 2.85 2.85 1.26 0 2.32-.88 2.68-2.13 0-.18.18-.54.18-.7 0-1.62-1.24-2.87-2.67-2.87z" fill="#fff"/></g></svg>