<svg xmlns="http://www.w3.org/2000/svg" xmlns:lucid="lucid" width="100" height="100"><g lucid:page-tab-id="0_0" stroke="#000" stroke-opacity="0" stroke-width="2.34"><path d="M100 50c0 27.6-22.4 50-50 50S0 77.6 0 50 22.4 0 50 0s50 22.4 50 50z" fill="#0b827c"/><path d="M72.44 25.5H27.46c-1.08 0-1.96.88-1.96 1.96v44.98c0 1.08.88 1.96 1.96 1.96h44.98c1.08 0 1.96-.88 1.96-1.96V27.46c0-1.08-.88-1.96-1.96-1.96zm-1.95 45h-6.8v-5.93c0-1.07-.9-1.95-1.97-1.95-1.07 0-1.95.88-1.95 1.95v5.92H51.9v-5.93c0-1.07-.87-1.95-1.95-1.95S48 63.5 48 64.57v5.92H40.1v-5.93c0-1.07-.88-1.95-1.95-1.95-1.08 0-1.96.88-1.96 1.95v5.92h-6.8V57.62l8.77-8.76 6.45 6.4c.68.74 1.96.74 2.64 0L59.4 43.02v8.9c0 1.08.92 1.96 2 1.96 1.02 0 1.95-.88 1.95-1.95V38.37c0-1.08-.93-1.96-1.96-1.96H47.64c-1.07 0-2 .88-2 1.96s.93 1.96 2 1.96h8.9l-10.9 10.9-6.07-6.6c-.68-.73-1.95-.73-2.64 0L29.6 52.1V29.4h41.03l-.14 41.1z" fill="#fff"/></g></svg>