<svg xmlns="http://www.w3.org/2000/svg" xmlns:lucid="lucid" width="100" height="100"><g lucid:page-tab-id="0_0" stroke="#000" stroke-opacity="0" stroke-width="2.34"><path d="M100 50c0 27.6-22.4 50-50 50S0 77.6 0 50 22.4 0 50 0s50 22.4 50 50z" fill="#8a033e"/><path d="M73.2 33.42c-5.38-5.36-14.32-5.36-19.7 0L50 36.98l-3.6-3.56c-5.35-5.17-13.75-5.17-19.12 0-5.53 5.36-5.7 14.14-.54 19.68l21.8 21.95c.37.37.9.55 1.45.55.48 0 1.02-.18 1.4-.55l21.8-21.8c5.35-5.5 5.35-14.3 0-19.83zm-2.88 17l-20.55 20.5-20.54-20.5c-1.95-2-2.82-4.48-2.82-7.16 0-5.54 4.46-10.03 10-10.03 2.7 0 5.2 1.07 7.14 2.87l5 5c.7.73 1.94.73 2.7 0l4.98-5c3.9-3.74 9.98-3.74 13.77 0 4.06 3.93 4.06 10.35.32 14.32z" fill="#fff"/><path d="M37.2 37.1c-3.76 0-6.8 3.04-6.8 6.8 0 1.06.9 1.95 1.96 1.95 1.08 0 1.97-.9 1.97-1.96 0-1.62 1.25-2.87 2.86-2.87 1.06 0 1.95-.9 1.95-1.97 0-1.07-.9-1.96-1.96-1.96z" fill="#fff"/></g></svg>