<svg xmlns="http://www.w3.org/2000/svg" xmlns:lucid="lucid" width="100" height="100"><g lucid:page-tab-id="0_0" stroke="#000" stroke-opacity="0" stroke-width="2.34"><path d="M100 50c0 27.6-22.4 50-50 50S0 77.6 0 50 22.4 0 50 0s50 22.4 50 50z" fill="#dd7a01"/><path d="M72.44 25.5H27.46c-1.08 0-1.96.88-1.96 1.96v44.98c0 1.08.88 1.96 1.96 1.96h44.98c1.08 0 1.96-.88 1.96-1.96V27.46c0-1.08-.88-1.96-1.96-1.96zm-33.2 45v-1.97c0-5.9 4.84-10.7 10.7-10.7 5.88 0 10.72 4.8 10.72 10.7v1.96H39.24zm2.84-24.46c0-4.3 3.57-7.87 7.87-7.87 4.3 0 7.87 3.56 7.87 7.87 0 4.25-3.57 7.82-7.87 7.82-4.3 0-7.87-3.57-7.87-7.82zm28.4 24.45h-5.9v-1.97c0-5.38-3.04-10.36-7.83-12.86 5.33-3.76 6.6-11.05 2.83-16.23-3.76-5.2-11.05-6.6-16.23-2.9-5.18 3.78-6.6 11.1-2.84 16.25.7 1.06 1.77 2 2.85 2.87-4.84 2.5-7.87 7.48-7.87 12.86v1.96H29.6V29.4h41.03l-.14 41.1z" fill="#fff"/></g></svg>