<svg xmlns="http://www.w3.org/2000/svg" xmlns:lucid="lucid" width="100" height="100"><g lucid:page-tab-id="0_0" stroke="#000" stroke-opacity="0" stroke-width="2.34"><path d="M100 50c0 27.6-22.4 50-50 50S0 77.6 0 50 22.4 0 50 0s50 22.4 50 50z" fill="#032d60"/><path d="M64.7 58.43c5.7-4.26 9.3-10.9 9.3-18.4C74 27.35 63.63 17 50.95 17 38.27 17 27.9 27.36 27.9 40.02c0 7.5 3.73 14.28 9.3 18.4l-3.95 23.1c-.2 1 .18 1.96 1.1 2.64.88.54 1.94.74 2.86.2l13.57-7.5 13.6 7.5c.32.14.87.34 1.24.34.52 0 1.07-.2 1.62-.54.88-.54 1.25-1.63 1.06-2.64l-3.6-23.1zM52.2 71.5c-.88-.4-1.8-.4-2.68 0l-10 5.55 2.67-15.57c2.66 1.08 5.52 1.76 8.75 1.76 3.04 0 6.1-.54 8.76-1.76l2.68 15.57-10.2-5.55zm-1.25-48.95c9.63 0 17.52 7.85 17.52 17.47 0 9.68-7.9 17.53-17.52 17.53-9.63 0-17.52-7.85-17.52-17.53 0-9.62 7.9-17.47 17.52-17.47z" fill="#fff"/><path d="M41.1 44.8l6.8 5.35c.55.37 1.08.55 1.62.55h.36c.7-.18 1.4-.55 1.78-1.25l9.48-14.83c.7-1.25.36-2.87-.9-3.76-1.24-.7-2.87-.36-3.75.9L53.6 36.2l-5 7.87-3.58-2.87-.9-.7c-1.24-.9-2.86-.74-3.74.33-.54 1.26-.36 3.05.7 3.94z" fill="#fff"/></g></svg>