<svg xmlns="http://www.w3.org/2000/svg" xmlns:lucid="lucid" width="100" height="100"><g lucid:page-tab-id="0_0" stroke="#000" stroke-opacity="0" stroke-width="2.34"><path d="M100 50c0 27.6-22.4 50-50 50S0 77.6 0 50 22.4 0 50 0s50 22.4 50 50z" fill="#032d60"/><path d="M61.8 51.77h-9.83V62.3h-3.93V51.77H38.4v-3.75h9.64V37.3h3.93v10.72h9.83v3.75zM42.1 65.36h-8.92V55.7h-3.22v9.66H21.2v2.86h8.76v9.48h3.22v-9.48h8.92v-2.86zM78.9 31.26h-8.76V21.6h-3.38v9.66H58v2.86h8.76v9.48h3.38v-9.48h8.76v-2.86zM57.5 75.9h-6.07v-6.6h-2.66v6.6H42.7v2.5h6.07v6.8h2.66v-6.8h6.07v-2.5zM42.1 31.26h-8.92V21.6h-3.22v9.66H21.2v2.86h8.76v9.48h3.22v-9.48h8.92v-2.86zM85.5 48.6h-5.87V42h-2.86v6.6H70.9v2.5h5.87v6.8h2.86v-6.8h5.87v-2.5zM78.9 65.36h-8.76V55.7h-3.38v9.66H58v2.86h8.76v9.48h3.38v-9.48h8.76v-2.86zM57 21.4h-5.92v-6.6h-1.96v6.6H43.2v1.96h5.92v6.44h1.96v-6.44H57V21.4zM28.3 48.75h-5.92V42.5h-1.96v6.25H14.5v2.13h5.92v6.42h1.96v-6.42l5.92-.18v-1.95z" fill="#fff"/></g></svg>