<svg xmlns="http://www.w3.org/2000/svg" xmlns:lucid="lucid" width="100" height="100"><g lucid:page-tab-id="0_0" stroke="#000" stroke-opacity="0" stroke-width="2.34"><path d="M100 50c0 27.6-22.4 50-50 50S0 77.6 0 50 22.4 0 50 0s50 22.4 50 50z" fill="#321d71"/><path d="M66.95 25h-33.9c-4.5 0-8.05 3.55-8.05 8.05v33.9c0 4.5 3.55 8.05 8.05 8.05h33.9c4.5 0 8.05-3.55 8.05-8.05v-33.9c0-4.5-3.55-8.05-8.05-8.05zm4.1 41.95c0 2.15-1.75 3.95-3.9 3.95H33.2c-2.15 0-3.9-1.8-3.9-3.95v-33.9c0-2.15 1.75-3.95 3.9-3.95h33.95c2.15 0 3.9 1.8 3.9 3.95v33.9z" fill="#fff"/><path d="M63.04 46.94c1.05 0 1.96-.9 1.96-1.98 0-1.06-.9-1.96-1.96-1.96H58.2l.73-4.66c.18-1.06-.54-2.14-1.6-2.3-1.1-.18-2.15.52-2.33 1.6L54.1 43h-5.9l.7-4.66c.18-1.06-.5-2.14-1.6-2.3-1.05-.18-2.14.52-2.32 1.6L44.1 43h-7.16c-1.05 0-1.96.9-1.96 1.96 0 1.08.9 1.98 1.96 1.98h6.44L42.32 53h-5.56c-1.05 0-1.96.88-1.96 1.97 0 1.06.9 1.96 1.96 1.96h4.83l-.55 4.65c-.18 1.06.54 2.15 1.6 2.32H43c.92 0 1.8-.73 1.98-1.62l.9-5.35h5.9l-.73 4.65c-.15 1.06.54 2.15 1.63 2.32h.36c.88 0 1.78-.73 1.96-1.62l.88-5.35h7.16c1.05 0 1.96-.9 1.96-1.96 0-1.1-.9-1.98-1.96-1.98H56.6l1.06-6.06h5.38zM52.5 53h-5.9l1.07-6.06h5.88L52.5 53z" fill="#fff"/></g></svg>