<svg xmlns="http://www.w3.org/2000/svg" xmlns:lucid="lucid" width="100" height="100"><g lucid:page-tab-id="0_0" stroke="#000" stroke-opacity="0" stroke-width="2.34"><path d="M100 50c0 27.6-22.4 50-50 50S0 77.6 0 50 22.4 0 50 0s50 22.4 50 50z" fill="#321d71"/><path d="M74.66 51.07H72.5V25.34c0-1.23-.9-2.14-2.13-2.14H29.63c-1.23 0-2.14.9-2.14 2.14v25.73h-2.16c-1.23 0-2.14.9-2.14 2.15v21.44c0 1.23.9 2.14 2.14 2.14h49.32c1.23 0 2.14-.9 2.14-2.14V53.22c0-1.24-.9-2.15-2.14-2.15zM27.5 72.5V55.37h20.36V72.5H27.5zm4.28-45h36.44v23.57H31.78V27.5zm20.36 27.86H72.5V72.5H52.15V55.37z" fill="#fff"/><path d="M52.88 30.9c-1.08-.34-2.32.2-2.68 1.44l-4.3 12.9c-.35 1.06.2 2.32 1.44 2.7.18 0 .54.16.7.16.9 0 1.8-.54 1.98-1.44l4.3-12.88c.17-1.27-.37-2.5-1.44-2.88zM42.8 33.58c-.88-.9-2.12-.9-3.02 0l-4.1 4.27c-.9.9-.9 2.15 0 3.05l4.28 4.3c.36.35.9.7 1.42.7.54 0 1.07-.18 1.43-.7.9-.9.9-2.16 0-3.06l-2.66-2.86L43 36.42c.7-.7.7-2.13-.2-2.84zM57.15 45c.35.35.9.7 1.43.7.53 0 1.07-.18 1.43-.7l4.3-4.3c.9-.9.9-2.15 0-3.05L60 33.38c-.9-.9-2.14-.9-3.03 0-.9.88-.9 2.13 0 3.03l2.85 2.87-2.67 2.86c-.9.7-.9 2.14 0 2.86z" fill="#fff"/></g></svg>