<svg xmlns="http://www.w3.org/2000/svg" xmlns:lucid="lucid" width="100" height="100"><g lucid:page-tab-id="0_0" stroke="#000" stroke-opacity="0" stroke-width="2.34"><path d="M100 50c0 27.6-22.4 50-50 50S0 77.6 0 50 22.4 0 50 0s50 22.4 50 50z" fill="#321d71"/><path d="M59.03 61.03H40.87c-1.1 0-1.97-.9-1.97-1.96 0-1.08.88-1.97 1.97-1.97h18.16c1.1 0 1.97.9 1.97 1.97 0 1.07-.88 1.96-1.97 1.96zM59.03 42.83H40.87c-1.1 0-1.97-.9-1.97-1.96 0-1.08.88-1.97 1.97-1.97h18.16c1.1 0 1.97.9 1.97 1.97 0 1.07-.88 1.96-1.97 1.96zM65.2 51.93H34.87c-1.1 0-1.98-.9-1.98-1.96 0-1.08.9-1.97 1.98-1.97h30.14c1.06 0 1.95.9 1.95 1.97.2 1.07-.72 1.96-1.78 1.96z" fill="#fff"/><path d="M74.12 76.3H50c-7.1 0-14.1-3.03-19.1-8.2-9.82-10.58-9.24-27.15 1.25-37 10.02-9.45 25.73-9.45 35.7 0 5.17 4.98 8.25 11.78 8.25 19.1v24.1c.16 1.1-.73 2-1.98 2zM50 27.87h-1.4c-12.33.37-21.78 10.72-21.4 22.9.35 12.14 10.7 21.76 22.8 21.4h22.13V50.05c0-12.35-9.97-22.18-22.13-22.18z" fill="#fff"/></g></svg>