<svg xmlns="http://www.w3.org/2000/svg" xmlns:lucid="lucid" width="100" height="100"><g lucid:page-tab-id="0_0" stroke="#000" stroke-opacity="0" stroke-width="2.34"><path d="M100 50c0 27.6-22.4 50-50 50S0 77.6 0 50 22.4 0 50 0s50 22.4 50 50z" fill="#321d71"/><path d="M71.97 48.62c2.83-2.13 4.62-5.7 4.62-9.44 0-6.8-5.5-12.18-12.15-12.18-6.6 0-12.13 5.56-12.13 12.18 0 3.9 1.78 7.3 4.68 9.44-2.9 1.44-5.17 3.75-6.84 6.44-1.6-2.87-3.88-5-6.77-6.44 2.88-2.13 4.67-5.7 4.67-9.44 0-6.8-5.55-12.18-12.14-12.18-6.65 0-12.2 5.56-12.2 12.18 0 3.9 1.8 7.3 4.7 9.44-5.37 2.7-9.13 8.24-9.13 14.68v7.87c0 1.25 1.05 2.13 2.16 2.13h57.28c1.3 0 2.16-1.06 2.16-2.13V63.3c0-6.44-3.57-12-8.93-14.68zm4.62 20.2H52.12V63.3c0-6.62 5.55-12.18 12.14-12.18 6.65 0 12.2 5.37 12.2 12.18v5.5zM64.26 31.3c4.3 0 7.7 3.37 7.7 7.67 0 4.25-3.4 7.68-7.7 7.68-4.25 0-7.64-3.43-7.64-7.7 0-4.3 3.57-7.67 7.64-7.67zm-16.4 37.5H23.44V63.3c0-6.62 5.54-12.18 12.13-12.18 6.6 0 12.14 5.37 12.14 12.18v5.5zM35.76 31.3c4.25 0 7.64 3.37 7.64 7.67 0 4.25-3.4 7.68-7.65 7.68-4.32 0-7.7-3.43-7.7-7.7 0-4.3 3.38-7.67 7.7-7.67z" fill="#fff"/></g></svg>