<svg xmlns="http://www.w3.org/2000/svg" xmlns:lucid="lucid" width="100" height="100"><g lucid:page-tab-id="0_0"><path d="M100 50c0 27.6-22.4 50-50 50S0 77.6 0 50 22.4 0 50 0s50 22.4 50 50z" stroke="#000" stroke-opacity="0" stroke-width="2.34" fill="#321d71"/><path d="M34.98 34.68l-.18-.18.18.18z" stroke="#000" stroke-opacity="0" stroke-width="2.34" fill="#fff"/><path d="M38.95 72.46c.35.18.52.36.88.54 1.6-1.25 3.92-1.25 5.53-.72.18-.35.18-.7.53-1.07.17-.16.55-.34.9 0 .18.2.35.55 0 .9-.18.18-.18.54-.35.9 0 .53.35.9.53.9.35.34 1.05.52 1.6.52 1.24 0 2.15-.53 2.32-1.25 0-.17 0-.7-.17-.9-.18-.34 0-.7.17-.88.35-.2.7 0 .88.17.2.36.38.7.38 1.07 2.84-.9 5.16.53 6.42 1.96.17 0 .35-.18.35-.18 1.26-.18 1.6-.35 1.6-.35 1.8-.72 3.4-1.8 4.46-3.2 0-.2.55-2.33-.18-4.82-.18-.54-.53-1.8-1.23-4.48-.57.7-.92 1.07-1.62 1.25-.74.18-1.26-.18-1.6-.54-.2-.17-.2-.17-.2-.35-1.43-4.8-5-6.6-7.14-7.13.35.36.9.7 1.8 1.25.16.18.34.18.34.18.35.35.53.9.35 1.24 0 .18-.35.9-1.23 1.25-1.8.7-4.83-.18-9.46-2.5-.74 0-1.26.18-2.14.36-3.93 1.07-5.36 3.4-6.1 5-.17.35-.17.7-.35 1.06-.17 1.07-.35 2.34-.35 4.12.53 1.43.88 4.8 3.05 5.7zm18.92-3.74c-.17 1.25-.9 2.14-1.6 2.14-.74 0-1.44-1.07-1.27-2.32.18-1.25.9-2.14 1.62-2.14.7.18 1.25 1.25 1.25 2.32zm-1.43-6.97c1.43.36 2.67.9 2.67.9 1.8 1.95-.17 3.57-.17 3.57-1.44-1.62-4.8-1.62-4.8-1.62l-1.1-.18c0-3.56 2.68-2.85 3.4-2.67zm-12.34 6.8c-.17 1.24-.88 2.13-1.6 2.13-.7 0-1.4-1.07-1.24-2.32.18-1.24.88-2.14 1.6-2.14.72.18 1.42 1.07 1.24 2.32zm-5.33-5.02c0-1.07.53-2.14 3.2-2.3 3.75 0 3.22 2.66 3.22 2.66-2.33-.55-5.2 1.6-5.2 1.6-1.43-.52-1.23-1.97-1.23-1.97zM50.4 78.26c.35.18.7.53 1.06 1.07 0-.18.18-.36.18-.36.18-.53.54-.9.9-.9.54-.17.9 0 1.25.55 0 0 .17.17.17.35 0-.53.36-.9.9-.9.36 0 .54 0 .9.2.17-.37.35-.55.7-.55.2 0 .37-.18.73 0v-.36c-.72-.88-2.5-2.67-4.84-2.5-.36.9-2.15 1.62-3.93 1.44-1.43 0-2.33-.54-2.5-1.26 0 0-1.1-.17-1.44-.17-1.1-.18-2 0-2.7.53-.54.36-.72.9-.9 1.43.18-.18.54-.35.72-.53.36-.18.9 0 1.25.18.36.35.54.7.36 1.06.18 0 .36-.18.54-.18.18 0 .36 0 .54.18.37.18.54.54.72.9v.18l.54 1.6c.18-.54.36-.9.72-1.25.54-.9.9-1.07 1.43-1.07.55 0 .9.36 1.1.72l.33.88v-.17c-.16-.7.54-1.25 1.26-1.07z" stroke="#000" stroke-opacity="0" stroke-width="2.34" fill="#321d71"/><path d="M77.5 55.42c-.68 0-1.06-.74-1.06-1.27 0-.7.76-1.06 1.26-1.06h.38c1.2-.38 3.05 0 3.55.36-.7-.53-1.96-1.06-3.55-1.43-.76-.2-1.07-.74-1.07-1.43.2-.74.7-1.1 1.4-1.1 1.27.2 2.35.58 3.23.9-.5-5.2-4.43-6.78-6.27-7.3l-1.4-.22c-1.46 0-2.34-1.22-2.34-2.48 0-1.43 1.27-2.33 2.53-2.33h.5c-1.26-1.96-2.65-3.4-4.43-4.3-4.82-2.3-10.52-.36-10.7-.15-.77.37-1.66.16-2.36-.37s-1.08-1.27-1.08-1.95c0-3.07-1.07-5.03-2.28-6.46 0 .2-.2.2-.2.37-.75 1.07-2.33 1.44-3.4.75-1.1-.74-1.22-2-.7-3.06-.52-1.28-1.47-3.03-2.86-4.3.2.53.2 1.27.2 1.6 0 .73-.4 1.26-1.1 1.42h-.56-.13s-.2 0-.2-.16c-.37-.37-.75-.7-1.26-1.27 0 2.3-.2 5.9-1.08 10.36-.5 2.85-.9 4.5-.9 4.5-.18.9-.88 1.58-1.77 1.8h-.57c-.7 0-1.4-.38-1.77-.9-3.92-4.5-9.25-2.7-10.33-2.34 4.12-.9 6.4.16 7.17.7.12 0 .12.2.12.2.4.16.4.7.4 1.06-.2.7-.7 1.06-1.47 1.06-1.22-.16-2.1-.16-3-.16 2.3 1.06 3.75 2.86 3.75 3.02.3.37.3.9.2 1.42-.2 1.27-1.47 2.33-2.74 2.17-.88-.22-8.55-.54-11.4 10.15 2.16-.85 3.23-.85 3.93 0 .2.2.7.9-.2 2.54.9 0 1.8 0 2.36-.22.5-.16 1.06-.32 1.57-.53 1.27-.37 2.66.53 2.85 1.8.38 1.27-.5 2.7-1.77 2.85-4.12.9-5.7 3.6-6.1 4.82.77-1.22 1.28-1.6 1.47-1.6.5-.52 1.27-.52 1.6 0 .56.38.56 1.23.18 1.8l-.2.17c1.27-.9 2.16-1.44 2.16-1.44.5-.37 1.27-.16 1.6.53.37.52.18 1.26-.52 1.63 0 0-1.46.7-2.85 1.96-.58 1.2-.7 2.3-.7 3 .88-3.23 3.54-4.8 3.73-4.8.5-.38 1.2-.17 1.58.36.4-1.1 1.28-2 2.36-1.8 1.4 0 2.47 1.06 2.28 2.5v.36c0-1.8.2-3.07.38-4.13-.2.73-.7 1.05-1.26 1.05-.7 0-1.08-.7-1.08-1.43 0-.16.88-6.4 8.05-8.2 1.08-.37 1.96-.53 3.23-.53.2 0 .32 0 .5.15 2.55 1.27 4.13 1.96 5.4 2.33-.9-.7-1.46-1.8-1.08-2.86 0-.37.32-1.06 1.78-1.22 2.34 0 7.67 1.75 10.2 7.46.13-.53.5-1.06.7-2.1.2-.54.7-.9 1.27-.9.32 0 .5 0 .7.15.2 0 .2.22.3.38.2.37.4 1.05.77 2.48.32 1.27.7 2.86.9 4.13.18 0 .18-.17.3-.17.2-.2.58-.2.9 0 .38 0 .76.32.76.7.3.52 0 1.26-.57 1.63 0 0-.2 0-.2.16-.32.15-.7.37-.9.53-.3.2-.7.52-1.07.52h-.32c-.37 0-.56-.15-.68-.68.7 2.3.12 4.64.12 4.8.2-.74.57-1.27 1.08-1.6.38-.2.9-.57 1.27-.73 4.43-2.48 7.34-3.38 7.47-3.54.76-.2 1.46-.2 2.16.16l3.55 2.3c.2.17.38.4.57.4-.2-.4-.38-.76-.57-.9-1.02-1.13-2.67-2.34-3.17-2.55-.56-.16-.88-.9-.7-1.6.14-.52.9-1.05 1.4-.73.7.2 2.16 1.27 3.43 2.54-.76-4.13-3.05-5.03-3.24-5.2-.58-.2-.9-.9-.7-1.63.12-.52.7-.68 1.2-.68 2.35-.22 4.7 3.54 5.2 4.28-2.16-5.7-5.2-6.45-6.1-6.6z" stroke="#000" stroke-opacity="0" stroke-width="2.34" fill="#321d71"/><path d="M36.96 61.8l-.36 1.07c.18-.36.36-.7.36-1.07zM39.85 65.6s2.86-2.15 5.18-1.62c0 0 .54-2.68-3.2-2.68-2.7.18-3.23 1.25-3.23 2.33.18 0 0 1.42 1.25 1.96zM42.83 66.2c-.7 0-1.42.9-1.6 2.14-.18 1.25.53 2.14 1.25 2.32.7 0 1.42-.9 1.6-2.14.18-1.25-.53-2.14-1.25-2.32zM56.44 66.6c-.72 0-1.43.9-1.6 2.14-.2 1.25.52 2.14 1.24 2.32.7 0 1.6-.9 1.6-2.14.18-1.25-.35-2.32-1.24-2.32zM54.3 64.62s3.22 0 4.82 1.6c0 0 1.97-1.6.18-3.56 0 0-1.25-.54-2.67-.9-.72 0-3.4-.7-3.22 2.7l.9.16z" stroke="#000" stroke-opacity="0" stroke-width="2.34" fill="#fff"/><path d="M36.83 62.9c0-.2.18-.55.35-1.07.52-1.43 2.16-3.93 6.1-5 .86-.36 1.42-.36 2.1-.36 4.68 2.5 7.88 3.2 9.48 2.5.9-.37 1.08-1.07 1.25-1.25.18-.54 0-1.07-.34-1.25 0 0-.17-.18-.35-.18-.9-.55-1.4-.9-1.8-1.27 2 .54 5.54 2.33 7.17 7.16 0 .15.18.33.18.33.35.36.87.72 1.6.54.52-.18 1.08-.54 1.6-1.24.73 2.67.9 3.93 1.25 4.45.18.54.35.54.73.72h.35c.35 0 .7-.18 1.08-.54.17-.18.52-.36.87-.52 0 0 .17 0 .17-.18.56-.36.9-1.08.56-1.6-.17-.37-.56-.55-.73-.73h-.87c-.17 0-.17.18-.38.18-.35-1.25-.7-2.85-.87-4.1-.38-1.42-.55-2.14-.72-2.5-.18-.18-.18-.35-.35-.35-.18 0-.35-.18-.73-.18-.52 0-1.05.35-1.26.9-.34.9-.52 1.6-.7 2.13-2.5-5.7-7.86-7.5-10.2-7.5-1.4 0-1.76.9-1.76 1.25-.18 1.08.35 2.14 1.08 2.86-1.26-.35-2.86-1.07-5.36-2.3-.18 0-.35-.2-.56-.2-1.25 0-2.12.2-3.2.55-7.3 1.78-8.04 8.04-8.04 8.2 0 .72.35 1.26 1.08 1.44.52.35 1.08 0 1.25-.9-.17.17 0 .17 0 0 0 .17 0 .17 0 0zM86.44 61.77c-2.7-6.98-6.64-8.4-8.42-8.77h-.37c-.7 0-1.25.36-1.25 1.07 0 .72.35 1.26 1.07 1.26.9 0 3.95.9 6.28 6.44.17.18.17.53.36.72.2.52.72.7 1.1.7h.34c.9-.18 1.08-.9.9-1.43z" stroke="#000" stroke-opacity="0" stroke-width="2.34" fill="#fff"/><path d="M77.54 58.4c-.18.53 0 1.24.72 1.6.17 0 2.5 1.07 3.2 5.16-1.25-1.24-2.68-2.14-3.4-2.5-.7-.17-1.23.2-1.4.72-.2.54.17 1.25.7 1.6.53.18 2.14 1.44 3.22 2.5.7.72 1.24 1.25 1.24 1.43.18.54.7.9 1.07.9h.17c.54 0 1.07-.53 1.07-1.24.36-8.92-4.82-10.9-5-11.06h-.36c-.52 0-1.06.36-1.24.9zM30.36 63.94c-.36-.54-1.08-.9-1.62-.54 0 0-1.07.54-2.14 1.43l.18-.18c.35-.53.35-1.25-.18-1.78-.54-.36-1.25-.36-1.6 0-.18.17-2.7 3.04-1.97 6.25 0 .53.53.9.9.9h.17c.36 0 .72-.2 1.07-.54.53-.9 1.25-1.6 1.96-2.14 1.43-1.26 2.87-1.98 2.87-1.98.36 0 .7-.88.36-1.42z" stroke="#000" stroke-opacity="0" stroke-width="2.34" fill="#fff"/><path d="M34.6 34.5s.18 0 0 0" stroke="#222d65" stroke-width="0" fill="#fff"/><path d="M29.62 59.84c1.25-.34 2.14-1.6 1.78-2.86-.36-1.24-1.6-2.15-2.85-1.78l-1.6.54c-.72 0-1.43 0-2.32.17.9-1.6.36-2.14.18-2.48-.7-.9-1.77-.9-3.9 0 2.84-10.55 10.5-10.18 11.4-10.18 1.24.17 2.5-.7 2.67-2.15.17-.38.17-1.1-.18-1.42-.2-.2-1.62-1.82-3.76-3.06.9 0 1.97 0 3.03.17.72.2 1.25-.35 1.43-1.05 0-.37-.18-.74-.36-1.08l-.17-.2c-.18 0-.18-.17-.36-.17-5.52-.9-8.37 1.45-8.37 1.6-.35.38-.53.9-.35 1.43.18.53.53.9 1.24.74.9 0 1.8.16 2.5.53-4.28.7-11.58 3.93-13.9 16.06-.18 1.25.7 2.5 1.96 2.86h.36c.9 0 1.6-.37 1.96-1.08.9-.33 1.42-.7 1.96-.87-.18.34-.54.54-.72.87-.35.37-.35.9-.17 1.45.17.53.7.7 1.24.7h.2c-3.04 2.68-3.75 6.08-3.75 6.24-.18 1.25.53 2.7 1.96 2.86h.54c1.07 0 2.14-.9 2.32-1.95 0 0 0-.37.18-.74.18-1.6 1.6-4.25 5.88-5.16z" stroke="#000" stroke-opacity="0" stroke-width="2.34" fill="#fff"/><path d="M37.84 35.9c.54.55 1.06.9 1.78.9h.54c.88-.18 1.6-.9 1.78-1.78l.9-4.47c.7-4.47 1.06-8.04 1.06-10.35 0-1.1-.18-1.8-.36-2.34-.18-.35-.36-.72-.54-.88-.88-.9-2.48-.9-3.38 0-.54.53-.72 1.25-.72 1.78 0 .18 0 .35.18.53 0 .34.36 2.68-.88 10.35V30c-4.82-2.86-10.18-1.77-12.84-.52-1.26.53-1.78 1.97-1.26 3.22.54 1.25 1.96 1.78 3.22 1.25 0 0 .18 0 .18-.18 1.24-.54 6.6-2.32 10.34 2.13zM45.53 21.46c0 .2.2.2 0 0 .37.2.54.2.7.2.75 0 1.08-.72 1.08-1.43 0-.52-.15-1.08-.15-1.6 1.24 1.24 2.32 3.03 2.86 4.27-.53 1.08-.2 2.3.72 3.03 1.07.72 2.65.56 3.4-.72 0-.15.16-.15.16-.34 1.25 1.43 2.33 3.4 2.33 6.46 0 .68.34 1.6 1.1 1.95.7.52 1.4.52 2.3.36 0 0 5.86-2.15 10.72.16 1.78.9 3.36 2.3 4.44 4.3h-.54c-1.25 0-2.5.88-2.5 2.32 0 1.43.88 2.5 2.33 2.5l1.4.17c1.63.5 5.58 2.14 6.28 7.33-.9-.36-2-.72-3.24-.92-.7-.15-1.25.37-1.42 1.1-.16.7.38 1.23 1.08 1.43 1.58.36 2.87.87 3.57 1.43l.17.16c.37.56.9 1.08 1.62 1.08.87 0 1.78-.72 1.78-1.8.17-5.34-2-8.73-4.48-10.7.2-.55.37-1.27.2-1.78-1.6-5.2-4.48-8.74-8.6-10.54-4.1-1.95-8.53-1.8-11.4-1.27-1.4-7.66-8.05-10.17-8.2-10.33-.9-.36-1.8-.2-2.5.52-1.25-1.8-2.87-3.2-4.82-3.92-.54-.2-1.08 0-1.45.36-.33.36-.33.88 0 1.44.2.3.54 2.1.75 3.9 0 .36.16.52.33.72-.17.16-.17.16 0 .16z" stroke="#000" stroke-opacity="0" stroke-width="2.34" fill="#fff"/><path d="M45.2 21.2l.18.18" stroke="#222d65" stroke-width="0" fill="#fff"/><path d="M76.94 65.5c-.55-.36-1.44-.53-2.15-.2-.18 0-3.05 1.1-7.47 3.58-.38.18-.7.37-1.27.72-.7.37-1.04 1.08-1.04 1.62-1.27 1.43-2.7 2.5-4.48 3.2 0 0-.38.2-1.6.37-.22 0-.38 0-.38.16-1.22-1.42-3.54-2.85-6.4-1.96 0-.35-.17-.72-.4-1.07-.16-.36-.5-.36-.88-.2-.33.2-.33.55-.16.92 0 .17.16.52.16.9 0 .7-1.04 1.4-2.3 1.24-.5 0-1.23-.18-1.6-.55-.18-.17-.57-.54-.57-.9 0-.35.23-.7.4-.9.17-.17.17-.7 0-.88-.17-.18-.72-.18-.88 0-.17.17-.4.7-.56 1.08-1.6-.54-3.9-.54-5.52.7-.16-.18-.55-.35-.88-.53-2.15-.9-2.54-4.48-2.7-5.36v-.35c0-1.42-1.05-2.5-2.32-2.5-1.05 0-2.15.7-2.32 1.8-.33-.55-1.05-.72-1.6-.37-.17 0-2.65 1.6-3.75 4.82-.17.37-.17.72-.17 1.26 0 .72.33 1.26 1.05 1.44h.22c.5 0 1.05-.54 1.2-1.08.4-2.86 2.72-4.12 2.72-4.3.15 0 .15-.16.32-.34.17 2.15 1.1 7.5 5.74 9.46.17 0 .33.2.5.2-.17.88-.17 1.77 0 2.68 0 .52.38.88.88 1.06.55.17 1.1 0 1.27-.35.18.7.56 1.43 1.28 1.6.5.18 1.2 0 1.44-.54 0-.17.16-.35.16-.54.55 1.07 1.22 2.13 2.48 2.33.56 0 1.05-.2 1.27-.72.17-.35.17-.53.34-.9l.55 1.1c.16.33.55.53.88.7h.33c.4 0 .55-.17.72-.37.4-.17.55-.52.72-1.06 0 .18.22.54.38.72.33.33 1.05.53 1.44.16l.32-.35s0-.18.17-.18c0 .37.37.54.54.7.55.2 1.05.2 1.43-.33 0 0 .33-.38.72-.9l.16-.2c.16.55.7.72 1.27.72.5-.17.88-.52.88-1.06v-.9c1.22 1.07 1.6 1.07 2.16.9.33-.18.72-.54.72-.9s.16-.9 0-1.42c1.05-.2 1.38-.36 1.6-.36 3.04-1.1 5.7-3.03 7.45-5.9 2.54-1.44 4.47-2.33 5.58-2.67l2.5 1.6c1.04.72 2.64.36 3.36-.7.55-.72.55-1.6.16-2.34-.16-.18-.16-.35-.33-.52-.17-.2-.34-.37-.56-.37l-3.2-2.68zm-28.2 13.94l-.5-.9c-.17-.55-.72-.72-1.1-.72-.5 0-.9.17-1.4 1.08-.2.35-.38.72-.7 1.26-.23-.54-.4-1.08-.4-1.63v-.17c0-.37-.32-.7-.7-.9-.18-.18-.34-.18-.5-.18-.23 0-.4 0-.56.2 0-.37-.16-.9-.4-1.1-.32-.33-.7-.33-1.2-.16-.22.17-.55.17-.72.54.17-.54.5-1.08.9-1.43.7-.54 1.75-.7 2.64-.54.55 0 1.43.16 1.43.16.22.54 1.27 1.1 2.54 1.26 1.93 0 3.53-.54 3.92-1.43 2.47-.18 4.24 1.6 4.8 2.48v.37h-.73c-.33.17-.55.34-.7.54-.18-.2-.57-.2-.9-.2-.55.2-.88.53-.88.9-.18-.2-.18-.37-.18-.37-.38-.34-.7-.54-1.27-.54-.55.2-.88.53-.88.9 0 .18 0 .35-.22.35-.33-.54-.66-1.06-1.05-1.06-.55-.2-1.43.33-1.6 1.05.33 0 .33 0 .33.2z" stroke="#000" stroke-opacity="0" stroke-width="2.34" fill="#fff"/></g></svg>