<svg xmlns="http://www.w3.org/2000/svg" xmlns:lucid="lucid" width="100" height="100"><g lucid:page-tab-id="0_0" stroke="#000" stroke-opacity="0" stroke-width="2.34"><path d="M50 0C22.4 0 0 22.4 0 50s22.4 50 50 50 50-22.4 50-50S77.6 0 50 0z" fill="#321d71"/><path d="M74.65 23.1H25.4c-1.24 0-2.1 1.02-2.1 2.1v49.4c0 1.24 1.02 2.1 2.1 2.1h49.4c1.24 0 2.1-1.02 2.1-2.1V25.36c0-1.23-1.02-2.25-2.25-2.25zM72.6 72.57H27.44V27.4H72.6v45.17z" fill="#fff"/><path d="M57.76 36.9l1.03.7L61.2 39c1.57.85 2.6 2.78 2.6 4.5v13.8c0 1.9-1.03 3.6-2.6 4.48l-2.4 1.37-.87.7c-1.04.53-1.4 1.9-.87 2.92.35.7 1.2 1.05 1.9 1.05.35 0 .7-.18 1.03-.35l3.46-2.07c2.94-1.72 4.84-4.85 4.84-8.3V43.3c0-3.47-1.9-6.56-4.84-8.28L60 32.95c-1.04-.53-2.42-.18-2.94.84-.7 1.22-.35 2.4.7 3.1zM36.5 65.5l3.44 2.05c.34.18.7.35 1.04.35.68 0 1.54-.35 1.88-1.05.5-1 .17-2.4-.85-2.93L41 63.26l-2.4-1.4C37 61 36 59.1 36 57.4V43.57c0-1.88 1.02-3.6 2.57-4.46l2.4-1.4 1.04-.65c1.03-.52 1.37-1.92.86-2.93-.5-1.05-1.88-1.4-2.92-.88L36.5 35.3c-2.9 1.75-4.8 4.82-4.8 8.27V57.4c0 3.1 1.9 6.35 4.8 8.1z" fill="#fff"/><path d="M45.15 60.2c.34.35 1.03.7 1.55.7s1.02-.17 1.54-.7l8.6-8.6c.88-.88.88-2.27 0-3.13l-8.6-8.62c-.85-.87-2.23-.87-3.1 0-.86.87-.86 2.24 0 3.1l7.07 7.08-7.05 7.07c-.7.87-.7 2.24 0 3.1z" fill="#fff"/></g></svg>