<svg xmlns="http://www.w3.org/2000/svg" xmlns:lucid="lucid" width="100" height="100"><g lucid:page-tab-id="0_0" stroke="#000" stroke-opacity="0" stroke-width="2.34"><path d="M50 0C22.3 0 0 22.3 0 50s22.3 50 50 50 50-22.3 50-50S77.7 0 50 0zm24.5 72.5c0 1.1-.9 2-2 2h-45c-1.1 0-2-.9-2-2v-45c0-1.1.9-2 2-2h45c1.1 0 2 .9 2 2v45z" fill="#321d71"/><path d="M55.16 29.47c6.8 2.5 9.83 8.9 10.53 12.67.36 1.08 2.5 10.52-4.12 20.87-.33.54-.87.92-1.6.92-.38 0-.7-.2-1.08-.38-.9-.53-1.06-1.78-.53-2.48 6.08-9.3 3.74-17.68 3.58-18.05v-.16c0-.37-2.14-10.72-12.5-10.72-3.57 0-6.62 1.08-8.6 3.23-4.1 4.27-3.56 11.6-3.56 11.6 0 1.07-.7 1.94-1.82 1.94-1.07 0-1.93-.7-1.93-1.8 0-.32-.54-8.9 4.64-14.44 1.4-1.6 3.2-2.65 5.33-3.56H29.6v41.03H52.66c-.37-.7-.37-1.58.37-2.1l1.76-1.8c.7-.74 1.97-.74 2.67 0 .74.7.74 1.95 0 2.66l-.33.36-1.1 1.07H70.7V29.27H55.16zM35.3 52.27c.18 0 5.4-.32 5.4-4.08v-3.74c.16-3.06 2.13-8.78 8.75-8.78 6.4 0 8.92 5.55 9.3 8.4.15 1.08-.54 1.95-1.6 2.16-1.12.17-2-.54-2.2-1.6 0-.55-.85-5.2-5.5-5.2-4.64 0-5 4.48-5 5.02v3.73c0 5.86-5.93 7.7-8.97 7.85h-.17c-1.06 0-1.75-.7-1.75-1.78s.7-2 1.76-2zm-.15 7.34l1.97-.15c3.9-.54 6.78-2 8.55-4.47 3.04-4.1 2.14-9.82 2.14-9.98-.16-1.08.58-2 1.65-2.16 1.07-.16 1.93.54 2.14 1.62 0 .33 1.22 7.3-2.9 12.83-2.5 3.4-6.24 5.33-11.25 5.87l-1.97.2h-.17c-.9 0-1.75-.74-1.75-1.6-.2-1.08.53-2.16 1.6-2.16zm16.44 4.8c-.92.93-6.26 5.93-16.3 6.1-1.06 0-1.75-.9-1.75-1.78 0-1.08.86-1.78 1.76-2 8.97 0 13.4-4.62 13.62-4.96l.16-.2s4.1-3.56 5.88-11.06c.2-1.07 1.27-1.6 2.18-1.4 1.07.16 1.6 1.24 1.4 2.1-1.6 8.4-6.05 12.5-6.95 13.2z" fill="#321d71"/><path d="M35.4 56.1c.17 0 .17 0 0 0 3.2-.18 9.1-1.96 9.1-7.87v-3.76c0-.53.34-5.02 5-5.02 4.64 0 5.52 4.65 5.52 5.2.18 1.07 1.08 1.78 2.14 1.62 1.1-.2 1.8-1.08 1.62-2.17-.36-2.85-2.85-8.4-9.28-8.4-6.63 0-8.6 5.73-8.77 8.77v3.76c0 3.75-5.16 4.12-5.34 4.12-1.1 0-1.8.9-1.8 1.95 0 .9.88 1.8 1.8 1.8z" fill="#fff"/><path d="M35.3 63.4h.18l1.97-.18c5-.54 8.73-2.67 11.23-5.9 4.1-5.5 2.84-12.45 2.84-12.82-.18-1.07-1.08-1.6-2.13-1.6-1.08.18-1.8 1.07-1.6 2.13 0 0 .88 5.72-2.16 10-1.78 2.5-4.62 3.92-8.55 4.45l-1.96.17c-1.08.18-1.8 1.1-1.62 2.15 0 .88.9 1.6 1.78 1.6z" fill="#fff"/><path d="M57.4 49.14c-1.07-.2-1.98.35-2.16 1.42-1.6 7.53-5.9 11.1-5.9 11.1l-.17.17c-.17.2-4.64 4.84-13.58 5-1.1 0-1.8.9-1.8 2 0 1.06.88 1.77 1.8 1.77 10 0 15.54-5.18 16.24-6.08.73-.7 5.2-4.84 7.16-13.05 0-1.08-.53-2.15-1.6-2.33z" fill="#fff"/><path d="M72.44 25.5H27.46c-1.08 0-1.96.88-1.96 1.96v44.98c0 1.08.88 1.96 1.96 1.96h44.98c1.08 0 1.96-.88 1.96-1.96V27.46c0-1.08-.88-1.96-1.96-1.96zm-1.95 45H55.82l1.06-1.1.38-.33c.7-.73.7-2 0-2.7-.73-.72-2-.72-2.68 0l-1.8 1.77c-.55.54-.7 1.42-.36 2.15H29.4V29.26h13.94c-2.14.68-3.9 1.95-5.37 3.57-5.13 5.52-4.6 14.08-4.6 14.42 0 1.08.88 1.8 1.96 1.8s1.76-.87 1.76-1.95c0 0-.55-7.32 3.56-11.62 1.95-2.1 4.84-3.18 8.56-3.18 10.36 0 12.52 10.32 12.52 10.7v.15c.2.4 2.3 8.76-3.58 18.05-.53.88-.34 1.95.54 2.5.35.2.7.33 1.08.33.54 0 1.22-.34 1.6-.88 6.6-10.36 4.46-19.8 4.12-20.88-.73-3.76-3.76-10.36-10.56-12.66h15.34v40.9z" fill="#fff"/></g></svg>