<svg xmlns="http://www.w3.org/2000/svg" xmlns:lucid="lucid" width="100" height="100"><g lucid:page-tab-id="0_0" stroke="#000" stroke-opacity="0" stroke-width="2.34"><path d="M100 50c0 27.6-22.4 50-50 50S0 77.6 0 50 22.4 0 50 0s50 22.4 50 50z" fill="#321d71"/><path d="M49.95 21.4c-15.7 0-28.55 12.85-28.55 28.55 0 15.7 12.85 28.55 28.55 28.55 15.7 0 28.55-12.85 28.55-28.55 0-15.7-12.85-28.55-28.55-28.55zm0 42.83c-2.5 0-4.97-.7-6.97-1.95.57-3.6 3.6-6.28 6.97-6.28 3.37 0 6.45 2.7 6.97 6.28-1.95 1.26-4.46 1.95-6.97 1.95zm0-12.34c-2.34 0-4.1-1.78-4.1-4.06 0-2.34 1.76-4.1 4.1-4.1s4.1 1.76 4.1 4.1c0 2.28-1.76 4.05-4.1 4.05zm5.7 1.82c1.44-1.43 2.35-3.6 2.35-5.7 0-4.47-3.77-8.23-8.22-8.23-4.46 0-8.22 3.75-8.22 8.2 0 2.3.9 4.3 2.34 5.72-2.17 1.43-3.94 3.37-4.86 5.88-1.94-2.5-3.36-5.88-3.36-9.65 0-7.82 6.45-14.27 14.27-14.27 7.88 0 14.27 6.45 14.27 14.27 0 3.77-1.42 7.14-3.76 9.65-.86-2.5-2.46-4.63-4.8-5.88zm5.72-18.04c-3.2-2.52-7.14-4.12-11.42-4.12s-8.4 1.43-11.42 4.12l-4.28-4.3c4.28-3.53 9.82-5.7 15.7-5.7 5.88 0 11.6 2.17 15.7 5.7l-4.28 4.3zm-25.7 2.85c-2.5 3.2-4.1 7.14-4.1 11.42s1.42 8.4 4.1 11.42l-4.28 4.28c-3.55-4.28-5.72-9.82-5.72-15.7 0-6.05 2.17-11.6 5.7-15.7l4.3 4.28zm2.86 25.7c3.2 2.5 7.14 4.1 11.42 4.1s8.4-1.42 11.42-4.1l4.28 4.28c-4.28 3.6-9.82 5.72-15.7 5.72-5.88 0-11.6-2.12-15.7-5.7l4.28-4.3zm25.7-2.86c2.5-3.2 4.1-7.14 4.1-11.42s-1.42-8.4-4.1-11.42l4.28-4.28c3.6 4.28 5.72 9.82 5.72 15.7 0 6.05-2.1 11.6-5.7 15.7l-4.3-4.28z" fill="#fff"/></g></svg>