<svg xmlns="http://www.w3.org/2000/svg" xmlns:lucid="lucid" width="100" height="100"><g lucid:page-tab-id="0_0" stroke="#000" stroke-opacity="0" stroke-width="2.34"><path d="M100 50c0 27.6-22.4 50-50 50S0 77.6 0 50 22.4 0 50 0s50 22.4 50 50z" fill="#321d71"/><path d="M89.3 43.94c-1.1-1.06-2.85-1.06-3.95 0l-2.33 2.32C81.27 29.84 67.1 16.8 50.17 16.8c-18.25 0-33.07 14.83-33.07 33.03 0 12.65 7.15 23.7 17.67 29.26 3.06 1.78 8.03 3.9 15.4 3.9 7.3 0 12.34-2.12 15.33-3.9 9.27-5.04 16.06-14.3 17.52-25.16l6.42-6.42c.88-.73.88-2.52-.14-3.58zm-17.9 3.9l6.07 6.1c-.88 6.22-3.94 11.9-8.18 16.02-.74-6.56-4.68-12.12-10.23-15.16 3.58-2.65 6.06-7.15 6.06-11.92 0-8.2-6.8-15.02-14.96-15.02-8.25 0-15.04 6.8-15.04 15.02 0 4.97 2.34 9.27 6.06 11.92-5.7 2.85-9.65 8.4-10.16 15.16-5.18-4.97-8.6-12.12-8.6-20 0-15.3 12.54-27.8 27.87-27.8 13.96 0 25.56 10.33 27.54 23.7l-2.12-2.12c-1.1-1.06-2.85-1.06-3.94 0-1.46 1.26-1.46 3.05-.37 4.1zM40.54 42.9c0-5.23 4.24-9.46 9.42-9.46s9.5 4.23 9.5 9.46c0 5.17-4.32 9.4-9.5 9.4s-9.42-4.1-9.42-9.4zM63.9 72.14v1.6c-1.6 1.25-6.07 3.9-13.73 3.9-7.9 0-12.2-2.65-13.8-3.9v-1.6c0-7.68 6.06-13.77 13.8-13.77 7.66 0 13.72 6.1 13.72 13.77z" fill="#fff"/></g></svg>