<svg xmlns="http://www.w3.org/2000/svg" xmlns:lucid="lucid" width="100" height="100"><g lucid:page-tab-id="0_0" stroke="#000" stroke-opacity="0" stroke-width="2.34"><path d="M100 50c0 27.6-22.4 50-50 50S0 77.6 0 50 22.4 0 50 0s50 22.4 50 50z" fill="#321d71"/><path d="M50 54.8c3.22 0 5.9-2.68 5.9-5.9V35.2c0-3.22-2.68-5.9-5.9-5.9s-5.9 2.68-5.9 5.9v13.7c0 3.4 2.68 5.9 5.9 5.9zm-1.97-19.43c0-1.07.9-1.96 1.97-1.96 1.07 0 1.97.9 1.97 1.97V49.1c0 1.06-.9 1.95-1.97 1.95-1.07 0-1.97-.9-1.97-1.96V35.36z" fill-opacity="0"/><path d="M49.97 58.8c5.36 0 9.83-4.3 9.83-9.84V35.2v-.87c-.18-5.38-4.82-9.67-10.18-9.3-5.36.17-9.65 4.8-9.3 10.18v13.76c-.18 5.55 4.3 9.84 9.65 9.84zm-5.9-23.42c0-3.2 2.68-5.88 5.9-5.88s5.9 2.67 5.9 5.88v13.75c0 3.25-2.68 5.92-5.9 5.92s-5.9-2.67-5.9-5.92V35.38z" fill="#fff"/><path d="M49.96 50.86c0 .2 0 .2 0 0 1.08 0 1.97-.9 1.97-1.96V35.16c0-1.07-.9-1.96-1.97-1.96-1.07 0-1.96.9-1.96 1.96V48.9c0 1.25.9 1.96 1.96 1.96z" fill="#fff"/><path d="M65.7 45.2c-1.04 0-1.76.9-1.76 1.78v1.97c0 7.7-6.27 13.74-13.74 13.74-7.47 0-13.74-6.24-13.74-13.75v-1.97c0-1.05-.9-1.78-1.76-1.78-.9 0-1.8.9-1.8 1.78v1.97c0 8.94 6.78 16.42 15.5 17.32v4.1h-4.8c-1.08 0-1.95.9-1.95 1.98 0 1.05.87 1.95 1.94 1.95H56.8c1.08 0 1.95-.9 1.95-1.95 0-1.08-.87-1.98-1.94-1.98H52v-4.1c8.72-1.08 15.5-8.38 15.5-17.32v-1.97c0-.88-.9-1.78-1.8-1.78z" fill="#fff"/></g></svg>